<svg width="163" height="130" viewBox="0 0 163 130" fill="none" xmlns="http://www.w3.org/2000/svg">
<g clip-path="url(#clip0)">
<path d="M121.592 128.438C119.336 126.524 117.965 123.501 118.325 120.559C118.684 117.616 120.91 114.911 123.797 114.286C126.685 113.661 129.976 115.391 130.853 118.222C131.336 112.764 131.892 107.077 134.783 102.429C137.401 98.2197 141.936 95.2082 146.85 94.6694C151.764 94.1306 156.938 96.1655 160.002 100.059C163.067 103.952 163.818 109.611 161.671 114.081C160.09 117.373 157.177 119.824 154.124 121.817C144.261 128.205 132.432 130.802 120.813 129.132" fill="#F2F2F2"/>
<path d="M155.143 96.2782C151.088 99.5931 147.369 103.301 144.037 107.347C138.824 113.658 134.606 120.734 131.529 128.327C131.304 128.881 132.2 129.123 132.423 128.575C137.457 116.233 145.494 105.355 155.798 96.936C156.261 96.5578 155.602 95.9031 155.143 96.2782Z" fill="white"/>
<path d="M39.8515 129.748H27.0559C26.6235 129.748 26.209 129.575 25.9032 129.268C25.5975 128.962 25.4255 128.546 25.425 128.112V101.418C25.4255 100.984 25.5975 100.568 25.9032 100.261C26.209 99.9544 26.6235 99.7817 27.0559 99.7812H39.8515C40.2839 99.7817 40.6984 99.9544 41.0041 100.261C41.3098 100.568 41.4818 100.984 41.4823 101.418V128.112C41.4818 128.546 41.3098 128.962 41.0041 129.268C40.6984 129.575 40.2839 129.748 39.8515 129.748Z" fill="#CB202D"/>
<path d="M70.2098 129.999H57.4142C56.9153 129.998 56.437 129.799 56.0842 129.445C55.7315 129.091 55.533 128.611 55.5325 128.11V76.2344C55.533 75.7337 55.7315 75.2536 56.0842 74.8995C56.437 74.5454 56.9153 74.3463 57.4142 74.3457H70.2098C70.7087 74.3463 71.187 74.5454 71.5398 74.8995C71.8925 75.2536 72.091 75.7337 72.0915 76.2344V128.11C72.091 128.611 71.8925 129.091 71.5398 129.445C71.187 129.799 70.7087 129.998 70.2098 129.999ZM57.4142 74.8494C57.0483 74.8498 56.6976 74.9958 56.4389 75.2555C56.1802 75.5151 56.0347 75.8672 56.0343 76.2344V128.11C56.0347 128.478 56.1802 128.83 56.4389 129.089C56.6976 129.349 57.0483 129.495 57.4142 129.495H70.2098C70.5756 129.495 70.9264 129.349 71.1851 129.089C71.4438 128.83 71.5893 128.478 71.5897 128.11V76.2344C71.5893 75.8672 71.4438 75.5151 71.1851 75.2555C70.9264 74.9958 70.5756 74.8498 70.2098 74.8494H57.4142Z" fill="#3F3D56"/>
<path d="M100.568 130H87.7723C87.2734 129.999 86.7952 129.8 86.4424 129.446C86.0896 129.092 85.8912 128.612 85.8906 128.111V43.2461C85.8912 42.7454 86.0896 42.2653 86.4424 41.9112C86.7952 41.5571 87.2734 41.358 87.7723 41.3574H100.568C101.067 41.358 101.545 41.5571 101.898 41.9112C102.251 42.2653 102.449 42.7454 102.45 43.2461V128.111C102.449 128.612 102.251 129.092 101.898 129.446C101.545 129.8 101.067 129.999 100.568 130ZM87.7723 41.8611C87.4065 41.8615 87.0557 42.0075 86.797 42.2672C86.5383 42.5269 86.3928 42.8789 86.3924 43.2461V128.111C86.3928 128.478 86.5383 128.83 86.797 129.09C87.0557 129.35 87.4065 129.496 87.7723 129.496H100.568C100.934 129.496 101.285 129.35 101.543 129.09C101.802 128.83 101.947 128.478 101.948 128.111V43.2461C101.947 42.8789 101.802 42.5269 101.543 42.2672C101.285 42.0075 100.934 41.8615 100.568 41.8611H87.7723Z" fill="#3F3D56"/>
<path d="M131.21 129.873H118.414C117.982 129.872 117.567 129.7 117.261 129.393C116.956 129.086 116.784 128.67 116.783 128.236V8.61928C116.784 8.18532 116.956 7.76926 117.261 7.4624C117.567 7.15554 117.982 6.98292 118.414 6.98242H131.21C131.642 6.98292 132.057 7.15554 132.362 7.4624C132.668 7.76926 132.84 8.18532 132.84 8.61928V128.236C132.84 128.67 132.668 129.086 132.362 129.393C132.057 129.7 131.642 129.872 131.21 129.873Z" fill="#CB202D"/>
<path d="M51.6289 55.9951C51.6753 55.6279 51.6409 55.2549 51.5282 54.9024C51.4154 54.5499 51.2271 54.2265 50.9763 53.955C50.7256 53.6835 50.4186 53.4705 50.077 53.3309C49.7354 53.1914 49.3674 53.1287 48.999 53.1473L44.539 44.9355L43.5354 48.4611L46.591 55.9871C46.6632 56.6061 46.9592 57.1771 47.4228 57.5918C47.8864 58.0065 48.4854 58.2361 49.1064 58.2371C49.7274 58.2381 50.3271 58.0104 50.7921 57.5972C51.257 57.184 51.5547 56.614 51.6289 55.9951V55.9951Z" fill="#A0616A"/>
<path d="M17.2656 88.4187L19.7497 90.2392L27.9276 81.4875L24.2611 78.8008L17.2656 88.4187Z" fill="#A0616A"/>
<path d="M22.8567 96.0644L15.0489 90.3432L17.2512 87.3153L22.0424 90.8261C22.8424 91.4124 23.3777 92.2936 23.5304 93.276C23.6831 94.2584 23.4408 95.2614 22.8567 96.0645L22.8567 96.0644Z" fill="#2F2E41"/>
<path d="M30.4087 98.055L33.4847 98.0548L34.9479 86.1465L30.4082 86.1467L30.4087 98.055Z" fill="#A0616A"/>
<path d="M39.4167 100.922L29.7496 100.922L29.7494 97.1735L35.6815 97.1732C36.6721 97.1731 37.6222 97.5681 38.3227 98.2711C39.0231 98.9741 39.4167 99.9276 39.4167 100.922Z" fill="#2F2E41"/>
<path d="M39.6465 51.6093C39.6465 51.6093 41.1519 66.2151 37.3885 76.2881L34.6286 95.4268H29.8617L30.3634 72.7626L28.6072 52.6166C28.6072 52.6166 32.1197 43.5509 39.6465 51.6093Z" fill="#2F2E41"/>
<path d="M23.3385 52.6163L28.3564 69.9922L18.5715 85.6054L23.464 89.7605L34.6288 72.2586L31.3672 50.8535L23.3385 52.6163Z" fill="#2F2E41"/>
<path d="M36.1351 13.6534C39.5384 13.6534 42.2974 10.8842 42.2974 7.46828C42.2974 4.05236 39.5384 1.2832 36.1351 1.2832C32.7318 1.2832 29.9729 4.05236 29.9729 7.46828C29.9729 10.8842 32.7318 13.6534 36.1351 13.6534Z" fill="#A0616A"/>
<path d="M30.9907 15.9753C30.9907 15.9753 34.7541 13.4571 39.0193 18.9972L40.1483 53.875C40.1483 53.875 36.8867 49.3421 30.1126 53.6232C23.3384 57.9042 21.833 53.1195 21.833 53.1195C21.833 53.1195 17.066 17.1085 30.9907 15.9753Z" fill="#CCCCCC"/>
<path d="M38.7159 18.9088C39.7983 18.9675 40.8208 19.4259 41.5867 20.1958C42.3526 20.9656 42.8079 21.9926 42.8649 23.0791L43.661 38.2613L48.9298 52.6153L45.919 55.1336L36.1341 38.0095L34.1308 23.9342C34.039 23.2891 34.0908 22.6315 34.2826 22.0089C34.4743 21.3863 34.8012 20.8141 35.2397 20.3335C35.6781 19.8529 36.2173 19.4758 36.8184 19.2295C37.4195 18.9831 38.0675 18.8736 38.7159 18.9088Z" fill="#CCCCCC"/>
<path d="M31.6072 12.1068C32.6146 13.1839 34.4855 12.6057 34.6168 11.1343C34.6271 11.02 34.6263 10.9051 34.6145 10.791C34.5468 10.1392 34.1716 9.54743 34.2615 8.85923C34.2818 8.68795 34.3454 8.52472 34.4462 8.38501C35.2489 7.30604 37.1334 8.86761 37.891 7.89085C38.3556 7.29192 37.8095 6.34894 38.166 5.67953C38.6365 4.79603 40.0302 5.23186 40.9042 4.74801C41.8766 4.20967 41.8184 2.7122 41.1783 1.80136C40.3977 0.690561 39.029 0.0978267 37.6773 0.0123951C36.3257 -0.0730366 34.9834 0.293706 33.7215 0.787298C32.2877 1.34811 30.866 2.12318 29.9837 3.38855C28.9107 4.92739 28.8074 6.9962 29.344 8.79557C29.6705 9.89015 30.7845 11.2273 31.6072 12.1068Z" fill="#2F2E41"/>
<path d="M162.701 129.893H0.298845C0.219765 129.892 0.144 129.861 0.0881633 129.805C0.0323263 129.748 0.000976562 129.672 0.000976562 129.593C0.000976562 129.513 0.0323263 129.437 0.0881633 129.381C0.144 129.325 0.219765 129.293 0.298845 129.293H162.701C162.78 129.293 162.856 129.325 162.912 129.381C162.968 129.437 162.999 129.513 162.999 129.593C162.999 129.672 162.968 129.748 162.912 129.805C162.856 129.861 162.78 129.892 162.701 129.893Z" fill="#3F3D56"/>
</g>
<defs>
<clipPath id="clip0">
<rect width="163" height="130" fill="white"/>
</clipPath>
</defs>
</svg>
