<svg width="62" height="62" viewBox="0 0 62 62" fill="none" xmlns="http://www.w3.org/2000/svg">
<path fill-rule="evenodd" clip-rule="evenodd" d="M30.991 0.175476L32.564 0.210674L34.1185 0.334175L35.6736 0.528694L37.1935 0.79361L38.6948 1.14745L40.1443 1.57168L41.5753 2.04902L42.989 2.61466L44.3497 3.2328L45.6924 3.90466L46.9647 4.66482L48.2191 5.46018L49.4384 6.32594L50.5866 7.22751L51.7003 8.19948L52.7776 9.22456L53.803 10.2854L54.7568 11.3988L55.676 12.5653L56.5415 13.767L57.3366 15.0218L58.0787 16.3124L58.7682 17.6382L59.3862 19.0165L59.9344 20.4127L60.4289 21.8447L60.8351 23.3113L61.1888 24.8138L61.4537 26.3341L61.6481 27.8717L61.7716 29.4272L61.8247 31L61.7716 32.5735L61.6481 34.1284L61.4537 35.6839L61.1888 37.2042L60.8351 38.6887L60.4289 40.1559L59.9344 41.5873L59.3862 42.9835L58.7682 44.3625L58.0787 45.6876L57.3366 46.9783L56.5415 48.233L55.676 49.4347L54.7568 50.6012L53.803 51.7152L52.7776 52.7928L51.7003 53.8006L50.5866 54.7725L49.4384 55.692L48.2191 56.5399L46.9647 57.3531L45.6924 58.0954L44.3497 58.7852L42.989 59.4033L41.5753 59.9517L40.1443 60.4284L38.6948 60.8526L37.1935 61.2064L35.6736 61.4714L34.1364 61.6659L32.564 61.7894L30.991 61.8252L29.4187 61.7894L27.8457 61.6659L26.3085 61.4714L24.8065 61.2064L23.3224 60.8526L21.8384 60.4284L20.4067 59.9517L19.0109 59.4033L17.6503 58.7852L16.3255 58.0954L15.0353 57.3531L13.7808 56.5399L12.5795 55.692L11.4133 54.7725L10.2824 53.8006L9.22179 52.7928L8.21491 51.7152L7.22531 50.6012L6.324 49.4347L5.45849 48.233L4.66335 46.9783L3.92131 45.6876L3.23174 44.3625L2.61378 42.9835L2.06559 41.5873L1.5711 40.1559L1.14699 38.6887L0.811153 37.2042L0.528411 35.6839L0.333949 34.1284L0.210481 32.5735L0.175293 31L0.210481 29.4272L0.333949 27.8717L0.528411 26.3341L0.811153 24.8138L1.14699 23.3113L1.5711 21.8447L2.06559 20.4127L2.61378 19.0165L3.23174 17.6382L3.92131 16.3124L4.66335 15.0218L5.45849 13.767L6.324 12.5653L7.22531 11.3988L8.21491 10.2854L9.22179 9.22456L10.2824 8.19948L11.4133 7.22751L12.5795 6.32594L13.7808 5.46018L15.0353 4.66482L16.3255 3.90466L17.6503 3.2328L19.0109 2.61466L20.4067 2.04902L21.8384 1.57168L23.3224 1.14745L24.8065 0.79361L26.3085 0.528694L27.8457 0.334175L29.4187 0.210674L30.991 0.175476Z" fill="white" stroke="#383336" stroke-width="0.216" stroke-miterlimit="2.61313"/>
<path fill-rule="evenodd" clip-rule="evenodd" d="M54.2339 29.9986C54.7512 29.9986 55.1827 30.413 55.1827 30.9477C55.1827 31.4658 54.7512 31.8975 54.2339 31.8975C53.6987 31.8975 53.2844 31.4658 53.2844 30.9477C53.2844 30.413 53.6987 29.9986 54.2339 29.9986Z" fill="#0D0F8C" stroke="#383336" stroke-width="0.216" stroke-miterlimit="2.61313"/>
<path fill-rule="evenodd" clip-rule="evenodd" d="M7.80066 29.9986C8.33589 29.9986 8.74951 30.413 8.74951 30.9477C8.74951 31.4658 8.33589 31.8975 7.80066 31.8975C7.28333 31.8975 6.85181 31.4658 6.85181 30.9477C6.85181 30.413 7.28333 29.9986 7.80066 29.9986Z" fill="#0D0F8C" stroke="#383336" stroke-width="0.216" stroke-miterlimit="2.61313"/>
<path fill-rule="evenodd" clip-rule="evenodd" d="M6.29932 33.348L8.93968 33.0201L8.88782 32.5718L9.47429 32.4854L9.66444 34.0038L9.06068 34.073L9.00882 33.6247L6.36846 33.9353L6.29932 33.348ZM6.47217 34.9881L9.66444 34.3151L9.78482 34.8844L8.61187 35.1431L8.74954 35.7817L9.9231 35.5402L10.0441 36.1268L6.85184 36.7999L6.73084 36.2133L8.12849 35.92L7.99021 35.2642L6.59317 35.5575L6.47217 34.9881ZM7.07593 37.5076L10.2163 36.6622L10.5441 37.8701L9.95767 38.0257L9.78482 37.3699L9.14649 37.5422L9.30206 38.1295L8.73225 38.2844L8.5773 37.6978L7.83526 37.8874L8.0075 38.5432L7.38645 38.7161L7.07593 37.5076ZM8.11121 40.4593L11.0794 39.1304L11.338 39.6825L9.97496 40.9601C9.9231 40.9941 9.85396 41.046 9.76753 41.1324C9.66444 41.2016 9.56072 41.288 9.43972 41.3912C9.62986 41.2708 9.81939 41.167 9.99224 41.0806C10.1472 40.9768 10.3201 40.9083 10.475 40.8391L11.614 40.321L11.8381 40.8391L8.85325 42.1507L8.62916 41.6505L10.0268 40.3037C10.0614 40.2871 10.1472 40.2179 10.3028 40.0969C10.3719 40.045 10.4404 39.9931 10.475 39.9585C10.3719 40.0277 10.2336 40.0969 10.0953 40.166C9.95767 40.2352 9.78482 40.321 9.57801 40.4075L8.31863 40.9601L8.11121 40.4593ZM9.2502 42.7892L12.1147 41.2016L12.7184 42.3063L12.1832 42.5997L11.8554 42.013L11.2862 42.3236L11.5794 42.8584L11.0621 43.1517L10.7682 42.6169L10.0953 42.9794L10.4238 43.5834L9.87124 43.894L9.2502 42.7892ZM12.7876 42.4095L13.1327 42.9103L12.0455 43.9285C11.9591 44.015 11.8381 44.1181 11.7177 44.2219C11.5967 44.3256 11.459 44.446 11.2862 44.5671L13.5296 43.4796L13.8228 43.8767L12.0282 45.6199C12.1492 45.5335 12.2696 45.4476 12.3906 45.3785C12.5283 45.292 12.6666 45.2229 12.8048 45.1543L14.2025 44.4294L14.5476 44.9123L11.5276 46.293L11.2343 45.8614L12.5283 44.5843C12.5801 44.5152 12.6666 44.446 12.753 44.3602C12.8567 44.2737 12.9598 44.1873 13.0808 44.1008C12.9425 44.1873 12.8221 44.2564 12.7011 44.3083C12.5974 44.3775 12.5116 44.4294 12.4425 44.446L10.7682 45.2229L10.4577 44.7745L12.7876 42.4095ZM13.1154 47.9844L15.5137 45.7755L15.928 46.2066L13.5296 48.4333L13.1154 47.9844ZM14.1161 48.9687L16.2558 46.5005L16.7046 46.8976L16.0138 48.6235C15.9798 48.6748 15.9453 48.7612 15.8934 48.865C15.8415 48.9687 15.7897 49.1064 15.7033 49.2447C15.8415 49.0546 15.9625 48.8823 16.0656 48.7266C16.1866 48.5717 16.3076 48.4333 16.4107 48.295L17.2392 47.3632L17.6534 47.7257L15.5137 50.1766L15.0995 49.8141L15.7897 48.0017C15.807 47.9844 15.8588 47.8813 15.9453 47.7084C15.9965 47.6219 16.0311 47.5534 16.0483 47.5015C15.9798 47.6219 15.8934 47.7257 15.7897 47.8467C15.686 47.9844 15.5656 48.1227 15.4273 48.295L14.5303 49.3312L14.1161 48.9687ZM16.9805 50.5045L17.0151 50.5218C17.1873 50.6601 17.3602 50.6774 17.5497 50.6082C17.7565 50.5218 17.9467 50.3495 18.1362 50.0901C18.3436 49.7968 18.4473 49.5554 18.464 49.3479C18.4813 49.1583 18.3955 48.9854 18.2226 48.8477L18.188 48.8304L16.9805 50.5045ZM16.1348 50.6428L18.0504 48.0017L18.464 48.295C18.8437 48.5717 19.0511 48.8823 19.0684 49.2447C19.1029 49.5899 18.9474 49.987 18.6196 50.4353C18.43 50.6947 18.2399 50.9015 18.0331 51.0399C17.843 51.1603 17.6189 51.2294 17.3941 51.2467C17.2565 51.264 17.1182 51.2467 16.9978 51.1949C16.8595 51.143 16.7046 51.0572 16.4972 50.9015L16.1348 50.6428ZM18.2399 52.0581L19.9308 49.262L20.4487 49.5726L18.7751 52.3688L18.2399 52.0581ZM20.4487 52.0409L20.8111 52.2304C20.8796 52.0063 20.9488 51.7815 21.0352 51.5401C21.1216 51.2986 21.2081 51.0572 21.3112 50.7978C21.1735 51.0053 21.0352 51.2122 20.8969 51.419C20.742 51.6265 20.6037 51.8334 20.4487 52.0409ZM19.2579 52.6448L21.3457 50.0555L21.9155 50.3322L21.0179 53.542L20.4833 53.2833L20.6556 52.7312L20.1209 52.4552L19.7758 52.9208L19.2579 52.6448ZM23.4682 53.2833L23.8305 53.4216C23.8824 53.1796 23.917 52.9554 23.9861 52.714C24.0373 52.4552 24.0892 52.1959 24.1756 51.9371C24.0546 52.1613 23.9342 52.3688 23.8305 52.5929C23.7095 52.8171 23.5892 53.0591 23.4682 53.2833ZM22.3464 54.0256L24.1238 51.1949L24.7102 51.4023L24.2102 54.6987L23.6583 54.4918L23.7441 53.9218L23.1922 53.7149L22.899 54.2324L22.3464 54.0256ZM24.6763 54.6468L24.8312 53.9737C24.8831 54.0774 24.9522 54.1466 25.0041 54.1985C25.0726 54.2497 25.1418 54.2843 25.2109 54.3016C25.3146 54.3189 25.4004 54.3189 25.4696 54.267C25.5387 54.2324 25.5906 54.1639 25.6079 54.0601C25.6424 53.9391 25.5906 53.7841 25.4696 53.6112C25.435 53.5593 25.4177 53.5248 25.4004 53.4902C25.2628 53.2833 25.1763 53.0937 25.159 52.9381C25.1245 52.7831 25.1245 52.6275 25.1763 52.4379C25.2455 52.1786 25.3665 51.9717 25.5387 51.8334C25.7289 51.6957 25.9357 51.6611 26.1598 51.713C26.2462 51.7475 26.3153 51.7815 26.4018 51.8161C26.4703 51.868 26.5394 51.9198 26.6086 52.0063L26.4703 52.5583C26.3845 52.4719 26.3153 52.4206 26.2635 52.3861C26.2116 52.3515 26.1598 52.3342 26.1252 52.3169C26.0394 52.2996 25.9702 52.3169 25.9011 52.3515C25.8319 52.4033 25.7801 52.4719 25.7634 52.5583C25.7461 52.6448 25.7461 52.714 25.7634 52.8004C25.7801 52.8862 25.8492 53.0073 25.9702 53.1796C26.1085 53.4216 26.1943 53.5939 26.2289 53.7322C26.2462 53.8699 26.2462 54.0256 26.1943 54.1812C26.1252 54.4745 26.0048 54.6814 25.8147 54.8197C25.6251 54.9401 25.4004 54.9747 25.1418 54.9061C25.0387 54.8888 24.9522 54.8543 24.8658 54.8024C24.7967 54.7678 24.7275 54.6987 24.6763 54.6468ZM26.5221 55.0438L26.6431 54.3707C26.695 54.4572 26.7641 54.5264 26.8327 54.5776C26.9018 54.6295 26.9709 54.6641 27.0401 54.6641C27.1265 54.6987 27.2123 54.6814 27.2815 54.6295C27.3506 54.5776 27.4025 54.5091 27.4197 54.4226C27.437 54.3016 27.3852 54.1466 27.2642 53.9737C27.2296 53.9218 27.195 53.8872 27.1777 53.8699C27.0401 53.6458 26.9537 53.4735 26.9018 53.3179C26.8672 53.1629 26.8672 53.0073 26.9018 52.8171C26.9537 52.541 27.0574 52.3342 27.2469 52.1959C27.4197 52.0581 27.6266 52.0063 27.8513 52.0581C27.9371 52.0581 28.0062 52.0927 28.0926 52.144C28.1618 52.1786 28.2303 52.2304 28.3167 52.2996L28.213 52.8689C28.1099 52.8004 28.0408 52.7485 27.9889 52.714C27.9371 52.6794 27.8852 52.6621 27.834 52.6448C27.7648 52.6275 27.6784 52.6448 27.6093 52.6967C27.5574 52.7485 27.5056 52.8171 27.4889 52.9035C27.4716 52.99 27.4889 53.0764 27.5056 53.1456C27.5401 53.2314 27.6093 53.3525 27.7303 53.5248C27.8852 53.7495 27.9889 53.9218 28.0235 54.0601C28.0581 54.1812 28.0581 54.3362 28.0235 54.5091C27.9544 54.8024 27.834 55.0266 27.6611 55.1649C27.4716 55.3026 27.2469 55.3372 26.9882 55.2853C26.8845 55.268 26.7987 55.2513 26.7296 55.1995C26.6431 55.1649 26.574 55.113 26.5221 55.0438ZM30.5602 52.3342L30.3873 54.3707C30.3527 54.6295 30.3354 54.8024 30.3182 54.9061C30.3009 55.0093 30.2669 55.0957 30.2323 55.1649C30.1459 55.3026 30.0249 55.4063 29.8873 55.4755C29.7317 55.5446 29.5594 55.5619 29.352 55.5446C29.1279 55.5274 28.9551 55.4755 28.8174 55.389C28.6964 55.3026 28.5927 55.1649 28.5408 55.0093C28.5069 54.9401 28.5069 54.8543 28.4896 54.7332C28.4896 54.6295 28.5069 54.4572 28.5242 54.2151V54.112L28.6964 52.1613L29.3002 52.2131L29.1106 54.3189C29.0934 54.5776 29.0934 54.7505 29.1452 54.837C29.1798 54.9228 29.2656 54.9574 29.3866 54.9747C29.5249 54.992 29.6107 54.9574 29.6625 54.8716C29.7317 54.8024 29.7663 54.6295 29.7835 54.3707L29.9731 52.2823L30.5602 52.3342ZM31.5263 53.7149C31.5436 53.7149 31.5436 53.7149 31.5609 53.7149C31.5781 53.7149 31.5954 53.7149 31.5954 53.7149C31.7331 53.7149 31.8195 53.6631 31.8887 53.5766C31.9405 53.5075 31.9751 53.387 31.9751 53.2314C31.9578 53.0764 31.9232 52.9554 31.8714 52.8862C31.8022 52.8171 31.7158 52.7831 31.5781 52.8004C31.5609 52.8004 31.5436 52.8004 31.5263 52.8004C31.5263 52.8004 31.509 52.8004 31.4917 52.8004L31.5263 53.7149ZM31.0083 55.5792L30.9052 52.3169L31.5263 52.2996C31.8714 52.2823 32.1128 52.3515 32.2683 52.4892C32.4233 52.6275 32.5097 52.8517 32.527 53.1796C32.527 53.4043 32.5097 53.5939 32.4233 53.7495C32.3548 53.8872 32.2338 53.991 32.0782 54.0428L32.7171 55.5101L32.0782 55.5446L31.5436 54.2151L31.5954 55.5619L31.0083 55.5792ZM33.6314 54.3189L34.0284 54.2843C33.9592 54.0601 33.8901 53.8187 33.8209 53.5766C33.7691 53.3352 33.7006 53.0764 33.6487 52.8004C33.6487 53.0591 33.6487 53.3006 33.6314 53.5593C33.6314 53.8014 33.6314 54.0601 33.6314 54.3189ZM32.9758 55.4928L33.269 52.1786L33.8901 52.0927L34.9426 55.2513L34.3389 55.3199L34.1833 54.7678L33.5796 54.837L33.5623 55.4236L32.9758 55.4928ZM35.4433 55.1649L34.7013 51.989L35.305 51.8507L36.2884 53.4216C36.3057 53.4735 36.3576 53.5593 36.4094 53.6631C36.4786 53.7668 36.5304 53.8872 36.6163 54.0428C36.5304 53.8187 36.4613 53.6285 36.4094 53.4389C36.3403 53.2487 36.2884 53.0764 36.2539 52.9208L35.9779 51.6957L36.5132 51.5746L37.2552 54.7505L36.7027 54.8716L35.6674 53.2487C35.6501 53.2141 35.5983 53.111 35.4946 52.9381C35.4606 52.8517 35.426 52.7831 35.4087 52.7485C35.4433 52.8689 35.4946 53.0073 35.5297 53.1456C35.5637 53.3006 35.6155 53.4902 35.6674 53.6977L35.9779 55.0438L35.4433 55.1649ZM39.3943 54.0601C39.3597 54.0947 39.3085 54.1293 39.2566 54.1639C39.2048 54.1985 39.1529 54.2151 39.101 54.2497C38.7387 54.3707 38.3936 54.3189 38.0658 54.112C37.738 53.9045 37.4966 53.5766 37.341 53.111C37.1688 52.6275 37.1515 52.1959 37.2719 51.8334C37.3929 51.4536 37.6343 51.2122 37.9793 51.0911C38.0485 51.0572 38.1176 51.0399 38.1695 51.0399C38.2386 51.0399 38.2899 51.0399 38.359 51.0399L38.5664 51.6092C38.4973 51.6092 38.4282 51.6092 38.3763 51.6265C38.3244 51.6265 38.2732 51.6438 38.2213 51.6611C38.0312 51.713 37.9108 51.868 37.859 52.0754C37.8071 52.2996 37.8244 52.5583 37.9281 52.8689C38.0312 53.1629 38.1695 53.3698 38.359 53.5075C38.5319 53.6458 38.7214 53.6804 38.9115 53.6112C38.9634 53.5939 39.0146 53.5766 39.0492 53.542C39.101 53.5075 39.1356 53.4735 39.1875 53.4389L39.3943 54.0601ZM40.0159 53.8533L38.7905 50.8151L39.9641 50.3495L40.1882 50.9188L39.5499 51.1603L39.7912 51.7815L40.3783 51.5401L40.6024 52.0927L40.0159 52.3342L40.3092 53.0419L40.9475 52.7831L41.1716 53.3698L40.0159 53.8533ZM44.1916 51.713C44.1571 51.7648 44.1052 51.7988 44.0706 51.8507C44.0188 51.8852 43.9842 51.9198 43.9324 51.9544C43.6045 52.144 43.2594 52.1786 42.8971 52.0409C42.5347 51.9025 42.2242 51.6265 41.9828 51.2122C41.7068 50.7805 41.6031 50.3662 41.6377 49.9697C41.6723 49.5899 41.8618 49.2966 42.1896 49.1064C42.2415 49.0546 42.2933 49.0373 42.3625 49.02C42.4143 48.9854 42.4835 48.9854 42.5347 48.9687L42.8625 49.5035C42.794 49.5035 42.7421 49.5208 42.6903 49.5381C42.6384 49.5554 42.5866 49.5726 42.5347 49.6072C42.3625 49.7104 42.276 49.866 42.276 50.0901C42.2587 50.3322 42.3452 50.5736 42.5001 50.8497C42.6557 51.1084 42.8452 51.2986 43.0526 51.3851C43.2594 51.4882 43.4496 51.4882 43.6218 51.3851C43.6564 51.3505 43.7083 51.3159 43.7428 51.2813C43.7774 51.2467 43.812 51.1949 43.8465 51.143L44.1916 51.713ZM45.1923 50.3841C45.3127 50.2976 45.3646 50.1593 45.3127 49.9697C45.2782 49.7968 45.1578 49.5554 44.9503 49.2793C44.7435 48.9854 44.554 48.7958 44.3812 48.6921C44.2262 48.6062 44.0879 48.6062 43.9496 48.6921C43.8293 48.7785 43.7947 48.9168 43.8293 49.1064C43.8805 49.2793 44.0015 49.5208 44.2089 49.8141C44.4157 50.0901 44.6053 50.2803 44.7608 50.3841C44.9331 50.4699 45.0713 50.4872 45.1923 50.3841ZM45.451 48.9514C45.7442 49.3652 45.8998 49.7449 45.9171 50.0901C45.9344 50.4353 45.8134 50.712 45.5547 50.8843C45.2954 51.0911 45.0022 51.1257 44.6744 50.988C44.3466 50.867 44.0361 50.5909 43.7255 50.1593C43.415 49.7276 43.2594 49.3479 43.2249 49.0027C43.2076 48.6402 43.3286 48.3815 43.5873 48.1919C43.8638 47.9844 44.1571 47.9671 44.4849 48.1054C44.8127 48.2438 45.1405 48.5198 45.451 48.9514ZM46.7795 49.9351L44.7262 47.3805L45.2782 46.8457L46.2622 47.6392C46.3999 47.7602 46.5381 47.8813 46.6758 47.9844C46.8141 48.1054 46.9351 48.2265 47.0555 48.3296C46.8832 48.1054 46.7277 47.9331 46.6246 47.7948C46.5209 47.6565 46.4517 47.5707 46.3999 47.5015L45.6751 46.4659L46.2276 45.9478L48.6778 48.1227L48.229 48.5371L47.1419 47.4842C47.1073 47.4669 47.0728 47.4323 47.0209 47.3805C46.7277 47.1044 46.5036 46.8803 46.3307 46.6901L47.8839 48.865L47.5734 49.1756L45.451 47.5015C45.6066 47.6738 45.8307 47.8986 46.0893 48.2265C46.1585 48.295 46.1931 48.3469 46.2276 48.3815L47.211 49.5208L46.7795 49.9351ZM48.0908 46.017C48.108 46.017 48.108 46.017 48.1253 45.9997C48.1253 45.9824 48.1426 45.9824 48.1426 45.9824C48.229 45.8787 48.2636 45.7755 48.2463 45.6718C48.229 45.5681 48.1599 45.4822 48.0562 45.3785C47.9358 45.2747 47.8321 45.2229 47.7284 45.2229C47.6253 45.2229 47.5388 45.2747 47.4524 45.3785L47.4351 45.3958C47.4179 45.4131 47.4179 45.4131 47.4179 45.4303L48.0908 46.017ZM49.1087 47.6738L46.6585 45.5335L47.0555 45.0679C47.2802 44.8085 47.487 44.6708 47.7111 44.6535C47.9358 44.6362 48.1772 44.74 48.4186 44.9468C48.6433 45.1543 48.7637 45.3612 48.7982 45.5853C48.8155 45.8101 48.7464 46.0343 48.5568 46.2411C48.5396 46.2757 48.5223 46.293 48.505 46.3103C48.4877 46.3276 48.4877 46.3276 48.4704 46.3449L49.4884 47.2255L49.1087 47.6738ZM49.8681 45.137L50.0928 44.8085C49.8681 44.7054 49.6613 44.6016 49.4372 44.4979C49.2125 44.3775 48.9711 44.2564 48.7297 44.1181C48.9192 44.291 49.1087 44.446 49.2989 44.6189C49.4884 44.7918 49.6786 44.9641 49.8681 45.137ZM50.3169 46.3968L48.0049 43.9977L48.35 43.4796L51.4213 44.7573L51.0935 45.2402L50.5583 44.9987L50.2304 45.4989L50.6447 45.896L50.3169 46.3968ZM51.7491 44.3429L48.9192 42.7201L49.2297 42.1853L51.0416 42.5478C51.1108 42.5651 51.1966 42.5824 51.3176 42.6169C51.4213 42.6342 51.559 42.6861 51.7145 42.7201C51.5077 42.6342 51.3176 42.5478 51.1453 42.4613C50.9552 42.3749 50.8003 42.3063 50.662 42.2199L49.5748 41.5814L49.8508 41.1151L52.6807 42.7374L52.4047 43.2209L50.4897 42.8757C50.4552 42.8757 50.3514 42.8411 50.1613 42.7892C50.0755 42.7546 50.0064 42.7374 49.9545 42.7201C50.0755 42.7719 50.1959 42.8411 50.3342 42.9103C50.4725 42.9794 50.6447 43.0825 50.8342 43.1863L52.0251 43.8767L51.7491 44.3429ZM53.1641 41.8401L51.801 41.1497L49.9545 40.9768L50.2304 40.4248L50.8515 40.5112C50.9552 40.5285 51.0589 40.5458 51.1799 40.5631C51.283 40.5804 51.3867 40.6143 51.5077 40.6316C51.404 40.5631 51.3176 40.4766 51.2312 40.4075C51.1626 40.3383 51.0935 40.2691 51.0243 40.2006L50.5755 39.7344L50.8515 39.2163L52.0769 40.6143L53.44 41.322L53.1641 41.8401ZM54.2858 39.1996L51.1966 38.1467L51.3867 37.5768L53.8715 38.4401L54.0956 37.7843L54.6994 37.9911L54.2858 39.1996ZM54.8722 37.4045L52.301 36.7654L52.1806 37.2143L51.5935 37.0593L51.9559 35.5921L52.543 35.7471L52.4393 36.1787L55.0105 36.8345L54.8722 37.4045ZM54.7858 35.1259V35.074C54.8204 34.8671 54.7685 34.6948 54.6136 34.5565C54.458 34.4009 54.2339 34.3151 53.9061 34.2459C53.5437 34.194 53.2844 34.194 53.0949 34.2805C52.9054 34.349 52.8017 34.5046 52.7498 34.7288V34.7634L54.7858 35.1259ZM55.2692 35.7989L52.0596 35.2296L52.1461 34.7288C52.2319 34.2805 52.422 33.9699 52.7325 33.7797C53.0258 33.6074 53.4573 33.5728 53.9919 33.6586C54.3203 33.7105 54.579 33.8142 54.7858 33.9353C54.9932 34.0557 55.1655 34.2113 55.2692 34.4182C55.3383 34.5219 55.3723 34.6602 55.3896 34.798C55.4068 34.9363 55.3896 35.1259 55.3556 35.3679L55.2692 35.7989ZM55.3037 32.8651C55.4068 32.8651 55.5106 32.8997 55.5797 32.9855C55.6488 33.0547 55.6834 33.1412 55.6834 33.2449C55.6661 33.348 55.6316 33.4345 55.5451 33.4863C55.476 33.5555 55.3723 33.5901 55.2519 33.5901C55.1482 33.5728 55.0618 33.5382 54.9932 33.4691C54.9068 33.3826 54.8722 33.2968 54.8895 33.193C54.8895 33.1066 54.9414 33.0201 55.0105 32.9516C55.0963 32.8824 55.1828 32.8478 55.3037 32.8651Z" fill="#0D0F8C"/>
<path fill-rule="evenodd" clip-rule="evenodd" d="M7.04136 24.6144L7.14507 24.7873C7.02407 24.8046 6.79998 24.9942 6.50674 25.3394C6.28203 25.5988 6.14436 25.8748 6.09251 26.1508C6.05794 26.3404 6.05794 26.5133 6.12708 26.6516C6.17893 26.7893 6.26474 26.8585 6.42031 26.8931C6.48946 26.9104 6.59317 26.8931 6.69627 26.8239C6.71355 26.8066 6.76541 26.7893 6.81726 26.7375L6.93826 26.0989L6.90369 26.0817L7.43831 23.9247L7.86983 24.0278L7.73154 24.5632L8.5773 24.7873L8.36987 25.5988C8.33592 25.7019 8.35259 25.7883 8.42173 25.8575C8.47359 25.9094 8.56001 25.9612 8.68039 25.9952C8.80139 26.0298 8.90511 25.9952 9.02611 25.9267C9.14649 25.8575 9.23291 25.7538 9.26748 25.6333C9.26748 25.5988 9.26748 25.5642 9.28477 25.5296C9.28477 25.495 9.28477 25.4431 9.28477 25.4086C9.26748 25.4086 9.26748 25.4086 9.2502 25.4086C9.19834 25.4259 9.14649 25.4259 9.09463 25.4086C9.02611 25.3913 8.95696 25.3394 8.92239 25.2536C8.88782 25.1844 8.88782 25.098 8.90511 25.0115C8.92239 24.9257 8.97425 24.8565 9.06068 24.8046C9.1292 24.7528 9.21563 24.7355 9.30206 24.7701C9.42244 24.7873 9.50886 24.8219 9.57801 24.8911C9.64715 24.943 9.68172 24.9942 9.69901 25.0634L10.2855 24.8738L10.1818 25.2363L9.73358 25.2875C9.73358 25.3567 9.71629 25.4086 9.71629 25.4431C9.71629 25.4777 9.69901 25.5296 9.69901 25.5642C9.62986 25.8056 9.45701 25.9952 9.14649 26.1335C8.83596 26.2891 8.56001 26.3404 8.31863 26.2719C8.18035 26.2373 8.05935 26.1681 7.97354 26.0644C7.88711 25.9612 7.85254 25.8402 7.88711 25.7192L8.02478 25.1498L7.61116 25.0461L7.36917 26.0644H7.38645L7.28336 26.6343L9.09463 26.9795C9.18106 26.9968 9.2502 26.9795 9.28477 26.9449C9.30206 26.9104 9.31934 26.8585 9.35391 26.772C9.35391 26.772 9.35391 26.7548 9.3712 26.7202L9.64715 26.772L9.47429 27.6353L7.17964 27.1864L7.09321 27.5835L6.66169 27.497L6.76541 27.0141C6.71355 27.0481 6.66169 27.0827 6.5586 27.1172C6.40303 27.1864 6.26474 27.2037 6.12708 27.1864C6.10979 27.1691 6.09251 27.1691 6.07522 27.1691C5.90237 27.1345 5.78198 27.0481 5.69556 26.9104C5.60913 26.772 5.57456 26.5825 5.62642 26.3577C5.67827 26.0644 5.83384 25.771 6.07522 25.4777C6.24746 25.2709 6.45489 25.0634 6.71355 24.8565C6.81726 24.7873 6.93826 24.7009 7.04136 24.6144ZM50.3169 15.9847C50.3342 15.9155 50.3342 15.8642 50.3342 15.8297C50.3514 15.7086 50.4033 15.6222 50.4724 15.5703C50.5755 15.4845 50.7138 15.4499 50.8515 15.5018C50.9898 15.553 51.1108 15.6568 51.2484 15.8124C51.4213 16.0365 51.5417 16.3126 51.5935 16.6405C51.68 17.0894 51.68 17.3827 51.6108 17.4865L51.801 17.521C51.801 17.3827 51.8182 17.245 51.8355 17.1067C51.8355 16.7788 51.8182 16.4855 51.7664 16.2267C51.6972 15.8469 51.559 15.5363 51.3867 15.3116C51.2312 15.1393 51.0935 15.0355 50.9206 15.001C50.7657 14.9837 50.6101 15.0182 50.4724 15.1393C50.4552 15.1393 50.4552 15.1566 50.4379 15.1739C50.3169 15.2597 50.2477 15.3807 50.1959 15.5363C50.1613 15.6395 50.1446 15.7086 50.1613 15.7605L49.8335 15.3634L49.4884 15.6395L49.765 15.9674L47.9358 17.4519L48.4877 18.125L48.6951 17.9527C48.6778 17.9181 48.6778 17.9008 48.6605 17.9008C48.626 17.8144 48.5914 17.7625 48.5914 17.7452C48.5741 17.6933 48.5914 17.6248 48.6778 17.5729L50.1101 16.399C50.6447 17.0548 50.9552 17.5729 51.559 18.5047L50.8515 18.9537L50.9033 18.5566C50.8688 18.522 50.8342 18.4874 50.8002 18.4529C50.7657 18.401 50.7311 18.3837 50.6965 18.3491C50.662 18.3324 50.6101 18.3152 50.541 18.2979C50.5237 18.2979 50.5064 18.2806 50.4724 18.2806C50.4897 18.246 50.4897 18.1595 50.4724 18.0385C50.4724 17.9008 50.4379 17.7798 50.386 17.6933C50.2996 17.5729 50.1959 17.5037 50.0409 17.4692C49.9026 17.4519 49.765 17.4865 49.644 17.5729C49.4538 17.6933 49.2643 17.97 49.1087 18.4183C48.9711 18.8153 48.9192 19.0395 48.9365 19.0741L49.2125 19.1951C49.1952 19.1432 49.2125 18.9883 49.2989 18.7116C49.3853 18.3837 49.5057 18.1768 49.6785 18.0731C49.7989 17.9873 49.9026 17.97 49.9891 17.9873C50.0582 18.0039 50.1101 18.0558 50.1613 18.1423C50.1959 18.1768 50.2132 18.2114 50.2132 18.246C50.2304 18.2806 50.2477 18.3152 50.2477 18.3324L49.8162 18.6085L49.8681 19.0741L50.3169 18.7635C50.386 18.7289 50.4724 18.7289 50.5755 18.7808C50.6101 18.7981 50.6274 18.8153 50.662 18.8672C50.6792 18.8845 50.6965 18.9191 50.7138 18.9537C50.7311 19.0055 50.7484 19.0222 50.7484 19.0222L49.5921 19.7818L50.0755 20.5067L50.3169 20.3517C50.2823 20.3171 50.265 20.2826 50.2477 20.2307C50.2304 20.1961 50.2304 20.1442 50.2304 20.1097C50.2304 20.0751 50.2477 20.0411 50.265 20.0238C50.2823 20.0065 50.2996 19.9892 50.3169 19.972L51.8701 18.971L52.0942 19.4539L52.2837 19.8163L50.1959 20.8865L50.5928 21.6633L50.8342 21.5423C50.8342 21.5077 50.8175 21.4904 50.8175 21.4731C50.783 21.4046 50.7657 21.3527 50.7657 21.3181C50.7657 21.249 50.8002 21.2144 50.8861 21.1625L52.543 20.3171L52.8017 20.8346L52.9566 21.1971L52.1633 21.525L52.0596 21.3008C52.0423 21.2663 52.0078 21.249 51.9213 21.2663C51.8355 21.3181 51.7318 21.4558 51.6454 21.7152C51.5417 21.9739 51.5077 22.1462 51.559 22.2673C51.5762 22.3191 51.6108 22.3191 51.6454 22.3018L51.9213 22.1981L52.1973 22.8885L51.2484 23.2683L51.5935 24.097L51.8528 23.9932C51.8355 23.9586 51.8355 23.9247 51.8182 23.8728C51.801 23.8209 51.7837 23.7691 51.801 23.7345C51.801 23.6999 51.801 23.6826 51.8182 23.6653C51.8355 23.648 51.8701 23.6307 51.9213 23.6134L53.6468 22.9231L53.8542 23.4585H53.8715L54.182 24.5459L53.7332 24.6663L53.5956 24.218C53.561 24.0624 53.4746 23.9759 53.3363 23.9074C53.1986 23.8555 53.0603 23.8382 52.922 23.8895C52.6115 23.9759 52.3529 24.1488 52.146 24.4076C51.9559 24.6836 51.8868 24.943 51.9732 25.2017C52.0078 25.3394 52.0769 25.495 52.1806 25.65C52.2664 25.8056 52.3529 25.9094 52.4047 25.9612L52.8362 25.5469C52.7844 25.5469 52.7152 25.4777 52.6115 25.3913C52.4911 25.2536 52.4047 25.098 52.3529 24.9084C52.301 24.7701 52.3183 24.6317 52.3701 24.5113C52.4393 24.4076 52.5603 24.3211 52.7325 24.2692C52.8362 24.2353 52.922 24.252 53.0085 24.2865C53.0949 24.3384 53.1468 24.4076 53.1813 24.5113L53.4054 25.2536L54.303 24.9942C54.4753 25.5988 54.5444 26.1681 54.6648 26.8066L54.303 26.8758L54.182 26.2373C54.1647 26.1681 54.1302 26.1162 54.0783 26.0644C54.0265 26.0298 53.9746 26.0125 53.9234 26.0298C53.7159 26.0644 53.5091 26.22 53.319 26.4787C53.2505 26.5652 53.1813 26.6862 53.0949 26.8585C53.1295 26.8758 53.164 26.9277 53.1986 26.9968C53.2505 27.0827 53.2678 27.1518 53.2678 27.221C53.2844 27.342 53.2844 27.3933 53.2844 27.4278C53.2678 27.497 53.2332 27.5316 53.1813 27.5489C53.1122 27.5662 53.0258 27.5143 52.9393 27.4106C52.8535 27.3074 52.8017 27.1864 52.7671 27.0654C52.7325 26.8412 52.7498 26.6516 52.8189 26.4614C52.8881 26.2719 52.9912 26.1335 53.1295 26.0644L52.922 25.9094C52.8362 25.9267 52.7325 26.0644 52.5776 26.3237C52.3701 26.6516 52.301 26.9449 52.3529 27.2383C52.3874 27.4106 52.4739 27.5662 52.6288 27.6872C52.7844 27.8249 52.9739 27.8768 53.164 27.8422C53.3363 27.8076 53.4746 27.7045 53.5783 27.5489C53.6641 27.3933 53.6987 27.221 53.6641 27.0481C53.6468 26.9795 53.6301 26.8931 53.5783 26.8066C53.5437 26.7375 53.5264 26.6862 53.4918 26.6683C53.5091 26.6343 53.5264 26.5998 53.561 26.5479C53.5956 26.496 53.6301 26.4787 53.6814 26.4614C53.7851 26.4787 53.8369 26.5133 53.8542 26.5825L54.0092 27.3766L54.7512 27.221L54.8549 27.773L55.2865 27.7045C55.079 26.6683 54.9586 25.7019 54.6821 24.7355C54.8031 24.6144 54.9068 24.5113 54.9759 24.4249C55.2173 24.1834 55.3895 23.9759 55.5278 23.8036C55.6315 23.6653 55.6661 23.5103 55.6315 23.3547L55.476 22.7508L55.0445 23.0614C55.0617 23.0787 55.079 23.1478 55.1309 23.251C55.1655 23.372 55.2 23.4757 55.2173 23.5616C55.2346 23.6307 55.2346 23.6826 55.2346 23.7518C55.2173 23.8036 55.2 23.8555 55.1482 23.9074L54.6308 24.5459C54.2685 23.3028 54.0956 22.6989 53.4746 21.2836C53.2844 20.8346 53.0085 20.4036 52.8362 19.9547C52.8535 19.8855 52.8708 19.8336 52.8881 19.7991C52.922 19.6959 52.9912 19.6268 53.0603 19.5922C53.1986 19.523 53.319 19.523 53.44 19.5922C53.561 19.6613 53.6814 19.7991 53.7678 19.972C53.8888 20.2307 53.9579 20.524 53.9407 20.8519C53.9234 21.3181 53.8715 21.5942 53.7678 21.6979L53.9579 21.7671C53.9919 21.6287 54.0265 21.5077 54.0783 21.37C54.1475 21.0421 54.1993 20.7488 54.1993 20.4894C54.1993 20.1097 54.1475 19.7818 54.0092 19.5057C53.9061 19.3162 53.7851 19.1778 53.6301 19.126C53.4746 19.0741 53.319 19.0741 53.164 19.1605C53.1468 19.1605 53.1295 19.1778 53.1122 19.1778C52.9912 19.247 52.8881 19.3507 52.8017 19.4884C52.7498 19.5749 52.7152 19.6441 52.7152 19.6959L52.2837 18.8672C51.5762 17.7625 51.0071 16.8134 50.3169 15.9847ZM48.4358 13.7239C48.505 13.5337 48.5396 13.3787 48.5568 13.275C48.626 12.9471 48.5741 12.6884 48.4186 12.5327C48.3155 12.429 48.2117 12.3777 48.1253 12.395C48.0395 12.395 47.9531 12.4463 47.8666 12.5327C47.7975 12.5846 47.7629 12.6711 47.7457 12.7915C47.7457 12.8261 47.7457 12.8779 47.7457 12.9644L47.5734 12.7742C47.5734 12.7056 47.5734 12.6192 47.5734 12.5327C47.608 12.3432 47.6938 12.1875 47.7975 12.0665C47.9358 11.9461 48.0907 11.8769 48.2463 11.8942C48.4186 11.8942 48.5741 11.9807 48.7464 12.153C48.9538 12.3777 48.9884 12.7229 48.8674 13.2231C48.8155 13.3787 48.7297 13.6029 48.6087 13.8962L49.126 14.4316L48.8155 14.7422L48.4186 14.3279L47.09 15.6049C47.0209 15.674 47.0036 15.7259 47.0209 15.7951C47.0209 15.8124 47.0382 15.8469 47.0728 15.8815C47.09 15.9155 47.1246 15.9501 47.1419 15.9847L46.9351 16.1748L46.3307 15.553L48.0222 13.9135C47.6426 13.551 47.7457 13.6375 47.2802 13.2577L46.0893 14.673C46.0375 14.7422 46.0202 14.7941 46.0375 14.8626C46.0548 14.8799 46.072 14.8972 46.1066 14.9318C46.1412 14.9664 46.1758 15.001 46.193 15.0355L46.0202 15.2597L45.3473 14.6903L46.1412 13.7412L45.5893 13.275L45.3473 13.5683C45.33 13.5856 45.2954 13.6202 45.2781 13.6375C45.2442 13.6548 45.2269 13.6548 45.1923 13.6202C45.1232 13.5683 45.0886 13.396 45.0886 13.1021C45.0713 12.8261 45.1232 12.6192 45.2096 12.5327C45.2615 12.4463 45.33 12.4463 45.4164 12.5154L46.4517 13.3787L46.8487 12.8952C46.2968 12.429 45.8134 11.9461 45.2442 11.549L44.1916 13.0681C44.1398 13.1367 44.1398 13.2058 44.1571 13.2577C44.1743 13.2923 44.1916 13.3269 44.2262 13.3442C44.2602 13.3787 44.2947 13.396 44.3293 13.4306L44.1571 13.6548L43.4496 13.154L43.9496 12.4463C43.8805 12.4117 43.8292 12.395 43.7947 12.395C43.6737 12.3432 43.57 12.3086 43.5181 12.274C43.3977 12.1875 43.3113 12.0153 43.2594 11.7386C43.2249 11.5317 43.2076 11.4107 43.2249 11.3422L43.7947 10.5308L43.6218 10.4097L42.3797 9.75392L42.1038 10.3406C42.155 10.3406 42.2069 10.3406 42.2242 10.3406C42.3279 10.3578 42.397 10.3751 42.4489 10.3924C42.6211 10.4789 42.7594 10.6345 42.8279 10.8587C42.8971 11.0828 42.8798 11.3076 42.7594 11.549C42.673 11.7386 42.552 11.8769 42.397 11.998C42.3452 12.0326 42.276 12.0665 42.1896 12.1011L41.8445 11.5145C41.8791 11.5317 41.9828 11.5317 42.1723 11.4972C42.3797 11.4453 42.5174 11.3595 42.5693 11.2557C42.6384 11.1174 42.5693 10.997 42.3797 10.9105C42.2587 10.8414 42.1211 10.8241 42.0001 10.8587C41.9482 10.8587 41.8964 10.8759 41.8272 10.9105L41.5686 11.428C41.534 11.4972 41.534 11.5663 41.5686 11.6182C41.5858 11.6355 41.6204 11.6528 41.655 11.6701C41.6895 11.704 41.7241 11.7213 41.7587 11.7559L41.6377 11.998L40.8611 11.6182L41.1543 10.997C41.1025 11.0143 41.0166 11.0143 40.8956 10.997C40.7747 10.997 40.6888 10.9624 40.6197 10.9278C40.4468 10.8414 40.3265 10.6857 40.2573 10.4443C40.1882 10.2029 40.1882 9.97808 40.2919 9.7885C40.3783 9.61621 40.516 9.52976 40.7234 9.51247C41.0166 9.47789 41.2407 9.51247 41.3617 9.61621L41.4303 10.2029C41.4136 10.1856 41.3963 10.1683 41.3617 10.151C41.2062 10.0818 41.0512 10.0299 40.8956 10.0127C40.6716 9.97808 40.5333 10.0127 40.4641 10.1337C40.4468 10.2029 40.4296 10.2547 40.4468 10.3066C40.4641 10.3406 40.516 10.3751 40.5678 10.3924L40.637 10.427C40.7919 10.5135 40.9648 10.5308 41.1716 10.5135C41.2407 10.4962 41.3272 10.4789 41.4303 10.4443L41.8791 9.51247L40.6024 8.89125L40.7919 8.49418C41.9655 9.06353 42.8279 9.44331 43.6218 9.90953C43.9151 10.0818 44.2089 10.272 44.5021 10.4616C45.2781 10.9797 46.0202 11.549 46.7104 12.1357C47.3493 12.6711 47.9358 13.2231 48.4358 13.7239ZM20.742 8.6146L20.8969 9.02895L21.1389 8.92521L21.6217 10.2029C21.7945 10.2201 21.9495 10.2547 22.1223 10.272C22.3983 10.3233 22.6915 10.3751 23.0193 10.4443C23.3472 10.5135 23.52 10.5653 23.52 10.5999C23.5546 10.6691 23.52 10.7549 23.4163 10.8414C23.3817 10.8759 23.3299 10.9105 23.2613 10.9624L23.7441 11.1174C23.7787 11.1001 23.8305 11.0309 23.8997 10.9105C23.9688 10.7895 23.9861 10.6691 23.9515 10.5826C23.9342 10.5135 23.8997 10.4616 23.8478 10.427C23.7787 10.3924 23.7268 10.3751 23.641 10.3578L22.1915 10.0472L21.6735 8.73563L22.4502 8.42502L22.7952 9.30498C22.8125 9.35685 22.8125 9.42602 22.7952 9.47789C22.7952 9.51247 22.778 9.54705 22.7434 9.58163C22.7088 9.61621 22.6915 9.63288 22.6742 9.65017L23.2095 9.82308C23.2268 9.80579 23.2613 9.77121 23.2786 9.71934C23.3132 9.65017 23.3472 9.59892 23.3472 9.52976C23.3644 9.4606 23.3644 9.40873 23.3644 9.35685C23.3644 9.30498 23.3472 9.23644 23.3132 9.16728L22.9508 8.23483C23.3817 8.07983 23.4163 8.06254 23.9342 7.88964C23.9515 7.90693 23.9688 7.92422 23.9861 7.94151C24.0546 7.99338 24.1065 8.02796 24.1065 8.07983C24.1583 8.26941 24.1065 8.44231 23.917 8.59731C23.8651 8.64918 23.7614 8.70105 23.641 8.75292C23.641 8.87396 23.7268 9.04624 23.9342 9.2704C24.2102 9.58163 24.5207 9.66746 24.8831 9.58163C24.9868 9.54705 25.0899 9.49518 25.1936 9.40873C25.2628 9.35685 25.2973 9.32227 25.3319 9.28769L25.5041 9.90953L26.3499 9.68475L26.2808 9.40873C26.2635 9.40873 26.2289 9.40873 26.2289 9.40873C26.1425 9.42602 26.0739 9.42602 26.0394 9.42602C25.9875 9.40873 25.9357 9.37414 25.9184 9.28769L25.435 7.49319L26.0048 7.33758L25.8838 6.92322C24.9004 7.19925 24.0546 7.40674 23.2268 7.68277C22.4329 7.94151 21.6563 8.26941 20.742 8.6146ZM52.6288 22.7162L53.4227 22.3883L53.1468 21.6979L52.3529 22.0258L52.6288 22.7162ZM44.2774 11.9807L44.7954 11.2384L44.2262 10.8414L43.5354 11.8424C43.6045 11.8942 43.6737 11.9288 43.7428 11.9461C43.7601 11.9461 43.812 11.9634 43.8978 11.9634C43.9669 11.9807 44.0361 11.998 44.0879 11.998C44.1225 11.998 44.1916 11.9807 44.2774 11.9807ZM43.9323 9.21915L43.3459 9.33956L43.1903 8.75292L43.7774 8.64918L43.9323 9.21915ZM38.4627 10.4962C38.1695 10.4097 37.8935 10.3406 37.617 10.272L37.9108 9.14999C37.8762 9.14999 37.8244 9.14999 37.7725 9.1327C37.7034 9.1327 37.6515 9.11541 37.583 9.09811C37.4966 9.08082 37.4447 9.06353 37.3929 9.02895C37.341 9.01166 37.2892 8.9425 37.2379 8.83938C37.1861 8.77021 37.1688 8.71834 37.1688 8.70105C37.1515 8.71834 37.1515 8.73563 37.1342 8.75292C37.0823 8.82208 37.0132 8.85667 36.9613 8.89125C36.9095 8.92521 36.8582 8.9425 36.7718 8.97708C36.7027 8.99437 36.6508 9.01166 36.6335 9.01166C36.6681 9.08082 36.7027 9.1327 36.72 9.18457C36.7718 9.30498 36.8237 9.40873 36.8582 9.51247C36.8928 9.56434 36.9613 9.68475 37.0651 9.85766C37.0996 9.94411 37.1342 10.0127 37.1688 10.0818C37.0823 10.0991 36.9786 10.1164 36.8755 10.1337C36.8064 10.1337 36.6508 9.77121 36.3922 9.08082C36.2539 8.71834 36.2026 8.47689 36.2366 8.35586C36.2539 8.32128 36.2712 8.2867 36.3057 8.26941C36.3576 8.25212 36.3922 8.23483 36.4267 8.25212C36.5477 8.2867 36.6508 8.30399 36.7718 8.33857C36.8237 8.11441 36.8928 7.88964 36.9441 7.66548C36.5817 7.56173 36.2712 7.45861 35.8915 7.38945C35.7884 7.99338 35.6847 8.59731 35.581 9.21915C35.5637 9.28769 35.581 9.35685 35.6155 9.39143C35.6501 9.40873 35.6674 9.42602 35.7193 9.44331C35.7538 9.44331 35.8057 9.4606 35.8403 9.47789C35.823 9.56434 35.8057 9.66746 35.7884 9.75392C35.5118 9.70205 35.2186 9.65017 34.9254 9.59892C35.0118 9.20186 35.0809 8.7875 35.1501 8.39044C34.9081 8.33857 34.6667 8.30399 34.4426 8.25212C34.408 8.39044 34.3907 8.51147 34.3735 8.63189C34.3735 8.66647 34.3562 8.68376 34.3389 8.71834C34.3389 8.75292 34.3043 8.77021 34.2697 8.75292C34.1833 8.73563 34.0629 8.6146 33.9074 8.35586C33.7691 8.11441 33.7178 7.92422 33.7351 7.8038C33.7524 7.70006 33.8037 7.66548 33.9074 7.68277C34.3389 7.75193 34.7877 7.83838 35.2359 7.90693C35.2705 7.70006 35.305 7.49319 35.3396 7.2857C34.6494 7.18196 33.9592 7.06155 33.2517 6.94051C33.2863 7.02697 33.2863 7.303 33.2517 7.66548C33.2345 7.90693 33.148 8.09712 32.9758 8.23483C32.8029 8.33857 32.7171 8.39044 32.7171 8.39044C32.7511 8.4596 32.7857 8.51147 32.8029 8.54606C32.8721 8.64918 32.9239 8.73563 32.9931 8.82208C33.0622 8.92521 33.1653 9.04624 33.269 9.16728C33.3209 9.23644 33.39 9.30498 33.4413 9.37414C33.3727 9.40873 33.3036 9.44331 33.2172 9.47789C33.148 9.49518 32.8894 9.18457 32.4751 8.52876C32.2683 8.18357 32.1646 7.92422 32.1646 7.78651C32.1819 7.68277 32.2338 7.6309 32.3202 7.64819C32.4579 7.64819 32.5788 7.66548 32.6998 7.66548C32.7171 7.42403 32.7338 7.18196 32.7511 6.94051C32.4233 6.90593 32.1128 6.92322 31.785 6.90593C31.7677 7.52715 31.7504 8.11441 31.7504 8.73563C31.7504 8.75292 31.7504 8.7875 31.7504 8.80479C31.7677 8.83938 31.7677 8.85667 31.8022 8.89125C31.8368 8.90854 31.8714 8.92521 31.9232 8.9425C31.9751 8.9425 32.009 8.9425 32.0609 8.95979C32.0609 9.04624 32.0436 9.14999 32.0436 9.23644C31.7504 9.23644 31.4744 9.23644 31.1812 9.21915C31.1812 8.44231 31.1985 7.66548 31.2158 6.87135C30.8707 6.87135 30.612 6.85406 30.2669 6.88864L30.4046 8.73563C30.4046 8.82208 30.4391 8.87396 30.491 8.90854C30.5256 8.90854 30.5774 8.92521 30.6632 8.92521C30.6805 8.92521 30.6978 8.92521 30.7324 8.92521C30.7324 9.01166 30.7497 9.11541 30.7497 9.20186L29.87 9.2704L29.8354 8.63189C29.7835 8.64918 29.7317 8.68376 29.6625 8.71834C29.5422 8.7875 29.4212 8.82208 29.3347 8.82208C28.9551 8.85667 28.6618 8.70105 28.455 8.35586C28.2995 8.09712 28.2303 7.90693 28.2649 7.78651C28.4032 7.75193 28.5069 7.71735 28.5581 7.68277C28.7655 7.56173 28.8693 7.40674 28.852 7.21654C28.852 7.16529 28.8174 7.11342 28.7483 7.04426C28.7483 7.02697 28.731 7.00968 28.7137 6.99238L28.0754 7.04426L28.0581 6.61261C29.1279 6.52616 30.1805 6.42304 31.233 6.44033L30.7842 5.8012C30.7497 5.74994 30.6978 5.71536 30.646 5.68078C30.5947 5.66349 30.5256 5.6462 30.4737 5.6462C30.37 5.6462 30.2669 5.6462 30.1459 5.66349C30.0249 5.68078 29.9558 5.68078 29.9391 5.68078L29.749 5.19727H30.3873C30.5429 5.21456 30.6632 5.28372 30.767 5.42204C30.9052 5.59433 31.0602 5.81849 31.2503 6.11242C31.3022 6.19826 31.3707 6.302 31.4571 6.44033C32.6134 6.4922 33.666 6.57803 34.805 6.76823C36.3922 7.02697 37.8762 7.44132 39.4289 7.87235L39.3085 8.2867L38.756 8.1317L38.2732 9.89224C38.2559 9.97807 38.2732 10.0645 38.3244 10.1164C38.3417 10.151 38.359 10.1683 38.4109 10.1683C38.4454 10.1856 38.48 10.2029 38.5319 10.2201L38.4627 10.4962ZM38.0312 8.68376L38.2213 7.99338C37.9621 7.92422 37.7207 7.85567 37.462 7.8038C37.462 7.82109 37.462 7.87235 37.462 7.97609C37.4447 8.07983 37.4274 8.16628 37.4102 8.23483C37.3929 8.30399 37.3756 8.35586 37.341 8.42502C37.3237 8.47689 37.2892 8.52876 37.2719 8.56273C37.2892 8.58002 37.3237 8.6146 37.3583 8.64918C37.4102 8.66647 37.4447 8.70105 37.4966 8.70105C37.583 8.73563 37.7034 8.73563 37.8417 8.71834C37.8935 8.70105 37.9621 8.70105 38.0312 8.68376ZM29.7835 7.94151L29.7144 6.92322L28.9724 6.97509C29.0069 7.04426 29.0415 7.09613 29.0588 7.13071C29.1106 7.26841 29.1452 7.40674 29.1625 7.54444C29.1798 7.78651 29.0933 7.9588 28.9205 8.07983C28.9032 8.09712 28.8001 8.14899 28.6445 8.20086C28.6618 8.23483 28.6964 8.26941 28.7137 8.30399C28.8001 8.39044 28.9032 8.44231 29.0069 8.42502C29.1452 8.42502 29.3002 8.37315 29.4384 8.26941C29.6625 8.1317 29.7663 8.01067 29.7835 7.94151ZM27.7303 7.82109C27.7648 8.06254 27.7475 8.2867 27.6784 8.49418C27.6266 8.64918 27.5228 8.82208 27.3679 8.99437L27.9198 9.42602L27.6957 9.65017L27.1611 9.11541C27.1611 9.1327 27.1092 9.14999 27.0055 9.16728C26.8499 9.20186 26.7123 9.20186 26.6086 9.16728C26.453 9.1327 26.3672 9.02895 26.3326 8.87396C26.3153 8.7875 26.3326 8.70105 26.3845 8.63189C26.4363 8.56273 26.5221 8.52876 26.6258 8.51147C26.695 8.49418 26.7814 8.49418 26.8499 8.51147C26.9191 8.52876 26.9709 8.56273 27.0055 8.6146C27.0401 8.59731 27.0746 8.58002 27.1092 8.52876C27.1438 8.49418 27.1611 8.4596 27.1777 8.44231C27.2469 8.35586 27.2815 8.26941 27.2815 8.14899C27.2123 8.18357 27.0228 8.14899 26.7123 8.04525C26.3672 7.90693 26.1598 7.71735 26.1085 7.45861C26.0912 7.303 26.1252 7.16529 26.2116 7.02697C26.3153 6.90593 26.453 6.8201 26.6431 6.78552C26.8845 6.75094 27.1265 6.83677 27.3333 7.06155C27.5401 7.26841 27.6784 7.52715 27.7303 7.82109ZM27.2987 7.54444C27.2469 7.25112 27.0919 7.13071 26.8327 7.16529C26.7123 7.19925 26.6431 7.23383 26.5913 7.303C26.5394 7.37216 26.5221 7.45861 26.5394 7.54444C26.574 7.68277 26.695 7.78651 26.9536 7.87235C27.1777 7.94151 27.2987 7.9588 27.3333 7.94151C27.3333 7.88964 27.3333 7.82109 27.316 7.75193C27.316 7.68277 27.316 7.61361 27.2987 7.54444ZM25.159 8.6146L24.9004 7.6309L24.1929 7.82109C24.2448 7.88964 24.2793 7.92422 24.2966 7.97609C24.3824 8.09712 24.4343 8.21754 24.4861 8.35586C24.538 8.58002 24.5034 8.77021 24.3485 8.92521C24.3312 8.9425 24.2448 9.01166 24.0892 9.09811C24.1238 9.1327 24.1583 9.14999 24.1929 9.18457C24.2793 9.25373 24.3824 9.2704 24.5034 9.25373C24.6417 9.21915 24.7621 9.1327 24.9004 9.01166C25.0726 8.82208 25.159 8.70105 25.159 8.6146ZM20.6901 11.8078L19.9481 12.2394L18.7578 10.2029C18.43 10.3924 18.2745 10.427 17.9467 10.6518L19.0165 12.1703C19.0684 12.2394 19.1202 12.274 19.1888 12.274C19.206 12.2567 19.2579 12.2394 19.3443 12.1875C19.3616 12.1875 19.3789 12.1703 19.3962 12.1703L19.5511 12.395L18.8437 12.8952L18.464 12.3777C18.4473 12.4117 18.4128 12.4809 18.3782 12.5327C18.309 12.6538 18.2226 12.7402 18.1535 12.8088C17.8257 13.0163 17.4979 13.0335 17.1528 12.8433C16.8768 12.7056 16.7212 12.5673 16.6873 12.4636C16.7904 12.3605 16.8595 12.274 16.8941 12.2221C17.0151 12.0153 17.0151 11.8251 16.8941 11.6701C16.8768 11.6182 16.825 11.6009 16.7385 11.5663C16.7212 11.5663 16.7046 11.549 16.67 11.549C16.3249 11.7905 16.1175 11.998 15.7897 12.2567L16.2731 12.8433L15.6687 13.3614C15.6002 13.396 15.6002 13.4646 15.6341 13.551C15.6687 13.6029 15.7205 13.6202 15.7724 13.6375C15.8415 13.6375 15.8761 13.6375 15.9107 13.6202C15.9107 13.6029 15.9452 13.551 15.9965 13.4992C16.0483 13.4133 16.1002 13.3442 16.1521 13.2923C16.2903 13.1713 16.4626 13.1194 16.6354 13.1367C16.825 13.1367 16.9805 13.2058 17.0836 13.3442C17.2219 13.4992 17.2738 13.6893 17.2219 13.8962C17.1873 14.0864 17.1009 14.2414 16.9632 14.3451C16.7385 14.5347 16.428 14.6212 16.0656 14.6039C15.7551 14.5866 15.5829 14.552 15.531 14.5008L15.5656 14.2414C15.686 14.3279 15.8588 14.3451 16.0483 14.3279C16.2558 14.2933 16.428 14.2068 16.6009 14.0691C16.7046 13.9827 16.7904 13.8789 16.8422 13.7585C16.8941 13.6202 16.8941 13.5337 16.825 13.4646C16.7904 13.4306 16.7558 13.4306 16.6873 13.4473C16.6527 13.4646 16.6009 13.4992 16.5144 13.551C16.4453 13.6029 16.3934 13.6548 16.3422 13.7239C16.2903 13.7925 16.2731 13.8443 16.2558 13.8789C16.0829 13.8962 15.928 13.8962 15.8242 13.8789C15.7033 13.8616 15.5829 13.8271 15.4964 13.7925L15.5829 13.8962L15.0476 14.3797L15.3063 14.6558C15.3236 14.6903 15.3409 14.7076 15.3582 14.7422C15.3754 14.7595 15.3754 14.7941 15.3409 14.828C15.2723 14.8799 15.0995 14.8972 14.8235 14.8626C14.5303 14.828 14.3402 14.7595 14.2544 14.673C14.1852 14.6039 14.2025 14.5347 14.271 14.4662L15.1859 13.6029C15.1686 13.6029 15.1513 13.5856 15.1341 13.5683C15.0995 13.5164 15.0822 13.4646 15.0995 13.396C15.1168 13.3442 15.1513 13.275 15.2032 13.2404L15.7033 12.8261L15.4619 12.5327C14.8408 13.0681 14.2883 13.6029 13.6846 14.1722L13.3567 14.5174L14.6853 15.7951C14.7544 15.8642 14.8235 15.8815 14.8754 15.8642C14.91 15.8469 14.9445 15.8124 15.0131 15.7605C15.0304 15.7605 15.0304 15.7432 15.0649 15.7259L15.2723 15.9155L14.668 16.5546L12.9771 14.9145C12.7357 15.1566 12.6147 15.3634 12.3906 15.6395L12.9598 16.0884L12.3906 16.7961C12.356 16.8479 12.356 16.8825 12.3733 16.9338C12.4079 16.9856 12.4425 17.0202 12.4943 17.0721C12.5283 17.0894 12.5628 17.1067 12.6147 17.124C12.6666 17.124 12.7011 17.124 12.7357 17.1067C12.7357 17.1067 12.753 17.0721 12.7876 17.0029C12.8394 16.8652 12.8907 16.7615 12.9598 16.6923C13.0635 16.5373 13.2357 16.4509 13.4259 16.4336C13.6154 16.399 13.7883 16.4509 13.9432 16.5719C14.0642 16.675 14.1506 16.7961 14.1679 16.9511C14.2025 17.1413 14.1852 17.3135 14.0988 17.4346L14.7717 17.3481L14.7544 17.676L14.0296 17.6587C14.0296 17.6933 13.9778 17.7798 13.8747 17.9008C13.7364 18.0558 13.6154 18.1423 13.495 18.1768C13.3913 18.1941 13.3049 18.1595 13.2191 18.0904C13.1499 18.0385 13.0981 17.97 13.0981 17.8835C13.0808 17.7798 13.0981 17.7106 13.1499 17.6414C13.253 17.521 13.374 17.4519 13.4777 17.4173C13.5296 17.4173 13.5808 17.4173 13.6327 17.4173C13.6846 17.2963 13.7191 17.1931 13.7364 17.124C13.7883 16.9165 13.771 16.7788 13.6846 16.7096C13.6327 16.675 13.5981 16.6405 13.5469 16.6405C13.5123 16.6577 13.4605 16.6923 13.4086 16.7615C13.3567 16.8134 13.2876 16.9165 13.2191 17.0548C13.1499 17.1758 13.1326 17.2623 13.1326 17.279C13.0808 17.3135 12.9425 17.3308 12.7011 17.3308C12.4079 17.3135 12.1659 17.245 11.9937 17.1067C11.9418 17.0548 11.9072 17.0029 11.9072 16.9338C11.9072 16.8479 11.9245 16.7961 11.9591 16.7269L12.3906 16.2094L12.1147 15.9847L11.3899 16.8652L11.0621 16.5886L12.4079 14.9318L12.7184 14.552C12.6666 14.552 12.5801 14.552 12.4943 14.5347C12.3215 14.5008 12.2005 14.4316 12.0974 14.3451C12.0801 14.3279 12.0628 14.3106 12.0628 14.3106C11.9245 14.1895 11.8727 14.0345 11.8727 13.8789C11.8727 13.7066 11.9591 13.551 12.1147 13.3787C12.3215 13.1713 12.6147 12.999 12.9771 12.8952C13.2357 12.8088 13.5296 12.7575 13.8574 12.7229C13.9951 12.7056 14.1161 12.7056 14.2544 12.7056V12.8952C14.1334 12.8433 13.8574 12.8779 13.4086 12.999C13.0808 13.1021 12.8221 13.2577 12.632 13.4646C12.4943 13.6029 12.4079 13.7585 12.3733 13.8962C12.356 14.0345 12.3906 14.155 12.4943 14.2587C12.5456 14.3106 12.6493 14.3451 12.753 14.3624C12.7876 14.3624 12.8394 14.3624 12.9079 14.3451L13.4432 13.7925H13.4605C14.789 12.55 16.0311 11.4107 17.4287 10.4443C18.0849 9.99537 18.8264 9.66746 19.5338 9.25373L19.7586 9.63288L19.2579 9.92682L20.1728 11.5317C20.1895 11.549 20.2067 11.5663 20.224 11.5836C20.2413 11.6009 20.2759 11.6182 20.3105 11.6182C20.345 11.6355 20.3796 11.6182 20.4315 11.6009C20.4833 11.5836 20.5179 11.5663 20.5518 11.549L20.6901 11.8078ZM18.0677 11.8078L17.4979 10.9797L16.8941 11.3934C16.946 11.428 16.9978 11.4626 17.0497 11.4972C17.17 11.5836 17.2565 11.6874 17.3429 11.7905C17.4806 11.998 17.4979 12.1875 17.4114 12.3777C17.4114 12.395 17.3429 12.4809 17.2392 12.6192C17.2738 12.6365 17.3083 12.6538 17.3429 12.6711C17.4633 12.7056 17.567 12.6884 17.6707 12.6365C17.7911 12.55 17.8775 12.429 17.9467 12.274C18.0677 12.0326 18.1016 11.8769 18.0677 11.8078ZM14.2883 19.0395L14.3056 19.2989C14.2544 19.247 14.0296 19.2816 13.6673 19.402C13.2191 19.523 12.9252 19.7132 12.753 19.9547C12.6838 20.0751 12.6493 20.1961 12.6493 20.3171C12.6493 20.4376 12.7011 20.524 12.8048 20.5932C12.8907 20.645 12.9771 20.6278 13.0462 20.524C13.0808 20.4549 13.1154 20.3517 13.1326 20.2307C13.1499 20.0924 13.1499 20.0238 13.1499 20.0065L13.6154 20.0751C13.6154 20.127 13.5981 20.1961 13.5642 20.2999C13.5296 20.3863 13.4777 20.4721 13.4432 20.5413C13.3395 20.6969 13.1845 20.8 12.9598 20.8692C12.7357 20.9384 12.5628 20.9211 12.4079 20.8173C12.2523 20.7142 12.1659 20.5932 12.1492 20.4376C12.1319 20.2826 12.1659 20.127 12.2869 19.9547C12.4079 19.7645 12.6493 19.5749 12.9944 19.4193C13.253 19.2989 13.5296 19.2124 13.8574 19.126C14.1161 19.0568 14.271 19.0395 14.2883 19.0395ZM12.6147 19.2297L12.1659 19.9892L11.614 19.6786C11.614 19.7305 11.614 19.7818 11.5967 19.8682C11.5794 20.0065 11.5449 20.1097 11.493 20.1961C11.3035 20.524 11.0102 20.6796 10.6133 20.6623C10.3028 20.645 10.1126 20.5932 10.0268 20.5067C10.0787 20.369 10.1126 20.2653 10.1126 20.1961C10.1472 19.9547 10.0614 19.7991 9.88853 19.6959C9.85396 19.6613 9.78482 19.6613 9.69901 19.6786C9.68172 19.6786 9.66443 19.6786 9.62986 19.6959L9.31934 20.3344L8.90511 20.1788L9.54344 18.8845L10.32 17.6248L10.6997 17.8316L10.4065 18.3324L12.0109 19.2643C12.0974 19.2989 12.1492 19.3162 12.2178 19.2816C12.235 19.2643 12.2696 19.2124 12.3215 19.1432C12.3387 19.126 12.3387 19.1087 12.356 19.0914L12.6147 19.2297ZM11.0102 19.3334L10.1299 18.8153L9.76753 19.4539C9.83667 19.4711 9.90581 19.4711 9.94039 19.4711C10.0953 19.5057 10.2163 19.5576 10.3373 19.6268C10.5441 19.7472 10.6479 19.9028 10.6479 20.127C10.6651 20.1442 10.6306 20.248 10.596 20.4203C10.6306 20.4203 10.6824 20.4203 10.717 20.4203C10.8374 20.4036 10.9411 20.3344 10.9929 20.248C11.0621 20.127 11.0967 19.972 11.0967 19.7991C11.0967 19.5403 11.0621 19.3847 11.0102 19.3334ZM11.3899 21.4731L11.0621 22.2846L9.9231 21.8189L9.64715 22.492L10.0095 22.6297C10.0268 22.647 10.0614 22.647 10.0787 22.6816C10.1126 22.6989 10.1126 22.7162 10.0953 22.7508C10.0614 22.8372 9.90581 22.9231 9.64715 23.0268C9.3712 23.1133 9.18106 23.1305 9.04277 23.0787C8.95696 23.0441 8.93968 22.9749 8.97425 22.8885L9.47429 21.646L8.88782 21.4046L8.30135 22.8712L7.88711 22.6989L8.90511 20.1788L9.31934 20.3344L9.09463 20.8865L10.8201 21.5769C10.8892 21.6115 10.9584 21.5942 11.0102 21.5596C11.0275 21.5423 11.0448 21.525 11.0621 21.4731C11.0794 21.4392 11.1139 21.4046 11.1306 21.37L11.3899 21.4731Z" fill="#0D0F8C"/>
<path fill-rule="evenodd" clip-rule="evenodd" d="M44.3812 26.1159C44.3812 26.0468 44.2429 26.0468 44.1398 25.9949C44.0361 25.9091 43.9843 25.7362 43.8805 25.7016C43.5873 25.7016 43.2768 25.7707 43.2768 25.7707C43.3114 25.5639 43.3459 25.391 43.3459 25.2533C43.2249 25.2533 43.07 25.3391 42.8626 25.3391C42.8626 25.2872 43.07 25.0976 43.07 25.0976C42.6903 25.0976 42.5175 25.5466 42.4144 25.5466C41.931 25.391 42.0174 25.0976 41.81 25.0976C41.4303 25.0976 41.2754 25.4601 41.0167 25.5466C40.6025 25.7707 40.8093 26.1851 40.6025 26.2888C40.6025 26.392 40.637 26.4957 40.637 26.5649C40.4815 26.4957 40.3784 26.4957 40.2747 26.4957C40.1882 26.5303 40.1191 26.5649 40.0672 26.5649C40.0672 26.7544 40.0672 26.8409 40.0672 26.8755C40.1537 26.8928 40.1882 26.8928 40.2747 27.0138C40.2747 27.1515 40.2747 27.2898 40.2747 27.2898C40.0672 27.2898 39.8431 27.1515 39.6191 27.1515C39.3252 27.359 39.2567 27.4102 39.2221 27.4102C39.1702 27.4102 39.2221 27.2898 38.8597 27.2898C38.6696 27.2898 38.6011 27.1515 38.4282 27.1515C38.3245 27.1515 38.2214 27.1861 38.0831 27.2552C37.859 27.0478 37.6689 27.0478 37.5658 27.0478C37.3238 26.9619 37.3065 26.3061 37.2207 26.2888C37.117 26.2888 36.7546 26.3574 36.6163 26.4957C36.6163 26.7544 36.6163 26.8409 36.6163 26.8928C36.6163 27.1515 36.8583 27.4621 36.8583 27.4621C36.5478 27.6523 36.3576 27.7381 36.2027 27.7381C35.9261 27.7381 35.7539 27.5486 35.5119 27.5486C35.4088 27.5486 35.2014 27.6523 34.8217 27.6523C34.4081 27.6523 34.2698 27.7042 34.2698 27.7042C34.1488 27.6523 33.942 27.0996 33.6142 27.0138C33.3555 27.0138 33.1481 27.1515 32.9067 27.1515C32.803 27.1515 32.7512 27.0996 32.6308 27.0996C32.4233 27.0138 32.2165 26.8409 32.0091 26.7371C31.8023 26.7371 31.6473 26.7371 31.4572 26.7026C31.0084 26.6513 30.7497 26.5649 30.5602 26.4611C30.3009 26.4611 30.267 26.3574 30.267 26.1851C30.267 26.0122 30.4565 25.7707 30.5084 25.5466C30.5084 25.3564 30.4392 25.1841 30.4392 24.9766C30.5948 24.8389 30.5948 24.7006 30.5948 24.4418C30.5429 24.39 30.4565 24.3381 30.4046 24.3035C30.2324 24.2516 30.0077 24.2516 29.8873 24.235C29.6453 24.1312 29.5595 23.9929 29.4385 23.8552C29.3694 23.941 29.1626 24.0275 29.0934 24.0275C29.128 23.9929 29.1626 23.8552 29.1626 23.6996C29.0588 23.6477 28.8866 23.6477 28.8002 23.5446C28.8002 23.4408 28.9033 23.3371 28.9033 23.2852C28.9033 23.1475 28.8002 23.1302 28.8002 23.0611C28.8002 23.0611 28.9897 22.9227 28.9897 22.8882C29.1626 22.8882 29.1626 23.0957 29.2311 23.0957C29.3694 23.0957 29.4039 22.9573 29.4039 22.8369C29.4039 22.6986 29.6453 22.785 29.6453 22.6121C29.6453 22.6121 29.4558 22.6121 29.3348 22.6121C29.1626 22.4744 29.0588 22.4399 29.0588 22.2669C29.0588 22.0255 29.3694 22.0947 29.3694 22.0255C29.3348 21.8872 29.0934 21.8526 29.0934 21.784C29.1626 21.6457 29.4558 21.6284 29.5076 21.5247C29.5422 21.4043 29.8527 21.3697 30.0077 20.7824C30.0077 20.7824 30.3009 20.42 30.3009 20.2477C30.1978 20.0408 29.9046 19.9889 29.9046 19.9889C29.8182 20.0748 29.749 20.0921 29.6799 20.0921C29.4558 20.0921 29.3694 19.9371 29.3348 19.8679C29.1626 19.8679 29.0243 20.0921 28.9033 20.1266C28.3514 20.1958 28.0581 20.6447 28.0581 20.6447C27.989 20.6447 27.989 20.541 27.989 20.1266C27.9544 19.9889 27.4544 20.1266 27.4198 19.9889C27.4198 19.7987 27.4198 19.6437 27.4198 19.6437C27.4198 19.6437 25.7635 19.0392 25.3665 18.9361C25.211 18.9361 25.211 19.2813 24.6763 19.4535C24.4689 19.4881 24.2621 19.4881 24.2448 19.5919C24.2448 19.6437 24.2448 20.1266 24.2448 20.1266C24.3652 20.2477 24.7103 20.1266 24.814 20.2823C24.9177 20.386 24.9523 20.5756 25.0554 20.6274C25.211 20.7485 25.4696 20.7485 25.4696 20.7485C25.4005 21.3351 25.1591 21.3351 25.1591 21.3351C25.0554 21.542 24.9523 21.5766 24.9523 21.6284C24.9523 21.6803 25.0042 21.7495 25.1937 21.9909C25.211 22.0428 25.2974 22.6813 25.5042 22.8369C25.7462 22.8369 25.8666 22.5776 25.8666 22.5776C25.8666 22.5776 25.953 22.8882 26.0394 23.0265V23.2507C25.7462 23.3717 25.6943 23.5446 25.6943 24.0275C25.4351 24.1312 25.2628 24.2516 25.2628 24.4591C25.2628 24.6487 25.5042 24.8908 25.5042 24.8908L25.0554 25.0976C25.0554 25.0976 25.3665 25.1495 25.3665 25.3391C25.3665 25.5639 24.9523 25.9436 23.0886 26.5649C22.899 26.5994 22.8645 26.7544 22.7607 26.7544C22.5885 26.7544 22.5539 26.4611 22.3465 26.4611C22.278 26.4611 22.2088 26.6513 22.0533 26.7371C21.8983 26.8755 21.3804 27.0996 21.3804 27.5486C22.1051 27.5486 22.2088 27.5486 22.2088 27.635C22.2088 27.8073 22.0014 27.9456 22.0014 28.1525C22.0014 28.3946 22.2434 28.2562 22.4157 28.3946C22.4848 28.4118 22.4848 28.5668 22.5885 28.6533C22.8126 28.8602 22.9336 28.9639 22.9336 29.0677C22.9336 29.1708 22.6397 29.2054 22.3119 29.3437C22.2088 29.4128 22.036 29.4128 21.6909 29.4128C21.2421 29.3783 20.9489 29.3091 20.8624 29.3091C20.7939 29.3437 20.6902 29.4128 20.6556 29.4814C20.5519 29.4987 20.5007 29.5505 20.4142 29.6024C20.4142 29.6024 20.2414 29.758 20.1383 29.8099V30.0168C20.1383 30.0859 20.1895 30.1378 20.2068 30.1378C20.3451 30.1378 20.5352 29.9995 20.6902 29.9476L20.3797 30.362C20.5007 30.5003 21.0007 30.8455 21.5187 30.8455C21.7946 30.8455 22.157 30.7072 22.3465 30.7072C21.9329 31.0178 21.5187 31.2938 21.2421 31.3457C21.2421 31.3457 21.2081 31.2592 21.139 31.2592C21.0007 31.2592 20.9489 31.2592 20.897 31.2592C20.897 31.5013 21.6563 32.6573 22.5885 32.6573C23.2614 32.6573 23.6584 31.7082 23.6584 31.7082C23.6584 31.7082 24.3998 36.0579 24.5553 36.7483C24.7622 37.9908 25.4696 38.9572 25.6079 39.2159C25.7974 39.613 25.6943 39.9755 26.1425 40.5627C26.5913 41.3562 26.7296 41.5118 26.9364 41.7187C27.0747 41.9781 27.1778 42.1158 27.1778 42.1158C27.1778 42.8061 27.3161 44.4117 28.0581 44.4117C28.8002 44.4117 28.7137 43.4274 29.0243 43.4274C29.128 43.3588 29.1971 43.3588 29.4039 43.1686C29.4558 43.1168 29.4385 42.5647 29.7836 42.1676C29.8182 42.1158 29.7836 41.8743 29.8182 41.8224L30.146 41.736C30.0941 41.4254 30.0595 41.2185 30.0595 41.0629C30.0595 40.3206 30.5084 40.3206 30.5084 39.1819C30.4392 39.1819 30.267 38.8713 30.267 38.4051C30.2324 38.3014 30.1978 38.1637 30.1978 38.0253C30.1978 37.7493 30.3009 37.456 30.5602 37.3177C30.8534 37.3177 31.0084 37.456 31.1985 37.456C31.2504 37.456 31.3881 37.456 31.3881 37.456C31.3535 37.3004 31.3023 37.1966 31.3023 37.0935C31.3023 37.0243 31.3535 36.9206 31.5436 36.7996C32.4061 36.6619 32.5962 36.5063 32.6653 36.4031C32.6653 36.3513 32.5271 36.3685 32.5271 36.2994C33.1135 35.8504 33.5105 35.5053 33.7525 35.0051C34.0457 34.5216 34.0111 34.5561 34.7013 34.2109C34.5976 34.2109 34.5976 34.0726 34.5976 34.0035C34.805 34.0035 34.7013 34.1418 34.805 34.1418C35.2532 34.1418 35.4779 34.1072 35.581 33.7966C35.6502 33.7274 35.9261 33.3477 36.0298 33.2099C35.823 33.0025 35.8057 32.761 35.8057 32.761C36.4614 32.761 36.4614 31.7427 36.4614 31.7427C36.4614 31.8638 36.4614 32.0015 36.5478 32.0879C36.5817 32.0879 36.6682 32.0879 36.6682 32.0879C36.7546 31.9842 36.8237 31.9842 36.8756 31.9842C36.9095 31.9842 36.9614 32.0533 36.996 32.0533C37.0305 32.0533 37.0305 32.0015 37.0651 31.9496C37.0651 31.9496 37.0997 32.1917 37.3065 32.1917C37.3065 32.0015 37.3065 31.8465 37.2034 31.7427C37.1688 31.6736 37.117 31.5532 37.0651 31.4667C37.0651 31.363 37.0651 31.2592 37.0651 31.2592C37.0305 31.0005 36.8237 31.1561 36.8237 31.0005C36.8237 30.7072 37.0651 29.8957 37.0651 29.8957C37.1688 29.7926 37.117 29.7926 37.2034 29.758C37.0651 29.758 37.0997 29.8612 37.0651 29.8612C36.8583 29.758 36.7546 29.758 36.7546 29.7062C36.7719 29.5851 36.7719 29.4814 36.7719 29.4814C36.9095 29.4814 36.9095 29.3437 37.1688 29.3437C37.2207 29.2745 37.2719 29.0677 37.3065 29.0504C37.4102 28.9639 37.6689 29.0158 37.6689 28.9639C37.5658 28.8602 37.6516 28.7052 37.5485 28.6187C37.4275 28.5668 37.3065 28.5668 37.2207 28.5668C37.117 28.3946 36.996 28.3081 36.996 28.2562C37.0305 28.0667 37.2034 27.8073 37.3065 27.8073C37.3065 27.8073 37.4794 27.911 37.5658 27.911C37.6689 27.911 37.7207 27.7554 37.7726 27.7554C37.8763 27.8419 37.9794 28.0667 38.0658 28.1006C38.1177 28.1006 38.2041 28.0494 38.2214 27.9975C38.2733 28.1006 38.3245 28.2908 38.4109 28.36C38.5319 28.4118 38.6011 28.4118 38.6356 28.4118C38.6356 28.4118 38.7214 28.5841 38.756 28.7052C38.756 28.757 38.7214 28.8256 38.6696 28.8256C38.756 28.791 38.7733 28.791 39.1184 28.757C39.4116 28.757 39.8777 28.791 40.7747 28.8947C40.7747 28.8947 40.8784 29.0504 40.8784 29.1022C40.8784 29.1708 40.8266 29.2054 40.7747 29.2054C40.7062 29.3783 40.1537 29.2054 39.9296 29.4814C39.5326 29.6024 39.5672 29.9476 39.5326 29.9476C39.5326 29.9476 39.7049 30.0168 39.774 30.0859C39.8777 30.1551 39.8259 30.3447 39.9296 30.362C40.0672 30.3965 40.0672 30.5688 40.0672 30.5688C40.2747 30.2582 40.2747 30.0168 40.3784 29.8957C40.4296 29.8957 40.5333 29.8957 40.6025 29.8957C40.6025 29.8957 40.7235 30.0168 40.7235 30.1551C40.7235 30.2928 40.7235 30.4484 40.7235 30.5688C40.7235 30.7072 40.8784 30.7936 40.8784 30.914C40.8784 31.1907 40.8784 31.3975 40.8784 31.3975C40.9303 31.3457 40.9821 31.2938 41.034 31.2938C41.1198 31.2938 41.1717 31.363 41.2581 31.4494C41.2754 31.4494 41.4303 31.2592 41.4303 31.1042C41.4303 31.0005 41.2754 30.8455 41.2754 30.7072C41.2754 30.6553 41.534 30.6899 41.5859 30.5688C41.6205 30.5003 41.5859 30.3447 41.6205 30.2928C41.5686 30.2928 41.4303 30.2064 41.4303 30.0168C41.4649 29.9476 41.534 29.9476 41.6205 29.9476C41.7588 29.9476 41.9137 30.0168 42.0174 30.0168C42.0693 30.0168 42.1211 29.9995 42.1211 29.913C42.1211 29.4474 42.2761 29.2745 42.5175 29.0158C42.5175 28.9639 42.3798 28.8602 42.3798 28.7052C42.3798 28.6187 42.4144 28.5668 42.4835 28.4977C42.5693 28.2908 42.4835 27.9629 42.673 27.7554C42.7767 27.635 43.0008 27.635 43.1218 27.514C43.2422 27.3929 43.2422 27.1861 43.3459 27.0996C43.4496 27.0138 43.5355 26.9619 43.6219 26.9619C43.8805 26.9619 44.1053 27.1515 44.3121 27.1515C44.3121 26.8755 44.1398 26.6513 44.1053 26.4611C44.1053 26.3061 44.3121 26.2197 44.3812 26.1159ZM30.9911 15.1562C39.7221 15.1562 46.8487 22.2842 46.8487 31.0005C46.8487 39.7167 39.7221 46.8453 30.9911 46.8453C22.278 46.8453 15.1687 39.7167 15.1687 31.0005C15.1687 22.2842 22.278 15.1562 30.9911 15.1562Z" fill="#0D0F8C"/>
<path fill-rule="evenodd" clip-rule="evenodd" d="M30.991 13.3262C33.4239 13.3262 35.7537 13.8264 37.8589 14.7242C39.9813 15.6215 41.879 16.9158 43.4841 18.5213C45.0885 20.109 46.3825 22.0251 47.2801 24.1481C48.1771 26.2539 48.6605 28.5665 48.6605 31.0001C48.6605 33.4337 48.1771 35.7463 47.2801 37.8694C46.3825 39.9751 45.0885 41.8912 43.4841 43.4789C41.879 45.0844 39.9813 46.396 37.8589 47.276C35.7537 48.1738 33.4239 48.674 30.991 48.674C28.558 48.674 26.2461 48.1738 24.141 47.276C22.0358 46.396 20.1208 45.0844 18.5158 43.4789C16.9286 41.8912 15.6173 39.9751 14.7197 37.8694C13.8227 35.7463 13.3394 33.4337 13.3394 31.0001C13.3394 28.5665 13.8227 26.2539 14.7197 24.1481C15.6173 22.0251 16.9286 20.109 18.5158 18.5213C20.1208 16.9158 22.0358 15.6215 24.141 14.7242C26.2461 13.8264 28.558 13.3262 30.991 13.3262ZM30.991 13.982C33.3381 13.982 35.5636 14.4655 37.5996 15.3282C39.6362 16.1914 41.4647 17.4339 43.018 18.9876C44.5539 20.5233 45.8133 22.353 46.6584 24.3896C47.5215 26.4262 48.0048 28.6702 48.0048 31.0001C48.0048 33.3473 47.5215 35.574 46.6584 37.6106C45.8133 39.6472 44.5539 41.4769 43.018 43.0306C41.4647 44.5663 39.6362 45.8094 37.5996 46.672C35.5636 47.5353 33.3381 48.0182 30.991 48.0182C28.6444 48.0182 26.4189 47.5353 24.3823 46.672C22.3463 45.8094 20.5178 44.5663 18.9818 43.0306C17.4459 41.4769 16.1865 39.6472 15.3235 37.6106C14.4611 35.574 13.9777 33.3473 13.9777 31.0001C13.9777 28.6702 14.4611 26.4262 15.3235 24.3896C16.1865 22.353 17.4459 20.5233 18.9818 18.9876C20.5178 17.4339 22.3463 16.1914 24.3823 15.3282C26.4189 14.4655 28.6444 13.982 30.991 13.982Z" fill="#0D0F8C"/>
<path fill-rule="evenodd" clip-rule="evenodd" d="M30.991 12.4113C41.2407 12.4113 49.592 20.765 49.592 31.0004C49.592 41.2357 41.2407 49.5894 30.991 49.5894C20.7592 49.5894 12.4078 41.2357 12.4078 31.0004C12.4078 20.765 20.7592 12.4113 30.991 12.4113ZM30.991 11.6523C41.6549 11.6523 50.3341 20.3513 50.3341 31.0004C50.3341 41.65 41.6549 50.349 30.991 50.349C20.3622 50.349 11.6658 41.65 11.6658 31.0004C11.6658 20.3513 20.3622 11.6523 30.991 11.6523Z" fill="#0D0F8C"/>
<path fill-rule="evenodd" clip-rule="evenodd" d="M30.9911 4.04006L32.3721 4.07464L33.7351 4.17839L35.0982 4.35129L36.4095 4.59274L37.7207 4.88606L38.998 5.26583L40.2573 5.69748L41.4821 6.18037L42.673 6.71576L43.8466 7.31969L44.9676 7.9582L46.0548 8.66588L47.1073 9.42542L48.1253 10.2195L49.1088 11.0649L50.0409 11.9628L50.9379 12.8946L51.7837 13.861L52.5776 14.8793L53.3363 15.9322L54.0438 17.0369L54.6821 18.159L55.2865 19.3329L55.8211 20.5234L56.3045 21.7492L56.736 23.0089L57.0984 24.2687L57.4089 25.5809L57.633 26.9098L57.8052 28.256L57.9089 29.6194L57.9435 31.0002L57.9089 32.381L57.8052 33.7271L57.633 35.0906L57.4089 36.4028L57.0984 37.7145L56.736 38.9915L56.3045 40.2518L55.8211 41.477L55.2865 42.6682L54.6821 43.8414L54.0438 44.9635L53.3363 46.0509L52.5776 47.1211L51.7837 48.1221L50.9379 49.1058L50.0409 50.0376L49.1088 50.9355L48.1253 51.7809L47.1073 52.5923L46.0548 53.3345L44.9676 54.0422L43.8466 54.6807L42.673 55.2846L41.4821 55.82L40.2573 56.3035L38.998 56.7346L37.7207 57.097L36.4095 57.4077L35.0982 57.6324L33.7351 57.8047L32.3721 57.9085L30.9911 57.943L29.6107 57.9085L28.2476 57.8047L26.9018 57.6324L25.5906 57.4077L24.2794 57.097L23.0021 56.7346L21.7427 56.3035L20.5352 55.82L19.3271 55.2846L18.1708 54.6807L17.0497 54.0422L15.9453 53.3345L14.8927 52.5923L13.8747 51.7809L12.8907 50.9355L11.9591 50.0376L11.0794 49.1058L10.2336 48.1221L9.42246 47.1211L8.68042 46.0509L7.97356 44.9635L7.31733 43.8414L6.73086 42.6682L6.17896 41.477L5.71287 40.2518L5.26406 38.9915L4.90168 37.7145L4.60845 36.4028L4.36707 35.0906L4.19421 33.7271L4.09111 32.381L4.05654 31.0002L4.09111 29.6194L4.19421 28.256L4.36707 26.9098L4.60845 25.5809L4.90168 24.2687L5.26406 23.0089L5.71287 21.7492L6.17896 20.5234L6.73086 19.3329L7.31733 18.159L7.97356 17.0369L8.68042 15.9322L9.42246 14.8793L10.2336 13.861L11.0794 12.8946L11.9591 11.9628L12.8907 11.0649L13.8747 10.2195L14.8927 9.42542L15.9453 8.66588L17.0497 7.9582L18.1708 7.31969L19.3271 6.71576L20.5352 6.18037L21.7427 5.69748L23.0021 5.26583L24.2794 4.88606L25.5906 4.59274L26.9018 4.35129L28.2476 4.17839L29.6107 4.07464L30.9911 4.04006ZM30.9911 3.33301L32.406 3.36697L33.821 3.47071L35.2013 3.64362L36.5644 3.88507L37.9108 4.19568L39.2221 4.57545L40.4987 5.02438L41.7587 5.50728L42.9835 6.05996L44.1744 6.68118L45.3473 7.35427L46.4517 8.06195L47.5389 8.83878L48.5914 9.64958L49.5921 10.5302L50.5583 11.4447L51.4559 12.3944L52.3356 13.4127L53.1468 14.4483L53.9234 15.5357L54.6481 16.6572L55.321 17.8138L55.9248 19.0049L56.494 20.2301L56.9774 21.4898L57.4256 22.7848L57.7879 24.0964L58.0991 25.4426L58.3405 26.806L58.53 28.1868L58.6337 29.5849L58.6683 31.0002L58.6337 32.4155L58.53 33.8136L58.3405 35.1944L58.0991 36.5578L57.7879 37.904L57.4256 39.2156L56.9774 40.4933L56.494 41.753L55.9248 42.9788L55.321 44.1866L54.6481 45.3432L53.9234 46.4653L53.1468 47.5527L52.3356 48.5883L51.4559 49.5893L50.5583 50.5557L49.5921 51.4702L48.5914 52.3335L47.5389 53.1622L46.4517 53.9212L45.3473 54.6461L44.1744 55.3192L42.9835 55.9238L41.7587 56.4931L40.4987 56.9933L39.2221 57.4249L37.9108 57.8047L36.5644 58.098L35.2013 58.3574L33.821 58.5297L32.406 58.6334L30.9911 58.668L29.5767 58.6334L28.1791 58.5297L26.7987 58.3574L25.435 58.098L24.1065 57.8047L22.7953 57.4249L21.5013 56.9933L20.2413 56.4931L19.0165 55.9238L17.8257 55.3192L16.67 54.6461L15.5483 53.9212L14.4612 53.1622L13.4259 52.3335L12.4079 51.4702L11.4591 50.5557L10.5442 49.5893L9.66446 48.5883L8.85327 47.5527L8.07666 46.4653L7.3519 45.3432L6.69629 44.1866L6.07524 42.9788L5.52334 41.753L5.02268 40.4933L4.59116 39.2156L4.2115 37.904L3.90097 36.5578L3.65959 35.1944L3.47007 33.8136L3.36636 32.4155L3.33179 31.0002L3.36636 29.5849L3.47007 28.1868L3.65959 26.806L3.90097 25.4426L4.2115 24.0964L4.59116 22.7848L5.02268 21.4898L5.52334 20.2301L6.07524 19.0049L6.69629 17.8138L7.3519 16.6572L8.07666 15.5357L8.85327 14.4483L9.66446 13.4127L10.5442 12.3944L11.4591 11.4447L12.4079 10.5302L13.4259 9.64958L14.4612 8.83878L15.5483 8.06195L16.67 7.35427L17.8257 6.68118L19.0165 6.05996L20.2413 5.50728L21.5013 5.02438L22.7953 4.57545L24.1065 4.19568L25.435 3.88507L26.7987 3.64362L28.1791 3.47071L29.5767 3.36697L30.9911 3.33301Z" fill="#0D0F8C"/>
<path fill-rule="evenodd" clip-rule="evenodd" d="M30.9911 2.02051L32.4752 2.05509L33.942 2.15883L35.3915 2.34841L36.8237 2.60777L38.2387 2.93567L39.6017 3.31544L40.9475 3.78105L42.2588 4.31643L43.5527 4.88578L44.8127 5.52429L46.0202 6.23197L47.1938 6.99151L48.3328 7.78564L49.4199 8.64831L50.4725 9.56347L51.4732 10.5126L52.422 11.5309L53.3363 12.5664L54.1994 13.6712L55.0105 14.8105L55.7693 15.9838L56.4594 17.1923L57.0984 18.4347L57.6849 19.7296L58.2022 21.0412L58.6683 22.4047L59.0652 23.7682L59.3758 25.1835L59.6344 26.5989L59.8246 28.0488L59.9449 29.5154L59.9795 30.9999L59.9449 32.4844L59.8246 33.9516L59.6344 35.3837L59.3758 36.8163L59.0652 38.2316L58.6683 39.6124L58.2022 40.9592L57.6849 42.2708L57.0984 43.5478L56.4594 44.8076L55.7693 46.0161L55.0105 47.19L54.1994 48.3287L53.3363 49.4161L52.422 50.469L51.4732 51.47L50.4725 52.437L49.4199 53.3342L48.3328 54.1975L47.1938 55.0083L46.0202 55.7679L44.8127 56.4583L43.5527 57.1141L42.2588 57.7007L40.9475 58.2188L39.6017 58.6677L38.2387 59.0648L36.8237 59.3927L35.3915 59.6341L33.942 59.8237L32.4752 59.9447L30.9911 59.9793L29.5076 59.9447L28.0408 59.8237L26.5913 59.6341L25.1764 59.3927L23.7787 59.0648L22.3983 58.6677L21.0525 58.2188L19.7413 57.7007L18.4474 57.1141L17.2046 56.4583L15.9798 55.7679L14.8063 55.0083L13.6846 54.1975L12.5802 53.3342L11.5449 52.437L10.5269 51.47L9.57803 50.469L8.66375 49.4161L7.80071 48.3287L7.00681 47.19L6.24748 46.0161L5.54063 44.8076L4.90168 43.5478L4.31521 42.2708L3.79788 40.9592L3.33179 39.6124L2.95212 38.2316L2.62431 36.8163L2.36565 35.3837L2.17551 33.9516L2.0718 32.4844L2.03784 30.9999L2.0718 29.5154L2.17551 28.0488L2.36565 26.5989L2.62431 25.1835L2.95212 23.7682L3.33179 22.4047L3.79788 21.0412L4.31521 19.7296L4.90168 18.4347L5.54063 17.1923L6.24748 15.9838L7.00681 14.8105L7.80071 13.6712L8.66375 12.5664L9.57803 11.5309L10.5269 10.5126L11.5449 9.56347L12.5802 8.64831L13.6846 7.78564L14.8063 6.99151L15.9798 6.23197L17.2046 5.52429L18.4474 4.88578L19.7413 4.31643L21.0525 3.78105L22.3983 3.31544L23.7787 2.93567L25.1764 2.60777L26.5913 2.34841L28.0408 2.15883L29.5076 2.05509L30.9911 2.02051ZM30.9911 2.64235L32.4406 2.67631L33.8728 2.78005L35.3051 2.97025L36.7027 3.2117L38.0658 3.5396L39.4289 3.91937L40.7401 4.3683L42.0174 4.86849L43.2768 5.45513L44.5022 6.07697L45.6924 6.76735L46.8487 7.49232L47.9531 8.28583L49.023 9.13182L50.0582 10.0291L51.0417 10.9615L51.9732 11.9452L52.8708 12.9635L53.6987 14.051L54.5099 15.1557L55.2346 16.3117L55.9248 17.4856L56.5459 18.7107L57.1151 19.9711L57.6157 21.2654L58.0645 22.577L58.4615 23.9238L58.772 25.304L59.0307 26.702L59.2035 28.1174L59.3239 29.55L59.3585 30.9999L59.3239 32.4498L59.2035 33.8825L59.0307 35.2978L58.772 36.6959L58.4615 38.0767L58.0645 39.4228L57.6157 40.7344L57.1151 42.0294L56.5459 43.2891L55.9248 44.497L55.2346 45.7054L54.5099 46.8448L53.6987 47.9662L52.8708 49.019L51.9732 50.0546L51.0417 51.0389L50.0582 51.9708L49.023 52.868L47.9531 53.714L46.8487 54.4908L45.6924 55.2331L44.5022 55.9235L43.2768 56.562L42.0174 57.1141L40.7401 57.6322L39.4289 58.0805L38.0658 58.4602L36.7027 58.7709L35.3051 59.0302L33.8728 59.2025L32.4406 59.3235L30.9911 59.3581L29.5422 59.3235L28.11 59.2025L26.695 59.0302L25.2974 58.7709L23.9343 58.4602L22.5885 58.0805L21.2766 57.6322L19.9827 57.1141L18.7233 56.562L17.4979 55.9235L16.3077 55.2331L15.1687 54.4908L14.047 53.714L12.9771 52.868L11.9418 51.9708L10.9757 51.0389L10.0268 50.0546L9.14651 49.019L8.30137 47.9662L7.50747 46.8448L6.78272 45.7054L6.09253 44.497L5.4542 43.2891L4.8844 42.0294L4.38435 40.7344L3.93554 39.4228L3.53859 38.0767L3.22807 36.6959L2.98669 35.2978L2.79655 33.8825L2.67617 32.4498L2.6416 30.9999L2.67617 29.55L2.79655 28.1174L2.98669 26.702L3.22807 25.304L3.53859 23.9238L3.93554 22.577L4.38435 21.2654L4.8844 19.9711L5.4542 18.7107L6.09253 17.4856L6.78272 16.3117L7.50747 15.1557L8.30137 14.051L9.14651 12.9635L10.0268 11.9452L10.9757 10.9615L11.9418 10.0291L12.9771 9.13182L14.047 8.28583L15.1687 7.49232L16.3077 6.76735L17.4979 6.07697L18.7233 5.45513L19.9827 4.86849L21.2766 4.3683L22.5885 3.91937L23.9343 3.5396L25.2974 3.2117L26.695 2.97025L28.11 2.78005L29.5422 2.67631L30.9911 2.64235Z" fill="#0D0F8C"/>
</svg>
