<svg width="54" height="44" viewBox="0 0 54 44" fill="none" xmlns="http://www.w3.org/2000/svg">
<path d="M21.5182 22.4855C22.0455 23.0227 22.9002 23.0227 23.4276 22.4855L24.3818 21.5136C24.9092 20.9765 24.9092 20.1059 24.3818 19.5688L21.368 16.5L24.381 13.4303C24.9083 12.8932 24.9083 12.0227 24.381 11.4855L23.4267 10.5136C22.8994 9.97648 22.0447 9.97648 21.5173 10.5136L16.5949 15.5272C16.0675 16.0643 16.0675 16.9348 16.5949 17.472L21.5182 22.4855ZM29.619 21.5145L30.5733 22.4864C31.1006 23.0235 31.9553 23.0235 32.4827 22.4864L37.4051 17.4728C37.9325 16.9357 37.9325 16.0652 37.4051 15.528L32.4827 10.5145C31.9553 9.97734 31.1006 9.97734 30.5733 10.5145L29.619 11.4864C29.0917 12.0235 29.0917 12.8941 29.619 13.4312L32.632 16.5L29.619 19.5697C29.0917 20.1068 29.0917 20.9773 29.619 21.5145ZM52.65 35.75H32.1924C32.13 37.4524 30.9513 38.5 29.43 38.5H24.3C22.723 38.5 21.5139 36.9987 21.535 35.75H1.35C0.6075 35.75 0 36.3688 0 37.125V38.5C0 41.525 2.43 44 5.4 44H48.6C51.57 44 54 41.525 54 38.5V37.125C54 36.3688 53.3925 35.75 52.65 35.75ZM48.6 4.125C48.6 1.85625 46.7775 0 44.55 0H9.45C7.2225 0 5.4 1.85625 5.4 4.125V33H48.6V4.125ZM43.2 27.5H10.8V5.5H43.2V27.5Z" fill="#CB202D"/>
</svg>
