<svg width="28" height="22" viewBox="0 0 28 22" fill="none" xmlns="http://www.w3.org/2000/svg">
<path d="M23.52 9.73672C23.6994 9.27695 23.8 8.77422 23.8 8.25C23.8 5.97266 21.9187 4.125 19.6 4.125C18.7381 4.125 17.9331 4.38281 17.2681 4.82109C16.0562 2.75859 13.7944 1.375 11.2 1.375C7.3325 1.375 4.2 4.45156 4.2 8.25C4.2 8.36602 4.20437 8.48203 4.20875 8.59805C1.75875 9.44453 0 11.7391 0 14.4375C0 17.8535 2.82187 20.625 6.3 20.625H22.4C25.4931 20.625 28 18.1629 28 15.125C28 12.4652 26.075 10.2438 23.52 9.73672ZM17.2113 12.375H14.35V17.1875C14.35 17.5656 14.035 17.875 13.65 17.875H11.55C11.165 17.875 10.85 17.5656 10.85 17.1875V12.375H7.98875C7.36313 12.375 7.0525 11.6359 7.49438 11.202L12.1056 6.67305C12.3769 6.40664 12.8231 6.40664 13.0944 6.67305L17.7056 11.202C18.1475 11.6359 17.8325 12.375 17.2113 12.375Z" fill="#CB202D"/>
</svg>
