<svg width="340" height="340" viewBox="0 0 340 340" fill="none" xmlns="http://www.w3.org/2000/svg">
<path d="M246.588 25.2285C209.868 27.1325 198.444 59.0517 193.854 74.4605C186.34 99.6885 181.145 112.146 162.262 113.411C142.542 114.737 135.456 97.8253 114.662 80.5125C90.474 60.3505 51.2788 61.7173 27.2 108.297C0.224396 160.521 30.4368 213.296 81.3892 252.185C110.514 274.421 139.788 278.705 182.811 269.532C257.815 253.532 305.544 194.168 317.172 125.664C323.782 86.7889 307.102 22.0869 246.588 25.2285Z" fill="#CB202D"/>
<path opacity="0.7" d="M246.588 25.2285C209.868 27.1325 198.444 59.0517 193.854 74.4605C186.34 99.6885 181.145 112.146 162.262 113.411C142.542 114.737 135.456 97.8253 114.662 80.5125C90.474 60.3505 51.2788 61.7173 27.2 108.297C0.224396 160.521 30.4368 213.296 81.3892 252.185C110.514 274.421 139.788 278.705 182.811 269.532C257.815 253.532 305.544 194.168 317.172 125.664C323.782 86.7889 307.102 22.0869 246.588 25.2285Z" fill="white"/>
<path d="M127.18 271.279H94.7104V315.602H127.18V271.279Z" fill="#CB202D"/>
<path opacity="0.4" d="M127.18 271.279H94.7104V315.602H127.18V271.279Z" fill="black"/>
<path d="M183.641 209.719H151.171V315.602H183.641V209.719Z" fill="#CB202D"/>
<path opacity="0.3" d="M183.641 209.719H151.171V315.602H183.641V209.719Z" fill="black"/>
<path d="M241.495 185.144H209.025V315.602H241.495V185.144Z" fill="#CB202D"/>
<path opacity="0.2" d="M241.495 185.144H209.025V315.602H241.495V185.144Z" fill="black"/>
<path d="M299.35 142.175H266.88V315.602H299.35V142.175Z" fill="#CB202D"/>
<path opacity="0.1" d="M299.35 142.175H266.88V315.602H299.35V142.175Z" fill="black"/>
<path d="M117.45 65.8785C117.491 65.5834 117.511 65.2857 117.511 64.9877C117.49 63.3063 116.846 61.6923 115.705 60.4575C114.563 59.2227 113.005 58.4547 111.33 58.3017C109.656 58.1487 107.984 58.6216 106.637 59.6291C105.291 60.6366 104.366 62.1072 104.04 63.7569H103.918C102.924 63.7546 101.947 64.0214 101.093 64.529C100.238 65.0366 99.5363 65.7661 99.0625 66.6401C98.2309 66.1797 97.293 65.9453 96.3425 65.9601C94.8745 65.9673 93.4695 66.5574 92.4365 67.6006C91.4036 68.6437 90.8273 70.0545 90.8345 71.5225C90.8418 72.9906 91.4318 74.3956 92.475 75.4285C93.5181 76.4615 94.9289 77.0377 96.3969 77.0305L117.307 76.9285C118.743 76.8978 120.111 76.3101 121.122 75.2896C122.132 74.269 122.707 72.8955 122.723 71.4592C122.74 70.023 122.198 68.6364 121.211 67.5925C120.225 66.5487 118.871 65.9292 117.436 65.8649L117.45 65.8785Z" fill="white"/>
<path d="M109.766 58.2217C108.356 58.4116 107.042 59.0386 106.008 60.0145C104.973 60.9903 104.271 62.2658 103.999 63.6617H103.877C102.881 63.664 101.905 63.9357 101.051 64.4481C100.198 64.9606 99.4988 65.6945 99.0286 66.5721C98.1943 66.1183 97.2583 65.8843 96.3086 65.8921" stroke="#263238" stroke-width="0.652057" stroke-linecap="round" stroke-linejoin="round"/>
<path d="M117.423 64.1307C117.219 62.4746 116.414 60.9511 115.16 59.8502C113.906 58.7493 112.291 58.1479 110.623 58.1603" stroke="#263238" stroke-width="0.652057" stroke-linecap="round" stroke-linejoin="round"/>
<path d="M117.287 76.881C118.723 76.8503 120.091 76.2626 121.101 75.242C122.112 74.2214 122.686 72.8479 122.703 71.4117C122.72 69.9754 122.178 68.5889 121.191 67.545C120.205 66.5011 118.851 65.8816 117.416 65.8174" stroke="#263238" stroke-width="0.652057" stroke-linecap="round" stroke-linejoin="round"/>
<path d="M114.444 76.8945H116.409" stroke="#263238" stroke-width="0.652057" stroke-linecap="round" stroke-linejoin="round"/>
<path d="M95.3632 65.9941C94.0069 66.2488 92.7943 67.0004 91.9628 68.1019C91.1313 69.2034 90.7407 70.5755 90.8674 71.9498C90.9941 73.324 91.629 74.6016 92.6479 75.5325C93.6668 76.4633 94.9963 76.9806 96.3764 76.9829L113.492 76.9013" stroke="#263238" stroke-width="0.652057" stroke-linecap="round" stroke-linejoin="round"/>
<path d="M257.183 33.3198C257.226 32.9883 257.249 32.6544 257.251 32.3202C257.243 30.4333 256.531 28.6173 255.255 27.2271C253.98 25.8369 252.231 24.9723 250.352 24.8023C248.473 24.6323 246.598 25.1692 245.093 26.3079C243.589 27.4466 242.563 29.1054 242.216 30.9602H242.08C240.965 30.9606 239.87 31.2629 238.912 31.8352C237.954 32.4074 237.169 33.2282 236.64 34.2106C235.72 33.697 234.682 33.43 233.628 33.4354C232.025 33.4951 230.508 34.1758 229.397 35.3335C228.287 36.4912 227.67 38.0353 227.677 39.6395C227.684 41.2436 228.315 42.7822 229.435 43.9301C230.556 45.078 232.079 45.7453 233.682 45.7909L257.04 45.6822C258.68 45.7011 260.259 45.068 261.432 43.9222C262.605 42.7764 263.274 41.2117 263.293 39.5724C263.312 37.933 262.679 36.3533 261.533 35.1807C260.387 34.0081 258.822 33.3387 257.183 33.3198Z" fill="white"/>
<path d="M248.642 24.8066C247.063 25.0221 245.592 25.7292 244.437 26.8277C243.283 27.9262 242.503 29.3603 242.209 30.9266H242.08C240.964 30.927 239.87 31.2294 238.912 31.8017C237.954 32.3739 237.169 33.1947 236.64 34.177C235.719 33.6655 234.682 33.3986 233.628 33.4018" stroke="#263238" stroke-width="0.75" stroke-linecap="round" stroke-linejoin="round"/>
<path d="M257.183 31.3956C256.958 29.5519 256.063 27.8551 254.669 26.6278C253.275 25.4004 251.479 24.728 249.621 24.7384" stroke="#263238" stroke-width="0.75" stroke-linecap="round" stroke-linejoin="round"/>
<path d="M257.04 45.6283C258.588 45.5206 260.038 44.834 261.103 43.7053C262.167 42.5766 262.768 41.0885 262.785 39.537C262.802 37.9856 262.235 36.4846 261.195 35.3326C260.156 34.1807 258.721 33.4622 257.176 33.3203" stroke="#263238" stroke-width="0.75" stroke-linecap="round" stroke-linejoin="round"/>
<path d="M253.858 45.6416H256.054" stroke="#263238" stroke-width="0.75" stroke-linecap="round" stroke-linejoin="round"/>
<path d="M232.56 33.4834C231.052 33.7702 229.705 34.6086 228.782 35.8349C227.858 37.0611 227.425 38.5874 227.566 40.1161C227.707 41.6447 228.412 43.0659 229.544 44.1027C230.676 45.1394 232.154 45.7172 233.689 45.7234L252.79 45.635" stroke="#263238" stroke-width="0.75" stroke-linecap="round" stroke-linejoin="round"/>
<path d="M209.127 46.036C209.99 43.5746 211.595 41.442 213.722 39.9327C215.849 38.4234 218.392 37.612 221 37.6108C222.059 37.6102 223.115 37.7403 224.142 37.9984C225.163 36.6683 226.557 35.6733 228.147 35.1409C229.737 34.6084 231.449 34.5628 233.065 35.0099C234.681 35.457 236.127 36.3763 237.217 37.6502C238.307 38.9241 238.992 40.4944 239.183 42.16C241.754 42.5697 244.077 43.9321 245.689 45.9762C247.302 48.0204 248.086 50.5965 247.885 53.1923C247.684 55.788 246.514 58.2132 244.607 59.9854C242.7 61.7577 240.196 62.7472 237.592 62.7572L210.392 62.798C208.269 62.7986 206.224 61.9968 204.667 60.5532C203.109 59.1097 202.155 57.131 201.995 55.0138C201.835 52.8965 202.481 50.7969 203.804 49.1358C205.127 47.4747 207.028 46.3748 209.127 46.0564V46.036Z" fill="white"/>
<path d="M239.17 42.3369C241.741 42.7467 244.064 44.1097 245.677 46.1546C247.289 48.1994 248.072 50.7763 247.871 53.3726C247.67 55.9688 246.498 58.3941 244.59 60.1658C242.681 61.9375 240.176 62.9258 237.572 62.9341" stroke="#263238" stroke-width="0.75" stroke-linecap="round" stroke-linejoin="round"/>
<path d="M221 37.8079C222.059 37.8078 223.114 37.938 224.142 38.1955C225.08 36.9736 226.335 36.0326 227.772 35.475C229.208 34.9174 230.769 34.7646 232.286 35.0332C233.803 35.3019 235.217 35.9816 236.375 36.9984C237.532 38.0152 238.388 39.3301 238.85 40.7999" stroke="#263238" stroke-width="0.75" stroke-linecap="round" stroke-linejoin="round"/>
<path d="M202.321 52.0747C202.791 50.5606 203.678 49.2096 204.881 48.1765C206.083 47.1434 207.553 46.47 209.121 46.2335C209.881 44.0638 211.221 42.1436 212.995 40.6812C214.769 39.2188 216.91 38.2699 219.185 37.9375" stroke="#263238" stroke-width="0.75" stroke-linecap="round" stroke-linejoin="round"/>
<path d="M231.717 62.9412H210.379C208.155 62.943 206.021 62.0641 204.443 60.4967C202.865 58.9293 201.973 56.801 201.96 54.5771" stroke="#263238" stroke-width="0.75" stroke-linecap="round" stroke-linejoin="round"/>
<path d="M235.001 62.9336H233.961" stroke="#263238" stroke-width="0.75" stroke-linecap="round" stroke-linejoin="round"/>
<path d="M321.334 90.318L309.162 61.9756L280.82 74.1408L284.94 83.7356L296.908 78.6016L276.393 129.989L245.922 168.008L199.546 182.893L199.104 183.036L156.448 205.707L127.466 216.716L118.776 261.535H96.798L78.54 304.464H21.8076V314.908H85.442L103.707 271.98H127.384L136.605 224.407L160.766 215.234L203.177 192.692L252.103 176.991L285.512 135.307L306.605 82.4708L311.739 94.432L321.334 90.318Z" fill="#CB202D"/>
<path d="M20.8965 315.602H309.067" stroke="#263238" stroke-linecap="round" stroke-linejoin="round"/>
<path d="M159.12 197.961L158.93 201.103C158.93 201.103 156.21 202.973 154.081 204.285C152.721 205.122 151.484 205.333 151.647 205.992C152.055 207.678 157.916 205.775 160.847 205.067C163.778 204.36 167.647 204.387 164.812 201.715C164.507 201.388 164.223 201.043 163.962 200.681L164.05 197.479L159.12 197.961Z" fill="#263238" stroke="#263238" stroke-linecap="round" stroke-linejoin="round"/>
<path d="M196.779 173.964C196.779 173.964 197.601 177.255 197.459 178.363C197.275 179.493 197.309 180.647 197.561 181.763C198.125 183.661 199.322 182.906 201.933 182.267C204.707 181.587 206.972 181.396 206.754 180.111C206.537 178.826 203.062 178.574 202.341 177.568C201.62 176.562 201.199 172.862 201.199 172.862L196.779 173.964Z" fill="#263238" stroke="#263238" stroke-linecap="round" stroke-linejoin="round"/>
<path d="M169.116 149.328C169.116 149.328 160.358 167.81 159.066 176.242C157.774 184.674 158.549 199.294 158.549 199.294C158.549 199.294 160.82 200.654 164.669 199.349C164.669 199.349 166.328 178.174 167.579 175.726C168.831 173.278 178.235 159.882 179.955 159.106C181.676 158.331 190.978 164.662 192.311 166.96C193.644 169.259 196.799 177.33 196.799 177.33C196.799 177.33 199.24 178.527 202.382 175.732C202.382 175.732 201.777 165.376 198.873 161.31C195.969 157.243 186.871 147.274 186.871 147.274L169.116 149.328Z" fill="#999999" stroke="#263238" stroke-linecap="round" stroke-linejoin="round"/>
<path opacity="0.3" d="M198.37 167.525C195.099 168.559 192.114 164.628 190.38 162.901C188.646 161.174 185.361 156.006 183.383 157.175C181.404 158.345 179.983 158.025 176.583 157.264C173.183 156.502 168.28 172.224 165.791 174.264C163.302 176.304 164.383 174.855 163.03 187.014C162.078 195.568 159.766 197.697 158.481 198.207C158.481 198.887 158.535 199.322 158.535 199.322C158.535 199.322 160.807 200.682 164.655 199.376C164.655 199.376 166.315 178.201 167.566 175.753C168.817 173.305 178.221 159.909 179.942 159.134C181.662 158.359 190.965 164.689 192.297 166.988C193.63 169.286 196.785 177.358 196.785 177.358C196.785 177.358 199.227 178.555 202.368 175.76C202.138 172.279 201.571 168.829 200.675 165.458C200.492 165.966 200.185 166.421 199.783 166.782C199.381 167.143 198.895 167.398 198.37 167.525Z" fill="black"/>
<path d="M160.48 175.297C160.268 176.552 160.375 177.841 160.793 179.044" stroke="#263238" stroke-width="0.75" stroke-linecap="round" stroke-linejoin="round"/>
<path d="M193.671 164.132C193.671 164.132 191.57 164.635 192.923 168.212" stroke="#263238" stroke-width="0.75" stroke-linecap="round" stroke-linejoin="round"/>
<path d="M172.951 154.843C172.951 154.843 179.275 157.243 178.65 158.114C178.024 158.984 174.862 158.433 174.862 158.433" stroke="#263238" stroke-width="0.75" stroke-linecap="round" stroke-linejoin="round"/>
<path d="M181.696 156.896C183.04 156.204 184.273 155.314 185.354 154.258" stroke="#263238" stroke-width="0.75" stroke-linecap="round" stroke-linejoin="round"/>
<path d="M199.396 165.362C199.396 165.362 197.982 166.899 196.574 166.525" stroke="#263238" stroke-width="0.75" stroke-linecap="round" stroke-linejoin="round"/>
<path d="M165.743 176.324C165.743 176.324 163.438 176.793 163.159 177.487" stroke="#263238" stroke-width="0.75" stroke-linecap="round" stroke-linejoin="round"/>
<path d="M154.795 129.724L151.157 132.926C149.163 133.546 147.298 134.526 145.656 135.816C142.514 138.128 134.348 144.31 134.348 144.31C133.376 144.627 132.376 144.855 131.362 144.99C130.002 145.139 128.54 146.159 128.833 146.622C129.125 147.084 130.383 146.125 130.689 146.173C130.995 146.22 130.404 149.165 130.805 149.845C131.206 150.525 131.825 149.593 131.825 149.593C131.932 149.681 132.058 149.744 132.192 149.777C132.327 149.81 132.467 149.813 132.603 149.786C132.739 149.759 132.867 149.702 132.978 149.619C133.089 149.536 133.181 149.43 133.246 149.308C133.246 149.308 134.184 149.498 134.348 148.682C134.348 148.682 135.028 148.995 135.238 148.172C135.362 147.682 135.523 147.202 135.721 146.737C135.721 146.737 150.722 139.937 152.918 137.183C152.918 137.183 154.836 136.503 155.162 135.626L158.018 133.375L154.795 129.724Z" fill="white" stroke="#263238" stroke-linecap="round" stroke-linejoin="round"/>
<path d="M131.158 148.519C131.158 148.519 131.736 148.437 131.838 148.709C131.94 148.981 132.518 148.247 132.838 148.403C133.158 148.56 133.593 147.567 134.014 147.818" fill="white"/>
<path d="M131.158 148.519C131.158 148.519 131.736 148.437 131.838 148.709C131.94 148.981 132.518 148.247 132.838 148.403C133.158 148.56 133.593 147.567 134.014 147.818" stroke="#263238" stroke-width="0.75" stroke-linecap="round" stroke-linejoin="round"/>
<path d="M208.427 115.6C207.312 116.688 201.389 130.845 197.234 129.472C194.394 128.483 191.63 127.288 188.965 125.895L191.087 120.394L197.472 123.794C197.472 123.794 197.595 122.073 205.829 114.702C205.829 114.702 204.857 111.982 204.986 110.874C205.115 109.765 204.837 108.589 205.469 108.609C206.101 108.63 205.938 110.554 205.938 110.554L206.081 111.146C206.081 111.146 207.55 111.275 208.121 110.418C208.551 109.849 208.835 109.184 208.951 108.48C209.046 107.956 209.583 107.025 209.841 107.902C209.841 107.902 210.521 107.603 210.521 108.582C210.534 109.109 210.513 109.636 210.46 110.16C210.46 110.16 211.093 108.888 211.331 109.146C211.569 109.405 210.855 110.874 210.855 110.874C210.855 110.874 211.779 110.064 211.861 110.404C211.943 110.744 210.916 111.662 210.698 112.254C210.171 113.509 209.399 114.646 208.427 115.6Z" fill="white" stroke="#263238" stroke-linecap="round" stroke-linejoin="round"/>
<path d="M173.801 117.402C170.986 117.939 162.085 119.775 162.962 122.903C163.785 125.82 168.334 139.794 167.389 148.063C167.362 148.283 167.382 148.506 167.446 148.718C167.51 148.93 167.617 149.127 167.761 149.295C167.905 149.464 168.082 149.601 168.281 149.698C168.48 149.795 168.698 149.849 168.919 149.858C175.005 150.09 181.093 149.453 187 147.968C187.859 147.753 188.608 147.225 189.099 146.489C189.591 145.752 189.79 144.859 189.659 143.983C189.02 139.794 188.088 132.164 188.687 126.187C189.584 117.504 189.101 114.491 173.801 117.402Z" fill="#CB202D" stroke="#263238" stroke-linecap="round" stroke-linejoin="round"/>
<path d="M183.423 119.469C182.651 120.07 182.135 120.941 181.977 121.907C181.82 122.872 182.032 123.862 182.573 124.678" stroke="#263238" stroke-width="0.75" stroke-linecap="round" stroke-linejoin="round"/>
<path d="M165.92 132.368C169.922 138.292 175.891 142.609 182.771 144.554" stroke="#263238" stroke-width="0.75" stroke-linecap="round" stroke-linejoin="round"/>
<path d="M169.749 146.934C172.65 147.179 175.571 147.03 178.432 146.492" stroke="#263238" stroke-width="0.75" stroke-linecap="round" stroke-linejoin="round"/>
<path d="M163.588 121.924L153.265 129.309C153.265 129.309 155.591 134.953 158.066 135.306L165.845 130.24" fill="#CB202D"/>
<path d="M163.588 121.924L153.265 129.309C153.265 129.309 155.591 134.953 158.066 135.306L165.845 130.24" stroke="#263238" stroke-linecap="round" stroke-linejoin="round"/>
<path d="M183.988 117.763C183.988 117.763 189.428 118.722 196.493 122.734C196.493 122.734 196.493 127.038 193.773 129.853L186.748 126.555" fill="#CB202D"/>
<path d="M183.988 117.763C183.988 117.763 189.428 118.722 196.493 122.734C196.493 122.734 196.493 127.038 193.773 129.853L186.748 126.555" stroke="#263238" stroke-linecap="round" stroke-linejoin="round"/>
<path d="M169.864 122.23L171.278 125.045L170.884 132.784C170.884 132.784 170.823 139.421 173.529 149.328L175.569 150.212L177.106 149.002C177.106 149.002 174.284 135.184 174.005 132.566L172.468 124.821L173.584 121.979L171.265 122.264L169.864 122.23Z" fill="#263238" stroke="#263238" stroke-linecap="round" stroke-linejoin="round"/>
<path d="M173.25 118.714C172.176 118.925 170.218 119.319 168.252 119.897C167.847 121.339 167.798 122.859 168.11 124.324C168.509 123.682 169.124 123.203 169.845 122.975C170.566 122.747 171.344 122.784 172.04 123.08C175.052 120.978 177.256 122.536 177.256 122.536C177.072 121.068 176.816 119.611 176.487 118.17C175.488 118.32 174.42 118.496 173.25 118.714Z" fill="#CB202D" stroke="#263238" stroke-width="0.75" stroke-linecap="round" stroke-linejoin="round"/>
<path d="M174.216 115.797C174.216 115.797 174.95 118.095 175.753 118.272C175.753 118.272 174.719 122.318 170.864 121.536C167.008 120.754 171.938 117.109 171.938 117.109L174.216 115.797Z" fill="white" stroke="#263238" stroke-linecap="round" stroke-linejoin="round"/>
<path d="M173.488 115.6C173.488 115.6 174.298 117.436 175.488 117.171C175.488 117.171 174.583 113.975 175.005 112.037C175.426 110.099 174.046 105.196 169.449 106.542C167.378 106.483 165.344 107.101 163.656 108.303C161.01 110.296 160.562 108.834 160.562 108.834C160.562 108.834 160.018 111.207 162.568 110.629C162.568 110.629 161.888 111.989 160.711 111.663C160.711 111.663 161.595 112.88 162.751 112.288C162.751 112.288 161.983 113.349 162.649 114.07C162.649 114.07 165.798 111.547 167.647 111.989C169.497 112.431 173.488 115.6 173.488 115.6Z" fill="#263238" stroke="#263238" stroke-linecap="round" stroke-linejoin="round"/>
<path d="M164.274 114.92C164.274 114.92 165.492 120.7 169.252 122.665C171.768 123.977 174.352 117.483 174.311 116.599C174.671 116.422 174.975 116.151 175.193 115.814C175.411 115.478 175.534 115.089 175.549 114.688C175.61 113.288 174.59 112.948 173.76 113.6C173.76 113.6 173.42 114.58 172.985 114.641C172.55 114.702 172.652 112.166 172.149 111.921C171.646 111.676 170.456 111.567 170.068 110.561C169.68 109.554 168.028 110.969 165.886 111.241C163.744 111.513 163.88 113.485 164.274 114.92Z" fill="white" stroke="#263238" stroke-linecap="round" stroke-linejoin="round"/>
<path d="M166.6 115.974C166.636 116.42 166.581 116.869 166.438 117.293C166.295 117.717 166.068 118.108 165.77 118.442C165.206 119.061 167.375 118.653 167.538 119.088" stroke="#263238" stroke-width="0.75" stroke-linecap="round" stroke-linejoin="round"/>
<path d="M165.512 115.946C165.587 116.238 165.512 116.504 165.417 116.531C165.322 116.558 165.131 116.347 165.063 116.055C164.995 115.762 165.063 115.49 165.158 115.463C165.254 115.436 165.444 115.647 165.512 115.946Z" fill="#263238"/>
<path d="M168.409 115.24C168.477 115.539 168.409 115.797 168.314 115.831C168.219 115.865 168.028 115.648 167.953 115.348C167.879 115.049 167.953 114.791 168.049 114.757C168.144 114.723 168.334 114.92 168.409 115.24Z" fill="#263238"/>
<path d="M170.313 118.415C170.394 119.231 168.443 119.775 168.443 119.775" stroke="#263238" stroke-width="0.75" stroke-linecap="round" stroke-linejoin="round"/>
<path d="M164.274 114.92C164.571 114.807 164.893 114.773 165.207 114.823C165.521 114.874 165.816 115.005 166.063 115.205" stroke="#263238" stroke-width="0.75" stroke-linecap="round" stroke-linejoin="round"/>
<path d="M167.178 114.709C167.178 114.709 167.634 112.954 168.64 113.634" stroke="#263238" stroke-width="0.75" stroke-linecap="round" stroke-linejoin="round"/>
<path d="M206.788 112.2C206.987 112.408 207.128 112.664 207.196 112.944C207.264 113.223 207.257 113.516 207.176 113.791" fill="white"/>
<path d="M206.788 112.2C206.987 112.408 207.128 112.664 207.196 112.944C207.264 113.223 207.257 113.516 207.176 113.791" stroke="#263238" stroke-linecap="round" stroke-linejoin="round"/>
<path d="M272.843 125.698C271.638 123.011 270.296 120.388 268.824 117.837C267.281 115.43 257.808 116.477 254.062 117.592C250.315 118.707 248.112 132.362 247.384 136.809C246.656 141.256 251.634 160.351 251.634 160.351C249.873 162.778 244.8 162.112 244.8 162.112C244.8 162.112 239.516 146.907 238.415 138.992C237.313 131.077 242.087 111.445 242.087 111.445L256.897 107.651C256.897 107.651 267.655 107.447 272.462 107.705C279.582 108.079 277.454 124.256 277.454 124.256C277.454 124.256 277.032 125.698 272.843 125.698Z" fill="#263238" stroke="#263238" stroke-linecap="round" stroke-linejoin="round"/>
<path d="M245.364 160.134C245.364 160.134 247.017 163.438 244.535 164.757C242.053 166.077 241.026 168.008 242.372 168.008H250.818C252.307 168.008 253.796 167.24 252.47 164.73C252.205 164.234 250.655 158.971 250.655 158.971L245.364 160.134Z" fill="#263238" stroke="#263238" stroke-linecap="round" stroke-linejoin="round"/>
<path d="M272.462 122.883C272.462 122.883 273.013 126.521 273.142 128.616C273.272 130.71 274.686 131.921 276.338 131.152C277.991 130.384 286.035 124.76 285.593 123.543C285.151 122.326 283.39 123.767 281.296 124.223C280.178 124.473 279.04 124.618 277.896 124.658L277.345 121.687L272.462 122.883Z" fill="#263238" stroke="#263238" stroke-linecap="round" stroke-linejoin="round"/>
<path d="M238.932 137.87C238.932 137.87 239.523 140.182 240.842 140.957" stroke="#7F7F7F" stroke-width="0.75" stroke-linecap="round" stroke-linejoin="round"/>
<path d="M247.384 116.824C247.384 116.824 253.001 115.464 252.98 116.274C252.96 117.083 249.58 118.368 249.329 118.994" stroke="#7F7F7F" stroke-width="0.75" stroke-linecap="round" stroke-linejoin="round"/>
<path d="M254.069 116.029C254.069 116.029 257.598 114.533 257.598 113.696" stroke="#7F7F7F" stroke-width="0.75" stroke-linecap="round" stroke-linejoin="round"/>
<path d="M277.44 124.236C276.021 125.037 274.451 125.535 272.83 125.698" stroke="#7F7F7F" stroke-width="0.75" stroke-linecap="round" stroke-linejoin="round"/>
<path d="M251.423 160.936C249.975 162.132 247.506 162.234 246.133 162.187" stroke="#7F7F7F" stroke-width="0.75" stroke-linecap="round" stroke-linejoin="round"/>
<path d="M251.967 77.5202C251.967 77.5202 253.837 70.5774 249.982 68.8094C249.982 68.8094 247.391 66.1642 242.502 68.8094C237.612 71.4546 239.476 73.2022 240.516 72.5766C240.516 72.5766 238.15 74.705 238.755 75.3714C239.36 76.0378 240.516 74.875 240.516 74.875C240.472 76.0704 240.779 77.2524 241.4 78.275C242.393 79.635 247.126 79.1046 247.126 79.1046L250.77 78.4246L251.967 77.5202Z" fill="#263238" stroke="#263238" stroke-linecap="round" stroke-linejoin="round"/>
<path d="M242.495 113.662C241.841 113.627 241.217 113.373 240.724 112.942C240.231 112.51 239.897 111.926 239.775 111.282C239.204 108.352 238.089 102.857 236.871 97.9816C235.103 90.93 228.453 84.1572 245.909 81.2332C262.997 78.3636 259.128 86.0816 258.91 90.7056C258.726 94.4932 257.808 101.586 259.291 105.183C259.565 105.81 259.613 106.512 259.427 107.171C259.241 107.829 258.832 108.403 258.271 108.794C255.156 110.908 249.308 114.043 242.495 113.662Z" fill="#999999" stroke="#263238" stroke-linecap="round" stroke-linejoin="round"/>
<path d="M238.177 92.6504C240.065 95.2323 242.534 97.3339 245.384 98.7857C248.235 100.237 251.386 100.999 254.585 101.008" stroke="#263238" stroke-width="0.75" stroke-linecap="round" stroke-linejoin="round"/>
<path d="M240.945 105.992L255.619 106.121C251.181 108.211 246.346 109.321 241.441 109.379" stroke="#263238" stroke-width="0.75" stroke-linecap="round" stroke-linejoin="round"/>
<path d="M243.957 84.7559C243.957 84.7559 244.637 88.0063 245.317 88.3395C245.317 88.3395 243.664 98.3627 244.99 106.903L245.555 110.154L248.078 111.425L250.165 108.998C250.165 108.998 249.676 106.727 249.485 105.972C248.526 101.599 246.67 93.2423 246.765 88.2919C246.765 88.2919 249.07 86.4695 248.907 84.8919L243.957 84.7559Z" fill="#CB202D" stroke="#263238" stroke-linecap="round" stroke-linejoin="round"/>
<path d="M265.017 85.5576L269.443 81.974C271.227 81.471 272.972 80.8416 274.666 80.0904C278.066 78.6488 286.484 74.3172 286.484 74.3172C287.457 74.2276 288.436 74.2276 289.408 74.3172C290.673 74.4736 292.271 73.8616 292.128 73.3652C291.985 72.8688 290.585 73.4808 290.313 73.3652C290.041 73.2496 291.237 70.6452 290.993 69.9652C290.748 69.2852 290.007 69.9652 290.007 69.9652C289.926 69.8644 289.824 69.7822 289.709 69.7243C289.593 69.6663 289.467 69.634 289.337 69.6295C289.208 69.6249 289.08 69.6483 288.961 69.6981C288.841 69.7478 288.734 69.8227 288.647 69.9176C288.647 69.9176 287.817 69.53 287.491 70.2508C287.416 70.1897 287.327 70.1478 287.233 70.1288C287.138 70.1097 287.04 70.1142 286.947 70.1417C286.855 70.1692 286.771 70.2189 286.702 70.2865C286.633 70.3542 286.581 70.4376 286.552 70.5296C286.327 70.9529 286.073 71.3597 285.791 71.7468C285.791 71.7468 270.926 75.1468 268.287 77.1868L261.447 81.0832L265.017 85.5576Z" fill="white" stroke="#263238" stroke-linecap="round" stroke-linejoin="round"/>
<path d="M232.431 97.0089L227.508 99.7289C226.157 100.997 224.714 102.163 223.19 103.217C220.184 105.386 212.119 110.323 212.119 110.323C211.54 111.109 211.034 111.947 210.61 112.826C210.086 113.988 208.74 115.036 208.4 114.641C208.06 114.247 209.297 113.383 209.352 113.091C209.406 112.798 206.557 112.479 206.06 111.914C205.564 111.35 206.577 111.071 206.577 111.071C206.53 110.948 206.511 110.816 206.521 110.684C206.531 110.552 206.569 110.425 206.634 110.31C206.699 110.195 206.789 110.095 206.896 110.019C207.004 109.943 207.127 109.891 207.257 109.868C207.257 109.868 207.359 108.956 208.141 109.052C208.141 109.052 208.053 108.372 208.869 108.372C209.347 108.406 209.826 108.406 210.304 108.372C210.304 108.372 220.925 97.4373 224.046 96.2405L230.296 92.2217L232.431 97.0089Z" fill="white" stroke="#263238" stroke-linecap="round" stroke-linejoin="round"/>
<path d="M241.829 81.1171C241.829 81.1171 241.074 86.6863 242.087 87.8423C242.087 87.8423 243.148 84.5375 245.963 86.6319C245.963 86.6319 250.043 84.1499 250.641 87.4547C250.641 87.4547 252.076 83.4699 252.001 80.4779L242.862 80.3691L241.829 81.1171Z" fill="#999999" stroke="#263238" stroke-width="0.75" stroke-linecap="round" stroke-linejoin="round"/>
<path d="M236.443 84.4355L226.291 93.7107C226.291 93.7107 229.283 98.3415 231.37 99.3343C233.458 100.327 237.089 93.6019 237.089 93.6019" fill="#999999"/>
<path d="M236.443 84.4355L226.291 93.7107C226.291 93.7107 229.283 98.3415 231.37 99.3343C233.458 100.327 237.089 93.6019 237.089 93.6019" stroke="#263238" stroke-linecap="round" stroke-linejoin="round"/>
<path d="M254.905 80.8254L266.295 77.3574C266.295 77.3574 268.274 81.7842 267.396 84.5382C266.519 87.2922 258.026 87.843 258.026 87.843" fill="#999999"/>
<path d="M254.905 80.8254L266.295 77.3574C266.295 77.3574 268.274 81.7842 267.396 84.5382C266.519 87.2922 258.026 87.843 258.026 87.843" stroke="#263238" stroke-linecap="round" stroke-linejoin="round"/>
<path d="M241.4 78.2548C241.4 78.2548 242.502 85.7348 245.589 85.7348C248.676 85.7348 250.988 81.92 251.206 81.0156C251.325 80.5681 251.418 80.114 251.485 79.6556C251.485 79.6556 251.757 79.982 252.307 79.71C252.858 79.438 253.028 75.9632 252.641 75.9088C252.22 75.8765 251.797 75.8765 251.376 75.9088C251.376 75.9088 251.376 77.6156 250.934 77.5612C250.492 77.5068 250.601 75.188 250.329 74.916C250.057 74.644 249.003 74.9704 248.234 74.4196C247.466 73.8688 246.745 75.0996 244.834 75.188C242.923 75.2764 242.651 74.032 242.114 74.6372C241.577 75.2424 241.992 77.976 241.4 78.2548Z" fill="white" stroke="#263238" stroke-linecap="round" stroke-linejoin="round"/>
<path d="M244.358 79.1729C244.126 79.9062 243.998 80.6684 243.977 81.4373C244.086 82.0017 245.487 81.342 245.534 81.7841" stroke="#263238" stroke-width="0.75" stroke-linecap="round" stroke-linejoin="round"/>
<path d="M245.534 82.994C245.88 83.0026 246.223 82.9381 246.542 82.8044C246.861 82.6708 247.148 82.4712 247.384 82.2188" stroke="#263238" stroke-width="0.75" stroke-linecap="round" stroke-linejoin="round"/>
<path d="M243.148 79.4993C243.148 79.7781 243.025 80.0025 242.876 80.0025C242.726 80.0025 242.597 79.7781 242.597 79.4993C242.597 79.2205 242.726 78.9961 242.876 78.9961C243.025 78.9961 243.148 79.2205 243.148 79.4993Z" fill="#263238"/>
<path d="M246.48 79.343C246.48 79.6218 246.357 79.8462 246.208 79.8462C246.058 79.8462 245.929 79.6218 245.929 79.343C245.929 79.0642 246.051 78.8398 246.208 78.8398C246.364 78.8398 246.48 79.0642 246.48 79.343Z" fill="#263238"/>
<path d="M242.08 77.6493C242.08 77.6493 242.76 76.8197 243.692 78.3293" stroke="#263238" stroke-width="0.75" stroke-linecap="round" stroke-linejoin="round"/>
<path d="M245.296 78.3633C245.296 78.3633 246.5 77.1528 247.112 77.6833" stroke="#263238" stroke-width="0.75" stroke-linecap="round" stroke-linejoin="round"/>
<path d="M266.655 116.831L271.286 117.015" stroke="#7F7F7F" stroke-width="0.75" stroke-linecap="round" stroke-linejoin="round"/>
<path d="M274.353 108.331C275.169 109.12 275.771 110.104 276.102 111.19C276.433 112.277 276.481 113.429 276.243 114.539" stroke="#7F7F7F" stroke-width="0.75" stroke-linecap="round" stroke-linejoin="round"/>
<path d="M109.881 171.666L114.118 167.682C115.172 166.041 116.345 164.48 117.626 163.01C120.136 160.025 127.099 152.912 127.099 152.912C127.486 151.96 127.786 150.974 127.996 149.968C128.228 148.642 129.356 147.248 129.785 147.547C130.213 147.846 129.193 149.063 129.214 149.376C129.234 149.689 132.226 149.281 132.872 149.73C133.518 150.178 132.566 150.722 132.566 150.722C132.646 150.836 132.701 150.965 132.725 151.102C132.75 151.239 132.744 151.379 132.707 151.513C132.671 151.647 132.605 151.771 132.515 151.877C132.424 151.982 132.312 152.066 132.185 152.123C132.185 152.123 132.314 153.075 131.505 153.184C131.505 153.184 131.777 153.864 130.934 154.041C130.44 154.136 129.953 154.268 129.479 154.435C129.479 154.435 121.448 168.328 118.599 170.347L113.308 176.671L109.881 171.666Z" fill="#999999" stroke="#263238" stroke-linecap="round" stroke-linejoin="round"/>
<path d="M102.517 178.024C102.517 178.024 108.399 172.074 111.289 169.864C111.289 169.864 114.736 173.856 114.614 177.344C114.614 177.344 110.044 182.628 107.773 183.131" fill="white"/>
<path d="M102.517 178.024C102.517 178.024 108.399 172.074 111.289 169.864C111.289 169.864 114.736 173.856 114.614 177.344C114.614 177.344 110.044 182.628 107.773 183.131" stroke="#263238" stroke-linecap="round" stroke-linejoin="round"/>
<path d="M115.471 211.596C116.928 212.552 118.102 213.881 118.871 215.445C119.789 217.485 118.871 218.342 120.231 219.6C121.788 221.035 131.111 213.568 130.669 212.297C130.227 211.025 128.35 212.528 126.147 212.977C124.965 213.243 123.76 213.397 122.55 213.439L119.877 208.917L115.471 211.596Z" fill="#263238" stroke="#263238" stroke-linecap="round" stroke-linejoin="round"/>
<path d="M99.824 205.7C99.824 205.7 105.529 203.293 107.617 197.608C107.617 197.608 105.992 203.171 117.137 214.078C117.137 214.078 120.537 213.615 121.795 210.596C121.795 210.596 111.989 187.748 108.528 187.864C105.067 187.979 92.208 198.921 92.208 198.921C92.208 198.921 93.4184 206.72 99.824 205.7Z" fill="#CB202D" stroke="#263238" stroke-linecap="round" stroke-linejoin="round"/>
<path opacity="0.2" d="M109.881 201.402C108.8 198.621 109.344 189.91 107.596 194.691C105.849 199.471 101.701 198.975 101.701 198.975L100.3 200.967L101.986 204.469C104.532 202.825 106.501 200.426 107.617 197.608C107.617 197.608 105.991 203.17 117.137 214.078C118.502 213.832 119.76 213.175 120.741 212.194C117.041 213.255 110.969 204.177 109.881 201.402Z" fill="black"/>
<path d="M108.528 193.195C108.528 193.195 107.773 193.61 107.984 196.187" stroke="#263238" stroke-width="0.75" stroke-linecap="round" stroke-linejoin="round"/>
<path d="M114.24 253.226L114.675 256.014C117.892 259.318 121.632 258.183 121.808 259.665C121.985 261.148 116.763 260.882 114.764 260.882C112.764 260.882 109.283 261.562 108.582 260.359C108.236 259.754 109.215 258.19 109.582 256.775C109.806 255.905 109.852 254.998 109.718 254.11L114.24 253.226Z" fill="#263238" stroke="#263238" stroke-linecap="round" stroke-linejoin="round"/>
<path d="M101.701 162.575C101.701 162.575 104.604 160.141 103.557 159.175C102.51 158.209 101.218 159.957 101.218 159.957C101.218 159.957 102.252 156.829 100.776 156.394C99.3004 155.959 99.1236 159.114 99.1236 159.114C99.1236 159.114 99.0352 156.339 97.5528 156.394C96.0704 156.448 97.5528 158.339 95.03 159.998C92.5072 161.657 89.3792 163.656 91.8136 166.437C91.8136 166.437 90.338 168.178 93.296 170.089C96.254 172 96.9884 172.639 97.376 174.801L100.776 171.571L101.218 165.043L101.701 162.575Z" fill="#263238" stroke="#263238" stroke-linecap="round" stroke-linejoin="round"/>
<path d="M107.984 168.64L112.513 165.002C113.693 163.447 114.986 161.981 116.382 160.616C119.102 157.835 126.582 151.28 126.582 151.28C127.042 150.361 127.417 149.403 127.704 148.417C128.037 147.118 129.254 145.792 129.676 146.146C130.097 146.499 128.996 147.615 128.996 147.921C128.996 148.227 132.001 148.063 132.613 148.56C133.225 149.056 132.226 149.525 132.226 149.525C132.296 149.644 132.34 149.776 132.353 149.913C132.366 150.051 132.35 150.189 132.303 150.319C132.257 150.449 132.183 150.567 132.086 150.665C131.99 150.763 131.872 150.838 131.743 150.885C131.743 150.885 131.797 151.844 130.968 151.892C130.968 151.892 131.185 152.572 130.329 152.701C129.828 152.756 129.333 152.849 128.846 152.98C128.846 152.98 119.761 166.186 116.735 167.96L110.969 173.849L107.984 168.64Z" fill="#999999" stroke="#263238" stroke-linecap="round" stroke-linejoin="round"/>
<path d="M84.9998 202.131C84.9998 202.131 82.5654 207.115 88.2502 212.106C93.935 217.098 104.373 228.576 105.067 232.289C105.76 236.002 109.011 255.144 109.011 255.144C109.011 255.144 112.723 256.184 115.131 254.328C115.131 254.328 115.362 235.913 113.39 228.651C111.418 221.388 104.217 212.474 102.143 206.653C101.88 205.431 101.723 204.189 101.673 202.94L84.9998 202.131Z" fill="#CB202D" stroke="#263238" stroke-linecap="round" stroke-linejoin="round"/>
<path opacity="0.2" d="M107.95 230.664C108.29 228.732 97.3963 213.46 93.9351 213.46C92.5343 213.46 90.2019 212.78 88.2639 212.1C93.9487 217.091 104.373 228.562 105.067 232.268C105.76 235.974 109.011 255.123 109.011 255.123C109.913 255.347 110.843 255.441 111.772 255.402C108.895 254.722 107.603 232.595 107.95 230.664Z" fill="black"/>
<path d="M108.528 229.622C108.016 229.5 107.478 229.533 106.985 229.719C106.492 229.904 106.065 230.233 105.76 230.663" stroke="#263238" stroke-width="0.75" stroke-linecap="round" stroke-linejoin="round"/>
<path d="M102.864 162.833L104.428 165.363C104.428 165.363 106.678 165.709 106.991 166.403C107.304 167.097 105.733 167.532 105.733 167.532C105.733 167.532 107.909 170.055 107.562 170.932C107.216 171.809 104.162 173.455 104.162 173.455L97.4644 173.869C97.4644 173.869 98.5932 171.979 98.0696 170.673C98.0696 170.673 95.5468 170.83 95.812 168.355C96.0772 165.879 97.8112 167.804 97.8112 167.804C98.0442 167.675 98.2242 167.468 98.32 167.219C98.4157 166.97 98.4209 166.696 98.3348 166.444C98.0696 165.403 98.94 164.968 99.0148 164.098C99.0896 163.227 101.32 160.31 102.864 162.833Z" fill="#999999" stroke="#263238" stroke-linecap="round" stroke-linejoin="round"/>
<path d="M103.646 165.376C103.829 165.689 103.829 166.056 103.646 166.124C103.462 166.192 103.183 166.056 103 165.743C102.816 165.43 102.816 165.063 103 164.995C103.183 164.927 103.469 165.07 103.646 165.376Z" fill="#263238"/>
<path d="M102.517 164.057C102.517 164.057 100.341 163.098 100.252 164.057" stroke="#263238" stroke-width="0.75" stroke-linecap="round" stroke-linejoin="round"/>
<path d="M95.8188 176.12V173.4C95.8188 173.4 108.059 170.68 106.474 175.053L105.21 176.12H95.8188Z" fill="white" stroke="#263238" stroke-linecap="round" stroke-linejoin="round"/>
<path d="M84.0684 204.307C85.0182 196.414 87.2532 188.731 90.6848 181.56C96.254 170.252 108.045 173.917 108.433 177.242C109.113 183.145 105.713 188.483 103.999 195.643C102.864 200.349 103.51 204.15 101.993 204.354C98.1648 204.857 84.0684 204.307 84.0684 204.307Z" fill="white" stroke="#263238" stroke-linecap="round" stroke-linejoin="round"/>
<path d="M100.776 174.665C100.776 174.665 106.603 168.641 109.48 166.403C109.48 166.403 112.961 170.368 112.88 173.883C112.88 173.883 108.358 179.215 106.08 179.731" fill="white"/>
<path d="M100.776 174.665C100.776 174.665 106.603 168.641 109.48 166.403C109.48 166.403 112.961 170.368 112.88 173.883C112.88 173.883 108.358 179.215 106.08 179.731" stroke="#263238" stroke-linecap="round" stroke-linejoin="round"/>
<path d="M105.733 182.669C102.254 187.632 97.9642 191.974 93.0444 195.514" stroke="#263238" stroke-width="0.75" stroke-linecap="round" stroke-linejoin="round"/>
<path d="M100.701 191.557C97.9734 195.846 94.1679 199.344 89.6648 201.702C89.7328 201.566 89.794 201.43 89.862 201.287" stroke="#263238" stroke-width="0.75" stroke-linecap="round" stroke-linejoin="round"/>
<path d="M81.8787 205.625C82.294 205.094 82.5699 204.467 82.6811 203.802C82.7423 202.932 82.4907 197.873 83.1095 198.022C83.7283 198.172 83.6943 200.402 83.6943 200.402C83.6943 200.402 85.3943 195.812 85.7343 195.982C86.0743 196.152 85.6527 197.505 85.6527 197.505C85.6527 197.505 86.4959 195.982 86.8087 196.145C87.1215 196.309 86.4075 198.362 86.4075 198.362C86.4075 198.362 87.3119 197.247 87.6247 197.376C87.9375 197.505 86.8291 200.096 86.8291 200.096C86.8291 200.096 87.9919 198.736 88.3183 199.008C88.6447 199.28 87.1147 200.933 86.8427 201.905C86.4176 203.159 85.7211 204.304 84.8027 205.257L84.2995 207.814L81.8787 205.625Z" fill="white" stroke="#263238" stroke-linecap="round" stroke-linejoin="round"/>
<path d="M56.5828 226.895C56.5828 226.895 58.8676 224.889 66.4156 223.658C67.4872 223.492 68.4792 222.992 69.2512 222.23C70.9444 220.551 73.3312 218.327 74.6504 216.92C76.4796 214.914 77.0168 213.751 81.4504 204.278C82.4011 204.421 83.2793 204.871 83.9518 205.558C84.6243 206.245 85.0543 207.133 85.1768 208.086C85.1768 208.086 81.2668 217.477 79.1044 220.496C76.942 223.516 67.5444 230.424 67.5444 230.424" fill="#CB202D"/>
<path d="M56.5828 226.895C56.5828 226.895 58.8676 224.889 66.4156 223.658C67.4872 223.492 68.4792 222.992 69.2512 222.23C70.9444 220.551 73.3312 218.327 74.6504 216.92C76.4796 214.914 77.0168 213.751 81.4504 204.278C82.4011 204.421 83.2793 204.871 83.9518 205.558C84.6243 206.245 85.0543 207.133 85.1768 208.086C85.1768 208.086 81.2668 217.477 79.1044 220.496C76.942 223.516 67.5444 230.424 67.5444 230.424" stroke="#263238" stroke-linecap="round" stroke-linejoin="round"/>
<path d="M55.7532 219.538L57.29 213.595L62.7504 215.859L62.2132 220.803L55.7532 219.538Z" fill="white" stroke="#263238" stroke-linecap="round" stroke-linejoin="round"/>
<path d="M56.2834 218.035C56.2834 218.035 58.3234 214.302 58.3234 213.404C58.3234 213.404 60.7782 212.153 60.3635 210.174C59.9486 208.196 59.6223 206.965 59.6223 206.965L60.3023 205.829C60.3023 205.829 62.6687 205.312 61.9479 203.789C61.2271 202.266 57.7591 204.388 55.4063 204.802C53.0535 205.217 49.8574 206.237 50.891 208.617L50.6599 209.236C50.6599 209.236 48.409 214.309 56.2834 218.035Z" fill="#263238" stroke="#263238" stroke-linecap="round" stroke-linejoin="round"/>
<path d="M54.4612 221.632L55.284 218.47C55.284 218.47 60.588 218.613 63.1108 220.931V223.434L54.4612 221.632Z" fill="#CB202D" stroke="#263238" stroke-linecap="round" stroke-linejoin="round"/>
<path d="M58.7451 215.151C58.7451 215.151 60.9687 218.47 64.2327 217.253C66.5379 216.382 64.5523 213.173 64.5523 213.173C64.5523 213.173 65.6607 212.663 65.6131 212.03C65.5655 211.398 63.7499 210.038 63.7499 210.038C63.7499 210.038 63.4235 207.93 62.8047 207.508L60.3159 205.842C60.3159 205.842 57.5959 205.747 57.5007 206.25C57.4055 206.753 59.1599 208.487 59.1599 208.487C59.1599 208.487 59.3367 212.187 58.8675 212.425C58.3983 212.663 57.1539 212.302 57.1539 212.302C57.1539 212.302 54.7467 211.343 55.1547 213.424C55.5627 215.505 57.7999 216.165 58.7451 215.151Z" fill="white" stroke="#263238" stroke-linecap="round" stroke-linejoin="round"/>
<path d="M63.0495 210.378C63.1651 210.69 63.1515 210.99 63.0495 211.058C62.9475 211.126 62.7095 210.894 62.5939 210.582C62.4783 210.269 62.4851 209.97 62.5939 209.902C62.7027 209.834 62.9271 210.065 63.0495 210.378Z" fill="#263238"/>
<path d="M61.2476 209.052C61.3924 208.871 61.6012 208.751 61.8313 208.718C62.0613 208.685 62.2952 208.742 62.4852 208.875" stroke="#263238" stroke-width="0.75" stroke-linecap="round" stroke-linejoin="round"/>
<path d="M63.24 214.315C63.24 214.315 64.1036 214.635 64.5184 214.247" stroke="#263238" stroke-width="0.75" stroke-linecap="round" stroke-linejoin="round"/>
<path d="M73.2019 296.521L73.6371 299.309C76.8535 302.613 80.5935 301.484 80.7703 302.96C80.9471 304.436 75.7247 304.177 73.7187 304.177C71.7127 304.177 68.2379 304.857 67.5443 303.66C67.1975 303.048 68.1767 301.485 68.5439 300.077C68.768 299.204 68.8119 298.295 68.6731 297.404L73.2019 296.521Z" fill="#263238" stroke="#263238" stroke-linecap="round" stroke-linejoin="round"/>
<path d="M40.12 296.521L38.4676 299.309C41.684 302.613 45.424 301.484 45.6008 302.96C45.7776 304.436 40.5552 304.177 38.556 304.177C36.5568 304.177 33.0752 304.857 32.3748 303.66C32.028 303.048 34.8976 297.404 34.8976 297.404L40.12 296.521Z" fill="#263238" stroke="#263238" stroke-linecap="round" stroke-linejoin="round"/>
<path d="M69.3599 247.588C69.3599 247.588 69.8223 251.267 69.3599 252.674C69.3599 252.674 76.2075 267.77 76.4387 274.502C76.4795 275.733 73.9975 298.03 73.9975 298.03C73.9975 298.03 72.0255 299.635 68.1971 298.03C68.1971 298.03 67.5171 282.037 68.4351 275.658C68.4351 275.658 63.6751 264.098 62.3151 260.528C60.9551 256.958 60.4043 249.451 60.4043 249.451L69.3599 247.588Z" fill="#999999" stroke="#263238" stroke-linecap="round" stroke-linejoin="round"/>
<path opacity="0.3" d="M62.2744 260.528C63.6344 264.071 68.3944 275.658 68.3944 275.658C67.4628 282.037 68.1564 298.03 68.1564 298.03C71.9848 299.635 73.9568 298.03 73.9568 298.03C73.9568 298.03 74.0248 297.466 74.1268 296.521C74.1268 296.521 69.5164 299.608 69.0404 294.617C68.5644 289.626 70.6792 278.977 70.924 275.869C71.1688 272.762 65.8648 266.9 67.4424 262.582C69.02 258.264 69.3192 247.622 69.3192 247.622L60.3364 249.485C60.3364 249.485 60.8804 256.986 62.2744 260.528Z" fill="black"/>
<path d="M72.2363 274.754C72.2363 274.754 73.1543 276.862 74.6435 276.984" stroke="#263238" stroke-width="0.75" stroke-linecap="round" stroke-linejoin="round"/>
<path d="M68.4215 257.536C67.4076 259.45 66.0498 261.16 64.4163 262.582" stroke="#263238" stroke-width="0.75" stroke-linecap="round" stroke-linejoin="round"/>
<path d="M68.4215 248.92C68.4215 248.92 67.5511 256.754 63.5459 262.146C59.5407 267.538 55.8891 277.976 52.7611 280.418C49.6331 282.859 40.2287 297.989 40.2287 297.989C40.2287 297.989 36.1487 300.906 33.6191 297.642C33.6191 297.642 41.4527 281.805 46.3215 275.719C46.3215 275.719 51.1903 263.955 52.7611 260.528C52.7611 260.528 51.7139 255.883 55.1955 249.79L68.4215 248.92Z" fill="#999999" stroke="#263238" stroke-linecap="round" stroke-linejoin="round"/>
<path opacity="0.3" d="M36.4889 297.52C36.2577 293.229 43.2141 284.641 48.0489 274.753C52.8837 264.866 59.2009 263.302 55.8349 262.581C55.131 262.401 54.4776 262.063 53.9248 261.591C53.372 261.12 52.9344 260.528 52.6457 259.861C52.6639 260.09 52.6957 260.317 52.7409 260.541C51.1701 263.941 46.3013 275.733 46.3013 275.733C41.4325 281.819 33.5989 297.656 33.5989 297.656C33.8879 298.051 34.2525 298.385 34.6715 298.638C35.0906 298.892 35.5558 299.059 36.0401 299.131C36.2268 298.911 36.3637 298.653 36.4412 298.375C36.5186 298.097 36.5349 297.805 36.4889 297.52Z" fill="black"/>
<path d="M47.5387 276.324C47.5387 276.324 47.0151 278.847 48.6675 279.983" stroke="#263238" stroke-width="0.75" stroke-linecap="round" stroke-linejoin="round"/>
<path d="M56.2223 251.988C55.9028 251.96 55.5929 251.864 55.3126 251.708C55.0324 251.553 54.7881 251.339 54.5957 251.083C54.4032 250.826 54.267 250.532 54.1957 250.219C54.1245 249.907 54.1199 249.582 54.1823 249.268C54.3541 248.465 54.3541 247.636 54.1823 246.833C52.7815 239.823 48.6403 227.066 51.3739 223.346C55.2023 218.124 63.0291 220.735 65.6539 224.563C68.0271 228.045 70.9783 242.033 70.9715 248.329C70.9674 248.815 70.8091 249.287 70.5194 249.677C70.2298 250.067 69.8237 250.355 69.3599 250.499C65.1171 251.835 60.6565 252.341 56.2223 251.988Z" fill="#CB202D" stroke="#263238" stroke-linecap="round" stroke-linejoin="round"/>
<path d="M81.9875 204.68C82.472 204.208 82.8319 203.624 83.0348 202.98C83.2116 202.13 83.6536 197.084 84.2452 197.315C84.8368 197.546 84.5036 199.75 84.5036 199.75C84.5036 199.75 86.802 195.432 87.0944 195.67C87.3868 195.908 86.802 197.166 86.802 197.166C86.802 197.166 87.8492 195.806 88.162 195.948C88.4748 196.091 87.482 198.09 87.482 198.09C87.482 198.09 88.5292 197.104 88.842 197.281C89.1548 197.458 87.686 199.892 87.686 199.892C87.686 199.892 89.046 198.73 89.3112 199.022C89.5764 199.314 87.856 200.756 87.4548 201.688C86.8713 202.87 86.0357 203.91 85.0068 204.734L84.1568 207.196L81.9875 204.68Z" fill="white" stroke="#263238" stroke-linecap="round" stroke-linejoin="round"/>
<path d="M54.0327 222.298C54.0327 222.298 56.5759 220.625 64.2327 220.435C65.3178 220.412 66.3686 220.05 67.2383 219.401C69.1423 217.966 71.8419 216.096 73.3039 214.879C75.3915 213.138 76.0851 212.057 81.7699 203.278C82.6936 203.548 83.5042 204.111 84.0786 204.883C84.6529 205.655 84.9597 206.593 84.9523 207.556C84.9523 207.556 79.7979 216.328 77.2479 219.02C74.6979 221.713 64.4299 227.289 64.4299 227.289" fill="#CB202D"/>
<path d="M54.0327 222.298C54.0327 222.298 56.5759 220.625 64.2327 220.435C65.3178 220.412 66.3686 220.05 67.2383 219.401C69.1423 217.966 71.8419 216.096 73.3039 214.879C75.3915 213.138 76.0851 212.057 81.7699 203.278C82.6936 203.548 83.5042 204.111 84.0786 204.883C84.6529 205.655 84.9597 206.593 84.9523 207.556C84.9523 207.556 79.7979 216.328 77.2479 219.02C74.6979 221.713 64.4299 227.289 64.4299 227.289" stroke="#263238" stroke-linecap="round" stroke-linejoin="round"/>
<path d="M65.2187 228.282C64.1396 231.033 62.2129 233.37 59.7175 234.953" stroke="#263238" stroke-width="0.75" stroke-linecap="round" stroke-linejoin="round"/>
<path d="M55.6103 240.72L54.1211 248.411" stroke="#263238" stroke-width="0.75" stroke-linecap="round" stroke-linejoin="round"/>
<path d="M68.5576 276.691C68.7517 277.782 69.1791 278.817 69.8105 279.726C70.442 280.636 71.2625 281.398 72.216 281.961" stroke="#263238" stroke-width="0.75" stroke-linecap="round" stroke-linejoin="round"/>
<path d="M113.676 229.561C113.424 231.05 113.179 232.539 112.928 234.021" stroke="#263238" stroke-width="0.75" stroke-linecap="round" stroke-linejoin="round"/>
</svg>
