<svg width="350" height="227" viewBox="0 0 350 227" fill="none" xmlns="http://www.w3.org/2000/svg">
<g clip-path="url(#clip0)">
<path d="M11.0926 174.222C12.8272 156.513 23.3108 138.836 39.9914 132.652C33.8275 150.994 34.3485 170.925 41.4621 188.919C44.2307 195.849 48.0314 203.268 45.7825 210.384C44.3834 214.811 40.7682 218.265 36.684 220.472C32.5996 222.679 28.032 223.799 23.5215 224.898L22.648 225.66C15.0231 209.584 9.35811 191.93 11.0926 174.222Z" fill="#F0F0F0"/>
<path d="M40.167 132.982C30.7489 144.101 24.8212 158.302 23.7847 172.86C23.5607 176.007 23.6072 179.219 24.374 182.296C25.1444 185.289 26.7021 188.021 28.8852 190.208C30.8797 192.289 33.1608 194.186 34.6151 196.715C36.1479 199.38 36.2842 202.451 35.3579 205.349C34.2246 208.895 31.885 211.823 29.4977 214.606C26.847 217.696 24.0447 220.863 22.9889 224.896C22.8609 225.384 22.1105 225.157 22.2382 224.669C24.0753 217.654 30.73 213.522 33.7893 207.166C35.2169 204.201 35.7595 200.787 34.2692 197.734C32.966 195.065 30.6154 193.107 28.5776 191.018C26.438 188.825 24.7781 186.4 23.8785 183.446C22.9583 180.424 22.7861 177.206 22.9287 174.067C23.3052 166.951 24.7981 159.938 27.3526 153.285C30.2259 145.677 34.3793 138.616 39.6331 132.408C39.9584 132.024 40.4902 132.601 40.167 132.982L40.167 132.982Z" fill="white"/>
<path d="M23.8722 168.109C21.4349 167.584 19.2636 166.21 17.746 164.232C16.2283 162.253 15.4632 159.799 15.5872 157.309C15.5932 157.207 15.6384 157.112 15.7132 157.043C15.788 156.974 15.8866 156.937 15.9883 156.94C16.0899 156.942 16.1867 156.984 16.2581 157.056C16.3296 157.129 16.3701 157.226 16.3713 157.328C16.2515 159.647 16.9644 161.932 18.3814 163.771C19.7984 165.611 21.8261 166.883 24.0985 167.359C24.5922 167.462 24.363 168.213 23.8722 168.109Z" fill="white"/>
<path d="M27.7349 189.287C32.0411 186.56 35.1617 182.311 36.4743 177.385C36.604 176.897 37.3545 177.124 37.225 177.611C35.8494 182.735 32.593 187.151 28.1057 189.978C27.6778 190.247 27.3093 189.555 27.7349 189.287Z" fill="white"/>
<path d="M30.9724 146.401C31.8732 146.8 32.859 146.97 33.8415 146.894C34.8239 146.819 35.7722 146.5 36.6012 145.967C37.0255 145.693 37.3935 146.386 36.972 146.658C36.0533 147.243 35.0056 147.593 33.9203 147.679C32.835 147.765 31.7452 147.584 30.7461 147.151C30.6485 147.119 30.5671 147.05 30.5184 146.959C30.4697 146.868 30.4574 146.762 30.4839 146.663C30.5144 146.564 30.5828 146.48 30.6743 146.431C30.7657 146.382 30.8729 146.371 30.9724 146.401H30.9724Z" fill="white"/>
<path d="M92.1143 162.842C91.8543 163.021 91.5942 163.2 91.334 163.385C87.8503 165.809 84.5692 168.512 81.5231 171.467C81.2839 171.692 81.045 171.923 80.8128 172.155C73.5499 179.353 67.6862 187.837 63.5198 197.176C61.8653 200.894 60.496 204.732 59.4237 208.658C57.9431 214.079 56.769 220.075 53.6754 224.559C53.3579 225.03 53.0115 225.482 52.6382 225.91L23.6448 226.666C23.5781 226.635 23.5112 226.61 23.4441 226.579L22.2878 226.662C22.329 226.456 22.3761 226.243 22.4173 226.036C22.4407 225.917 22.4705 225.797 22.4939 225.677C22.5115 225.597 22.5295 225.517 22.5408 225.444C22.5466 225.417 22.5527 225.391 22.5586 225.371C22.57 225.297 22.5883 225.231 22.5998 225.164C22.86 223.972 23.1289 222.78 23.4067 221.588C23.4066 221.581 23.4066 221.581 23.4128 221.574C25.5528 212.494 28.4693 203.513 32.6561 195.26C32.7821 195.011 32.9077 194.757 33.047 194.508C34.9548 190.798 37.1626 187.251 39.6482 183.901C41.0152 182.071 42.4738 180.312 44.0187 178.629C48.0186 174.29 52.6761 170.607 57.8202 167.716C68.0759 161.953 80.0601 159.535 91.2608 162.599C91.5473 162.678 91.8277 162.757 92.1143 162.842Z" fill="#F0F0F0"/>
<path d="M92.0588 163.213C77.8462 166.419 64.5655 174.188 54.9751 185.187C52.9017 187.565 51.0053 190.158 49.7657 193.076C48.5792 195.93 48.1784 199.049 48.6049 202.111C48.9453 204.973 49.6248 207.861 49.2636 210.756C48.8829 213.808 47.1433 216.342 44.6592 218.098C41.6199 220.247 37.9899 221.175 34.4085 221.959C30.4321 222.83 26.288 223.672 23.0177 226.256C22.6214 226.569 22.1589 225.936 22.5546 225.623C28.2444 221.127 36.0447 221.836 42.3131 218.604C45.238 217.096 47.7263 214.697 48.3737 211.362C48.9398 208.446 48.2416 205.467 47.872 202.572C47.4839 199.532 47.6179 196.597 48.678 193.696C49.7624 190.729 51.5614 188.056 53.5649 185.636C58.1491 180.18 63.5624 175.48 69.6063 171.707C76.4804 167.362 84.0468 164.225 91.9783 162.433C92.4693 162.322 92.5466 163.103 92.0589 163.213H92.0588Z" fill="white"/>
<path d="M57.9038 181.448C56.2738 179.561 55.3674 177.156 55.3466 174.662C55.3257 172.168 56.1917 169.749 57.7899 167.835C58.1146 167.449 58.7298 167.935 58.4046 168.322C56.9131 170.101 56.1067 172.355 56.1308 174.677C56.155 176.999 57.0082 179.236 58.5365 180.984C58.8681 181.365 58.2336 181.826 57.9038 181.448Z" fill="white"/>
<path d="M48.2412 200.682C53.3206 201.098 58.3703 199.584 62.3833 196.441C62.7806 196.13 63.2432 196.763 62.8464 197.074C58.6643 200.336 53.4061 201.901 48.1213 201.457C47.6176 201.414 47.7402 200.639 48.2412 200.682H48.2412Z" fill="white"/>
<path d="M76.6407 168.388C77.1193 169.25 77.8043 169.979 78.6342 170.51C79.4642 171.041 80.4131 171.358 81.3957 171.432C81.8996 171.468 81.7765 172.243 81.2758 172.207C80.1905 172.12 79.143 171.769 78.2247 171.184C77.3065 170.599 76.5454 169.798 76.008 168.851C75.9499 168.766 75.9263 168.662 75.942 168.561C75.9578 168.459 76.0117 168.367 76.0928 168.303C76.1769 168.243 76.2816 168.217 76.3842 168.233C76.4867 168.249 76.5789 168.305 76.6407 168.388Z" fill="white"/>
<path d="M262.28 15.5386C261.847 14.2601 256.419 9.91408 259.745 9.18361L262.473 12.8218L275.015 0.277344L276.276 1.53903L262.28 15.5386Z" fill="#CB202D"/>
<path d="M262.28 58.1929C261.847 56.9144 256.419 52.5684 259.745 51.8379L262.473 55.4761L275.015 42.9316L276.276 44.1933L262.28 58.1929Z" fill="#CB202D"/>
<path d="M262.28 101.461C261.847 100.182 256.419 95.836 259.745 95.1055L262.473 98.7437L275.015 86.1992L276.276 87.4609L262.28 101.461Z" fill="#CB202D"/>
<path d="M250.731 66.4804C252.868 66.4804 254.601 64.7472 254.601 62.6093C254.601 60.4714 252.868 58.7383 250.731 58.7383C248.594 58.7383 246.861 60.4714 246.861 62.6093C246.861 64.7472 248.594 66.4804 250.731 66.4804Z" fill="#3F3D56"/>
<path d="M250.731 24.2851C252.868 24.2851 254.601 22.5519 254.601 20.414C254.601 18.2761 252.868 16.543 250.731 16.543C248.594 16.543 246.861 18.2761 246.861 20.414C246.861 22.5519 248.594 24.2851 250.731 24.2851Z" fill="#3F3D56"/>
<path d="M350 11.5117H287.691V12.2859H350V11.5117Z" fill="#3F3D56"/>
<path d="M252.666 111.459C254.803 111.459 256.536 109.726 256.536 107.588C256.536 105.45 254.803 103.717 252.666 103.717C250.529 103.717 248.796 105.45 248.796 107.588C248.796 109.726 250.529 111.459 252.666 111.459Z" fill="#3F3D56"/>
<path d="M350 54.168H287.691V54.9422H350V54.168Z" fill="#3F3D56"/>
<path d="M350 97.4336H287.691V98.2078H350V97.4336Z" fill="#3F3D56"/>
<path d="M272.055 107.229H252.704V87.4863H265.863V88.2605H253.478V106.454H271.281V97.551H272.055V107.229Z" fill="#3F3D56"/>
<path d="M272.055 63.8732H252.704V44.1309H265.863V44.9051H253.478V63.099H271.281V54.1956H272.055V63.8732Z" fill="#3F3D56"/>
<path d="M272.055 19.7423H252.704V0H265.863V0.774208H253.478V18.9681H271.281V10.0647H272.055V19.7423Z" fill="#3F3D56"/>
<path d="M145.712 70.3641C145.712 70.3641 140.541 92.205 146.862 92.205C153.183 92.205 168.123 67.4903 168.123 67.4903L162.951 61.168L153.669 74.0585L153.182 67.4903L145.712 70.3641Z" fill="#A0616A"/>
<path d="M166.745 68.4397C169.523 68.4397 171.776 66.1866 171.776 63.4074C171.776 60.6281 169.523 58.375 166.745 58.375C163.966 58.375 161.714 60.6281 161.714 63.4074C161.714 66.1866 163.966 68.4397 166.745 68.4397Z" fill="#A0616A"/>
<path d="M141.328 219.119L148.024 219.119L151.211 193.281L141.326 193.282L141.328 219.119Z" fill="#A0616A"/>
<path d="M141.092 226.106L161.686 226.105V225.845C161.686 223.718 160.841 221.679 159.338 220.176C157.835 218.672 155.796 217.827 153.67 217.827H153.669L149.908 214.973L142.889 217.828L141.091 217.828L141.092 226.106Z" fill="#2F2E41"/>
<path d="M69.29 210.762L75.2822 213.752L89.6682 192.057L80.8242 187.643L69.29 210.762Z" fill="#A0616A"/>
<path d="M65.959 216.909L84.3859 226.107L84.5022 225.874C85.4514 223.972 85.6062 221.77 84.9325 219.753C84.2587 217.736 82.8117 216.07 80.9096 215.12L80.9092 215.12L78.8178 210.885L71.2632 210.305L69.6546 209.502L65.959 216.909Z" fill="#2F2E41"/>
<path d="M220.54 226.133H0V227H220.54V226.133Z" fill="#CCCCCC"/>
<path d="M98.0296 109.987C98.0296 109.987 95.3533 142.174 94.7787 149.071C94.3847 153.395 93.4185 157.647 91.9056 161.716C91.9056 161.716 90.7563 164.015 90.7563 166.314L77.7315 189.991C77.7315 189.991 73.7513 192.917 74.3259 195.216C74.9006 197.515 71.9263 198.894 71.9263 198.894L85.6426 201.539C85.6426 201.539 85.068 199.814 86.7919 199.24C88.5158 198.665 89.888 193.68 89.888 193.68L109.144 162.291L122.935 133.553C122.935 133.553 130.98 159.417 132.704 162.291C132.704 162.291 139.025 194.477 140.174 197.351C141.323 200.225 141.898 200.225 141.323 201.374C140.749 202.524 140.749 203.674 141.323 204.248C141.898 204.823 152.816 204.248 152.816 204.248L149.943 163.44L144.771 114.586L118.338 106.539L98.0296 109.987Z" fill="#2F2E41"/>
<path d="M123.909 33.1477C130.573 33.1477 135.976 27.7438 135.976 21.0778C135.976 14.4117 130.573 9.00781 123.909 9.00781C117.244 9.00781 111.842 14.4117 111.842 21.0778C111.842 27.7438 117.244 33.1477 123.909 33.1477Z" fill="#A0616A"/>
<path d="M145.92 50.7883L131.555 42.0829C131.555 42.0829 131.157 36.6771 127.064 36.4227C125.009 36.295 121.926 36.0998 117.298 35.8013C116.32 35.7383 115.66 41.09 114.539 41.0174L99.3758 45.0407L101.674 84.1244C101.674 84.1244 98.2266 99.643 99.3758 102.517C100.525 105.391 96.5027 106.54 97.6519 107.115C98.8012 107.69 97.6519 111.713 97.6519 111.713C97.6519 111.713 120.062 123.208 144.771 114.587L142.473 107.115C142.786 106.138 142.844 105.098 142.643 104.092C142.442 103.086 141.988 102.148 141.323 101.367C141.323 101.367 143.622 97.9187 140.749 95.0449C140.749 95.0449 141.898 89.872 139.025 87.573L138.45 79.5263L140.174 75.503L145.92 50.7883Z" fill="#E6E6E6"/>
<path d="M113.438 27.9726L113.1 27.1889C113.057 27.0876 108.789 16.9968 112.572 10.7725C114.323 7.891 117.507 6.26413 122.035 5.93752C129.12 5.42509 133.969 7.10618 136.452 10.9306C136.868 11.5787 137.102 12.3271 137.129 13.0969C137.156 13.8668 136.975 14.6297 136.606 15.3055C136.236 15.9813 135.691 16.545 135.028 16.9373C134.365 17.3296 133.609 17.5361 132.839 17.5349H132.744L131.442 15.8442L131.366 16.0086C130.895 17.0286 129.812 17.5869 128.545 17.4646C128.329 17.4491 128.138 17.6353 127.985 18.0338C127.933 18.2081 127.835 18.3652 127.702 18.4888C127.569 18.6123 127.405 18.6977 127.227 18.736C126.29 18.9184 124.955 17.7381 124.357 17.1499C124.334 17.2853 124.282 17.4142 124.205 17.5278C124.128 17.6414 124.027 17.7371 123.91 17.8085C123.28 18.172 122.3 17.6971 122.019 17.5459C119.777 18.0222 118.326 17.8948 117.705 17.1677C117.284 20.1498 116.379 25.5175 115.295 25.815C115.181 25.8411 115.063 25.83 114.956 25.7834C114.849 25.7368 114.761 25.6571 114.703 25.5562C114.442 25.2171 114.208 25.0481 114.063 25.0956C113.71 25.2078 113.501 26.3699 113.472 27.1199L113.438 27.9726Z" fill="#2F2E41"/>
<path d="M139.6 51.3612L145.332 50.4297C149.461 54.398 152.274 59.5378 153.391 65.1555C155.115 74.3516 155.689 76.0759 155.689 76.0759L141.898 79.5244L134.428 65.1554L139.6 51.3612Z" fill="#E6E6E6"/>
<path d="M114.164 63.323L110.622 108.24L201.022 115.373L204.564 70.4557L114.164 63.323Z" fill="white"/>
<path d="M123.822 66.803C121.61 65.2228 118.801 65.1085 117.728 65.1312C118.055 66.1533 119.073 68.7745 121.285 70.3554C123.503 71.9396 126.308 72.0504 127.379 72.0283C127.052 71.0066 126.035 68.3843 123.822 66.803Z" fill="#CB202D"/>
<path d="M132.55 95.3859L118.034 94.2406C117.605 94.2068 117.174 94.2578 116.764 94.3907C116.355 94.5236 115.976 94.7358 115.649 95.0152C115.322 95.2946 115.053 95.6358 114.857 96.0192C114.662 96.4026 114.544 96.8207 114.51 97.2497C114.476 97.6787 114.527 98.1102 114.66 98.5195C114.793 98.9288 115.005 99.3079 115.285 99.6352C115.564 99.9625 115.905 100.232 116.288 100.427C116.672 100.622 117.09 100.74 117.519 100.774L132.034 101.92C132.9 101.988 133.758 101.709 134.419 101.145C135.08 100.581 135.49 99.7769 135.558 98.9104C135.626 98.044 135.348 97.186 134.783 96.525C134.219 95.864 133.416 95.4543 132.55 95.3859Z" fill="#CB202D"/>
<path d="M201.001 66.0909L119.616 59.6688C118.669 59.5942 117.717 59.7069 116.814 60.0004C115.911 60.2938 115.075 60.7623 114.352 61.3791C113.63 61.996 113.037 62.749 112.606 63.5952C112.175 64.4415 111.915 65.3643 111.84 66.3112L108.71 105.97C108.56 107.883 109.175 109.777 110.42 111.236C111.666 112.696 113.44 113.6 115.352 113.752L196.737 120.174C197.683 120.248 198.636 120.136 199.539 119.842C200.442 119.549 201.278 119.08 202 118.463C202.722 117.847 203.316 117.094 203.747 116.247C204.178 115.401 204.438 114.478 204.513 113.531L207.487 75.8369L207.547 75.0668L207.642 73.8685C207.716 72.9216 207.604 71.9694 207.31 71.0661C207.017 70.1628 206.548 69.3262 205.932 68.6039C205.315 67.8817 204.562 67.2881 203.716 66.8569C202.87 66.4257 201.947 66.1654 201.001 66.0909ZM198.598 100.597L198.082 107.13C197.988 108.284 197.44 109.354 196.56 110.106C195.679 110.857 194.537 111.229 193.383 111.141L182.495 110.283C181.341 110.189 180.272 109.641 179.52 108.76C178.769 107.88 178.397 106.737 178.485 105.583L179.001 99.049C179.096 97.8952 179.643 96.8257 180.523 96.0742C181.404 95.3228 182.546 94.9503 183.7 95.0383L194.584 95.8974C195.738 95.9921 196.807 96.5393 197.559 97.4196C198.311 98.2999 198.684 99.4419 198.598 100.597ZM113.79 97.1895C113.874 96.1323 114.375 95.1517 115.181 94.4629C115.987 93.7742 117.034 93.4334 118.091 93.5156L132.606 94.6616C133.131 94.7021 133.642 94.8456 134.111 95.0838C134.58 95.322 134.997 95.6503 135.339 96.0499C135.681 96.4495 135.941 96.9126 136.104 97.4128C136.267 97.9129 136.33 98.4403 136.289 98.9647C136.248 99.4891 136.104 100 135.866 100.469C135.627 100.938 135.299 101.355 134.899 101.697C134.499 102.039 134.036 102.298 133.536 102.461C133.035 102.623 132.508 102.686 131.984 102.645L131.976 102.646L117.461 101.5C116.937 101.459 116.426 101.314 115.958 101.075C115.489 100.836 115.073 100.507 114.732 100.107C114.391 99.7061 114.132 99.2424 113.97 98.7418C113.809 98.2413 113.748 97.7138 113.79 97.1895ZM116.897 64.8734L116.798 64.4673L117.216 64.429C117.379 64.4115 121.24 64.0647 124.246 66.2122C127.251 68.3597 128.173 72.1275 128.213 72.2851L128.309 72.6922L127.892 72.7342C127.301 72.7782 126.707 72.7742 126.116 72.7225C124.237 72.6124 122.422 71.9993 120.861 70.9472C117.855 68.7997 116.934 65.0319 116.897 64.8734Z" fill="#CB202D"/>
<path d="M186.387 104.929L181.669 104.557C181.333 104.531 181 104.639 180.743 104.859C180.487 105.078 180.328 105.39 180.301 105.727C180.275 106.063 180.383 106.397 180.602 106.654C180.821 106.911 181.133 107.07 181.469 107.097L186.187 107.47C186.523 107.496 186.856 107.387 187.113 107.167C187.369 106.948 187.528 106.636 187.555 106.299C187.581 105.963 187.473 105.629 187.254 105.372C187.035 105.115 186.723 104.956 186.387 104.929Z" fill="#CB202D"/>
<path d="M195.096 105.616L190.379 105.244C190.042 105.218 189.709 105.327 189.453 105.546C189.197 105.766 189.038 106.078 189.012 106.414C188.985 106.751 189.093 107.084 189.312 107.341C189.53 107.598 189.842 107.757 190.178 107.785L194.896 108.157C195.232 108.183 195.565 108.074 195.821 107.854C196.078 107.635 196.237 107.323 196.263 106.987C196.29 106.65 196.182 106.317 195.963 106.06C195.744 105.803 195.433 105.644 195.096 105.616Z" fill="#CB202D"/>
<path d="M186.645 101.663L181.927 101.291C181.591 101.265 181.258 101.374 181.002 101.593C180.745 101.813 180.586 102.125 180.56 102.461C180.533 102.798 180.641 103.131 180.86 103.388C181.079 103.645 181.39 103.804 181.727 103.832L186.444 104.204C186.781 104.23 187.114 104.121 187.37 103.902C187.627 103.682 187.786 103.37 187.812 103.034C187.839 102.697 187.731 102.364 187.512 102.107C187.293 101.85 186.981 101.69 186.645 101.663Z" fill="#CB202D"/>
<path d="M195.354 102.349L190.636 101.976C190.3 101.95 189.967 102.059 189.71 102.279C189.454 102.498 189.295 102.81 189.268 103.147C189.242 103.483 189.35 103.817 189.569 104.074C189.788 104.331 190.1 104.49 190.436 104.517L195.154 104.89C195.49 104.915 195.823 104.807 196.08 104.587C196.336 104.368 196.495 104.056 196.522 103.719C196.548 103.383 196.44 103.049 196.221 102.792C196.002 102.535 195.69 102.376 195.354 102.349Z" fill="#CB202D"/>
<path d="M186.902 98.3955L182.185 98.0233C181.848 97.9973 181.515 98.106 181.258 98.3254C181.002 98.5449 180.843 98.8571 180.816 99.1937C180.79 99.5302 180.898 99.8636 181.117 100.121C181.336 100.377 181.648 100.537 181.984 100.564L186.702 100.936C187.038 100.962 187.371 100.853 187.627 100.634C187.884 100.414 188.042 100.102 188.069 99.7659C188.095 99.4295 187.988 99.0963 187.769 98.8394C187.55 98.5825 187.238 98.4229 186.902 98.3955Z" fill="#CB202D"/>
<path d="M195.612 99.083L190.894 98.7107C190.558 98.685 190.225 98.7938 189.969 99.0132C189.712 99.2327 189.553 99.5448 189.527 99.8812C189.5 100.218 189.608 100.551 189.827 100.808C190.046 101.065 190.357 101.224 190.694 101.252L195.411 101.624C195.748 101.65 196.081 101.541 196.337 101.321C196.593 101.102 196.752 100.79 196.779 100.453C196.805 100.117 196.697 99.7838 196.478 99.5269C196.26 99.27 195.948 99.1103 195.612 99.083Z" fill="#CB202D"/>
<path d="M110.63 78.8236L110.57 79.5957L206.105 87.1022L206.166 86.3301L110.63 78.8236Z" fill="white"/>
<path d="M207.547 75.0665L207.487 75.8368L204.162 75.5759L168.737 72.7926L168.801 72.0215L204.222 74.8055L207.547 75.0665Z" fill="#3F3D56"/>
<path d="M90.7566 66.8798C90.7566 66.8798 85.5849 88.7207 91.9058 88.7207C98.2267 88.7207 113.167 64.0059 113.167 64.0059L107.995 57.6836L98.7128 70.5741L98.2266 64.006L90.7566 66.8798Z" fill="#A0616A"/>
<path d="M111.789 64.9553C114.567 64.9553 116.82 62.7023 116.82 59.923C116.82 57.1437 114.567 54.8906 111.789 54.8906C109.01 54.8906 106.758 57.1437 106.758 59.923C106.758 62.7023 109.01 64.9553 111.789 64.9553Z" fill="#A0616A"/>
<path d="M103.562 48.4896L100.114 45.041C100.114 45.041 93.2184 49.0643 92.6438 53.0877C92.0692 57.111 89.196 69.7557 89.196 69.7557L99.8266 70.6178L103.274 65.445L103.562 48.4896Z" fill="#E6E6E6"/>
</g>
<defs>
<clipPath id="clip0">
<rect width="350" height="227" fill="white"/>
</clipPath>
</defs>
</svg>
