<svg width="40" height="40" viewBox="0 0 40 40" fill="none" xmlns="http://www.w3.org/2000/svg">
<circle cx="20" cy="20" r="20" fill="#CB202D"/>
<path d="M26.71 15.5462L20.21 12.5462C20.1442 12.5158 20.0725 12.5 20 12.5C19.9275 12.5 19.8558 12.5158 19.79 12.5462L13.29 15.5462C13.2032 15.5864 13.1298 15.6506 13.0784 15.7313C13.027 15.8119 12.9998 15.9056 13 16.0012V24.5012C12.9998 24.5969 13.027 24.6906 13.0784 24.7712C13.1298 24.8519 13.2032 24.9161 13.29 24.9562L19.79 27.9562C19.8558 27.9867 19.9275 28.0025 20 28.0025C20.0725 28.0025 20.1442 27.9867 20.21 27.9562L26.71 24.9562C26.7968 24.9161 26.8702 24.8519 26.9216 24.7712C26.973 24.6906 27.0002 24.5969 27 24.5012V16.0012C27.0002 15.9056 26.973 15.8119 26.9216 15.7313C26.8702 15.6506 26.7968 15.5864 26.71 15.5462ZM20 18.4512L14.695 16.0012L20 13.5512L25.305 16.0012L20 18.4512ZM26 24.1812L20.5 26.7212V19.3212L26 16.7812V24.1812Z" fill="white"/>
</svg>
