<svg
                        width="39"
                        height="39"
                        viewBox="0 0 39 39"
                        fill="none"
                        xmlns="http://www.w3.org/2000/svg"
                      >
                        <circle cx="19.5" cy="19.5" r="19.5" fill="#CB202D" />
                        <path
                          d="M27 27.75V26C27 25.0717 26.6313 24.1815 25.9749 23.5251C25.3185 22.8687 24.4283 22.5 23.5 22.5H16.5C15.5717 22.5 14.6815 22.8687 14.0251 23.5251C13.3687 24.1815 13 25.0717 13 26V27.75"
                          stroke="white"
                          stroke-width="2"
                          stroke-linecap="round"
                          stroke-linejoin="round"
                        />
                        <path
                          d="M20 19C21.933 19 23.5 17.433 23.5 15.5C23.5 13.567 21.933 12 20 12C18.067 12 16.5 13.567 16.5 15.5C16.5 17.433 18.067 19 20 19Z"
                          stroke="white"
                          stroke-width="2"
                          stroke-linecap="round"
                          stroke-linejoin="round"
                        />
                      </svg>