<svg width="42" height="15" viewBox="0 0 42 15" fill="none" xmlns="http://www.w3.org/2000/svg">
<path d="M24.308 11.232V12H18.368V3.6H24.128V4.368H19.256V7.356H23.6V8.112H19.256V11.232H24.308ZM31.8816 3.096V12H31.0656V10.752C30.8096 11.176 30.4696 11.5 30.0456 11.724C29.6296 11.948 29.1576 12.06 28.6296 12.06C28.0376 12.06 27.5016 11.924 27.0216 11.652C26.5416 11.38 26.1656 11 25.8936 10.512C25.6216 10.024 25.4856 9.468 25.4856 8.844C25.4856 8.22 25.6216 7.664 25.8936 7.176C26.1656 6.688 26.5416 6.312 27.0216 6.048C27.5016 5.776 28.0376 5.64 28.6296 5.64C29.1416 5.64 29.6016 5.748 30.0096 5.964C30.4256 6.172 30.7656 6.48 31.0296 6.888V3.096H31.8816ZM28.7016 11.304C29.1416 11.304 29.5376 11.204 29.8896 11.004C30.2496 10.796 30.5296 10.504 30.7296 10.128C30.9376 9.752 31.0416 9.324 31.0416 8.844C31.0416 8.364 30.9376 7.936 30.7296 7.56C30.5296 7.184 30.2496 6.896 29.8896 6.696C29.5376 6.488 29.1416 6.384 28.7016 6.384C28.2536 6.384 27.8496 6.488 27.4896 6.696C27.1376 6.896 26.8576 7.184 26.6496 7.56C26.4496 7.936 26.3496 8.364 26.3496 8.844C26.3496 9.324 26.4496 9.752 26.6496 10.128C26.8576 10.504 27.1376 10.796 27.4896 11.004C27.8496 11.204 28.2536 11.304 28.7016 11.304ZM34.2544 5.688H35.1064V12H34.2544V5.688ZM34.6864 4.308C34.5104 4.308 34.3624 4.248 34.2424 4.128C34.1224 4.008 34.0624 3.864 34.0624 3.696C34.0624 3.536 34.1224 3.396 34.2424 3.276C34.3624 3.156 34.5104 3.096 34.6864 3.096C34.8624 3.096 35.0104 3.156 35.1304 3.276C35.2504 3.388 35.3104 3.524 35.3104 3.684C35.3104 3.86 35.2504 4.008 35.1304 4.128C35.0104 4.248 34.8624 4.308 34.6864 4.308ZM40.8011 11.616C40.6411 11.76 40.4411 11.872 40.2011 11.952C39.9691 12.024 39.7251 12.06 39.4691 12.06C38.8771 12.06 38.4211 11.9 38.1011 11.58C37.7811 11.26 37.6211 10.808 37.6211 10.224V6.408H36.4931V5.688H37.6211V4.308H38.4731V5.688H40.3931V6.408H38.4731V10.176C38.4731 10.552 38.5651 10.84 38.7491 11.04C38.9411 11.232 39.2131 11.328 39.5651 11.328C39.7411 11.328 39.9091 11.3 40.0691 11.244C40.2371 11.188 40.3811 11.108 40.5011 11.004L40.8011 11.616Z" fill="#FFA500"/>
<path d="M11.6917 3.8907L10.1165 2.309C9.6821 1.87288 8.94716 1.90142 8.47613 2.37556C8.00509 2.84852 7.97432 3.58767 8.40985 4.02378L9.98506 5.60548C10.4194 6.0416 11.1543 6.01309 11.6265 5.53894C12.0976 5.0648 12.1272 4.32802 11.6917 3.8907ZM1.64978 9.22877L4.80022 12.3922L9.91998 7.25255L6.76954 4.08916L1.64978 9.22877ZM0 14L4.15522 13.1646L0.83199 9.82769L0 14Z" fill="#FFA500"/>
</svg>
