<svg width="83" height="83" viewBox="0 0 83 83" fill="none" xmlns="http://www.w3.org/2000/svg">
<rect x="0.5" y="0.5" width="81.5" height="81.5" rx="9.5" stroke="#CB202D"/>
<path d="M15.385 52H16.385V59H15.385V52ZM19.8607 59.06C19.4273 59.06 19.0107 59.0033 18.6107 58.89C18.2107 58.77 17.8973 58.62 17.6707 58.44L18.0707 57.68C18.304 57.8467 18.5873 57.98 18.9207 58.08C19.254 58.18 19.5907 58.23 19.9307 58.23C20.7707 58.23 21.1907 57.99 21.1907 57.51C21.1907 57.35 21.134 57.2233 21.0207 57.13C20.9073 57.0367 20.764 56.97 20.5907 56.93C20.424 56.8833 20.184 56.8333 19.8707 56.78C19.444 56.7133 19.094 56.6367 18.8207 56.55C18.554 56.4633 18.324 56.3167 18.1307 56.11C17.9373 55.9033 17.8407 55.6133 17.8407 55.24C17.8407 54.76 18.0407 54.3767 18.4407 54.09C18.8407 53.7967 19.3773 53.65 20.0507 53.65C20.404 53.65 20.7573 53.6933 21.1107 53.78C21.464 53.8667 21.754 53.9833 21.9807 54.13L21.5707 54.89C21.1373 54.61 20.6273 54.47 20.0407 54.47C19.634 54.47 19.324 54.5367 19.1107 54.67C18.8973 54.8033 18.7907 54.98 18.7907 55.2C18.7907 55.3733 18.8507 55.51 18.9707 55.61C19.0907 55.71 19.2373 55.7833 19.4107 55.83C19.5907 55.8767 19.8407 55.93 20.1607 55.99C20.5873 56.0633 20.9307 56.1433 21.1907 56.23C21.4573 56.31 21.684 56.45 21.8707 56.65C22.0573 56.85 22.1507 57.13 22.1507 57.49C22.1507 57.97 21.944 58.3533 21.5307 58.64C21.124 58.92 20.5673 59.06 19.8607 59.06ZM24.8704 59.06C24.4371 59.06 24.0204 59.0033 23.6204 58.89C23.2204 58.77 22.9071 58.62 22.6804 58.44L23.0804 57.68C23.3138 57.8467 23.5971 57.98 23.9304 58.08C24.2638 58.18 24.6004 58.23 24.9404 58.23C25.7804 58.23 26.2004 57.99 26.2004 57.51C26.2004 57.35 26.1438 57.2233 26.0304 57.13C25.9171 57.0367 25.7738 56.97 25.6004 56.93C25.4338 56.8833 25.1938 56.8333 24.8804 56.78C24.4538 56.7133 24.1038 56.6367 23.8304 56.55C23.5638 56.4633 23.3338 56.3167 23.1404 56.11C22.9471 55.9033 22.8504 55.6133 22.8504 55.24C22.8504 54.76 23.0504 54.3767 23.4504 54.09C23.8504 53.7967 24.3871 53.65 25.0604 53.65C25.4138 53.65 25.7671 53.6933 26.1204 53.78C26.4738 53.8667 26.7638 53.9833 26.9904 54.13L26.5804 54.89C26.1471 54.61 25.6371 54.47 25.0504 54.47C24.6438 54.47 24.3338 54.5367 24.1204 54.67C23.9071 54.8033 23.8004 54.98 23.8004 55.2C23.8004 55.3733 23.8604 55.51 23.9804 55.61C24.1004 55.71 24.2471 55.7833 24.4204 55.83C24.6004 55.8767 24.8504 55.93 25.1704 55.99C25.5971 56.0633 25.9404 56.1433 26.2004 56.23C26.4671 56.31 26.6938 56.45 26.8804 56.65C27.0671 56.85 27.1604 57.13 27.1604 57.49C27.1604 57.97 26.9538 58.3533 26.5404 58.64C26.1338 58.92 25.5771 59.06 24.8704 59.06ZM33.3002 53.7V59H32.3902V58.2C32.1969 58.4733 31.9402 58.6867 31.6202 58.84C31.3069 58.9867 30.9635 59.06 30.5902 59.06C29.8835 59.06 29.3269 58.8667 28.9202 58.48C28.5135 58.0867 28.3102 57.51 28.3102 56.75V53.7H29.2702V56.64C29.2702 57.1533 29.3935 57.5433 29.6402 57.81C29.8869 58.07 30.2402 58.2 30.7002 58.2C31.2069 58.2 31.6069 58.0467 31.9002 57.74C32.1935 57.4333 32.3402 57 32.3402 56.44V53.7H33.3002ZM39.9178 56.38C39.9178 56.4533 39.9111 56.55 39.8978 56.67H35.5978C35.6578 57.1367 35.8611 57.5133 36.2078 57.8C36.5611 58.08 36.9978 58.22 37.5178 58.22C38.1511 58.22 38.6611 58.0067 39.0478 57.58L39.5778 58.2C39.3378 58.48 39.0378 58.6933 38.6778 58.84C38.3244 58.9867 37.9278 59.06 37.4878 59.06C36.9278 59.06 36.4311 58.9467 35.9978 58.72C35.5644 58.4867 35.2278 58.1633 34.9878 57.75C34.7544 57.3367 34.6378 56.87 34.6378 56.35C34.6378 55.8367 34.7511 55.3733 34.9778 54.96C35.2111 54.5467 35.5278 54.2267 35.9278 54C36.3344 53.7667 36.7911 53.65 37.2978 53.65C37.8044 53.65 38.2544 53.7667 38.6478 54C39.0478 54.2267 39.3578 54.5467 39.5778 54.96C39.8044 55.3733 39.9178 55.8467 39.9178 56.38ZM37.2978 54.46C36.8378 54.46 36.4511 54.6 36.1378 54.88C35.8311 55.16 35.6511 55.5267 35.5978 55.98H38.9978C38.9444 55.5333 38.7611 55.17 38.4478 54.89C38.1411 54.6033 37.7578 54.46 37.2978 54.46ZM42.7708 59.06C42.3375 59.06 41.9208 59.0033 41.5208 58.89C41.1208 58.77 40.8075 58.62 40.5808 58.44L40.9808 57.68C41.2142 57.8467 41.4975 57.98 41.8308 58.08C42.1642 58.18 42.5008 58.23 42.8408 58.23C43.6808 58.23 44.1008 57.99 44.1008 57.51C44.1008 57.35 44.0442 57.2233 43.9308 57.13C43.8175 57.0367 43.6742 56.97 43.5008 56.93C43.3342 56.8833 43.0942 56.8333 42.7808 56.78C42.3542 56.7133 42.0042 56.6367 41.7308 56.55C41.4642 56.4633 41.2342 56.3167 41.0408 56.11C40.8475 55.9033 40.7508 55.6133 40.7508 55.24C40.7508 54.76 40.9508 54.3767 41.3508 54.09C41.7508 53.7967 42.2875 53.65 42.9608 53.65C43.3142 53.65 43.6675 53.6933 44.0208 53.78C44.3742 53.8667 44.6642 53.9833 44.8908 54.13L44.4808 54.89C44.0475 54.61 43.5375 54.47 42.9508 54.47C42.5442 54.47 42.2342 54.5367 42.0208 54.67C41.8075 54.8033 41.7008 54.98 41.7008 55.2C41.7008 55.3733 41.7608 55.51 41.8808 55.61C42.0008 55.71 42.1475 55.7833 42.3208 55.83C42.5008 55.8767 42.7508 55.93 43.0708 55.99C43.4975 56.0633 43.8408 56.1433 44.1008 56.23C44.3675 56.31 44.5942 56.45 44.7808 56.65C44.9675 56.85 45.0608 57.13 45.0608 57.49C45.0608 57.97 44.8542 58.3533 44.4408 58.64C44.0342 58.92 43.4775 59.06 42.7708 59.06ZM50.8761 53.65C51.6095 53.65 52.1695 53.83 52.5561 54.19C52.9495 54.55 53.1461 55.0867 53.1461 55.8V59H52.2361V58.3C52.0761 58.5467 51.8461 58.7367 51.5461 58.87C51.2528 58.9967 50.9028 59.06 50.4961 59.06C49.9028 59.06 49.4261 58.9167 49.0661 58.63C48.7128 58.3433 48.5361 57.9667 48.5361 57.5C48.5361 57.0333 48.7061 56.66 49.0461 56.38C49.3861 56.0933 49.9261 55.95 50.6661 55.95H52.1861V55.76C52.1861 55.3467 52.0661 55.03 51.8261 54.81C51.5861 54.59 51.2328 54.48 50.7661 54.48C50.4528 54.48 50.1461 54.5333 49.8461 54.64C49.5461 54.74 49.2928 54.8767 49.0861 55.05L48.6861 54.33C48.9595 54.11 49.2861 53.9433 49.6661 53.83C50.0461 53.71 50.4495 53.65 50.8761 53.65ZM50.6561 58.32C51.0228 58.32 51.3395 58.24 51.6061 58.08C51.8728 57.9133 52.0661 57.68 52.1861 57.38V56.64H50.7061C49.8928 56.64 49.4861 56.9133 49.4861 57.46C49.4861 57.7267 49.5895 57.9367 49.7961 58.09C50.0028 58.2433 50.2895 58.32 50.6561 58.32ZM57.7527 53.65C58.426 53.65 58.9594 53.8467 59.3527 54.24C59.7527 54.6267 59.9527 55.1967 59.9527 55.95V59H58.9927V56.06C58.9927 55.5467 58.8694 55.16 58.6227 54.9C58.376 54.64 58.0227 54.51 57.5627 54.51C57.0427 54.51 56.6327 54.6633 56.3327 54.97C56.0327 55.27 55.8827 55.7033 55.8827 56.27V59H54.9227V53.7H55.8427V54.5C56.036 54.2267 56.296 54.0167 56.6227 53.87C56.956 53.7233 57.3327 53.65 57.7527 53.65ZM66.7586 51.58V59H65.8386V58.16C65.6253 58.4533 65.3553 58.6767 65.0286 58.83C64.702 58.9833 64.342 59.06 63.9486 59.06C63.4353 59.06 62.9753 58.9467 62.5686 58.72C62.162 58.4933 61.842 58.1767 61.6086 57.77C61.382 57.3567 61.2686 56.8833 61.2686 56.35C61.2686 55.8167 61.382 55.3467 61.6086 54.94C61.842 54.5333 62.162 54.2167 62.5686 53.99C62.9753 53.7633 63.4353 53.65 63.9486 53.65C64.3286 53.65 64.6786 53.7233 64.9986 53.87C65.3186 54.01 65.5853 54.22 65.7986 54.5V51.58H66.7586ZM64.0286 58.22C64.362 58.22 64.6653 58.1433 64.9386 57.99C65.212 57.83 65.4253 57.61 65.5786 57.33C65.732 57.0433 65.8086 56.7167 65.8086 56.35C65.8086 55.9833 65.732 55.66 65.5786 55.38C65.4253 55.0933 65.212 54.8733 64.9386 54.72C64.6653 54.5667 64.362 54.49 64.0286 54.49C63.6886 54.49 63.382 54.5667 63.1086 54.72C62.842 54.8733 62.6286 55.0933 62.4686 55.38C62.3153 55.66 62.2386 55.9833 62.2386 56.35C62.2386 56.7167 62.3153 57.0433 62.4686 57.33C62.6286 57.61 62.842 57.83 63.1086 57.99C63.382 58.1433 63.6886 58.22 64.0286 58.22ZM20.4441 64C21.3507 64 22.0641 64.2167 22.5841 64.65C23.1041 65.0833 23.3641 65.68 23.3641 66.44C23.3641 67.2 23.1041 67.7967 22.5841 68.23C22.0641 68.6633 21.3507 68.88 20.4441 68.88H18.7141V71H17.7141V64H20.4441ZM20.4141 68.01C21.0474 68.01 21.5307 67.8767 21.8641 67.61C22.1974 67.3367 22.3641 66.9467 22.3641 66.44C22.3641 65.9333 22.1974 65.5467 21.8641 65.28C21.5307 65.0067 21.0474 64.87 20.4141 64.87H18.7141V68.01H20.4141ZM25.5253 66.59C25.692 66.2833 25.9386 66.05 26.2653 65.89C26.592 65.73 26.9886 65.65 27.4553 65.65V66.58C27.402 66.5733 27.3286 66.57 27.2353 66.57C26.7153 66.57 26.3053 66.7267 26.0053 67.04C25.712 67.3467 25.5653 67.7867 25.5653 68.36V71H24.6053V65.7H25.5253V66.59ZM30.8597 71.06C30.333 71.06 29.8597 70.9433 29.4397 70.71C29.0197 70.4767 28.6897 70.1567 28.4497 69.75C28.2164 69.3367 28.0997 68.87 28.0997 68.35C28.0997 67.83 28.2164 67.3667 28.4497 66.96C28.6897 66.5467 29.0197 66.2267 29.4397 66C29.8597 65.7667 30.333 65.65 30.8597 65.65C31.3864 65.65 31.8564 65.7667 32.2697 66C32.6897 66.2267 33.0164 66.5467 33.2497 66.96C33.4897 67.3667 33.6097 67.83 33.6097 68.35C33.6097 68.87 33.4897 69.3367 33.2497 69.75C33.0164 70.1567 32.6897 70.4767 32.2697 70.71C31.8564 70.9433 31.3864 71.06 30.8597 71.06ZM30.8597 70.22C31.1997 70.22 31.503 70.1433 31.7697 69.99C32.043 69.83 32.2564 69.61 32.4097 69.33C32.563 69.0433 32.6397 68.7167 32.6397 68.35C32.6397 67.9833 32.563 67.66 32.4097 67.38C32.2564 67.0933 32.043 66.8733 31.7697 66.72C31.503 66.5667 31.1997 66.49 30.8597 66.49C30.5197 66.49 30.213 66.5667 29.9397 66.72C29.673 66.8733 29.4597 67.0933 29.2997 67.38C29.1464 67.66 29.0697 67.9833 29.0697 68.35C29.0697 68.7167 29.1464 69.0433 29.2997 69.33C29.4597 69.61 29.673 69.83 29.9397 69.99C30.213 70.1433 30.5197 70.22 30.8597 70.22ZM37.7473 65.65C38.2607 65.65 38.7207 65.7633 39.1273 65.99C39.534 66.2167 39.8507 66.5333 40.0773 66.94C40.3107 67.3467 40.4273 67.8167 40.4273 68.35C40.4273 68.8833 40.3107 69.3567 40.0773 69.77C39.8507 70.1767 39.534 70.4933 39.1273 70.72C38.7207 70.9467 38.2607 71.06 37.7473 71.06C37.354 71.06 36.994 70.9833 36.6673 70.83C36.3407 70.6767 36.0707 70.4533 35.8573 70.16V71H34.9373V63.58H35.8973V66.5C36.1107 66.22 36.3773 66.01 36.6973 65.87C37.0173 65.7233 37.3673 65.65 37.7473 65.65ZM37.6673 70.22C38.0073 70.22 38.3107 70.1433 38.5773 69.99C38.8507 69.83 39.064 69.61 39.2173 69.33C39.3773 69.0433 39.4573 68.7167 39.4573 68.35C39.4573 67.9833 39.3773 67.66 39.2173 67.38C39.064 67.0933 38.8507 66.8733 38.5773 66.72C38.3107 66.5667 38.0073 66.49 37.6673 66.49C37.334 66.49 37.0307 66.5667 36.7573 66.72C36.484 66.8733 36.2707 67.0933 36.1173 67.38C35.964 67.66 35.8873 67.9833 35.8873 68.35C35.8873 68.7167 35.964 69.0433 36.1173 69.33C36.2707 69.61 36.484 69.83 36.7573 69.99C37.0307 70.1433 37.334 70.22 37.6673 70.22ZM41.7538 63.58H42.7138V71H41.7538V63.58ZM49.3367 68.38C49.3367 68.4533 49.3301 68.55 49.3167 68.67H45.0167C45.0767 69.1367 45.2801 69.5133 45.6267 69.8C45.9801 70.08 46.4167 70.22 46.9367 70.22C47.5701 70.22 48.0801 70.0067 48.4667 69.58L48.9967 70.2C48.7567 70.48 48.4567 70.6933 48.0967 70.84C47.7434 70.9867 47.3467 71.06 46.9067 71.06C46.3467 71.06 45.8501 70.9467 45.4167 70.72C44.9834 70.4867 44.6467 70.1633 44.4067 69.75C44.1734 69.3367 44.0567 68.87 44.0567 68.35C44.0567 67.8367 44.1701 67.3733 44.3967 66.96C44.6301 66.5467 44.9467 66.2267 45.3467 66C45.7534 65.7667 46.2101 65.65 46.7167 65.65C47.2234 65.65 47.6734 65.7667 48.0667 66C48.4667 66.2267 48.7767 66.5467 48.9967 66.96C49.2234 67.3733 49.3367 67.8467 49.3367 68.38ZM46.7167 66.46C46.2567 66.46 45.8701 66.6 45.5567 66.88C45.2501 67.16 45.0701 67.5267 45.0167 67.98H48.4167C48.3634 67.5333 48.1801 67.17 47.8667 66.89C47.5601 66.6033 47.1767 66.46 46.7167 66.46ZM57.2998 65.65C57.9664 65.65 58.4931 65.8433 58.8798 66.23C59.2731 66.6167 59.4698 67.19 59.4698 67.95V71H58.5098V68.06C58.5098 67.5467 58.3898 67.16 58.1498 66.9C57.9164 66.64 57.5798 66.51 57.1398 66.51C56.6531 66.51 56.2664 66.6633 55.9798 66.97C55.6931 67.27 55.5498 67.7033 55.5498 68.27V71H54.5898V68.06C54.5898 67.5467 54.4698 67.16 54.2298 66.9C53.9964 66.64 53.6598 66.51 53.2198 66.51C52.7331 66.51 52.3464 66.6633 52.0598 66.97C51.7731 67.27 51.6298 67.7033 51.6298 68.27V71H50.6698V65.7H51.5898V66.49C51.7831 66.2167 52.0364 66.01 52.3498 65.87C52.6631 65.7233 53.0198 65.65 53.4198 65.65C53.8331 65.65 54.1998 65.7333 54.5198 65.9C54.8398 66.0667 55.0864 66.31 55.2598 66.63C55.4598 66.3233 55.7364 66.0833 56.0898 65.91C56.4498 65.7367 56.8531 65.65 57.2998 65.65ZM62.7562 71.06C62.3228 71.06 61.9062 71.0033 61.5062 70.89C61.1062 70.77 60.7928 70.62 60.5662 70.44L60.9662 69.68C61.1995 69.8467 61.4828 69.98 61.8162 70.08C62.1495 70.18 62.4862 70.23 62.8262 70.23C63.6662 70.23 64.0862 69.99 64.0862 69.51C64.0862 69.35 64.0295 69.2233 63.9162 69.13C63.8028 69.0367 63.6595 68.97 63.4862 68.93C63.3195 68.8833 63.0795 68.8333 62.7662 68.78C62.3395 68.7133 61.9895 68.6367 61.7162 68.55C61.4495 68.4633 61.2195 68.3167 61.0262 68.11C60.8328 67.9033 60.7362 67.6133 60.7362 67.24C60.7362 66.76 60.9362 66.3767 61.3362 66.09C61.7362 65.7967 62.2728 65.65 62.9462 65.65C63.2995 65.65 63.6528 65.6933 64.0062 65.78C64.3595 65.8667 64.6495 65.9833 64.8762 66.13L64.4662 66.89C64.0328 66.61 63.5228 66.47 62.9362 66.47C62.5295 66.47 62.2195 66.5367 62.0062 66.67C61.7928 66.8033 61.6862 66.98 61.6862 67.2C61.6862 67.3733 61.7462 67.51 61.8662 67.61C61.9862 67.71 62.1328 67.7833 62.3062 67.83C62.4862 67.8767 62.7362 67.93 63.0562 67.99C63.4828 68.0633 63.8262 68.1433 64.0862 68.23C64.3528 68.31 64.5795 68.45 64.7662 68.65C64.9528 68.85 65.0462 69.13 65.0462 69.49C65.0462 69.97 64.8395 70.3533 64.4262 70.64C64.0195 70.92 63.4628 71.06 62.7562 71.06Z" fill="#CB202D"/>
<path d="M39.5001 21.4004C38.0921 21.4022 36.7423 21.9623 35.7467 22.9579C34.7511 23.9535 34.191 25.3033 34.1892 26.7113H36.8892C36.8892 25.2708 38.061 24.1004 39.5001 24.1004C40.9392 24.1004 42.111 25.2708 42.111 26.7113C42.111 27.5186 41.4617 28.1045 40.4694 28.9064C40.1453 29.1603 39.8339 29.4302 39.5366 29.715C38.1893 31.061 38.1501 32.4906 38.1501 32.6499V33.5504H40.8501L40.8488 32.6958C40.8501 32.6742 40.8933 32.1747 41.4441 31.6253C41.6466 31.4228 41.9018 31.2203 42.1664 31.007C43.218 30.1551 44.8097 28.8686 44.8097 26.7113C44.8086 25.3033 44.2489 23.9533 43.2534 22.9576C42.258 21.9619 40.9081 21.4018 39.5001 21.4004ZM38.1501 34.9004H40.8501V37.6004H38.1501V34.9004Z" fill="#CB202D"/>
<path d="M39.5 16C32.0561 16 26 22.0561 26 29.5C26 36.9439 32.0561 43 39.5 43C46.9439 43 53 36.9439 53 29.5C53 22.0561 46.9439 16 39.5 16ZM39.5 40.3C33.5452 40.3 28.7 35.4548 28.7 29.5C28.7 23.5452 33.5452 18.7 39.5 18.7C45.4548 18.7 50.3 23.5452 50.3 29.5C50.3 35.4548 45.4548 40.3 39.5 40.3Z" fill="#CB202D"/>
</svg>
