<svg width="83" height="83" viewBox="0 0 83 83" fill="none" xmlns="http://www.w3.org/2000/svg">
<rect x="0.5" y="0.5" width="81.5" height="81.5" rx="9.5" stroke="#CB202D"/>
<path d="M52.8125 16H29.1875C27.4295 16 26 17.3455 26 19V40C26 41.6545 27.4295 43 29.1875 43H52.8125C54.5706 43 56.0001 41.6545 56.0001 40V19C56.0001 17.3455 54.5706 16 52.8125 16ZM52.8125 40H29.1875C29.102 40 29.0435 39.976 29.018 39.976C29.0075 39.976 29.0015 39.979 29 39.988L28.982 19.069C28.9925 19.054 29.06 19 29.1875 19H52.8125C52.931 19.0015 52.9955 19.042 53 19.012L53.018 39.931C53.0075 39.946 52.94 40 52.8125 40Z" fill="#CB202D"/>
<path d="M32 22H41V31H32V22ZM42.5 34H32V37H50V34H44H42.5ZM44 28H50V31H44V28ZM44 22H50V25H44V22Z" fill="#CB202D"/>
<path d="M11.1414 59.08C10.2081 59.08 9.48141 58.8133 8.96141 58.28C8.44141 57.7467 8.18141 56.98 8.18141 55.98V52H9.18141V55.94C9.18141 57.44 9.83807 58.19 11.1514 58.19C11.7914 58.19 12.2814 58.0067 12.6214 57.64C12.9614 57.2667 13.1314 56.7 13.1314 55.94V52H14.1014V55.98C14.1014 56.9867 13.8414 57.7567 13.3214 58.29C12.8014 58.8167 12.0747 59.08 11.1414 59.08ZM18.8216 53.65C19.3349 53.65 19.7949 53.7633 20.2016 53.99C20.6082 54.2167 20.9249 54.5333 21.1516 54.94C21.3849 55.3467 21.5016 55.8167 21.5016 56.35C21.5016 56.8833 21.3849 57.3567 21.1516 57.77C20.9249 58.1767 20.6082 58.4933 20.2016 58.72C19.7949 58.9467 19.3349 59.06 18.8216 59.06C18.4416 59.06 18.0916 58.9867 17.7716 58.84C17.4582 58.6933 17.1916 58.48 16.9716 58.2V60.94H16.0116V53.7H16.9316V54.54C17.1449 54.2467 17.4149 54.0267 17.7416 53.88C18.0682 53.7267 18.4282 53.65 18.8216 53.65ZM18.7416 58.22C19.0816 58.22 19.3849 58.1433 19.6516 57.99C19.9249 57.83 20.1382 57.61 20.2916 57.33C20.4516 57.0433 20.5316 56.7167 20.5316 56.35C20.5316 55.9833 20.4516 55.66 20.2916 55.38C20.1382 55.0933 19.9249 54.8733 19.6516 54.72C19.3849 54.5667 19.0816 54.49 18.7416 54.49C18.4082 54.49 18.1049 54.57 17.8316 54.73C17.5649 54.8833 17.3516 55.1 17.1916 55.38C17.0382 55.66 16.9616 55.9833 16.9616 56.35C16.9616 56.7167 17.0382 57.0433 17.1916 57.33C17.3449 57.61 17.5582 57.83 17.8316 57.99C18.1049 58.1433 18.4082 58.22 18.7416 58.22ZM27.828 51.58V59H26.908V58.16C26.6946 58.4533 26.4246 58.6767 26.098 58.83C25.7713 58.9833 25.4113 59.06 25.018 59.06C24.5046 59.06 24.0446 58.9467 23.638 58.72C23.2313 58.4933 22.9113 58.1767 22.678 57.77C22.4513 57.3567 22.338 56.8833 22.338 56.35C22.338 55.8167 22.4513 55.3467 22.678 54.94C22.9113 54.5333 23.2313 54.2167 23.638 53.99C24.0446 53.7633 24.5046 53.65 25.018 53.65C25.398 53.65 25.748 53.7233 26.068 53.87C26.388 54.01 26.6546 54.22 26.868 54.5V51.58H27.828ZM25.098 58.22C25.4313 58.22 25.7346 58.1433 26.008 57.99C26.2813 57.83 26.4946 57.61 26.648 57.33C26.8013 57.0433 26.878 56.7167 26.878 56.35C26.878 55.9833 26.8013 55.66 26.648 55.38C26.4946 55.0933 26.2813 54.8733 26.008 54.72C25.7346 54.5667 25.4313 54.49 25.098 54.49C24.758 54.49 24.4513 54.5667 24.178 54.72C23.9113 54.8733 23.698 55.0933 23.538 55.38C23.3846 55.66 23.308 55.9833 23.308 56.35C23.308 56.7167 23.3846 57.0433 23.538 57.33C23.698 57.61 23.9113 57.83 24.178 57.99C24.4513 58.1433 24.758 58.22 25.098 58.22ZM31.5744 53.65C32.3077 53.65 32.8677 53.83 33.2544 54.19C33.6477 54.55 33.8444 55.0867 33.8444 55.8V59H32.9344V58.3C32.7744 58.5467 32.5444 58.7367 32.2444 58.87C31.951 58.9967 31.601 59.06 31.1944 59.06C30.601 59.06 30.1244 58.9167 29.7644 58.63C29.411 58.3433 29.2344 57.9667 29.2344 57.5C29.2344 57.0333 29.4044 56.66 29.7444 56.38C30.0844 56.0933 30.6244 55.95 31.3644 55.95H32.8844V55.76C32.8844 55.3467 32.7644 55.03 32.5244 54.81C32.2844 54.59 31.931 54.48 31.4644 54.48C31.151 54.48 30.8444 54.5333 30.5444 54.64C30.2444 54.74 29.991 54.8767 29.7844 55.05L29.3844 54.33C29.6577 54.11 29.9844 53.9433 30.3644 53.83C30.7444 53.71 31.1477 53.65 31.5744 53.65ZM31.3544 58.32C31.721 58.32 32.0377 58.24 32.3044 58.08C32.571 57.9133 32.7644 57.68 32.8844 57.38V56.64H31.4044C30.591 56.64 30.1844 56.9133 30.1844 57.46C30.1844 57.7267 30.2877 57.9367 30.4944 58.09C30.701 58.2433 30.9877 58.32 31.3544 58.32ZM38.6009 58.69C38.4609 58.81 38.2876 58.9033 38.0809 58.97C37.8743 59.03 37.6609 59.06 37.4409 59.06C36.9076 59.06 36.4943 58.9167 36.2009 58.63C35.9076 58.3433 35.7609 57.9333 35.7609 57.4V54.49H34.8609V53.7H35.7609V52.54H36.7209V53.7H38.2409V54.49H36.7209V57.36C36.7209 57.6467 36.7909 57.8667 36.9309 58.02C37.0776 58.1733 37.2843 58.25 37.5509 58.25C37.8443 58.25 38.0943 58.1667 38.3009 58L38.6009 58.69ZM44.3758 56.38C44.3758 56.4533 44.3691 56.55 44.3558 56.67H40.0558C40.1158 57.1367 40.3191 57.5133 40.6658 57.8C41.0191 58.08 41.4558 58.22 41.9758 58.22C42.6091 58.22 43.1191 58.0067 43.5058 57.58L44.0358 58.2C43.7958 58.48 43.4958 58.6933 43.1358 58.84C42.7824 58.9867 42.3858 59.06 41.9458 59.06C41.3858 59.06 40.8891 58.9467 40.4558 58.72C40.0224 58.4867 39.6858 58.1633 39.4458 57.75C39.2124 57.3367 39.0958 56.87 39.0958 56.35C39.0958 55.8367 39.2091 55.3733 39.4358 54.96C39.6691 54.5467 39.9858 54.2267 40.3858 54C40.7924 53.7667 41.2491 53.65 41.7558 53.65C42.2624 53.65 42.7124 53.7667 43.1058 54C43.5058 54.2267 43.8158 54.5467 44.0358 54.96C44.2624 55.3733 44.3758 55.8467 44.3758 56.38ZM41.7558 54.46C41.2958 54.46 40.9091 54.6 40.5958 54.88C40.2891 55.16 40.1091 55.5267 40.0558 55.98H43.4558C43.4024 55.5333 43.2191 55.17 42.9058 54.89C42.5991 54.6033 42.2158 54.46 41.7558 54.46ZM47.2288 59.06C46.7955 59.06 46.3788 59.0033 45.9788 58.89C45.5788 58.77 45.2655 58.62 45.0388 58.44L45.4388 57.68C45.6722 57.8467 45.9555 57.98 46.2888 58.08C46.6222 58.18 46.9588 58.23 47.2988 58.23C48.1388 58.23 48.5588 57.99 48.5588 57.51C48.5588 57.35 48.5022 57.2233 48.3888 57.13C48.2755 57.0367 48.1322 56.97 47.9588 56.93C47.7922 56.8833 47.5522 56.8333 47.2388 56.78C46.8122 56.7133 46.4622 56.6367 46.1888 56.55C45.9222 56.4633 45.6922 56.3167 45.4988 56.11C45.3055 55.9033 45.2088 55.6133 45.2088 55.24C45.2088 54.76 45.4088 54.3767 45.8088 54.09C46.2088 53.7967 46.7455 53.65 47.4188 53.65C47.7722 53.65 48.1255 53.6933 48.4788 53.78C48.8322 53.8667 49.1222 53.9833 49.3488 54.13L48.9388 54.89C48.5055 54.61 47.9955 54.47 47.4088 54.47C47.0022 54.47 46.6922 54.5367 46.4788 54.67C46.2655 54.8033 46.1588 54.98 46.1588 55.2C46.1588 55.3733 46.2188 55.51 46.3388 55.61C46.4588 55.71 46.6055 55.7833 46.7788 55.83C46.9588 55.8767 47.2088 55.93 47.5288 55.99C47.9555 56.0633 48.2988 56.1433 48.5588 56.23C48.8255 56.31 49.0522 56.45 49.2388 56.65C49.4255 56.85 49.5188 57.13 49.5188 57.49C49.5188 57.97 49.3122 58.3533 48.8988 58.64C48.4922 58.92 47.9355 59.06 47.2288 59.06ZM55.3341 53.65C56.0675 53.65 56.6275 53.83 57.0141 54.19C57.4075 54.55 57.6041 55.0867 57.6041 55.8V59H56.6941V58.3C56.5341 58.5467 56.3041 58.7367 56.0041 58.87C55.7108 58.9967 55.3608 59.06 54.9541 59.06C54.3608 59.06 53.8841 58.9167 53.5241 58.63C53.1708 58.3433 52.9941 57.9667 52.9941 57.5C52.9941 57.0333 53.1641 56.66 53.5041 56.38C53.8441 56.0933 54.3841 55.95 55.1241 55.95H56.6441V55.76C56.6441 55.3467 56.5241 55.03 56.2841 54.81C56.0441 54.59 55.6908 54.48 55.2241 54.48C54.9108 54.48 54.6041 54.5333 54.3041 54.64C54.0041 54.74 53.7508 54.8767 53.5441 55.05L53.1441 54.33C53.4175 54.11 53.7441 53.9433 54.1241 53.83C54.5041 53.71 54.9075 53.65 55.3341 53.65ZM55.1141 58.32C55.4808 58.32 55.7975 58.24 56.0641 58.08C56.3308 57.9133 56.5241 57.68 56.6441 57.38V56.64H55.1641C54.3508 56.64 53.9441 56.9133 53.9441 57.46C53.9441 57.7267 54.0475 57.9367 54.2541 58.09C54.4608 58.2433 54.7475 58.32 55.1141 58.32ZM62.2107 53.65C62.884 53.65 63.4174 53.8467 63.8107 54.24C64.2107 54.6267 64.4107 55.1967 64.4107 55.95V59H63.4507V56.06C63.4507 55.5467 63.3274 55.16 63.0807 54.9C62.834 54.64 62.4807 54.51 62.0207 54.51C61.5007 54.51 61.0907 54.6633 60.7907 54.97C60.4907 55.27 60.3407 55.7033 60.3407 56.27V59H59.3807V53.7H60.3007V54.5C60.494 54.2267 60.754 54.0167 61.0807 53.87C61.414 53.7233 61.7907 53.65 62.2107 53.65ZM71.2166 51.58V59H70.2966V58.16C70.0833 58.4533 69.8133 58.6767 69.4866 58.83C69.16 58.9833 68.8 59.06 68.4066 59.06C67.8933 59.06 67.4333 58.9467 67.0266 58.72C66.62 58.4933 66.3 58.1767 66.0666 57.77C65.84 57.3567 65.7266 56.8833 65.7266 56.35C65.7266 55.8167 65.84 55.3467 66.0666 54.94C66.3 54.5333 66.62 54.2167 67.0266 53.99C67.4333 53.7633 67.8933 53.65 68.4066 53.65C68.7866 53.65 69.1366 53.7233 69.4566 53.87C69.7766 54.01 70.0433 54.22 70.2566 54.5V51.58H71.2166ZM68.4866 58.22C68.82 58.22 69.1233 58.1433 69.3966 57.99C69.67 57.83 69.8833 57.61 70.0366 57.33C70.19 57.0433 70.2666 56.7167 70.2666 56.35C70.2666 55.9833 70.19 55.66 70.0366 55.38C69.8833 55.0933 69.67 54.8733 69.3966 54.72C69.1233 54.5667 68.82 54.49 68.4866 54.49C68.1466 54.49 67.84 54.5667 67.5666 54.72C67.3 54.8733 67.0866 55.0933 66.9266 55.38C66.7733 55.66 66.6966 55.9833 66.6966 56.35C66.6966 56.7167 66.7733 57.0433 66.9266 57.33C67.0866 57.61 67.3 57.83 67.5666 57.99C67.84 58.1433 68.1466 58.22 68.4866 58.22ZM23.012 71.08C22.312 71.08 21.6787 70.9267 21.112 70.62C20.552 70.3067 20.112 69.88 19.792 69.34C19.472 68.7933 19.312 68.18 19.312 67.5C19.312 66.82 19.472 66.21 19.792 65.67C20.112 65.1233 20.5554 64.6967 21.122 64.39C21.6887 64.0767 22.322 63.92 23.022 63.92C23.5687 63.92 24.0687 64.0133 24.522 64.2C24.9754 64.38 25.362 64.65 25.682 65.01L25.032 65.64C24.5054 65.0867 23.8487 64.81 23.062 64.81C22.542 64.81 22.072 64.9267 21.652 65.16C21.232 65.3933 20.902 65.7167 20.662 66.13C20.4287 66.5367 20.312 66.9933 20.312 67.5C20.312 68.0067 20.4287 68.4667 20.662 68.88C20.902 69.2867 21.232 69.6067 21.652 69.84C22.072 70.0733 22.542 70.19 23.062 70.19C23.842 70.19 24.4987 69.91 25.032 69.35L25.682 69.98C25.362 70.34 24.972 70.6133 24.512 70.8C24.0587 70.9867 23.5587 71.08 23.012 71.08ZM26.9686 65.7H27.9286V71H26.9686V65.7ZM27.4486 64.68C27.2619 64.68 27.1053 64.62 26.9786 64.5C26.8586 64.38 26.7986 64.2333 26.7986 64.06C26.7986 63.8867 26.8586 63.74 26.9786 63.62C27.1053 63.4933 27.2619 63.43 27.4486 63.43C27.6353 63.43 27.7886 63.49 27.9086 63.61C28.0353 63.7233 28.0986 63.8667 28.0986 64.04C28.0986 64.22 28.0353 64.3733 27.9086 64.5C27.7886 64.62 27.6353 64.68 27.4486 64.68ZM30.6816 66.59C30.8482 66.2833 31.0949 66.05 31.4216 65.89C31.7482 65.73 32.1449 65.65 32.6116 65.65V66.58C32.5582 66.5733 32.4849 66.57 32.3916 66.57C31.8716 66.57 31.4616 66.7267 31.1616 67.04C30.8682 67.3467 30.7216 67.7867 30.7216 68.36V71H29.7616V65.7H30.6816V66.59ZM36.0559 71.06C35.5159 71.06 35.0326 70.9433 34.6059 70.71C34.1859 70.4767 33.8559 70.1567 33.6159 69.75C33.3759 69.3367 33.2559 68.87 33.2559 68.35C33.2559 67.83 33.3759 67.3667 33.6159 66.96C33.8559 66.5467 34.1859 66.2267 34.6059 66C35.0326 65.7667 35.5159 65.65 36.0559 65.65C36.5359 65.65 36.9626 65.7467 37.3359 65.94C37.7159 66.1333 38.0093 66.4133 38.2159 66.78L37.4859 67.25C37.3193 66.9967 37.1126 66.8067 36.8659 66.68C36.6193 66.5533 36.3459 66.49 36.0459 66.49C35.6993 66.49 35.3859 66.5667 35.1059 66.72C34.8326 66.8733 34.6159 67.0933 34.4559 67.38C34.3026 67.66 34.2259 67.9833 34.2259 68.35C34.2259 68.7233 34.3026 69.0533 34.4559 69.34C34.6159 69.62 34.8326 69.8367 35.1059 69.99C35.3859 70.1433 35.6993 70.22 36.0459 70.22C36.3459 70.22 36.6193 70.1567 36.8659 70.03C37.1126 69.9033 37.3193 69.7133 37.4859 69.46L38.2159 69.92C38.0093 70.2867 37.7159 70.57 37.3359 70.77C36.9626 70.9633 36.5359 71.06 36.0559 71.06ZM44.3988 65.7V71H43.4888V70.2C43.2955 70.4733 43.0388 70.6867 42.7188 70.84C42.4055 70.9867 42.0622 71.06 41.6888 71.06C40.9822 71.06 40.4255 70.8667 40.0188 70.48C39.6122 70.0867 39.4088 69.51 39.4088 68.75V65.7H40.3688V68.64C40.3688 69.1533 40.4922 69.5433 40.7388 69.81C40.9855 70.07 41.3388 70.2 41.7988 70.2C42.3055 70.2 42.7055 70.0467 42.9988 69.74C43.2922 69.4333 43.4388 69 43.4388 68.44V65.7H44.3988ZM46.2264 63.58H47.1864V71H46.2264V63.58ZM50.9494 65.65C51.6827 65.65 52.2427 65.83 52.6294 66.19C53.0227 66.55 53.2194 67.0867 53.2194 67.8V71H52.3094V70.3C52.1494 70.5467 51.9194 70.7367 51.6194 70.87C51.326 70.9967 50.976 71.06 50.5694 71.06C49.976 71.06 49.4994 70.9167 49.1394 70.63C48.786 70.3433 48.6094 69.9667 48.6094 69.5C48.6094 69.0333 48.7794 68.66 49.1194 68.38C49.4594 68.0933 49.9994 67.95 50.7394 67.95H52.2594V67.76C52.2594 67.3467 52.1394 67.03 51.8994 66.81C51.6594 66.59 51.306 66.48 50.8394 66.48C50.526 66.48 50.2194 66.5333 49.9194 66.64C49.6194 66.74 49.366 66.8767 49.1594 67.05L48.7594 66.33C49.0327 66.11 49.3594 65.9433 49.7394 65.83C50.1194 65.71 50.5227 65.65 50.9494 65.65ZM50.7294 70.32C51.096 70.32 51.4127 70.24 51.6794 70.08C51.946 69.9133 52.1394 69.68 52.2594 69.38V68.64H50.7794C49.966 68.64 49.5594 68.9133 49.5594 69.46C49.5594 69.7267 49.6627 69.9367 49.8694 70.09C50.076 70.2433 50.3627 70.32 50.7294 70.32ZM55.9159 66.59C56.0826 66.2833 56.3293 66.05 56.6559 65.89C56.9826 65.73 57.3793 65.65 57.8459 65.65V66.58C57.7926 66.5733 57.7193 66.57 57.6259 66.57C57.1059 66.57 56.6959 66.7267 56.3959 67.04C56.1026 67.3467 55.9559 67.7867 55.9559 68.36V71H54.9959V65.7H55.9159V66.59ZM60.5882 71.06C60.1549 71.06 59.7382 71.0033 59.3382 70.89C58.9382 70.77 58.6249 70.62 58.3982 70.44L58.7982 69.68C59.0315 69.8467 59.3149 69.98 59.6482 70.08C59.9815 70.18 60.3182 70.23 60.6582 70.23C61.4982 70.23 61.9182 69.99 61.9182 69.51C61.9182 69.35 61.8615 69.2233 61.7482 69.13C61.6349 69.0367 61.4915 68.97 61.3182 68.93C61.1515 68.8833 60.9115 68.8333 60.5982 68.78C60.1715 68.7133 59.8215 68.6367 59.5482 68.55C59.2815 68.4633 59.0515 68.3167 58.8582 68.11C58.6649 67.9033 58.5682 67.6133 58.5682 67.24C58.5682 66.76 58.7682 66.3767 59.1682 66.09C59.5682 65.7967 60.1049 65.65 60.7782 65.65C61.1315 65.65 61.4849 65.6933 61.8382 65.78C62.1915 65.8667 62.4815 65.9833 62.7082 66.13L62.2982 66.89C61.8649 66.61 61.3549 66.47 60.7682 66.47C60.3615 66.47 60.0515 66.5367 59.8382 66.67C59.6249 66.8033 59.5182 66.98 59.5182 67.2C59.5182 67.3733 59.5782 67.51 59.6982 67.61C59.8182 67.71 59.9649 67.7833 60.1382 67.83C60.3182 67.8767 60.5682 67.93 60.8882 67.99C61.3149 68.0633 61.6582 68.1433 61.9182 68.23C62.1849 68.31 62.4115 68.45 62.5982 68.65C62.7849 68.85 62.8782 69.13 62.8782 69.49C62.8782 69.97 62.6715 70.3533 62.2582 70.64C61.8515 70.92 61.2949 71.06 60.5882 71.06Z" fill="#CB202D"/>
</svg>
