<svg width="83" height="83" viewBox="0 0 83 83" fill="none" xmlns="http://www.w3.org/2000/svg">
<rect x="0.5" y="0.5" width="81.5" height="81.5" rx="9.5" stroke="#CB202D"/>
<path d="M25.894 63.112C24.9047 63.112 24.0133 62.8973 23.22 62.468C22.4267 62.0293 21.8013 61.4273 21.344 60.662C20.896 59.8967 20.672 59.0427 20.672 58.1C20.672 57.1573 20.896 56.3033 21.344 55.538C21.8013 54.7727 22.4267 54.1753 23.22 53.746C24.0133 53.3073 24.9047 53.088 25.894 53.088C26.874 53.088 27.7607 53.3073 28.554 53.746C29.3473 54.1753 29.968 54.7727 30.416 55.538C30.864 56.294 31.088 57.148 31.088 58.1C31.088 59.052 30.864 59.9107 30.416 60.676C29.968 61.432 29.3473 62.0293 28.554 62.468C27.7607 62.8973 26.874 63.112 25.894 63.112ZM25.894 61.866C26.6127 61.866 27.2567 61.7027 27.826 61.376C28.4047 61.0493 28.8573 60.6013 29.184 60.032C29.52 59.4533 29.688 58.8093 29.688 58.1C29.688 57.3907 29.52 56.7513 29.184 56.182C28.8573 55.6033 28.4047 55.1507 27.826 54.824C27.2567 54.4973 26.6127 54.334 25.894 54.334C25.1753 54.334 24.522 54.4973 23.934 54.824C23.3553 55.1507 22.898 55.6033 22.562 56.182C22.2353 56.7513 22.072 57.3907 22.072 58.1C22.072 58.8093 22.2353 59.4533 22.562 60.032C22.898 60.6013 23.3553 61.0493 23.934 61.376C24.522 61.7027 25.1753 61.866 25.894 61.866ZM35.7478 53.634C34.9451 53.634 34.5438 54.068 34.5438 54.936V55.58H36.6998V56.686H34.5718V63H33.2278V56.686H31.9678V55.58H33.2278V54.922C33.2278 54.1847 33.4425 53.6013 33.8718 53.172C34.3011 52.7427 34.9031 52.528 35.6778 52.528C35.9765 52.528 36.2565 52.5653 36.5178 52.64C36.7791 52.7147 37.0031 52.822 37.1898 52.962L36.7838 53.984C36.4758 53.7507 36.1305 53.634 35.7478 53.634ZM40.6834 53.634C39.8807 53.634 39.4794 54.068 39.4794 54.936V55.58H41.6354V56.686H39.5074V63H38.1634V56.686H36.9034V55.58H38.1634V54.922C38.1634 54.1847 38.378 53.6013 38.8074 53.172C39.2367 52.7427 39.8387 52.528 40.6134 52.528C40.912 52.528 41.192 52.5653 41.4534 52.64C41.7147 52.7147 41.9387 52.822 42.1254 52.962L41.7194 53.984C41.4114 53.7507 41.066 53.634 40.6834 53.634ZM49.4995 59.332C49.4995 59.4347 49.4902 59.57 49.4715 59.738H43.4515C43.5355 60.3913 43.8202 60.9187 44.3055 61.32C44.8002 61.712 45.4115 61.908 46.1395 61.908C47.0262 61.908 47.7402 61.6093 48.2815 61.012L49.0235 61.88C48.6875 62.272 48.2675 62.5707 47.7635 62.776C47.2689 62.9813 46.7135 63.084 46.0975 63.084C45.3135 63.084 44.6182 62.9253 44.0115 62.608C43.4049 62.2813 42.9335 61.8287 42.5975 61.25C42.2709 60.6713 42.1075 60.018 42.1075 59.29C42.1075 58.5713 42.2662 57.9227 42.5835 57.344C42.9102 56.7653 43.3535 56.3173 43.9135 56C44.4829 55.6733 45.1222 55.51 45.8315 55.51C46.5409 55.51 47.1709 55.6733 47.7215 56C48.2815 56.3173 48.7155 56.7653 49.0235 57.344C49.3409 57.9227 49.4995 58.5853 49.4995 59.332ZM45.8315 56.644C45.1875 56.644 44.6462 56.84 44.2075 57.232C43.7782 57.624 43.5262 58.1373 43.4515 58.772H48.2115C48.1369 58.1467 47.8802 57.638 47.4415 57.246C47.0122 56.8447 46.4755 56.644 45.8315 56.644ZM52.6538 56.826C52.8871 56.3967 53.2325 56.07 53.6898 55.846C54.1471 55.622 54.7025 55.51 55.3558 55.51V56.812C55.2811 56.8027 55.1785 56.798 55.0478 56.798C54.3198 56.798 53.7458 57.0173 53.3258 57.456C52.9151 57.8853 52.7098 58.5013 52.7098 59.304V63H51.3658V55.58H52.6538V56.826ZM59.195 63.084C58.5883 63.084 58.005 63.0047 57.445 62.846C56.885 62.678 56.4463 62.468 56.129 62.216L56.689 61.152C57.0156 61.3853 57.4123 61.572 57.879 61.712C58.3456 61.852 58.817 61.922 59.293 61.922C60.469 61.922 61.057 61.586 61.057 60.914C61.057 60.69 60.9776 60.5127 60.819 60.382C60.6603 60.2513 60.4596 60.158 60.217 60.102C59.9836 60.0367 59.6476 59.9667 59.209 59.892C58.6116 59.7987 58.1216 59.6913 57.739 59.57C57.3656 59.4487 57.0436 59.2433 56.773 58.954C56.5023 58.6647 56.367 58.2587 56.367 57.736C56.367 57.064 56.647 56.5273 57.207 56.126C57.767 55.7153 58.5183 55.51 59.461 55.51C59.9556 55.51 60.4503 55.5707 60.945 55.692C61.4396 55.8133 61.8456 55.9767 62.163 56.182L61.589 57.246C60.9823 56.854 60.2683 56.658 59.447 56.658C58.8776 56.658 58.4436 56.7513 58.145 56.938C57.8463 57.1247 57.697 57.372 57.697 57.68C57.697 57.9227 57.781 58.114 57.949 58.254C58.117 58.394 58.3223 58.4967 58.565 58.562C58.817 58.6273 59.167 58.702 59.615 58.786C60.2123 58.8887 60.693 59.0007 61.057 59.122C61.4303 59.234 61.7476 59.43 62.009 59.71C62.2703 59.99 62.401 60.382 62.401 60.886C62.401 61.558 62.1116 62.0947 61.533 62.496C60.9636 62.888 60.1843 63.084 59.195 63.084Z" fill="#CB202D"/>
<path d="M53.2034 28.9347L41.0513 16.7826C40.8015 16.5336 40.5049 16.3363 40.1787 16.202C39.8525 16.0677 39.503 15.9991 39.1502 16H29.6986C28.9836 16.0025 28.2987 16.2876 27.7931 16.7931C27.2876 17.2987 27.0025 17.9837 27 18.6986V28.1502C26.9997 28.5065 27.0699 28.8593 27.2066 29.1883C27.3433 29.5174 27.5438 29.816 27.7966 30.0672L39.9468 42.2164C40.197 42.4658 40.494 42.6633 40.8207 42.7976C41.1474 42.9319 41.4974 43.0004 41.8507 42.999C42.2044 43.0004 42.5548 42.9307 42.8811 42.794C43.2073 42.6574 43.5028 42.4565 43.7499 42.2034L53.2034 32.7499C53.4572 32.5024 53.6586 32.2062 53.7954 31.8791C53.9323 31.5519 54.0019 31.2006 54 30.846C53.9961 30.129 53.7099 29.4423 53.2034 28.9347ZM41.8507 40.3153L29.6986 28.1502V18.6986H39.1502V18.6865L51.2995 30.8367L41.8507 40.3153Z" fill="#CB202D"/>
<path d="M33.0562 23.9175C34.084 23.9175 34.9173 23.0843 34.9173 22.0564C34.9173 21.0286 34.084 20.1953 33.0562 20.1953C32.0283 20.1953 31.1951 21.0286 31.1951 22.0564C31.1951 23.0843 32.0283 23.9175 33.0562 23.9175Z" fill="#CB202D"/>
</svg>
