<svg width="50" height="50" viewBox="0 0 50 50" fill="none" xmlns="http://www.w3.org/2000/svg">
<circle cx="24.765" cy="24.765" r="24.765" fill="#CB202D"/>
<path d="M32.3852 30.4795H30.4802V22.1452L24.7652 25.717L19.0502 22.1452V30.4795H17.1452V19.0495H18.2882L24.7652 23.0977L31.2422 19.0495H32.3852V30.4795ZM32.3852 17.1445H17.1452C16.088 17.1445 15.2402 17.9923 15.2402 19.0495V30.4795C15.2402 30.9848 15.4409 31.4693 15.7982 31.8266C16.1555 32.1838 16.64 32.3845 17.1452 32.3845H32.3852C32.8905 32.3845 33.375 32.1838 33.7323 31.8266C34.0895 31.4693 34.2902 30.9848 34.2902 30.4795V19.0495C34.2902 18.5443 34.0895 18.0597 33.7323 17.7025C33.375 17.3452 32.8905 17.1445 32.3852 17.1445Z" fill="white"/>
</svg>
