<svg
              width="188"
              height="221"
              viewBox="0 0 188 221"
              fill="none"
              xmlns="http://www.w3.org/2000/svg"
            >
              <path
                d="M160.408 52.3808H159.195V19.2025C159.195 14.1097 157.165 9.22547 153.553 5.62429C149.94 2.02312 145.04 2.50487e-09 139.93 2.50487e-09H69.4092C66.8793 -4.07265e-05 64.3742 0.496607 62.0369 1.46159C59.6996 2.42657 57.5759 3.84098 55.787 5.62407C53.9981 7.40717 52.579 9.52402 51.6108 11.8538C50.6427 14.1835 50.1443 16.6805 50.1443 19.2022V201.221C50.1443 206.313 52.1739 211.198 55.7868 214.799C59.3996 218.4 64.2996 220.423 69.4089 220.423H139.929C145.039 220.423 149.939 218.4 153.552 214.799C157.164 211.198 159.194 206.313 159.194 201.221V75.9976H160.408L160.408 52.3808Z"
                fill="#3F3D56"
              />
              <path
                d="M155.244 17.917V202.507C155.243 206.368 153.704 210.071 150.965 212.802C148.226 215.533 144.512 217.067 140.638 217.069H68.6697C64.7943 217.069 61.0775 215.535 58.3366 212.805C55.5958 210.074 54.0554 206.37 54.0542 202.507V17.917C54.0554 14.0543 55.5957 10.3503 58.3364 7.61953C61.0772 4.88878 64.7939 3.35498 68.669 3.35547H77.3992C76.9705 4.40623 76.8074 5.54587 76.924 6.6742C77.0407 7.80254 77.4337 8.88503 78.0684 9.82654C78.7031 10.768 79.5601 11.5397 80.564 12.0738C81.568 12.6078 82.6882 12.8879 83.8262 12.8893H124.856C125.994 12.8879 127.115 12.6078 128.119 12.0738C129.123 11.5397 129.98 10.768 130.614 9.82654C131.249 8.88503 131.642 7.80254 131.759 6.6742C131.875 5.54587 131.712 4.40623 131.283 3.35547H140.635C144.509 3.35613 148.224 4.89012 150.963 7.62019C153.702 10.3503 155.242 14.053 155.244 17.9142V17.917Z"
                fill="white"
              />
              <path
                d="M104.636 92.0172C121.23 92.0172 134.681 78.6086 134.681 62.0682C134.681 45.5278 121.23 32.1191 104.636 32.1191C88.0418 32.1191 74.5898 45.5278 74.5898 62.0682C74.5898 78.6086 88.0418 92.0172 104.636 92.0172Z"
                fill="#CB202D"
              />
              <path
                d="M137.404 124.242H73.4523C73.1383 124.241 72.8373 124.117 72.6153 123.895C72.3933 123.674 72.2684 123.374 72.2681 123.061V107.249C72.2685 106.936 72.3934 106.636 72.6154 106.415C72.8374 106.193 73.1383 106.069 73.4523 106.068H137.404C137.718 106.069 138.019 106.193 138.241 106.415C138.463 106.636 138.588 106.936 138.588 107.249V123.061C138.588 123.374 138.463 123.674 138.241 123.896C138.019 124.117 137.718 124.241 137.404 124.242V124.242ZM73.4523 106.54C73.2639 106.541 73.0832 106.615 72.95 106.748C72.8167 106.881 72.7418 107.061 72.7416 107.249V123.061C72.7418 123.249 72.8167 123.429 72.95 123.562C73.0832 123.695 73.2639 123.77 73.4523 123.77H137.404C137.593 123.77 137.773 123.695 137.907 123.562C138.04 123.429 138.115 123.249 138.115 123.061V107.249C138.115 107.061 138.04 106.881 137.907 106.748C137.773 106.615 137.593 106.541 137.404 106.54H73.4523Z"
                fill="#E6E6E6"
              />
              <path
                d="M93.2302 111.764C93.0103 111.764 92.7994 111.851 92.6439 112.006C92.4885 112.161 92.4011 112.371 92.4011 112.59C92.4011 112.809 92.4885 113.019 92.6439 113.174C92.7994 113.329 93.0103 113.416 93.2302 113.416H132.312C132.531 113.425 132.745 113.346 132.907 113.197C133.068 113.048 133.164 112.841 133.172 112.622C133.18 112.403 133.101 112.19 132.952 112.029C132.802 111.868 132.595 111.773 132.375 111.765C132.363 111.764 132.351 111.764 132.339 111.764H93.2301L93.2302 111.764Z"
                fill="#E6E6E6"
              />
              <path
                d="M93.2302 116.721C93.0103 116.721 92.7994 116.808 92.6439 116.963C92.4885 117.118 92.4011 117.328 92.4011 117.547C92.4011 117.766 92.4885 117.976 92.6439 118.131C92.7994 118.286 93.0103 118.373 93.2302 118.373H132.312C132.531 118.382 132.745 118.303 132.907 118.154C133.068 118.005 133.164 117.798 133.172 117.579C133.18 117.36 133.101 117.147 132.952 116.986C132.802 116.825 132.595 116.73 132.375 116.722C132.363 116.721 132.351 116.721 132.339 116.721H93.2301L93.2302 116.721Z"
                fill="#E6E6E6"
              />
              <path
                d="M137.404 150.597H73.4523C73.1383 150.597 72.8373 150.472 72.6153 150.251C72.3933 150.03 72.2684 149.73 72.2681 149.417V133.604C72.2685 133.291 72.3934 132.991 72.6154 132.77C72.8374 132.549 73.1383 132.424 73.4523 132.424H137.404C137.718 132.424 138.019 132.549 138.241 132.77C138.463 132.991 138.588 133.291 138.588 133.604V149.417C138.588 149.73 138.463 150.03 138.241 150.251C138.019 150.472 137.718 150.597 137.404 150.597ZM73.4523 132.896C73.2639 132.896 73.0832 132.971 72.95 133.104C72.8167 133.236 72.7418 133.416 72.7416 133.604V149.417C72.7418 149.605 72.8167 149.785 72.95 149.918C73.0832 150.05 73.2639 150.125 73.4523 150.125H137.404C137.593 150.125 137.773 150.05 137.907 149.918C138.04 149.785 138.115 149.605 138.115 149.417V133.604C138.115 133.416 138.04 133.236 137.907 133.104C137.773 132.971 137.593 132.896 137.404 132.896H73.4523Z"
                fill="#E6E6E6"
              />
              <path
                d="M93.2302 138.205C93.0103 138.205 92.7994 138.292 92.6439 138.447C92.4885 138.602 92.4011 138.812 92.4011 139.031C92.4011 139.251 92.4885 139.461 92.6439 139.616C92.7994 139.771 93.0103 139.858 93.2302 139.858H132.312C132.528 139.857 132.736 139.771 132.89 139.619C133.044 139.467 133.132 139.261 133.136 139.045C133.14 138.829 133.058 138.62 132.909 138.463C132.76 138.306 132.555 138.214 132.339 138.205H93.2302V138.205Z"
                fill="#E6E6E6"
              />
              <path
                d="M93.2302 143.164C93.0103 143.164 92.7994 143.251 92.6439 143.406C92.4885 143.561 92.4011 143.771 92.4011 143.99C92.4011 144.21 92.4885 144.42 92.6439 144.575C92.7994 144.73 93.0103 144.817 93.2302 144.817H132.312C132.528 144.816 132.736 144.73 132.89 144.578C133.044 144.426 133.132 144.22 133.136 144.004C133.14 143.788 133.058 143.579 132.909 143.422C132.76 143.265 132.555 143.173 132.339 143.164H93.2302V143.164Z"
                fill="#E6E6E6"
              />
              <path
                d="M137.404 177.04H73.4523C73.1383 177.04 72.8373 176.916 72.6153 176.694C72.3933 176.473 72.2684 176.173 72.2681 175.86V160.048C72.2685 159.735 72.3934 159.435 72.6154 159.213C72.8374 158.992 73.1383 158.868 73.4523 158.867H137.404C137.718 158.868 138.019 158.992 138.241 159.213C138.463 159.435 138.588 159.735 138.588 160.048V175.86C138.588 176.173 138.463 176.473 138.241 176.694C138.019 176.916 137.718 177.04 137.404 177.041V177.04ZM73.4523 159.339C73.2639 159.339 73.0832 159.414 72.95 159.547C72.8167 159.68 72.7418 159.86 72.7416 160.048V175.86C72.7418 176.048 72.8167 176.228 72.95 176.361C73.0832 176.494 73.2639 176.568 73.4523 176.569H137.404C137.593 176.568 137.773 176.494 137.907 176.361C138.04 176.228 138.115 176.048 138.115 175.86V160.048C138.115 159.86 138.04 159.68 137.907 159.547C137.773 159.414 137.593 159.339 137.404 159.339H73.4523Z"
                fill="#E6E6E6"
              />
              <path
                d="M93.2302 164.648C93.0103 164.648 92.7994 164.735 92.6439 164.89C92.4885 165.045 92.4011 165.256 92.4011 165.475C92.4011 165.694 92.4885 165.904 92.6439 166.059C92.7994 166.214 93.0103 166.301 93.2302 166.301H132.312C132.42 166.305 132.529 166.288 132.631 166.25C132.733 166.213 132.827 166.155 132.907 166.082C132.987 166.008 133.051 165.919 133.097 165.821C133.142 165.722 133.168 165.615 133.172 165.507C133.176 165.398 133.159 165.29 133.121 165.188C133.083 165.087 133.026 164.993 132.952 164.914C132.878 164.834 132.789 164.77 132.69 164.724C132.591 164.679 132.484 164.653 132.375 164.649C132.363 164.649 132.351 164.649 132.339 164.649H93.2301L93.2302 164.648Z"
                fill="#E6E6E6"
              />
              <path
                d="M93.2302 169.607C93.0103 169.607 92.7994 169.695 92.6439 169.849C92.4885 170.004 92.4011 170.215 92.4011 170.434C92.4011 170.653 92.4885 170.863 92.6439 171.018C92.7994 171.173 93.0103 171.26 93.2302 171.26H132.312C132.42 171.264 132.529 171.247 132.631 171.209C132.733 171.172 132.827 171.114 132.907 171.041C132.987 170.967 133.051 170.878 133.097 170.78C133.142 170.681 133.168 170.574 133.172 170.466C133.176 170.357 133.159 170.249 133.121 170.147C133.083 170.046 133.026 169.952 132.952 169.873C132.878 169.793 132.789 169.729 132.69 169.683C132.591 169.638 132.484 169.612 132.375 169.608C132.363 169.608 132.351 169.608 132.339 169.608H93.2301L93.2302 169.607Z"
                fill="#E6E6E6"
              />
              <path
                d="M186.665 208.357C185.683 208.701 184.629 208.787 183.604 208.607C182.579 208.427 181.618 207.987 180.814 207.329C178.764 205.615 178.122 202.79 177.599 200.174L176.052 192.438L179.29 194.66C181.618 196.258 183.999 197.907 185.611 200.221C187.224 202.536 187.927 205.696 186.632 208.2"
                fill="#E6E6E6"
              />
              <path
                d="M186.165 218.262C186.573 215.302 186.992 212.305 186.706 209.314C186.452 206.658 185.639 204.064 183.984 201.936C183.105 200.809 182.036 199.844 180.824 199.083C180.509 198.884 180.218 199.383 180.532 199.581C182.629 200.902 184.25 202.852 185.162 205.15C186.171 207.706 186.332 210.492 186.158 213.207C186.053 214.849 185.831 216.48 185.606 218.108C185.589 218.182 185.6 218.26 185.637 218.326C185.675 218.391 185.736 218.441 185.808 218.463C185.882 218.483 185.961 218.473 186.028 218.435C186.095 218.398 186.144 218.335 186.164 218.262H186.165Z"
                fill="#F2F2F2"
              />
              <path
                d="M183.232 213.513C182.811 214.151 182.232 214.67 181.551 215.02C180.871 215.37 180.111 215.54 179.345 215.512C177.378 215.419 175.738 214.05 174.261 212.752L169.894 208.908L172.785 208.77C174.863 208.671 176.995 208.578 178.976 209.217C180.957 209.856 182.782 211.394 183.144 213.435"
                fill="#E6E6E6"
              />
              <path
                d="M187.316 219.963C185.356 216.503 183.079 212.657 179.014 211.428C177.883 211.088 176.698 210.966 175.521 211.069C175.15 211.1 175.243 211.67 175.615 211.638C177.587 211.475 179.555 211.994 181.188 213.108C182.759 214.175 183.983 215.657 185.018 217.229C185.653 218.19 186.221 219.195 186.789 220.198C186.97 220.518 187.5 220.287 187.316 219.963Z"
                fill="#F2F2F2"
              />
              <path
                d="M81.4308 120.017C84.1778 120.017 86.4048 117.798 86.4048 115.06C86.4048 112.321 84.1778 110.102 81.4308 110.102C78.6837 110.102 76.4568 112.321 76.4568 115.06C76.4568 117.798 78.6837 120.017 81.4308 120.017Z"
                fill="#CB202D"
              />
              <path
                d="M79.0497 114.133C78.9924 114.133 78.946 114.503 78.946 114.959C78.946 115.415 78.9924 115.786 79.0497 115.786H83.9406C83.9978 115.793 84.0451 115.429 84.046 114.973C84.0778 114.689 84.0429 114.401 83.944 114.133H79.0497V114.133Z"
                fill="#E6E6E6"
              />
              <path
                d="M81.4308 146.469C84.1778 146.469 86.4048 144.249 86.4048 141.511C86.4048 138.772 84.1778 136.553 81.4308 136.553C78.6837 136.553 76.4568 138.772 76.4568 141.511C76.4568 144.249 78.6837 146.469 81.4308 146.469Z"
                fill="#CB202D"
              />
              <path
                d="M79.0497 140.584C78.9924 140.584 78.946 140.954 78.946 141.41C78.946 141.866 78.9924 142.237 79.0497 142.237H83.9406C83.9978 142.244 84.0451 141.88 84.046 141.424C84.0778 141.14 84.0429 140.853 83.944 140.584H79.0497V140.584Z"
                fill="#E6E6E6"
              />
              <path
                d="M81.4308 172.912C84.1778 172.912 86.4048 170.692 86.4048 167.954C86.4048 165.216 84.1778 162.996 81.4308 162.996C78.6837 162.996 76.4568 165.216 76.4568 167.954C76.4568 170.692 78.6837 172.912 81.4308 172.912Z"
                fill="#CB202D"
              />
              <path
                d="M79.0497 167.027C78.9924 167.027 78.946 167.397 78.946 167.854C78.946 168.31 78.9924 168.68 79.0497 168.68H83.9406C83.9978 168.688 84.0451 168.324 84.046 167.868C84.0778 167.583 84.0429 167.296 83.944 167.028H79.0497V167.027Z"
                fill="#E6E6E6"
              />
              <path
                d="M98.1454 53.8452L96.3853 55.5996L111.126 70.293L112.886 68.5386L98.1454 53.8452Z"
                fill="white"
              />
              <path
                d="M112.886 55.5982L111.126 53.8438L96.3853 68.5372L98.1454 70.2916L112.886 55.5982Z"
                fill="white"
              />
              <path
                d="M33.9677 141.514C33.5856 141.361 33.2377 141.117 32.9487 140.797C32.6596 140.478 32.4364 140.09 32.2948 139.663C32.1531 139.236 32.0965 138.779 32.1288 138.325C32.1612 137.87 32.2817 137.429 32.482 137.033L25.9838 128.701L31.0564 127.914L36.4496 135.947C37.0194 136.369 37.4316 137.012 37.6081 137.754C37.7845 138.495 37.7131 139.284 37.4071 139.97C37.1012 140.656 36.5821 141.192 35.9482 141.477C35.3143 141.761 34.6096 141.774 33.9677 141.514Z"
                fill="#9F616A"
              />
              <path
                d="M26.1312 215.351L30.6632 215.351L32.8193 195.689L26.1304 195.69L26.1312 215.351Z"
                fill="#9F616A"
              />
              <path
                d="M24.9753 220.293L39.5889 220.293V220.085C39.5888 218.388 38.9895 216.761 37.9228 215.561C36.8561 214.362 35.4094 213.688 33.9009 213.688H33.9005L24.9751 213.688L24.9753 220.293Z"
                fill="#2F2E41"
              />
              <path
                d="M2.40683 211.086L6.73507 212.597L13.978 194.539L7.58991 192.309L2.40683 211.086Z"
                fill="#9F616A"
              />
              <path
                d="M0.000171661 215.42L13.9565 220.293L14.0113 220.095C14.4586 218.474 14.3152 216.72 13.6128 215.219C12.9105 213.717 11.7065 212.591 10.2659 212.088L10.2656 212.088L1.7415 209.111L0.000171661 215.42Z"
                fill="#2F2E41"
              />
              <path
                d="M29.6018 124.705L36.314 133.351L31.0592 133.883L29.6018 124.705Z"
                fill="#E6E6E6"
              />
              <path
                d="M32.2245 135.85C32.2245 135.85 34.556 137.161 34.8475 143.061C35.139 148.961 33.9731 164.368 33.9731 164.368C33.9731 164.368 35.1387 171.251 33.9731 177.479C32.8075 183.707 35.1387 206.322 33.6816 206.322C32.2245 206.322 24.6474 207.306 24.3559 206.322C24.0644 205.339 23.7729 190.589 23.7729 190.589C23.7729 190.589 21.4414 183.05 23.7729 178.462C23.7729 178.462 15.6324 194.45 10.3671 206.651C9.21479 209.321 0.458473 206.323 1.91556 203.373C3.37264 200.423 6.86976 186.984 6.86976 186.984C6.86976 186.984 9.49273 177.151 14.1555 172.89L11.824 151.912C11.824 151.912 6.86949 137.817 9.78338 135.851C12.6973 133.884 32.2245 135.85 32.2245 135.85Z"
                fill="#2F2E41"
              />
              <path
                d="M23.4817 82.4212C19.2969 82.4212 15.9045 78.6057 15.9045 73.8991C15.9045 69.1924 19.2969 65.377 23.4817 65.377C27.6664 65.377 31.0588 69.1924 31.0588 73.8991C31.0588 78.6057 27.6664 82.4212 23.4817 82.4212Z"
                fill="#A0616A"
              />
              <path
                d="M15.0301 83.0762L24.4498 89.3039C24.4498 89.3039 28.0567 91.5884 29.404 95.5315C30.8401 99.734 30.0054 105.651 29.404 107.004C28.2384 109.626 29.8929 116.182 29.8929 116.182L31.35 131.259C31.35 131.259 36.5957 136.831 32.5156 137.487C28.4356 138.142 21.1499 137.159 16.7783 137.487C12.4068 137.815 7.4526 138.47 8.90968 135.192C10.3668 131.913 12.1153 129.619 10.3668 123.065C8.99848 117.935 9.05776 98.7552 9.14821 90.6551C9.16066 89.5428 9.42593 88.4525 9.91878 87.488C10.4116 86.5236 11.1157 85.7169 11.9639 85.1448L15.0301 83.0762Z"
                fill="#E5E5E5"
              />
              <path
                opacity="0.1"
                d="M19.2546 93.4023L18.3805 113.397L26.8533 132.695L28.2903 132.08L19.5472 114.052L19.2546 93.4023Z"
                fill="black"
              />
              <path
                opacity="0.1"
                d="M9.63857 117.658V115.363L19.5461 133.719L9.63857 117.658Z"
                fill="black"
              />
              <path
                d="M28.8594 66.0045L30.1111 65.4413C30.1111 65.4413 27.4914 62.1981 23.8479 62.48L24.8729 61.2109C24.8729 61.2109 22.3676 60.0829 20.0899 63.0439C18.8926 64.6005 17.5075 66.4303 16.643 68.4913H15.3014L15.8612 69.8779L13.9017 71.2646L15.913 71.0164C15.7225 72.2135 15.7878 73.4444 16.1033 74.6076L16.0482 75.7037C16.0482 75.7037 18.3808 71.6442 18.3808 71.081V72.4912C18.3808 72.4912 19.6335 71.2221 19.6335 70.376L20.3168 71.3632L20.6585 69.8125L24.872 71.3632L24.1893 70.0935L26.8089 70.5165L25.7839 68.9658C25.7839 68.9658 28.7447 70.7987 28.8586 72.3501C28.9725 73.9014 30.4527 75.8752 30.4527 75.8752L31.1361 74.4649C31.1361 74.4649 32.1608 68.1197 28.8594 66.0045Z"
                fill="#2F2E41"
              />
              <path
                d="M23.9571 142.441C23.605 142.215 23.3012 141.905 23.0672 141.533C22.8332 141.16 22.6747 140.735 22.6027 140.286C22.5307 139.838 22.5471 139.377 22.6506 138.936C22.7542 138.495 22.9424 138.085 23.2021 137.735L18.122 128.238L23.2383 128.476L27.2781 137.458C27.7721 137.988 28.0763 138.703 28.133 139.468C28.1896 140.233 27.9948 140.994 27.5854 141.609C27.1761 142.223 26.5806 142.647 25.9119 142.8C25.2432 142.954 24.5476 142.826 23.9571 142.441Z"
                fill="#9F616A"
              />
              <path
                d="M12.4068 87.3392L10.2211 86.8477C10.2211 86.8477 3.66398 92.2559 5.70401 103.073C7.74403 113.889 16.7783 130.278 16.7783 130.278C16.7783 130.278 18.8189 133.228 19.4013 133.883C19.9837 134.539 21.1498 133.883 20.5669 134.867C19.9839 135.85 21.4413 136.506 21.4413 136.506C21.4413 136.506 27.8528 136.506 27.2699 133.883C26.687 131.261 16.7783 112.577 16.7783 112.577L18.2354 95.2045C18.2354 95.2045 19.4015 86.6836 12.4068 87.3392Z"
                fill="#E5E5E5"
              />
            </svg>