<svg width="69" height="56" viewBox="0 0 69 56" fill="none" xmlns="http://www.w3.org/2000/svg">
<path d="M67.275 38.5H65.9683C62.8946 38.5 61.355 34.7298 63.5285 32.5248L64.4536 31.5875C64.6137 31.425 64.7408 31.232 64.8275 31.0197C64.9142 30.8074 64.9588 30.5798 64.9588 30.3499C64.9588 30.1201 64.9142 29.8925 64.8275 29.6801C64.7408 29.4678 64.6137 29.2749 64.4536 29.1123C64.2934 28.9498 64.1032 28.8209 63.8939 28.7329C63.6845 28.645 63.4602 28.5997 63.2337 28.5997C63.0071 28.5997 62.7828 28.645 62.5734 28.7329C62.3641 28.8209 62.174 28.9498 62.0138 29.1123L61.0898 30.0508C58.9163 32.2558 55.2 30.6939 55.2 27.5756V26.25C55.2 25.7859 55.0183 25.3408 54.6948 25.0126C54.3713 24.6844 53.9325 24.5 53.475 24.5C53.0175 24.5 52.5787 24.6844 52.2552 25.0126C51.9317 25.3408 51.75 25.7859 51.75 26.25V27.5756C51.75 30.6939 48.0337 32.2558 45.8602 30.0508L44.9362 29.1123C44.6127 28.7841 44.1739 28.5997 43.7164 28.5997C43.2588 28.5997 42.82 28.7841 42.4965 29.1123C42.1729 29.4406 41.9912 29.8857 41.9912 30.3499C41.9912 30.8141 42.1729 31.2593 42.4965 31.5875L43.4215 32.5248C45.595 34.7298 44.0554 38.5 40.9817 38.5H39.675C39.2175 38.5 38.7787 38.6844 38.4552 39.0126C38.1317 39.3408 37.95 39.7859 37.95 40.25C37.95 40.7141 38.1317 41.1592 38.4552 41.4874C38.7787 41.8156 39.2175 42 39.675 42H40.9817C44.0554 42 45.595 45.7702 43.4215 47.9752L42.4965 48.9125C42.3363 49.075 42.2092 49.268 42.1225 49.4803C42.0358 49.6926 41.9912 49.9202 41.9912 50.1501C41.9912 50.3799 42.0358 50.6075 42.1225 50.8199C42.2092 51.0322 42.3363 51.2251 42.4965 51.3877C42.6567 51.5502 42.8468 51.6791 43.0561 51.7671C43.2655 51.855 43.4898 51.9003 43.7164 51.9003C43.9429 51.9003 44.1672 51.855 44.3766 51.7671C44.5859 51.6791 44.7761 51.5502 44.9362 51.3877L45.8602 50.4492C48.0337 48.2442 51.75 49.8061 51.75 52.9244V54.25C51.75 54.7141 51.9317 55.1592 52.2552 55.4874C52.5787 55.8156 53.0175 56 53.475 56C53.9325 56 54.3713 55.8156 54.6948 55.4874C55.0183 55.1592 55.2 54.7141 55.2 54.25V52.9244C55.2 49.8061 58.9163 48.2442 61.0898 50.4492L62.0138 51.3877C62.174 51.5502 62.3641 51.6791 62.5734 51.7671C62.7828 51.855 63.0071 51.9003 63.2337 51.9003C63.4602 51.9003 63.6845 51.855 63.8939 51.7671C64.1032 51.6791 64.2934 51.5502 64.4536 51.3877C64.6137 51.2251 64.7408 51.0322 64.8275 50.8199C64.9142 50.6075 64.9588 50.3799 64.9588 50.1501C64.9588 49.9202 64.9142 49.6926 64.8275 49.4803C64.7408 49.268 64.6137 49.075 64.4536 48.9125L63.5285 47.9752C61.355 45.7702 62.8946 42 65.9683 42H67.275C67.7325 42 68.1713 41.8156 68.4948 41.4874C68.8183 41.1592 69 40.7141 69 40.25C69 39.7859 68.8183 39.3408 68.4948 39.0126C68.1713 38.6844 67.7325 38.5 67.275 38.5ZM51.75 42C51.0677 42 50.4006 41.7947 49.8333 41.4101C49.2659 41.0256 48.8237 40.4789 48.5626 39.8394C48.3015 39.1999 48.2332 38.4961 48.3663 37.8172C48.4994 37.1383 48.828 36.5146 49.3105 36.0251C49.793 35.5356 50.4077 35.2023 51.0769 35.0673C51.7462 34.9322 52.4399 35.0015 53.0703 35.2664C53.7007 35.5313 54.2395 35.9799 54.6186 36.5555C54.9977 37.1311 55.2 37.8078 55.2 38.5C55.2 39.4283 54.8365 40.3185 54.1895 40.9749C53.5425 41.6312 52.665 42 51.75 42ZM37.3581 23.333H39.1004C39.7103 23.333 40.2952 23.0872 40.7265 22.6497C41.1577 22.2121 41.4 21.6187 41.4 21C41.4 20.3813 41.1577 19.7879 40.7265 19.3503C40.2952 18.9128 39.7103 18.667 39.1004 18.667H37.3581C33.2612 18.667 31.2074 13.6358 34.1054 10.7002L35.3377 9.44891C35.7665 9.01081 36.0066 8.41816 36.0055 7.80079C36.0043 7.18343 35.762 6.59169 35.3316 6.15522C34.9013 5.71875 34.3179 5.47313 33.7094 5.47218C33.1008 5.47123 32.5167 5.71503 32.085 6.15016L30.8527 7.40031C27.9547 10.3403 22.9996 8.25891 22.9996 4.10047V2.33297C22.9996 1.71423 22.7574 1.12083 22.3261 0.683311C21.8948 0.245794 21.3099 0 20.7 0C20.0901 0 19.5052 0.245794 19.0739 0.683311C18.6426 1.12083 18.4004 1.71423 18.4004 2.33297V4.10047C18.4004 8.25672 13.441 10.3403 10.5473 7.40031L9.315 6.15016C8.8833 5.71503 8.2992 5.47123 7.69065 5.47218C7.08211 5.47313 6.49874 5.71875 6.06836 6.15522C5.63798 6.59169 5.39568 7.18343 5.39455 7.80079C5.39341 8.41816 5.63353 9.01081 6.0623 9.44891L7.29459 10.7002C10.1926 13.6402 8.14092 18.667 4.04189 18.667H2.29964C1.68974 18.667 1.10482 18.9128 0.673549 19.3503C0.242283 19.7879 0 20.3813 0 21C0 21.6187 0.242283 22.2121 0.673549 22.6497C1.10482 23.0872 1.68974 23.333 2.29964 23.333H4.04189C8.13877 23.333 10.1926 28.3642 7.29459 31.2998L6.0623 32.55C5.84872 32.7667 5.6793 33.0239 5.56372 33.307C5.44813 33.5901 5.38864 33.8935 5.38864 34.1999C5.38864 34.8188 5.63096 35.4123 6.0623 35.8498C6.49363 36.2874 7.07865 36.5333 7.68865 36.5333C8.29865 36.5333 8.88367 36.2874 9.315 35.8498L10.5473 34.5997C13.4453 31.6597 18.4004 33.7411 18.4004 37.8995V39.667C18.4004 40.2858 18.6426 40.8792 19.0739 41.3167C19.5052 41.7542 20.0901 42 20.7 42C21.3099 42 21.8948 41.7542 22.3261 41.3167C22.7574 40.8792 22.9996 40.2858 22.9996 39.667V37.8995C22.9996 33.7433 27.959 31.6597 30.8527 34.5997L32.085 35.8498C32.5163 36.2874 33.1014 36.5333 33.7114 36.5333C34.3214 36.5333 34.9064 36.2874 35.3377 35.8498C35.769 35.4123 36.0114 34.8188 36.0114 34.1999C36.0114 33.5811 35.769 32.9876 35.3377 32.55L34.1054 31.2998C31.2074 28.3598 33.2591 23.333 37.3581 23.333ZM17.25 21C16.5677 21 15.9006 20.7947 15.3333 20.4101C14.7659 20.0256 14.3237 19.4789 14.0626 18.8394C13.8015 18.1999 13.7332 17.4961 13.8663 16.8172C13.9994 16.1383 14.328 15.5146 14.8105 15.0251C15.293 14.5356 15.9077 14.2023 16.5769 14.0673C17.2462 13.9322 17.9399 14.0015 18.5703 14.2664C19.2007 14.5313 19.7395 14.9799 20.1186 15.5555C20.4977 16.1311 20.7 16.8078 20.7 17.5C20.7 18.4283 20.3365 19.3185 19.6895 19.9749C19.0425 20.6313 18.165 21 17.25 21ZM25.875 24.5C25.5338 24.5 25.2003 24.3974 24.9166 24.2051C24.633 24.0128 24.4119 23.7395 24.2813 23.4197C24.1507 23.0999 24.1166 22.7481 24.1831 22.4086C24.2497 22.0691 24.414 21.7573 24.6552 21.5126C24.8965 21.2678 25.2039 21.1012 25.5385 21.0336C25.8731 20.9661 26.2199 21.0008 26.5351 21.1332C26.8503 21.2657 27.1197 21.49 27.3093 21.7778C27.4988 22.0655 27.6 22.4039 27.6 22.75C27.6 23.2141 27.4183 23.6592 27.0948 23.9874C26.7713 24.3156 26.3325 24.5 25.875 24.5Z" fill="#CB202D"/>
</svg>
