<svg width="58" height="52" viewBox="0 0 58 52" fill="none" xmlns="http://www.w3.org/2000/svg">
<path d="M56.3889 6.5C57.279 6.5 58 5.77281 58 4.875V1.625C58 0.727188 57.279 0 56.3889 0H1.61111C0.720972 0 0 0.727188 0 1.625V4.875C0 5.77281 0.720972 6.5 1.61111 6.5H3.22021V45.5H1.61111C0.720972 45.5 0 46.2272 0 47.125V50.375C0 51.2728 0.720972 52 1.61111 52H25.7778V43.875C25.7778 42.9813 26.5028 42.25 27.3889 42.25H30.6111C31.4972 42.25 32.2222 42.9813 32.2222 43.875V52H56.3889C57.279 52 58 51.2728 58 50.375V47.125C58 46.2272 57.279 45.5 56.3889 45.5H54.7778V6.5H56.3889ZM25.7778 11.05C25.7778 10.4 26.4222 9.75 27.0667 9.75H30.9333C31.5778 9.75 32.2222 10.4 32.2222 11.05V14.95C32.2222 15.6 31.5778 16.25 30.9333 16.25H27.0667C26.4222 16.25 25.7778 15.6 25.7778 14.95V11.05ZM25.7778 20.8C25.7778 20.15 26.4222 19.5 27.0667 19.5H30.9333C31.5778 19.5 32.2222 20.15 32.2222 20.8V24.7C32.2222 25.35 31.5778 26 30.9333 26H27.0667C26.4222 26 25.7778 25.35 25.7778 24.7V20.8ZM12.8889 11.05C12.8889 10.4 13.5333 9.75 14.1778 9.75H18.0444C18.6889 9.75 19.3333 10.4 19.3333 11.05V14.95C19.3333 15.6 18.6889 16.25 18.0444 16.25H14.1778C13.5333 16.25 12.8889 15.6 12.8889 14.95V11.05ZM18.0444 26H14.1778C13.5333 26 12.8889 25.35 12.8889 24.7V20.8C12.8889 20.15 13.5333 19.5 14.1778 19.5H18.0444C18.6889 19.5 19.3333 20.15 19.3333 20.8V24.7C19.3333 25.35 18.6889 26 18.0444 26ZM19.3333 39C19.3333 33.6152 23.6612 29.25 29 29.25C34.3388 29.25 38.6667 33.6152 38.6667 39H19.3333ZM45.1111 24.7C45.1111 25.35 44.4667 26 43.8222 26H39.9556C39.3111 26 38.6667 25.35 38.6667 24.7V20.8C38.6667 20.15 39.3111 19.5 39.9556 19.5H43.8222C44.4667 19.5 45.1111 20.15 45.1111 20.8V24.7ZM45.1111 14.95C45.1111 15.6 44.4667 16.25 43.8222 16.25H39.9556C39.3111 16.25 38.6667 15.6 38.6667 14.95V11.05C38.6667 10.4 39.3111 9.75 39.9556 9.75H43.8222C44.4667 9.75 45.1111 10.4 45.1111 11.05V14.95Z" fill="#CB202D"/>
</svg>
