<svg width="35" height="35" viewBox="0 0 35 35" fill="none" xmlns="http://www.w3.org/2000/svg">
<circle cx="17.235" cy="17.235" r="17.235" fill="#CB202D"/>
<path d="M14.1613 10.8924L14.8745 10.6644C15.544 10.451 16.258 10.7963 16.545 11.4711L17.1144 12.8155C17.3623 13.4008 17.2251 14.0895 16.7737 14.5178L15.5182 15.7096C15.5951 16.4229 15.835 17.1249 16.2367 17.8156C16.6184 18.4839 17.1303 19.0689 17.7422 19.5358L19.2502 19.032C19.8223 18.8418 20.4447 19.0612 20.7947 19.5762L21.6121 20.7761C22.0197 21.3753 21.9468 22.2013 21.4411 22.709L20.8988 23.2533C20.3592 23.7948 19.5883 23.9917 18.8757 23.769C17.1926 23.244 15.6455 21.6855 14.2335 19.0937C12.8196 16.4978 12.3204 14.2944 12.7367 12.486C12.9117 11.725 13.4533 11.1185 14.1613 10.8924Z" fill="white"/>
</svg>
