<svg
            width="14"
            height="14"
            viewBox="0 0 14 14"
            fill="none"
            xmlns="http://www.w3.org/2000/svg"
          >
            <path
              d="M13 5.6875H8.5V1.75C8.5 1.26684 8.05219 0.875 7.5 0.875H6.5C5.94781 0.875 5.5 1.26684 5.5 1.75V5.6875H1C0.447812 5.6875 0 6.07934 0 6.5625V7.4375C0 7.92066 0.447812 8.3125 1 8.3125H5.5V12.25C5.5 12.7332 5.94781 13.125 6.5 13.125H7.5C8.05219 13.125 8.5 12.7332 8.5 12.25V8.3125H13C13.5522 8.3125 14 7.92066 14 7.4375V6.5625C14 6.07934 13.5522 5.6875 13 5.6875Z"
              fill="white"
            />
          </svg>