<svg width="50" height="50" viewBox="0 0 50 50" fill="none" xmlns="http://www.w3.org/2000/svg">
<circle cx="24.7664" cy="24.7664" r="24.7664" fill="#CB202D"/>
<path d="M24.7667 15.875C22.9147 15.8772 21.1392 16.6138 19.8296 17.9234C18.5201 19.2329 17.7834 21.0084 17.7813 22.8604C17.779 24.3738 18.2734 25.8462 19.1885 27.0516C19.1885 27.0516 19.379 27.3025 19.4101 27.3387L24.7667 33.656L30.1257 27.3355C30.1537 27.3018 30.3448 27.0516 30.3448 27.0516L30.3455 27.0497C31.2601 25.8448 31.7542 24.3731 31.7521 22.8604C31.7499 21.0084 31.0132 19.2329 29.7037 17.9234C28.3941 16.6138 26.6186 15.8772 24.7667 15.875ZM24.7667 25.4005C24.2643 25.4005 23.7732 25.2516 23.3554 24.9725C22.9377 24.6933 22.6121 24.2966 22.4199 23.8325C22.2276 23.3683 22.1773 22.8576 22.2753 22.3648C22.3733 21.8721 22.6153 21.4195 22.9705 21.0642C23.3258 20.709 23.7784 20.4671 24.2711 20.3691C24.7638 20.2711 25.2746 20.3214 25.7387 20.5136C26.2029 20.7059 26.5996 21.0314 26.8787 21.4492C27.1578 21.8669 27.3068 22.358 27.3068 22.8604C27.306 23.5338 27.0381 24.1794 26.5619 24.6556C26.0857 25.1318 25.4401 25.3997 24.7667 25.4005Z" fill="white"/>
</svg>
