 <svg
                  width="12"
                  height="9"
                  viewBox="0 0 12 9"
                  fill="none"
                  xmlns="http://www.w3.org/2000/svg"
                >
                  <path
                    d="M6 1.2C8.06727 1.2 9.91091 2.478 10.8109 4.5C9.91091 6.522 8.06727 7.8 6 7.8C3.93273 7.8 2.08909 6.522 1.18909 4.5C2.08909 2.478 3.93273 1.2 6 1.2ZM6 0C3.27273 0 0.943636 1.866 0 4.5C0.943636 7.134 3.27273 9 6 9C8.72727 9 11.0564 7.134 12 4.5C11.0564 1.866 8.72727 0 6 0ZM6 3C6.75273 3 7.36364 3.672 7.36364 4.5C7.36364 5.328 6.75273 6 6 6C5.24727 6 4.63636 5.328 4.63636 4.5C4.63636 3.672 5.24727 3 6 3ZM6 1.8C4.64727 1.8 3.54545 3.012 3.54545 4.5C3.54545 5.988 4.64727 7.2 6 7.2C7.35273 7.2 8.45455 5.988 8.45455 4.5C8.45455 3.012 7.35273 1.8 6 1.8Z"
                    fill="white"
                  />
                </svg>