<svg width="336" height="241" viewBox="0 0 336 241" fill="none" xmlns="http://www.w3.org/2000/svg">
<g clip-path="url(#clip0)">
<path d="M326.066 70.623H142.203C139.614 70.6254 137.133 71.6564 135.303 73.4898C133.473 75.3232 132.444 77.8091 132.441 80.4019V110.253C132.444 112.846 133.473 115.332 135.303 117.165C137.133 118.999 139.614 120.03 142.203 120.032H326.066C328.654 120.03 331.136 118.999 332.966 117.165C334.796 115.332 335.825 112.846 335.827 110.253V80.4019C335.825 77.8091 334.796 75.3232 332.966 73.4898C331.136 71.6564 328.654 70.6254 326.066 70.623Z" fill="#F2F2F2"/>
<path d="M73.7342 241.001H0.585192C0.429989 241.001 0.281134 240.939 0.171389 240.829C0.0616446 240.719 0 240.57 0 240.414C0 240.259 0.0616446 240.11 0.171389 240C0.281134 239.89 0.429989 239.828 0.585192 239.828H73.7342C73.8894 239.828 74.0382 239.89 74.1479 240C74.2577 240.11 74.3194 240.259 74.3194 240.414C74.3194 240.57 74.2577 240.719 74.1479 240.829C74.0382 240.939 73.8894 241.001 73.7342 241.001Z" fill="#3F3D56"/>
<path d="M62.9937 57.4408C62.3154 57.8698 61.7391 58.4426 61.3056 59.1188C60.8721 59.795 60.5918 60.5582 60.4846 61.3546C60.3774 62.1511 60.4457 62.9614 60.6849 63.7285C60.9241 64.4956 61.3283 65.2009 61.8689 65.7946L56.551 77.1712L62.6638 82.0949L69.9485 65.9233C70.8839 64.9472 71.4294 63.6614 71.4817 62.3093C71.5339 60.9572 71.0893 59.6329 70.232 58.5873C69.3747 57.5417 68.1644 56.8475 66.8303 56.6362C65.4963 56.4249 64.1312 56.7112 62.9937 57.4408V57.4408Z" fill="#FFB8B8"/>
<path d="M32.434 62.0578C34.117 61.045 36.1246 60.72 38.0403 61.1503C39.9561 61.5805 41.633 62.7329 42.7234 64.3686L53.6049 80.6912L57.3826 72.348C57.6185 71.827 58.0364 71.4104 58.5575 71.1765C59.0787 70.9427 59.6672 70.9078 60.2122 71.0783L65.914 72.8627C66.2118 72.9559 66.4881 73.1078 66.7265 73.3096C66.9649 73.5113 67.1607 73.7588 67.3022 74.0374C67.4437 74.316 67.5282 74.6202 67.5507 74.932C67.5732 75.2439 67.5332 75.5571 67.4331 75.8532L63.5301 87.399C63.0364 88.8596 62.2115 90.1856 61.1202 91.273C60.0288 92.3603 58.7008 93.1795 57.2402 93.6662C55.7797 94.1529 54.2265 94.2938 52.7024 94.0779C51.1784 93.862 49.725 93.2951 48.4565 92.4218C47.8637 92.0138 47.3168 91.5425 46.8253 91.0165L30.7896 73.8513C30.0109 73.0177 29.4281 72.0203 29.084 70.9319C28.7399 69.8435 28.6431 68.6918 28.8008 67.5612C28.9584 66.4305 29.3665 65.3494 29.9952 64.3972C30.6238 63.445 31.4571 62.6456 32.434 62.0578Z" fill="#CCCCCC"/>
<path d="M67.6353 45.1917C67.9273 45.199 68.2046 45.3222 68.406 45.5343C68.6074 45.7463 68.7164 46.0298 68.7092 46.3224L68.6153 50.1111L68.8049 50.1285L68.7368 52.7018L68.5516 52.6786L68.2151 66.2518C68.2035 66.7164 68.0237 67.1609 67.7091 67.5023C67.3945 67.8438 66.9666 68.059 66.5053 68.1076L57.8902 69.0162C57.6804 69.0384 57.4684 69.0142 57.2689 68.9456C57.0694 68.8769 56.8874 68.7654 56.7355 68.6188C56.5836 68.4722 56.4656 68.2941 56.3896 68.097C56.3137 67.8998 56.2818 67.6884 56.296 67.4776L57.6027 48.1504C57.6301 47.7444 57.7946 47.3599 58.0691 47.06C58.3436 46.7601 58.7117 46.5628 59.1131 46.5003L67.4298 45.2059C67.4977 45.1948 67.5665 45.19 67.6353 45.1917Z" fill="#3F3D56"/>
<path d="M60.968 47.2021L65.3401 46.5216C65.4188 46.5094 65.4913 46.4715 65.5463 46.4138C65.6014 46.3561 65.6359 46.2819 65.6445 46.2025C65.6543 46.1127 65.6934 46.0286 65.7558 45.9633C65.8181 45.898 65.9002 45.855 65.9893 45.8412L66.9103 45.6978C67.0359 45.6783 67.1644 45.6866 67.2865 45.7222C67.4086 45.7578 67.5214 45.8198 67.617 45.9038C67.7126 45.9879 67.7886 46.0919 67.8396 46.2086C67.8907 46.3253 67.9156 46.4517 67.9125 46.5791L67.4392 66.258C67.4333 66.5022 67.3379 66.7357 67.1711 66.9139C67.0043 67.0921 66.7779 67.2025 66.5351 67.2242L57.9263 67.9909C57.8165 68.0007 57.7058 67.9866 57.602 67.9497C57.4981 67.9127 57.4034 67.8537 57.3243 67.7767C57.2453 67.6997 57.1838 67.6065 57.1439 67.5035C57.1041 67.4005 57.087 67.2901 57.0937 67.1799L58.2553 48.0312C58.2724 47.749 58.3853 47.4812 58.5753 47.2723C58.7652 47.0633 59.0208 46.9257 59.2996 46.8823L60.2705 46.7312C60.3062 46.8833 60.3978 47.0162 60.5271 47.1035C60.6564 47.1908 60.8139 47.226 60.968 47.2021Z" fill="white"/>
<path d="M40.6837 233.883L47.3736 233.883L50.5553 208.031L40.6814 208.032L40.6837 233.883Z" fill="#FFB8B8"/>
<path d="M60.2764 240.105L39.2506 240.107L39.2498 231.969L52.152 231.968C53.2188 231.968 54.2752 232.178 55.2609 232.587C56.2465 232.996 57.1421 233.595 57.8965 234.351C58.6509 235.107 59.2494 236.004 59.6577 236.991C60.0661 237.978 60.2763 239.037 60.2764 240.105L60.2764 240.105Z" fill="#2F2E41"/>
<path d="M20.1225 233.883L26.8124 233.883L29.9941 208.031L20.1201 208.032L20.1225 233.883Z" fill="#FFB8B8"/>
<path d="M39.7151 240.105L18.6893 240.107L18.6886 231.969L31.5908 231.968C33.7453 231.968 35.8116 232.825 37.3352 234.351C38.8588 235.877 39.7149 237.947 39.7151 240.105L39.7151 240.105Z" fill="#2F2E41"/>
<path d="M39.7152 53.2707C47.6531 53.2707 54.0881 46.824 54.0881 38.8717C54.0881 30.9193 47.6531 24.4727 39.7152 24.4727C31.7773 24.4727 25.3423 30.9193 25.3423 38.8717C25.3423 46.824 31.7773 53.2707 39.7152 53.2707Z" fill="#FFB8B8"/>
<path d="M47.1122 77.3967C46.9948 73.6948 45.9545 70.0811 44.0861 66.885C42.2177 63.6889 39.5806 61.0121 36.4151 59.0984C32.7019 56.9064 28.6375 56.0515 25.4039 59.291C23.4622 61.2849 21.9073 63.6229 20.8183 66.186C17.8272 73.1705 17.6315 81.0398 20.2718 88.1649L27.9679 109.466L45.7807 111.399C46.1153 111.435 46.4537 111.399 46.773 111.292C47.0923 111.186 47.3848 111.011 47.6308 110.781C47.8767 110.551 48.0702 110.27 48.198 109.959C48.3259 109.647 48.3851 109.311 48.3717 108.974L47.1122 77.3967Z" fill="#2F2E41"/>
<path d="M29.0975 106.842C29.0975 106.842 15.7895 111.819 19.2688 132.894C22.391 151.806 19.9099 214.577 19.3676 227.265C19.3417 227.87 19.5506 228.461 19.9503 228.915C20.3501 229.369 20.9097 229.651 21.5119 229.7L29.2803 230.349C29.8887 230.4 30.4929 230.21 30.964 229.821C31.435 229.432 31.7356 228.874 31.8017 228.266L35.8138 191.347C35.8295 191.202 35.8985 191.069 36.0074 190.972C36.1163 190.875 36.2572 190.823 36.4026 190.824C36.5481 190.826 36.6877 190.882 36.7942 190.981C36.9006 191.081 36.9664 191.216 36.9786 191.361L39.9682 226.886C40.0186 227.484 40.2963 228.04 40.744 228.44C41.1918 228.839 41.7755 229.051 42.3747 229.032L48.8997 228.826C49.2072 228.816 49.5097 228.746 49.7901 228.619C50.0704 228.492 50.323 228.311 50.5334 228.086C50.7438 227.861 50.9079 227.597 51.0163 227.308C51.1247 227.02 51.1753 226.713 51.1652 226.405L47.3215 109.303L29.0975 106.842Z" fill="#2F2E41"/>
<path d="M42.5998 37.9233C47.4067 39.8984 53.5454 37.5912 55.8695 32.9361C58.1936 28.2809 56.3543 21.9763 51.8936 19.3076C47.4329 16.639 41.0202 18.0069 38.0315 22.2645C35.6004 17.8766 29.2315 16.7579 24.8587 19.2063C20.4859 21.6547 18.104 26.783 17.8215 31.7935C17.539 36.8041 19.0596 41.7401 20.9145 46.4019C23.9148 53.9426 33.5739 58.0028 41.047 54.8647C37.6258 49.76 38.3012 42.2898 42.5998 37.9233Z" fill="#2F2E41"/>
<path d="M61.9703 59.1861C61.8424 59.1863 61.7179 59.1448 61.6155 59.0679L61.6092 59.0632L60.2728 58.039C60.2109 57.9915 60.159 57.9322 60.12 57.8646C60.081 57.7969 60.0556 57.7223 60.0454 57.6448C60.0352 57.5674 60.0403 57.4886 60.0605 57.4132C60.0806 57.3377 60.1154 57.2669 60.1629 57.2049C60.2103 57.1429 60.2695 57.0909 60.337 57.0518C60.4045 57.0127 60.4791 56.9873 60.5564 56.9771C60.6337 56.9668 60.7123 56.972 60.7876 56.9922C60.8629 57.0124 60.9336 57.0472 60.9955 57.0947L61.861 57.7597L63.9064 55.0864C63.9539 55.0244 64.013 54.9724 64.0805 54.9333C64.148 54.8942 64.2225 54.8689 64.2998 54.8586C64.3771 54.8484 64.4556 54.8535 64.5309 54.8737C64.6062 54.8939 64.6768 54.9288 64.7387 54.9763L64.7389 54.9764L64.7262 54.9941L64.7392 54.9764C64.864 55.0725 64.9457 55.2143 64.9663 55.3706C64.9869 55.527 64.9447 55.6851 64.849 55.8103L62.4432 58.9533C62.3875 59.0257 62.316 59.0843 62.234 59.1246C62.1521 59.1648 62.0621 59.1856 61.9708 59.1853L61.9703 59.1861Z" fill="#CB202D"/>
<path d="M326.239 0H142.375C139.787 0.00234863 137.306 1.03338 135.476 2.86677C133.646 4.70016 132.616 7.18609 132.614 9.77889V39.6302C132.616 42.223 133.646 44.709 135.476 46.5424C137.306 48.3758 139.787 49.4068 142.375 49.4091H326.239C328.827 49.4068 331.308 48.3758 333.138 46.5424C334.968 44.709 335.998 42.223 336 39.6302V9.77889C335.998 7.18609 334.968 4.70015 333.138 2.86676C331.308 1.03338 328.827 0.00234863 326.239 0ZM334.972 39.6302C334.969 41.9498 334.048 44.1733 332.411 45.8135C330.774 47.4536 328.554 48.3765 326.239 48.3798H142.375C140.06 48.3765 137.84 47.4536 136.203 45.8135C134.566 44.1733 133.645 41.9498 133.641 39.6302V9.77889C133.645 7.45938 134.566 5.23581 136.203 3.59566C137.84 1.95552 140.06 1.03264 142.375 1.02935H326.239C328.554 1.03264 330.774 1.95552 332.411 3.59566C334.048 5.23581 334.969 7.45938 334.972 9.77889V39.6302Z" fill="#3F3D56"/>
<path d="M179.792 41.7241C176.432 41.7241 173.147 40.7259 170.353 38.8558C167.559 36.9856 165.381 34.3274 164.096 31.2173C162.81 28.1073 162.473 24.6851 163.129 21.3835C163.784 18.0818 165.402 15.0491 167.778 12.6688C170.154 10.2884 173.182 8.66739 176.477 8.01065C179.773 7.35391 183.189 7.69096 186.293 8.97918C189.398 10.2674 192.051 12.4489 193.918 15.2479C195.785 18.0469 196.781 21.3376 196.781 24.7039C196.776 29.2163 194.984 33.5425 191.799 36.7333C188.614 39.9241 184.296 41.719 179.792 41.7241Z" fill="#CB202D"/>
<path d="M301.152 38.6001H212.846C211.756 38.6001 210.71 38.1663 209.939 37.3941C209.169 36.622 208.736 35.5747 208.736 34.4827C208.736 33.3907 209.169 32.3434 209.939 31.5712C210.71 30.799 211.756 30.3652 212.846 30.3652H301.152C302.242 30.3652 303.288 30.799 304.059 31.5712C304.829 32.3434 305.262 33.3907 305.262 34.4827C305.262 35.5747 304.829 36.622 304.059 37.3941C303.288 38.1663 302.242 38.6001 301.152 38.6001Z" fill="#CCCCCC"/>
<path d="M242.072 21.102H212.846C211.756 21.102 210.71 20.6682 209.939 19.8961C209.169 19.1239 208.736 18.0766 208.736 16.9846C208.736 15.8926 209.169 14.8453 209.939 14.0732C210.71 13.301 211.756 12.8672 212.846 12.8672H242.072C243.162 12.8672 244.207 13.301 244.978 14.0732C245.748 14.8453 246.182 15.8926 246.182 16.9846C246.182 18.0766 245.748 19.1239 244.978 19.8961C244.207 20.6682 243.162 21.102 242.072 21.102Z" fill="#CCCCCC"/>
<path d="M178.924 30.6922C178.503 30.6929 178.092 30.5563 177.755 30.303L177.734 30.2873L173.331 26.9127C173.126 26.7562 172.955 26.5609 172.826 26.3379C172.697 26.115 172.613 25.8687 172.579 25.6132C172.545 25.3578 172.562 25.0981 172.628 24.8491C172.695 24.6002 172.809 24.3667 172.966 24.1622C173.122 23.9577 173.318 23.7861 173.54 23.6572C173.763 23.5284 174.009 23.4448 174.264 23.4112C174.519 23.3777 174.778 23.3949 175.027 23.4617C175.275 23.5286 175.508 23.6439 175.712 23.8011L178.564 25.9922L185.304 17.1834C185.46 16.9791 185.655 16.8077 185.878 16.679C186.1 16.5502 186.346 16.4666 186.6 16.4329C186.855 16.3992 187.114 16.4161 187.362 16.4826C187.61 16.5491 187.843 16.6639 188.046 16.8205L188.047 16.8209L188.005 16.8791L188.048 16.8209C188.459 17.1376 188.729 17.6047 188.796 18.1199C188.864 18.6351 188.725 19.1562 188.41 19.5689L180.482 29.9254C180.299 30.164 180.063 30.3571 179.793 30.4897C179.523 30.6223 179.227 30.6908 178.926 30.6899L178.924 30.6922Z" fill="white"/>
<path d="M247.238 80.3164H63.3745C60.7863 80.3188 58.3049 81.3498 56.4748 83.1832C54.6448 85.0166 53.6156 87.5025 53.6133 90.0953V119.947C53.6156 122.539 54.6448 125.025 56.4748 126.859C58.3049 128.692 60.7863 129.723 63.3745 129.726H247.238C249.826 129.723 252.307 128.692 254.138 126.859C255.968 125.025 256.997 122.539 256.999 119.947V90.0953C256.997 87.5025 255.968 85.0166 254.138 83.1832C252.307 81.3498 249.826 80.3188 247.238 80.3164Z" fill="white"/>
<path d="M247.238 80.3164H63.3745C60.7863 80.3188 58.3049 81.3498 56.4748 83.1832C54.6448 85.0166 53.6156 87.5025 53.6133 90.0953V119.947C53.6156 122.539 54.6448 125.025 56.4748 126.859C58.3049 128.692 60.7863 129.723 63.3745 129.726H247.238C249.826 129.723 252.307 128.692 254.138 126.859C255.968 125.025 256.997 122.539 256.999 119.947V90.0953C256.997 87.5025 255.968 85.0166 254.138 83.1832C252.307 81.3498 249.826 80.3188 247.238 80.3164ZM255.972 119.947C255.968 122.266 255.047 124.49 253.41 126.13C251.773 127.77 249.553 128.693 247.238 128.696H63.3745C61.0591 128.693 58.8396 127.77 57.2024 126.13C55.5652 124.49 54.644 122.266 54.6407 119.947V90.0953C54.644 87.7758 55.5652 85.5522 57.2024 83.9121C58.8396 82.2719 61.0591 81.3491 63.3744 81.3458H247.238C249.553 81.3491 251.773 82.2719 253.41 83.9121C255.047 85.5522 255.968 87.7758 255.972 90.0953V119.947Z" fill="#3F3D56"/>
<path d="M100.791 122.042C97.4306 122.043 94.1459 121.044 91.352 119.174C88.5581 117.304 86.3805 114.646 85.0946 111.536C83.8086 108.426 83.4722 105.003 84.1277 101.702C84.7832 98.4002 86.4013 95.3675 88.7773 92.9871C91.1533 90.6068 94.1806 88.9858 97.4762 88.329C100.772 87.6723 104.188 88.0093 107.292 89.2975C110.397 90.5858 113.05 92.7673 114.917 95.5663C116.784 98.3652 117.78 101.656 117.78 105.022C117.775 109.535 115.983 113.861 112.798 117.052C109.613 120.242 105.295 122.037 100.791 122.042Z" fill="#CB202D"/>
<path d="M222.151 118.918H133.845C132.755 118.918 131.709 118.485 130.938 117.712C130.168 116.94 129.735 115.893 129.735 114.801C129.735 113.709 130.168 112.662 130.938 111.89C131.709 111.117 132.755 110.684 133.845 110.684H222.151C223.241 110.684 224.287 111.117 225.058 111.89C225.828 112.662 226.261 113.709 226.261 114.801C226.261 115.893 225.828 116.94 225.058 117.712C224.287 118.485 223.241 118.918 222.151 118.918Z" fill="#CCCCCC"/>
<path d="M163.071 101.418H133.845C133.305 101.418 132.77 101.312 132.272 101.105C131.773 100.898 131.32 100.595 130.938 100.212C130.557 99.8301 130.254 99.3763 130.047 98.8767C129.841 98.3772 129.735 97.8417 129.735 97.301C129.735 96.7603 129.841 96.2249 130.047 95.7254C130.254 95.2258 130.557 94.7719 130.938 94.3896C131.32 94.0072 131.773 93.7039 132.272 93.497C132.77 93.2901 133.305 93.1836 133.845 93.1836H163.071C164.161 93.1836 165.206 93.6174 165.977 94.3896C166.748 95.1617 167.181 96.209 167.181 97.301C167.181 98.393 166.748 99.4403 165.977 100.212C165.206 100.985 164.161 101.418 163.071 101.418Z" fill="#CCCCCC"/>
<path d="M99.9232 111.009C99.5017 111.009 99.0914 110.873 98.7541 110.619L98.7332 110.604L94.3298 107.229C94.1254 107.073 93.9538 106.877 93.8248 106.654C93.6958 106.431 93.612 106.185 93.5781 105.93C93.5442 105.674 93.5609 105.415 93.6273 105.166C93.6937 104.917 93.8084 104.683 93.9649 104.479C94.1214 104.274 94.3166 104.102 94.5394 103.974C94.7622 103.845 95.0081 103.761 95.2632 103.728C95.5182 103.694 95.7774 103.711 96.0258 103.778C96.2742 103.845 96.5071 103.96 96.711 104.117L99.5631 106.309L106.303 97.4998C106.459 97.2955 106.654 97.1242 106.877 96.9954C107.099 96.8666 107.345 96.783 107.599 96.7493C107.854 96.7156 108.113 96.7325 108.361 96.799C108.609 96.8655 108.842 96.9803 109.045 97.1369L109.046 97.1373L109.004 97.1955L109.047 97.1373C109.458 97.454 109.728 97.9211 109.795 98.4363C109.863 98.9515 109.724 99.4726 109.409 99.8853L101.481 110.242C101.298 110.48 101.062 110.674 100.792 110.806C100.522 110.939 100.226 111.007 99.925 111.006L99.9232 111.009Z" fill="white"/>
<path d="M57.4122 87.0495C56.6733 86.7364 55.8749 86.5894 55.0733 86.6189C54.2716 86.6484 53.4861 86.8537 52.7722 87.2202C52.0583 87.5867 51.4332 88.1055 50.9411 88.7402C50.449 89.3749 50.1018 90.11 49.9239 90.8936L37.5645 93.0148L37.0193 100.854L54.4312 97.6125C55.7651 97.8246 57.1304 97.5392 58.2682 96.8102C59.4061 96.0813 60.2375 94.9595 60.605 93.6575C60.9724 92.3554 60.8504 90.9636 60.2619 89.7457C59.6735 88.5278 58.6595 87.5684 57.4122 87.0494L57.4122 87.0495Z" fill="#FFB8B8"/>
<path d="M36.1817 64.5513C37.9725 65.3574 39.385 66.8231 40.1262 68.6444C40.8673 70.4657 40.8803 72.5029 40.1624 74.3336L32.998 92.6025L41.9922 90.9463C42.5539 90.8429 43.1339 90.9488 43.623 91.2439C44.1122 91.539 44.4768 92.0032 44.6482 92.5489L46.4412 98.2572C46.5348 98.5554 46.568 98.8694 46.5388 99.1807C46.5096 99.4919 46.4185 99.7942 46.271 100.07C46.1234 100.345 45.9224 100.588 45.6797 100.785C45.437 100.981 45.1575 101.127 44.8576 101.214L33.1673 104.596C31.6885 105.023 30.1309 105.102 28.6167 104.825C27.1025 104.548 25.6729 103.924 24.4402 103C23.2076 102.077 22.2053 100.88 21.5121 99.5029C20.819 98.1261 20.4538 96.6071 20.4452 95.0651C20.4412 94.3446 20.5151 93.6257 20.6657 92.9211L25.5778 69.9319C25.8163 68.8155 26.3011 67.7667 26.9966 66.8623C27.692 65.9579 28.5806 65.2208 29.5973 64.7049C30.6139 64.1891 31.7328 63.9076 32.8721 63.881C34.0114 63.8544 35.1422 64.0834 36.1817 64.5513Z" fill="#CCCCCC"/>
</g>
<defs>
<clipPath id="clip0">
<rect width="336" height="241" fill="white"/>
</clipPath>
</defs>
</svg>
