<svg width="367" height="301" viewBox="0 0 367 301" fill="none" xmlns="http://www.w3.org/2000/svg">
<g clip-path="url(#clip0)">
<path d="M273.074 235.912H159.283C157.466 235.91 155.724 235.187 154.44 233.901C153.155 232.616 152.433 230.873 152.43 229.055V147.178C152.432 145.36 153.155 143.617 154.44 142.331C155.724 141.046 157.466 140.322 159.283 140.32H273.074C274.891 140.322 276.632 141.046 277.917 142.331C279.202 143.617 279.924 145.36 279.926 147.178V229.055C279.924 230.873 279.202 232.616 277.917 233.901C276.632 235.187 274.891 235.91 273.074 235.912Z" fill="#E6E6E6"/>
<path d="M161.386 230.446H270.971C271.852 230.446 272.697 230.096 273.32 229.472C273.943 228.848 274.293 228.003 274.293 227.121V149.112C274.293 148.23 273.943 147.385 273.32 146.761C272.697 146.137 271.852 145.787 270.971 145.787H161.386C160.505 145.787 159.66 146.137 159.037 146.761C158.414 147.385 158.064 148.23 158.064 149.112V227.121C158.064 228.003 158.414 228.848 159.037 229.472C159.66 230.096 160.505 230.446 161.386 230.446Z" fill="white"/>
<path d="M120.643 125.992H6.85238C5.03564 125.99 3.29391 125.267 2.00928 123.981C0.724656 122.696 0.00205218 120.953 0 119.135V37.2581C0.00205108 35.4399 0.724656 33.6968 2.00928 32.4112C3.29391 31.1256 5.03564 30.4024 6.85238 30.4004H120.643C122.46 30.4024 124.202 31.1256 125.486 32.4112C126.771 33.6968 127.494 35.4399 127.496 37.2581V119.135C127.494 120.953 126.771 122.696 125.486 123.981C124.202 125.267 122.46 125.99 120.643 125.992Z" fill="#E6E6E6"/>
<path d="M8.95567 120.526H118.54C119.421 120.526 120.266 120.176 120.889 119.552C121.512 118.929 121.862 118.083 121.862 117.201V39.1921C121.862 38.3103 121.512 37.4646 120.889 36.841C120.266 36.2175 119.421 35.8672 118.54 35.8672H8.95567C8.07452 35.8672 7.22946 36.2175 6.6064 36.841C5.98333 37.4646 5.6333 38.3103 5.6333 39.1921V117.201C5.6333 118.083 5.98333 118.929 6.6064 119.552C7.22946 120.176 8.07452 120.526 8.95567 120.526Z" fill="white"/>
<path d="M257.908 170.025H187.91C187.582 170.025 187.256 170.09 186.953 170.216C186.65 170.342 186.374 170.526 186.142 170.758C185.91 170.99 185.726 171.266 185.6 171.57C185.475 171.873 185.41 172.199 185.41 172.527C185.41 172.856 185.475 173.181 185.6 173.485C185.726 173.788 185.91 174.064 186.142 174.296C186.374 174.529 186.65 174.713 186.953 174.839C187.256 174.964 187.582 175.029 187.91 175.029H257.908C258.571 175.029 259.207 174.766 259.676 174.296C260.145 173.827 260.408 173.191 260.408 172.527C260.408 171.864 260.145 171.227 259.676 170.758C259.207 170.289 258.571 170.025 257.908 170.025Z" fill="#E6E6E6"/>
<path d="M187.91 185.422C187.582 185.422 187.256 185.487 186.953 185.612C186.65 185.738 186.374 185.922 186.142 186.155C185.91 186.387 185.726 186.663 185.6 186.966C185.475 187.27 185.41 187.595 185.41 187.924C185.41 188.252 185.475 188.578 185.6 188.881C185.726 189.185 185.91 189.461 186.142 189.693C186.374 189.925 186.65 190.109 186.953 190.235C187.256 190.361 187.582 190.426 187.91 190.426H257.908C258.571 190.426 259.207 190.162 259.676 189.693C260.145 189.224 260.408 188.587 260.408 187.924C260.408 187.26 260.145 186.624 259.676 186.155C259.207 185.685 258.571 185.422 257.908 185.422H187.91Z" fill="#E6E6E6"/>
<path d="M187.91 200.818C187.247 200.818 186.611 201.082 186.142 201.551C185.673 202.02 185.41 202.657 185.41 203.32C185.41 203.984 185.673 204.62 186.142 205.089C186.611 205.559 187.247 205.822 187.91 205.822H257.908C258.571 205.822 259.207 205.559 259.676 205.089C260.145 204.62 260.408 203.984 260.408 203.32C260.408 202.657 260.145 202.02 259.676 201.551C259.207 201.082 258.571 200.818 257.908 200.818H187.91Z" fill="#E6E6E6"/>
<path d="M174.641 175.799C176.34 175.799 177.718 174.42 177.718 172.72C177.718 171.019 176.34 169.641 174.641 169.641C172.942 169.641 171.564 171.019 171.564 172.72C171.564 174.42 172.942 175.799 174.641 175.799Z" fill="#CB202D"/>
<path d="M174.641 191.196C176.34 191.196 177.718 189.817 177.718 188.116C177.718 186.416 176.34 185.037 174.641 185.037C172.942 185.037 171.564 186.416 171.564 188.116C171.564 189.817 172.942 191.196 174.641 191.196Z" fill="#E6E6E6"/>
<path d="M174.641 206.592C176.34 206.592 177.718 205.213 177.718 203.513C177.718 201.812 176.34 200.434 174.641 200.434C172.942 200.434 171.564 201.812 171.564 203.513C171.564 205.213 172.942 206.592 174.641 206.592Z" fill="#E6E6E6"/>
<path d="M230.024 172.527C230.024 172.856 229.959 173.181 229.834 173.485C229.708 173.788 229.524 174.064 229.292 174.296C229.06 174.529 228.784 174.713 228.481 174.839C228.178 174.964 227.853 175.029 227.524 175.029H188C187.382 175.038 186.782 174.824 186.31 174.425C185.838 174.026 185.526 173.47 185.431 172.86C185.385 172.506 185.414 172.147 185.517 171.806C185.62 171.465 185.795 171.149 186.03 170.881C186.264 170.613 186.553 170.398 186.877 170.25C187.202 170.103 187.554 170.026 187.91 170.025H227.524C228.187 170.025 228.823 170.289 229.292 170.758C229.761 171.227 230.024 171.864 230.024 172.527V172.527Z" fill="#CB202D"/>
<path d="M216.178 129.804C221.701 129.804 226.178 125.324 226.178 119.797C226.178 114.27 221.701 109.789 216.178 109.789C210.656 109.789 206.179 114.27 206.179 119.797C206.179 125.324 210.656 129.804 216.178 129.804Z" fill="#E6E6E6"/>
<path d="M221.114 120.597C221.556 117.87 219.705 115.3 216.979 114.857C214.254 114.414 211.685 116.267 211.243 118.994C210.801 121.722 212.652 124.292 215.377 124.735C218.103 125.178 220.671 123.325 221.114 120.597Z" fill="white"/>
<path d="M17.0564 75.8184C16.3993 75.8184 15.7691 76.0796 15.3045 76.5446C14.8399 77.0095 14.5789 77.6402 14.5789 78.2978C14.5789 78.9554 14.8399 79.586 15.3045 80.051C15.7691 80.516 16.3993 80.7772 17.0564 80.7772H110.439C111.096 80.7772 111.726 80.516 112.191 80.051C112.656 79.586 112.917 78.9554 112.917 78.2978C112.917 77.6402 112.656 77.0095 112.191 76.5446C111.726 76.0796 111.096 75.8184 110.439 75.8184H17.0564Z" fill="#E6E6E6"/>
<path d="M17.0564 91.0762C16.3993 91.0762 15.7691 91.3374 15.3045 91.8024C14.8399 92.2674 14.5789 92.898 14.5789 93.5556C14.5789 94.2132 14.8399 94.8438 15.3045 95.3088C15.7691 95.7738 16.3993 96.035 17.0564 96.035H110.439C111.096 96.035 111.726 95.7738 112.191 95.3088C112.656 94.8438 112.917 94.2132 112.917 93.5556C112.917 92.898 112.656 92.2674 112.191 91.8024C111.726 91.3374 111.096 91.0762 110.439 91.0762H17.0564Z" fill="#E6E6E6"/>
<path d="M58.7929 107.098C58.1359 107.098 57.5057 107.359 57.0411 107.824C56.5765 108.289 56.3154 108.919 56.3154 109.577C56.3154 110.235 56.5765 110.865 57.0411 111.33C57.5057 111.795 58.1359 112.056 58.7929 112.056H68.7029C69.36 112.056 69.9902 111.795 70.4548 111.33C70.9194 110.865 71.1804 110.235 71.1804 109.577C71.1804 108.919 70.9194 108.289 70.4548 107.824C69.9902 107.359 69.36 107.098 68.7029 107.098H58.7929Z" fill="#CB202D"/>
<path d="M50.4686 44.3359C50.2665 44.3361 50.0727 44.4166 49.9298 44.5596C49.7869 44.7026 49.7065 44.8966 49.7063 45.0988V64.465C49.7065 64.6673 49.7869 64.8612 49.9298 65.0042C50.0727 65.1472 50.2665 65.2277 50.4686 65.2279H77.0273C77.2294 65.2277 77.4232 65.1472 77.5661 65.0042C77.709 64.8612 77.7894 64.6673 77.7896 64.465V45.0988C77.7894 44.8966 77.709 44.7026 77.5661 44.5596C77.4232 44.4166 77.2294 44.3361 77.0273 44.3359L50.4686 44.3359Z" fill="#CB202D"/>
<path d="M63.7479 56.8372C66.0634 56.8372 67.9406 54.9586 67.9406 52.6412C67.9406 50.3239 66.0634 48.4453 63.7479 48.4453C61.4323 48.4453 59.5552 50.3239 59.5552 52.6412C59.5552 54.9586 61.4323 56.8372 63.7479 56.8372Z" fill="white"/>
<path d="M70.6086 63.3209C70.6101 63.984 70.4533 64.6379 70.1513 65.2282H57.3445C57.0181 64.5885 56.8613 63.8756 56.8891 63.1579C56.9169 62.4402 57.1284 61.7416 57.5033 61.1291C57.8781 60.5166 58.4038 60.0107 59.0301 59.6598C59.6563 59.3089 60.3621 59.1247 61.0798 59.125H66.4159C67.5273 59.1244 68.5934 59.5656 69.3796 60.3516C70.1659 61.1376 70.608 62.204 70.6086 63.3162V63.3209Z" fill="white"/>
<path d="M63.7479 56.8372C66.0634 56.8372 67.9406 54.9586 67.9406 52.6412C67.9406 50.3239 66.0634 48.4453 63.7479 48.4453C61.4323 48.4453 59.5552 50.3239 59.5552 52.6412C59.5552 54.9586 61.4323 56.8372 63.7479 56.8372Z" fill="white"/>
<path d="M70.6086 63.3209C70.6101 63.984 70.4533 64.6379 70.1513 65.2282H57.3445C57.0181 64.5885 56.8613 63.8756 56.8891 63.1579C56.9169 62.4402 57.1284 61.7416 57.5033 61.1291C57.8781 60.5166 58.4038 60.0107 59.0301 59.6598C59.6563 59.3089 60.3621 59.1247 61.0798 59.125H66.4159C67.5273 59.1244 68.5934 59.5656 69.3796 60.3516C70.1659 61.1376 70.608 62.204 70.6086 63.3162V63.3209Z" fill="white"/>
<path d="M63.7479 19.8353C69.221 19.8353 73.6579 15.395 73.6579 9.91766C73.6579 4.44029 69.221 0 63.7479 0C58.2748 0 53.8379 4.44029 53.8379 9.91766C53.8379 15.395 58.2748 19.8353 63.7479 19.8353Z" fill="#E6E6E6"/>
<path d="M63.7477 14.8766C66.4843 14.8766 68.7027 12.6565 68.7027 9.91781C68.7027 7.17913 66.4843 4.95898 63.7477 4.95898C61.0112 4.95898 58.7927 7.17913 58.7927 9.91781C58.7927 12.6565 61.0112 14.8766 63.7477 14.8766Z" fill="#CB202D"/>
<path d="M310.69 295.603L305.943 295.602L303.685 277.275L310.692 277.276L310.69 295.603Z" fill="#FFB8B8"/>
<path d="M302.551 294.246H311.708V300.016H296.786C296.786 299.258 296.935 298.508 297.225 297.808C297.515 297.108 297.94 296.472 298.475 295.936C299.01 295.4 299.646 294.975 300.345 294.685C301.045 294.395 301.794 294.246 302.551 294.246Z" fill="#2F2E41"/>
<path d="M336.282 295.603L331.534 295.602L329.276 277.275L336.283 277.276L336.282 295.603Z" fill="#FFB8B8"/>
<path d="M328.143 294.246H337.299V300.016H322.377C322.377 299.258 322.527 298.508 322.816 297.808C323.106 297.108 323.531 296.472 324.066 295.936C324.601 295.4 325.237 294.975 325.936 294.685C326.636 294.395 327.385 294.246 328.143 294.246Z" fill="#2F2E41"/>
<path d="M322.377 165.318C328.01 165.318 332.577 160.748 332.577 155.11C332.577 149.473 328.01 144.902 322.377 144.902C316.744 144.902 312.177 149.473 312.177 155.11C312.177 160.748 316.744 165.318 322.377 165.318Z" fill="#FFB8B8"/>
<path d="M287.5 221.683C287.571 221.118 287.765 220.575 288.069 220.093C288.372 219.611 288.778 219.202 289.256 218.893C289.735 218.585 290.276 218.386 290.84 218.309C291.404 218.232 291.978 218.281 292.521 218.45L298.222 211.611L303.219 214.065L295.034 223.609C294.689 224.504 294.028 225.241 293.176 225.681C292.324 226.121 291.341 226.233 290.412 225.995C289.483 225.758 288.674 225.188 288.137 224.393C287.6 223.598 287.374 222.634 287.5 221.683Z" fill="#FFB8B8"/>
<path d="M336.56 228.6C336.317 228.085 336.19 227.523 336.188 226.953C336.186 226.383 336.308 225.82 336.547 225.303C336.786 224.785 337.135 224.327 337.57 223.959C338.005 223.592 338.515 223.324 339.065 223.175L340.209 214.343L345.742 213.73L343.95 226.18C344.139 227.121 343.976 228.098 343.493 228.926C343.01 229.755 342.24 230.377 341.329 230.675C340.418 230.974 339.43 230.927 338.551 230.545C337.672 230.162 336.963 229.47 336.56 228.6L336.56 228.6Z" fill="#FFB8B8"/>
<path d="M330.902 174.391C331.444 173.694 332.161 173.153 332.979 172.822C333.797 172.49 334.688 172.381 335.563 172.504C336.437 172.628 337.263 172.98 337.957 173.525C338.652 174.07 339.191 174.789 339.519 175.609L347.88 196.49C348.734 198.624 349.006 200.946 348.669 203.22L345.946 221.573C345.911 221.81 345.825 222.036 345.694 222.237C345.563 222.438 345.391 222.607 345.189 222.735C344.986 222.863 344.759 222.945 344.522 222.977C344.285 223.009 344.044 222.989 343.815 222.918L340.227 221.816C339.855 221.701 339.536 221.461 339.323 221.135C339.111 220.809 339.02 220.419 339.065 220.033C340.331 209.228 338.658 198.281 334.221 188.35L330.28 179.527C329.908 178.695 329.769 177.778 329.879 176.873C329.989 175.968 330.342 175.11 330.902 174.391Z" fill="#CB202D"/>
<path d="M324.861 165.318C326.396 165.351 327.921 165.059 329.335 164.46C330.749 163.862 332.021 162.97 333.066 161.845C334.112 160.719 334.907 159.385 335.401 157.93C335.895 156.475 336.075 154.932 335.93 153.402C335.785 151.872 335.319 150.39 334.561 149.054C333.803 147.717 332.771 146.556 331.533 145.647C330.295 144.739 328.878 144.102 327.377 143.78C325.876 143.458 324.323 143.457 322.822 143.778C320.578 142.415 317.97 141.498 315.357 141.732C312.743 141.965 310.158 143.518 309.18 145.955C308.203 148.392 309.253 151.605 311.683 152.596C313.242 153.231 315.001 152.923 316.664 152.667C318.327 152.41 320.141 152.243 321.588 153.102C323.035 153.961 323.685 156.263 322.389 157.336C321.702 157.928 321.212 158.715 320.983 159.593C320.754 160.47 320.798 161.397 321.109 162.249C321.76 163.935 323.538 165.289 324.861 165.318Z" fill="#2F2E41"/>
<path d="M337.516 221.279L339.325 289.997C339.331 290.226 339.29 290.454 339.204 290.666C339.118 290.879 338.989 291.071 338.825 291.231C338.661 291.391 338.466 291.515 338.251 291.596C338.037 291.677 337.809 291.713 337.58 291.701L331.62 291.397C331.239 291.377 330.877 291.228 330.594 290.973C330.311 290.718 330.123 290.374 330.064 289.998L322.974 245.365C322.944 245.174 322.848 244.999 322.703 244.872C322.558 244.744 322.373 244.671 322.18 244.665C321.987 244.659 321.797 244.72 321.645 244.839C321.492 244.957 321.385 245.125 321.343 245.314L311.747 288.287C311.696 288.517 311.596 288.733 311.455 288.922C311.314 289.11 311.135 289.266 310.929 289.38C310.723 289.494 310.495 289.563 310.261 289.582C310.026 289.601 309.791 289.57 309.569 289.491L303.654 289.13C303.312 289.008 303.019 288.777 302.82 288.473C302.621 288.169 302.527 287.808 302.553 287.445L307.717 220.629L337.516 221.279Z" fill="#2F2E41"/>
<path d="M340.42 188.641C341.418 178.228 333.767 168.809 323.34 168.068C318.847 167.749 311.873 167.634 309.574 173.528C302.648 191.28 314.772 190.849 310.595 206.229C306.417 221.61 302.728 222.492 308.46 223.602C314.191 224.713 339.967 231.269 338.908 220.444C338.258 213.789 339.424 199.029 340.42 188.641Z" fill="#CB202D"/>
<path d="M310.8 171.721C311.624 171.403 312.516 171.307 313.388 171.443C314.261 171.58 315.081 171.945 315.768 172.5C316.454 173.056 316.982 173.783 317.298 174.607C317.614 175.432 317.707 176.326 317.567 177.198L314.312 197.56C313.755 201.042 312.284 204.313 310.049 207.039L299.475 219.933C299.324 220.118 299.134 220.268 298.919 220.373C298.704 220.478 298.468 220.535 298.229 220.54C297.99 220.546 297.753 220.5 297.533 220.405C297.313 220.31 297.117 220.169 296.957 219.991L294.445 217.2C294.185 216.911 294.035 216.539 294.02 216.151C294.005 215.762 294.127 215.381 294.364 215.072L295.104 214.112C301.255 206.123 305.135 196.62 306.335 186.607L307.629 175.807C307.738 174.902 308.09 174.044 308.649 173.324C309.207 172.604 309.951 172.05 310.8 171.721Z" fill="#CB202D"/>
<path d="M366.585 301.001H259.438C259.328 301.001 259.223 300.957 259.145 300.879C259.067 300.802 259.023 300.696 259.023 300.586C259.023 300.475 259.067 300.37 259.145 300.292C259.223 300.214 259.328 300.17 259.438 300.17H366.585C366.695 300.17 366.801 300.214 366.878 300.292C366.956 300.37 367 300.475 367 300.586C367 300.696 366.956 300.802 366.878 300.879C366.801 300.957 366.695 301.001 366.585 301.001Z" fill="#CCCCCC"/>
</g>
<defs>
<clipPath id="clip0">
<rect width="367" height="301" fill="white"/>
</clipPath>
</defs>
</svg>
