<svg width="369" height="196" viewBox="0 0 369 196" fill="none" xmlns="http://www.w3.org/2000/svg">
<g clip-path="url(#clip0)">
<g opacity="0.1">
<path opacity="0.1" d="M57.7251 15.5938V195.837L42.7251 196C39.5241 196.036 36.3366 195.58 33.2744 194.649V37.522H33.2992C40.6663 28.4855 48.9264 20.945 57.7251 15.5938Z" fill="#CB202D"/>
<path opacity="0.1" d="M367.788 41.4403H30.2126C31.2167 40.1104 32.2372 38.8136 33.2743 37.5498V37.5215H366.948C367.272 38.8018 367.552 40.1081 367.788 41.4403Z" fill="#CB202D"/>
<path opacity="0.1" d="M340.708 6.57731V157.6H339.479C338.841 158.936 338.211 160.247 337.59 161.533C337.314 162.102 337.037 162.661 336.768 163.22V5.14844C338.131 5.587 339.444 6.06329 340.708 6.57731Z" fill="#CB202D"/>
<path opacity="0.1" d="M246.941 4.83398V193.789L243.001 193.831V5.64038C244.309 5.36451 245.62 5.09217 246.941 4.83398Z" fill="#CB202D"/>
<path opacity="0.1" d="M152.331 22.3671V194.815L148.395 194.858V22.1797C149.709 22.2646 151.024 22.3141 152.331 22.3671Z" fill="#CB202D"/>
<path opacity="0.1" d="M339.479 157.604C338.841 158.94 338.211 160.251 337.59 161.536H5.1419C4.68596 160.242 4.26073 158.931 3.86621 157.604H339.479Z" fill="#CB202D"/>
</g>
<path d="M81.715 94.0195H74.9822V114.413H81.715V94.0195Z" fill="#3F3D56"/>
<path d="M262.909 92.959H256.176V114.534H262.909V92.959Z" fill="#3F3D56"/>
<path d="M305.846 188.742V193.34L252.012 193.835L251.438 193.846L230.978 194.033L230.489 194.04L224.27 194.093H224.085L186.176 194.443L123.947 195.02H123.894L108.072 195.168L107.902 195.172L37.5974 195.816V190.51L54.1282 180.607L87.2961 180.331L88.0048 180.328L88.2387 180.324L88.9474 180.314L104.872 180.183L105.585 180.179L105.811 180.176L106.52 180.172L111.626 180.13L111.761 180.126L124.358 180.02H124.461L222.76 179.193L225.166 179.175H225.407L227.243 179.157L240.584 179.048L241.293 179.037L241.949 179.03H242.289L246.438 178.998L247.26 178.988L248.362 178.98L251.817 178.949L257.299 178.903L258.008 178.896L259.241 178.888H259.472L285.946 178.662L305.846 188.742Z" fill="#65617D"/>
<path opacity="0.2" d="M305.846 188.742V193.34L252.012 193.835L251.438 193.846L230.978 194.033L230.489 194.04L224.27 194.093H224.085L186.176 194.443L123.947 195.02H123.894L108.072 195.168L107.902 195.172L37.5974 195.816V190.51L54.1282 180.607L87.2961 180.331L88.0048 180.328L88.2387 180.324L88.9474 180.314L104.872 180.183L105.585 180.179L105.811 180.176L106.52 180.172L111.626 180.13L111.761 180.126L124.358 180.02H124.461L222.76 179.193L225.166 179.175H225.407L227.243 179.157L240.584 179.048L241.293 179.037L241.949 179.03H242.289L246.438 178.998L247.26 178.988L248.362 178.98L251.817 178.949L257.299 178.903L258.008 178.896L259.241 178.888H259.472L285.946 178.662L305.846 188.742Z" fill="black"/>
<path d="M104.926 171.062V179.724C104.926 180.134 104.809 180.536 104.59 180.883C104.37 181.23 104.057 181.508 103.685 181.684C103.409 181.817 103.107 181.89 102.799 181.896L90.4323 182.158C90.102 182.165 89.7744 182.096 89.4755 181.956C89.0977 181.783 88.7776 181.505 88.5533 181.156C88.329 180.807 88.21 180.401 88.2105 179.986V171.062H104.926Z" fill="#3F3D56"/>
<path opacity="0.1" d="M104.926 171.062V179.724C104.926 180.134 104.809 180.536 104.59 180.883C104.37 181.23 104.057 181.508 103.685 181.684C103.409 181.817 103.107 181.89 102.799 181.896L90.4323 182.158C90.102 182.165 89.7744 182.096 89.4755 181.956C89.0977 181.783 88.7776 181.505 88.5533 181.156C88.329 180.807 88.21 180.401 88.2105 179.986V171.062H104.926Z" fill="black"/>
<path d="M105.634 171.062V179.724C105.634 180.134 105.518 180.536 105.298 180.883C105.079 181.23 104.765 181.508 104.394 181.684C104.118 181.817 103.815 181.89 103.508 181.896L91.141 182.158C90.8107 182.165 90.4831 182.096 90.1843 181.956C89.8064 181.783 89.4863 181.505 89.262 181.156C89.0378 180.807 88.9187 180.401 88.9192 179.986V171.062H105.634Z" fill="#3F3D56"/>
<path d="M258.008 171.062H241.293V182.204H258.008V171.062Z" fill="#3F3D56"/>
<path opacity="0.1" d="M258.008 171.062H241.293V182.204H258.008V171.062Z" fill="black"/>
<path d="M257.299 171.062H240.584V182.204H257.299V171.062Z" fill="#3F3D56"/>
<path opacity="0.1" d="M81.715 94.0156V96.0422L74.9822 95.8689V94.0156H81.715Z" fill="black"/>
<path d="M126.031 36.9249L117.941 94.9288C117.89 95.2993 117.703 95.6379 117.418 95.88C117.132 96.122 116.767 96.2505 116.392 96.2409L51.6157 94.5645L50.3861 94.5326C50.172 94.5276 49.9614 94.4775 49.768 94.3858C49.5745 94.294 49.4027 94.1625 49.2636 94C49.1245 93.8375 49.0213 93.6475 48.9607 93.4425C48.9001 93.2375 48.8835 93.0221 48.9119 92.8102L57.9941 32.0901C58.0527 31.714 58.2504 31.3734 58.5483 31.1357C58.8461 30.898 59.2224 30.7805 59.6029 30.8062L124.613 35.1989C124.823 35.2111 125.028 35.2665 125.215 35.3616C125.403 35.4568 125.568 35.5897 125.701 35.7518C125.834 35.914 125.932 36.102 125.989 36.3039C126.046 36.5058 126.06 36.7173 126.031 36.9249Z" fill="#65617D"/>
<path d="M62.3422 35.0703L55.4924 88.593L115.025 90.4782L122.346 38.8406L62.3422 35.0703Z" fill="#CB202D"/>
<path d="M206.924 34.2441H138.175C137.132 34.2441 136.286 35.0881 136.286 36.1293V93.6627C136.286 94.7039 137.132 95.5478 138.175 95.5478H206.924C207.967 95.5478 208.813 94.7039 208.813 93.6627V36.1293C208.813 35.0881 207.967 34.2441 206.924 34.2441Z" fill="#65617D"/>
<path d="M205.62 38.3711H139.709V89.418H205.62V38.3711Z" fill="#CB202D"/>
<path opacity="0.1" d="M262.909 92.9551V94.2955L256.176 94.4335V92.9551H262.909Z" fill="black"/>
<path d="M293.288 91.8218C293.297 91.9684 293.277 92.1153 293.229 92.2539C293.18 92.3924 293.103 92.5197 293.004 92.6281C292.905 92.7364 292.785 92.8236 292.651 92.8844C292.517 92.9452 292.372 92.9784 292.225 92.9819L225.889 94.3506C225.613 94.3563 225.346 94.2578 225.14 94.0747C224.934 93.8917 224.806 93.6377 224.78 93.3639L219.078 34.1999C219.064 34.0531 219.08 33.905 219.125 33.7646C219.17 33.6241 219.243 33.4942 219.34 33.3828C219.437 33.2714 219.555 33.1807 219.688 33.1162C219.821 33.0518 219.965 33.015 220.113 33.008L285.946 29.74L286.654 29.7046C286.936 29.6898 287.212 29.7848 287.425 29.9696C287.638 30.1543 287.771 30.4144 287.795 30.6949L293.288 91.8218Z" fill="#65617D"/>
<path d="M222.866 36.4849L282.99 33.5352L288.068 87.2948L228.419 88.7096L222.866 36.4849Z" fill="#CB202D"/>
<path opacity="0.1" d="M293.288 91.8218C293.297 91.9683 293.277 92.1153 293.229 92.2539C293.18 92.3924 293.103 92.5197 293.004 92.6281C292.905 92.7364 292.785 92.8236 292.651 92.8844C292.517 92.9452 292.372 92.9784 292.225 92.9819L285.946 29.74L286.654 29.7046C286.936 29.6898 287.212 29.7848 287.425 29.9696C287.638 30.1543 287.771 30.4144 287.795 30.6949L293.288 91.8218Z" fill="black"/>
<path opacity="0.1" d="M59.6136 30.803L51.6157 94.5648L50.3861 94.533C50.172 94.5279 49.9614 94.4779 49.768 94.3861C49.5745 94.2943 49.4027 94.1629 49.2636 94.0004C49.1245 93.8379 49.0213 93.6479 48.9607 93.4429C48.9001 93.2379 48.8835 93.0224 48.9119 92.8106L57.9941 32.0904C58.052 31.7117 58.2509 31.3687 58.5511 31.1301C58.8514 30.8914 59.2308 30.7746 59.6136 30.803Z" fill="black"/>
<path opacity="0.1" d="M81.715 108.371H74.9822V114.412H81.715V108.371Z" fill="black"/>
<path opacity="0.1" d="M105.634 171.059V172.816L88.9192 173.262V171.059H105.634Z" fill="black"/>
<path d="M135.134 110.475V169.965C135.13 170.328 134.986 170.675 134.732 170.935C134.478 171.195 134.134 171.348 133.77 171.362L65.8574 173.165H65.8397C65.4699 173.161 65.1165 173.012 64.855 172.751C64.5935 172.49 64.4445 172.137 64.4399 171.768V110.475C64.4445 110.106 64.5935 109.753 64.855 109.492C65.1165 109.231 65.4699 109.083 65.8397 109.078H133.735C134.104 109.083 134.458 109.231 134.719 109.492C134.981 109.753 135.13 110.106 135.134 110.475Z" fill="#65617D"/>
<path opacity="0.1" d="M65.8574 109.078V173.165H65.8397C65.4699 173.161 65.1165 173.012 64.855 172.751C64.5935 172.49 64.4445 172.137 64.4399 171.768V110.475C64.4445 110.106 64.5935 109.753 64.855 109.492C65.1165 109.231 65.4699 109.083 65.8397 109.078H65.8574Z" fill="black"/>
<path d="M68.958 112.877H131.857V165.31L68.958 166.725V112.877Z" fill="#D4DFEC"/>
<path opacity="0.1" d="M262.909 108.371H256.176V114.532H262.909V108.371Z" fill="black"/>
<path opacity="0.1" d="M257.299 171.059V173.326L240.584 172.88V171.059H257.299Z" fill="black"/>
<path d="M279.358 110.475V171.768C279.353 172.14 279.202 172.496 278.937 172.757C278.671 173.019 278.313 173.165 277.941 173.165L210.014 171.362C209.65 171.348 209.306 171.195 209.052 170.935C208.798 170.675 208.654 170.328 208.649 169.965V110.475C208.654 110.106 208.803 109.753 209.064 109.492C209.326 109.231 209.679 109.083 210.049 109.078H277.944C278.316 109.079 278.673 109.226 278.938 109.487C279.202 109.749 279.353 110.104 279.358 110.475Z" fill="#65617D"/>
<path opacity="0.1" d="M279.358 110.475V171.768C279.353 172.14 279.202 172.496 278.937 172.757C278.671 173.019 278.314 173.165 277.941 173.165V109.078C278.314 109.078 278.671 109.225 278.937 109.486C279.202 109.748 279.353 110.103 279.358 110.475Z" fill="black"/>
<path d="M274.84 112.877H211.941V165.31L274.84 166.725V112.877Z" fill="#D4DFEC"/>
<path d="M206.892 110.475V169.965C206.888 170.328 206.744 170.675 206.49 170.935C206.236 171.195 205.891 171.348 205.528 171.362L137.615 173.165C137.242 173.165 136.884 173.019 136.619 172.757C136.354 172.496 136.202 172.14 136.198 171.768V110.475C136.202 110.106 136.351 109.753 136.613 109.492C136.874 109.231 137.227 109.083 137.597 109.078H205.492C205.862 109.083 206.215 109.231 206.477 109.492C206.738 109.753 206.887 110.106 206.892 110.475Z" fill="#65617D"/>
<path d="M140.716 112.877H203.614V165.31L140.716 166.725V112.877Z" fill="#D4DFEC"/>
<path opacity="0.1" d="M305.846 188.742V193.34L252.012 193.835L251.438 193.846L230.978 194.033L230.489 194.04L224.27 194.093H224.085L186.176 194.444L123.947 195.02H123.894L108.072 195.169L107.902 195.172L37.5974 195.816V190.511L109.358 190.04H109.529L124.054 189.941H124.121L224.433 189.28H224.535L224.596 189.276H224.762L226.46 189.266H226.977L253.373 189.089L254.932 189.082L255.28 189.078L305.846 188.742Z" fill="black"/>
<path d="M172.665 114.413C182.71 114.413 190.854 106.284 190.854 96.258C190.854 86.2316 182.71 78.1035 172.665 78.1035C162.619 78.1035 154.475 86.2316 154.475 96.258C154.475 106.284 162.619 114.413 172.665 114.413Z" fill="#FBBEBE"/>
<path d="M190.857 133.393C190.857 133.393 155.598 137.638 158.965 133.393C160.184 131.858 160.521 127.31 160.453 122.129C160.432 120.555 160.375 118.924 160.294 117.301C159.904 109.52 158.965 101.916 158.965 101.916C158.965 101.916 189.794 87.4148 186.25 98.9095C184.833 103.553 185.297 110.075 186.374 116.197C186.69 117.984 187.055 119.734 187.438 121.397C188.372 125.451 189.513 129.455 190.857 133.393Z" fill="#FBBEBE"/>
<path opacity="0.1" d="M190.857 133.394C190.857 133.394 155.598 137.638 158.965 133.394C160.184 131.859 160.521 127.31 160.453 122.129C165.829 119.837 172.668 121.545 172.668 121.545C179.868 120.113 184.486 120.392 187.438 121.397C188.372 125.451 189.513 129.456 190.857 133.394Z" fill="black"/>
<path d="M123.933 195.419V195.122L186.165 194.446L224.082 194.093H224.188L224.149 194.616L224.202 194.093H224.269V194.033L224.755 189.276L224.939 187.475L224.996 186.913L225.045 186.443L227.235 179.153L229.425 171.874L231.268 165.745L234.082 156.38C234.082 156.38 232.487 152.666 231.601 151.605C230.715 150.544 229.829 143.293 229.829 143.293C229.829 143.293 222.267 136.103 218.961 135.275C217.576 134.922 214.84 134.451 211.934 133.861C210.846 133.641 209.73 133.408 208.656 133.153C208.05 133.015 207.455 132.87 206.885 132.725C205.774 132.449 204.68 132.111 203.607 131.714C203.044 131.51 202.509 131.238 202.012 130.904C199.408 128.998 192.88 128.782 192.629 128.782C192.628 128.774 192.628 128.765 192.629 128.757V128.725C192.638 128.577 192.638 128.428 192.629 128.28C192.629 128.138 192.629 127.972 192.597 127.784C192.597 127.728 192.597 127.668 192.572 127.608C192.554 127.48 192.533 127.346 192.501 127.204C192.49 127.141 192.476 127.079 192.459 127.017C192.356 126.591 192.208 126.177 192.016 125.783C191.991 125.726 191.959 125.666 191.931 125.609C191.757 125.283 191.555 124.971 191.328 124.679C191.282 124.619 191.233 124.555 191.179 124.495C190.889 124.154 190.566 123.841 190.216 123.562C190.12 123.487 190.021 123.409 189.918 123.339C189.861 123.292 189.8 123.25 189.737 123.211L189.422 123.006L189.128 122.836C188.869 122.695 188.596 122.557 188.299 122.426C188.206 122.384 188.107 122.345 188.008 122.306C187.909 122.267 187.753 122.207 187.622 122.157H187.6L187.335 122.051C187.133 121.984 186.927 121.924 186.711 121.864L186.381 121.779L186.027 121.698L185.673 121.623C185.318 121.553 184.939 121.489 184.542 121.439L184.138 121.39L183.724 121.347L183.295 121.312L182.686 121.277L181.977 121.252C178.851 121.252 175.734 121.582 172.678 122.239C170.556 121.767 168.381 121.568 166.208 121.645H165.9L165.545 121.666H165.318L164.861 121.708C164.709 121.708 164.553 121.74 164.401 121.761C164.248 121.782 164.089 121.8 163.936 121.825L163.703 121.864C163.472 121.903 163.238 121.945 162.994 121.995C162.916 122.009 162.838 122.027 162.76 122.048C162.452 122.115 162.143 122.196 161.839 122.288C161.686 122.331 161.534 122.38 161.382 122.433C161.304 122.454 161.229 122.483 161.155 122.511L160.928 122.592L160.705 122.681L160.439 122.787C160.304 122.844 160.173 122.904 160.042 122.967C159.968 122.999 159.893 123.035 159.822 123.073C159.751 123.112 159.677 123.144 159.61 123.183C158.809 123.596 158.068 124.118 157.409 124.732L157.228 124.905L157.051 125.086C156.991 125.146 156.934 125.21 156.878 125.273C156.647 125.525 156.431 125.791 156.233 126.069C156.176 126.143 156.123 126.218 156.07 126.295C155.845 126.626 155.641 126.971 155.46 127.328C155.414 127.413 155.372 127.502 155.329 127.586C155.04 128.184 154.803 128.805 154.62 129.443C154.554 129.679 154.494 129.915 154.44 130.151C154.44 130.151 146.938 133.454 140.715 135.845C139.061 136.482 137.501 137.058 136.197 137.493C135.818 137.62 135.464 137.737 135.134 137.847C134.419 138.105 133.676 138.276 132.92 138.356C132.563 138.362 132.208 138.395 131.856 138.455C128.997 138.918 124.096 140.931 123.561 142.95C123.517 143.112 123.505 143.28 123.525 143.446C123.525 143.446 123.525 143.47 123.525 143.484C123.88 145.96 121.399 145.606 121.399 145.606C121.399 145.606 120.513 152.15 119.273 153.918C118.377 155.191 117.764 158.031 117.686 160.175C117.641 160.842 117.694 161.513 117.842 162.166C117.842 162.184 117.842 162.201 117.842 162.215C117.983 162.689 117.643 163.984 117.066 165.643C116.438 167.464 115.524 169.728 114.645 171.864C113.32 175.089 112.073 178.018 111.995 178.662C111.963 178.948 111.871 179.461 111.743 180.122C111.226 182.817 110.078 187.949 109.511 190.025C109.089 191.575 108.476 193.697 108.054 195.154C108.054 195.196 108.029 195.239 108.019 195.278L123.905 195.122V195.419H123.954H123.933Z" fill="#CB202D"/>
<path opacity="0.1" d="M129.73 153.73C129.73 153.73 149.929 164.164 157.193 162.926L129.73 153.73Z" fill="black"/>
<path opacity="0.1" d="M170.836 149.486C170.836 149.486 190.503 155.853 197.058 156.737C203.614 157.621 170.836 149.486 170.836 149.486Z" fill="black"/>
<path opacity="0.1" d="M192.65 129.001C182.374 130.89 163.026 130.483 154.663 130.196C157.728 119.232 172.675 122.96 172.675 122.96C191.176 119.275 192.594 126.921 192.65 129.001Z" fill="black"/>
<path d="M192.65 128.294C182.374 130.183 163.026 129.776 154.663 129.489C157.728 118.525 172.675 122.253 172.675 122.253C191.176 118.568 192.594 126.214 192.65 128.294Z" fill="#CB202D"/>
<path d="M247.2 176.633C247.2 176.633 259.305 174.776 259.542 180.082C259.78 185.387 253.369 189.093 253.369 189.093L247.2 176.633Z" fill="#FBBEBE"/>
<path opacity="0.1" d="M186.374 116.197C185.854 116.43 185.322 116.635 184.78 116.813C180.96 118.129 177.108 119.455 173.086 119.936C169.064 120.417 164.844 119.992 161.336 117.991C160.967 117.783 160.612 117.553 160.272 117.301C159.883 109.52 158.944 101.916 158.944 101.916C158.944 101.916 189.773 87.4148 186.229 98.9095C184.819 103.553 185.297 110.075 186.374 116.197Z" fill="black"/>
<path d="M167.675 67.8824C167.169 68.0157 166.639 68.0292 166.127 67.9217C165.615 67.8142 165.136 67.5888 164.727 67.2634L165.464 68.2856C165.029 68.3356 164.589 68.2903 164.174 68.1528C163.759 68.0154 163.379 67.7891 163.061 67.4898C162.994 68.4048 163.032 69.3244 163.175 70.2308C161.955 70.2895 160.754 69.9134 159.787 69.1698C159.768 69.4888 159.848 69.806 160.015 70.0786C160.182 70.3511 160.429 70.566 160.722 70.6941C159.497 70.5481 158.261 70.8519 157.244 71.5489C156.226 72.2459 155.498 73.2885 155.194 74.4821L157.044 74.6518C155.59 74.9617 154.286 75.7563 153.345 76.9048C152.778 77.6122 152.345 78.5176 152.593 79.3806C152.842 80.2436 154.039 80.7953 154.691 80.1799C153.764 81.2848 153.09 82.5788 152.716 83.9712C152.343 85.3636 152.279 86.8207 152.53 88.2403C152.698 88.8452 152.753 89.4758 152.693 90.1007C152.576 90.6843 152.207 91.19 152.023 91.7594C151.669 92.7922 152.005 93.9134 152.321 94.9426L153.983 100.396C154.585 102.366 155.184 104.34 155.97 106.246C156.528 107.452 157.001 108.694 157.388 109.963C157.834 111.675 157.852 113.55 158.805 115.046C159.459 115.987 160.332 116.756 161.35 117.285C164.854 119.287 169.089 119.711 173.1 119.23C177.111 118.749 180.96 117.423 184.776 116.107C185.624 115.852 186.438 115.496 187.2 115.046C189.84 113.32 190.428 109.79 190.921 106.681C191.47 103.215 192.204 99.7562 193.504 96.4952C194.277 94.5535 195.276 92.5835 195.106 90.5039C194.89 87.7416 192.7 85.5028 192.158 82.7865C191.976 81.8786 191.984 80.943 192.182 80.0384C192.35 79.4995 192.445 78.9403 192.462 78.3761C192.402 77.2373 191.467 76.3601 190.588 75.628C188.681 74.0388 186.713 72.5368 184.684 71.1221C184.581 70.4147 185.545 70.1106 185.981 69.5517C186.598 68.763 185.96 67.511 185.024 67.1432C184.089 66.7753 183.04 67.0158 182.065 67.2599C182.129 66.762 182.03 66.257 181.783 65.82C181.535 65.3829 181.154 65.0372 180.694 64.8341C180.234 64.6311 179.721 64.5816 179.23 64.693C178.74 64.8044 178.299 65.0708 177.973 65.4526C177.714 64.8603 177.3 64.3482 176.775 63.97C176.251 63.5917 175.634 63.3611 174.989 63.3022C172.639 63.1183 172.593 64.9114 171.091 65.8982C169.588 66.885 168.348 65.5834 167.193 64.6356C166.981 65.1714 166.914 65.7535 166.998 66.3234C167.083 66.8933 167.316 67.431 167.675 67.8824Z" fill="#3F3D56"/>
<path d="M256.176 187.242C256.176 187.242 255.861 187.992 255.279 189.078C254.4 190.748 253.33 192.311 252.09 193.736L251.994 193.838H251.42L230.96 194.026H230.471L230.411 193.955L226.442 189.255L224.946 187.483L224.886 187.408L224.759 187.26L224.688 187.175L224.596 187.065L221.686 183.621L222.749 179.199L224.56 171.751L224.606 171.571L224.961 170.156L225.212 169.095L226.056 165.636L228.947 153.734L234.085 156.387L239.503 165.936L242.413 171.065H244.007C244.308 171.065 244.999 171.645 245.694 172.313C245.942 172.55 246.19 172.801 246.403 173.021C247.033 173.671 247.533 174.23 247.533 174.23C247.533 174.23 250.116 174.287 250.811 176.317C250.847 176.415 250.876 176.516 250.9 176.618C251.13 177.416 251.43 178.192 251.796 178.938C252.253 179.932 252.827 181.06 253.408 182.188C254.489 184.257 255.588 186.227 255.992 186.942L256.041 187.03L256.176 187.242Z" fill="#CB202D"/>
<path opacity="0.1" d="M225.737 171.274L225.701 171.78V171.816L225.641 172.629L225.17 179.176L224.599 187.063L224.436 189.284L224.082 194.037V194.098L186.166 194.451L123.944 195.123V195.42H123.894V195.123V195.024L124.054 189.945L124.358 180.021L124.621 171.607L124.646 170.769C124.661 170.263 124.78 169.765 124.994 169.307C125.209 168.848 125.515 168.438 125.894 168.101C126.272 167.765 126.716 167.509 127.197 167.349C127.678 167.189 128.187 167.129 128.692 167.172C130.365 167.313 132.537 167.486 135.135 167.67L136.198 167.748C151.198 168.788 178.919 170.132 206.892 168.456C207.48 168.424 208.072 168.388 208.664 168.346C213.001 168.074 217.335 167.723 221.626 167.285C222.169 167.228 222.717 167.291 223.233 167.468C223.748 167.646 224.219 167.934 224.61 168.313C225.002 168.692 225.306 169.152 225.501 169.66C225.695 170.169 225.776 170.714 225.737 171.257V171.274Z" fill="black"/>
<path d="M123.933 195.42V195.123L186.165 194.448L224.082 194.094H224.188V194.034L224.542 189.281L224.695 187.158L225.276 179.162L225.733 172.831V172.675C225.754 172.383 225.741 172.09 225.694 171.802C225.696 171.79 225.696 171.778 225.694 171.766C225.597 171.169 225.353 170.606 224.985 170.125C224.595 169.626 224.084 169.234 223.5 168.986C222.916 168.739 222.278 168.644 221.647 168.71C217.356 169.149 213.022 169.499 208.685 169.771C208.093 169.814 207.501 169.849 206.913 169.881C178.94 171.54 151.219 170.196 136.219 169.174L135.156 169.096C132.558 168.912 130.386 168.742 128.713 168.597C127.793 168.52 126.877 168.785 126.141 169.342C125.406 169.899 124.903 170.709 124.73 171.614C124.695 171.806 124.673 171.999 124.667 172.194L124.426 180.032L124.096 189.96L123.94 195.038V195.137V195.435L123.933 195.42Z" fill="#3F3D56"/>
<path opacity="0.1" d="M225.843 173.754L225.407 179.176L224.759 187.257L224.596 189.28L224.241 193.811L224.22 194.037V194.098L224.167 194.621L224.206 194.098H224.103L186.187 194.451L123.944 195.123V195.024L124.117 189.945L124.472 180.021L124.699 173.425C124.71 173.05 124.815 172.683 125.004 172.359C125.194 172.034 125.461 171.763 125.783 171.568C126.184 171.323 126.653 171.211 127.122 171.25C127.867 171.31 128.781 171.381 129.847 171.458C131.58 171.586 133.717 171.734 136.205 171.89C140.811 172.18 146.591 172.491 153.214 172.746C171.64 173.453 196.516 173.69 220.145 171.625C221.208 171.533 222.307 171.43 223.38 171.328C223.805 171.285 224.233 171.366 224.613 171.561C224.721 171.614 224.823 171.678 224.918 171.752C225.227 171.975 225.471 172.275 225.627 172.622C225.663 172.691 225.693 172.763 225.715 172.838C225.822 173.131 225.865 173.443 225.843 173.754Z" fill="black"/>
<path opacity="0.1" d="M105.634 178.594V179.722C105.634 180.132 105.518 180.534 105.298 180.881C105.079 181.228 104.765 181.505 104.394 181.681L90.1843 181.954C89.8064 181.781 89.4863 181.503 89.262 181.154C89.0378 180.805 88.9187 180.399 88.9192 179.984V178.923L105.634 178.594Z" fill="black"/>
<path d="M105.811 182.348L87.2961 182.701V179.635L105.811 179.281V182.348Z" fill="#3F3D56"/>
<path opacity="0.1" d="M105.811 182.348L87.2961 182.701V179.635L105.811 179.281V182.348Z" fill="black"/>
<path d="M106.52 182.348L88.0046 182.701V179.635L106.52 179.281V182.348Z" fill="#3F3D56"/>
<g opacity="0.1">
<path opacity="0.1" d="M167.821 66.7225C167.474 66.2735 167.244 65.7463 167.151 65.1875C167.065 65.7338 167.117 66.2926 167.3 66.8144C167.476 66.7982 167.65 66.7675 167.821 66.7225Z" fill="black"/>
<path opacity="0.1" d="M163.32 69.0723C163.253 68.6387 163.209 68.2019 163.189 67.7637C163.189 68.1987 163.189 68.6373 163.189 69.0758L163.32 69.0723Z" fill="black"/>
<path opacity="0.1" d="M192.2 80.8733C192.22 80.5582 192.263 80.2449 192.328 79.936C192.496 79.3981 192.591 78.8403 192.611 78.2772C192.604 78.1509 192.585 78.0254 192.555 77.9023C192.495 78.2277 192.399 78.5531 192.328 78.875C192.186 79.5311 192.143 80.2045 192.2 80.8733Z" fill="black"/>
<path opacity="0.1" d="M184.83 69.9436L185.216 70.223C185.542 69.9879 185.846 69.7252 186.127 69.4378C186.26 69.2537 186.343 69.0379 186.366 68.812C186.39 68.5861 186.354 68.358 186.261 68.1504C186.226 68.2311 186.181 68.3072 186.127 68.3767C185.691 68.9356 184.727 69.2433 184.83 69.9436Z" fill="black"/>
<path opacity="0.1" d="M155.712 73.3477C155.583 73.6056 155.48 73.8757 155.404 74.1541C155.958 73.8452 156.555 73.62 157.176 73.4856L155.712 73.3477Z" fill="black"/>
<path opacity="0.1" d="M160.599 69.4975C160.366 69.3695 160.143 69.2241 159.932 69.0625C159.924 69.2024 159.934 69.3429 159.964 69.4798C160.176 69.4698 160.388 69.4757 160.599 69.4975Z" fill="black"/>
<path opacity="0.1" d="M195.244 90.3379C195.099 92.0532 194.298 93.705 193.65 95.3319C192.349 98.5928 191.616 102.052 191.066 105.521C190.574 108.63 190.003 112.16 187.346 113.883C186.586 114.335 185.773 114.692 184.925 114.944C181.105 116.263 177.254 117.586 173.232 118.067C169.21 118.548 164.989 118.127 161.481 116.125C160.464 115.595 159.591 114.827 158.937 113.886C157.991 112.39 157.973 110.515 157.519 108.804C157.133 107.533 156.659 106.289 156.102 105.083C155.319 103.18 154.716 101.192 154.117 99.2365C153.562 97.4186 153.008 95.5995 152.456 93.7792C152.273 93.2316 152.138 92.6696 152.052 92.0992C151.913 93.0047 152.183 93.9525 152.456 94.8403C153.008 96.6629 153.562 98.482 154.117 100.298C154.716 102.268 155.319 104.241 156.102 106.144C156.659 107.35 157.133 108.594 157.519 109.865C157.966 111.577 157.984 113.451 158.937 114.947C159.591 115.888 160.464 116.656 161.481 117.186C164.989 119.188 169.22 119.609 173.232 119.128C177.243 118.647 181.091 117.324 184.925 116.005C185.773 115.753 186.586 115.396 187.346 114.944C189.986 113.221 190.574 109.691 191.066 106.583C191.616 103.113 192.349 99.6539 193.65 96.3929C194.422 94.4548 195.421 92.4847 195.251 90.4016C195.251 90.3803 195.244 90.3591 195.244 90.3379Z" fill="black"/>
<path opacity="0.1" d="M152.831 88.9684C152.831 88.9684 152.831 88.9436 152.831 88.9295C152.895 88.3058 152.84 87.6757 152.668 87.0727C152.597 86.6845 152.551 86.2924 152.53 85.8984C152.489 86.6464 152.536 87.3965 152.668 88.1337C152.725 88.4096 152.789 88.689 152.831 88.9684Z" fill="black"/>
<path opacity="0.1" d="M153.912 80.3188C154.184 79.8618 154.494 79.4277 154.837 79.0208C154.188 79.6397 152.991 79.088 152.739 78.2285C152.646 78.5761 152.646 78.9419 152.739 79.2896C152.826 79.5491 152.981 79.781 153.187 79.9617C153.393 80.1425 153.643 80.2657 153.912 80.3188Z" fill="black"/>
</g>
<path opacity="0.1" d="M242.416 171.062C242.416 171.062 243.54 175.13 242.416 178.667C241.293 182.203 242.416 171.062 242.416 171.062Z" fill="black"/>
<path opacity="0.1" d="M247.2 175.211C247.2 175.211 247.672 180.375 246.608 181.291C245.545 182.207 247.2 175.211 247.2 175.211Z" fill="black"/>
<path d="M70.5137 121.264L106.52 120.91" stroke="#CB202D" stroke-width="2" stroke-miterlimit="10"/>
<path d="M70.5137 125.674L106.52 125.324" stroke="#CB202D" stroke-width="2" stroke-miterlimit="10"/>
<path d="M70.5137 130.088L106.52 129.734" stroke="#CB202D" stroke-width="2" stroke-miterlimit="10"/>
</g>
<defs>
<clipPath id="clip0">
<rect width="369" height="196" fill="white"/>
</clipPath>
</defs>
</svg>