<svg width="59" height="15" viewBox="0 0 59 15" fill="none" xmlns="http://www.w3.org/2000/svg">
<path d="M20.368 3.6H23.788C24.676 3.6 25.46 3.78 26.14 4.14C26.82 4.492 27.348 4.988 27.724 5.628C28.1 6.26 28.288 6.984 28.288 7.8C28.288 8.616 28.1 9.344 27.724 9.984C27.348 10.616 26.82 11.112 26.14 11.472C25.46 11.824 24.676 12 23.788 12H20.368V3.6ZM23.74 11.232C24.476 11.232 25.12 11.088 25.672 10.8C26.224 10.504 26.652 10.1 26.956 9.588C27.26 9.068 27.412 8.472 27.412 7.8C27.412 7.128 27.26 6.536 26.956 6.024C26.652 5.504 26.224 5.1 25.672 4.812C25.12 4.516 24.476 4.368 23.74 4.368H21.256V11.232H23.74ZM35.5981 9.108H30.3181C30.3661 9.764 30.6181 10.296 31.0741 10.704C31.5301 11.104 32.1061 11.304 32.8021 11.304C33.1941 11.304 33.5541 11.236 33.8821 11.1C34.2101 10.956 34.4941 10.748 34.7341 10.476L35.2141 11.028C34.9341 11.364 34.5821 11.62 34.1581 11.796C33.7421 11.972 33.2821 12.06 32.7781 12.06C32.1301 12.06 31.5541 11.924 31.0501 11.652C30.5541 11.372 30.1661 10.988 29.8861 10.5C29.6061 10.012 29.4661 9.46 29.4661 8.844C29.4661 8.228 29.5981 7.676 29.8621 7.188C30.1341 6.7 30.5021 6.32 30.9661 6.048C31.4381 5.776 31.9661 5.64 32.5501 5.64C33.1341 5.64 33.6581 5.776 34.1221 6.048C34.5861 6.32 34.9501 6.7 35.2141 7.188C35.4781 7.668 35.6101 8.22 35.6101 8.844L35.5981 9.108ZM32.5501 6.372C31.9421 6.372 31.4301 6.568 31.0141 6.96C30.6061 7.344 30.3741 7.848 30.3181 8.472H34.7941C34.7381 7.848 34.5021 7.344 34.0861 6.96C33.6781 6.568 33.1661 6.372 32.5501 6.372ZM37.3443 3.096H38.1963V12H37.3443V3.096ZM46.0629 9.108H40.7829C40.8309 9.764 41.0829 10.296 41.5389 10.704C41.9949 11.104 42.5709 11.304 43.2669 11.304C43.6589 11.304 44.0189 11.236 44.3469 11.1C44.6749 10.956 44.9589 10.748 45.1989 10.476L45.6789 11.028C45.3989 11.364 45.0469 11.62 44.6229 11.796C44.2069 11.972 43.7469 12.06 43.2429 12.06C42.5949 12.06 42.0189 11.924 41.5149 11.652C41.0189 11.372 40.6309 10.988 40.3509 10.5C40.0709 10.012 39.9309 9.46 39.9309 8.844C39.9309 8.228 40.0629 7.676 40.3269 7.188C40.5989 6.7 40.9669 6.32 41.4309 6.048C41.9029 5.776 42.4309 5.64 43.0149 5.64C43.5989 5.64 44.1229 5.776 44.5869 6.048C45.0509 6.32 45.4149 6.7 45.6789 7.188C45.9429 7.668 46.0749 8.22 46.0749 8.844L46.0629 9.108ZM43.0149 6.372C42.4069 6.372 41.8949 6.568 41.4789 6.96C41.0709 7.344 40.8389 7.848 40.7829 8.472H45.2589C45.2029 7.848 44.9669 7.344 44.5509 6.96C44.1429 6.568 43.6309 6.372 43.0149 6.372ZM51.1331 11.616C50.9731 11.76 50.7731 11.872 50.5331 11.952C50.3011 12.024 50.0571 12.06 49.8011 12.06C49.2091 12.06 48.7531 11.9 48.4331 11.58C48.1131 11.26 47.9531 10.808 47.9531 10.224V6.408H46.8251V5.688H47.9531V4.308H48.8051V5.688H50.7251V6.408H48.8051V10.176C48.8051 10.552 48.8971 10.84 49.0811 11.04C49.2731 11.232 49.5451 11.328 49.8971 11.328C50.0731 11.328 50.2411 11.3 50.4011 11.244C50.5691 11.188 50.7131 11.108 50.8331 11.004L51.1331 11.616ZM57.9574 9.108H52.6774C52.7254 9.764 52.9774 10.296 53.4334 10.704C53.8894 11.104 54.4654 11.304 55.1614 11.304C55.5534 11.304 55.9134 11.236 56.2414 11.1C56.5694 10.956 56.8534 10.748 57.0934 10.476L57.5734 11.028C57.2934 11.364 56.9414 11.62 56.5174 11.796C56.1014 11.972 55.6414 12.06 55.1374 12.06C54.4894 12.06 53.9134 11.924 53.4094 11.652C52.9134 11.372 52.5254 10.988 52.2454 10.5C51.9654 10.012 51.8254 9.46 51.8254 8.844C51.8254 8.228 51.9574 7.676 52.2214 7.188C52.4934 6.7 52.8614 6.32 53.3254 6.048C53.7974 5.776 54.3254 5.64 54.9094 5.64C55.4934 5.64 56.0174 5.776 56.4814 6.048C56.9454 6.32 57.3094 6.7 57.5734 7.188C57.8374 7.668 57.9694 8.22 57.9694 8.844L57.9574 9.108ZM54.9094 6.372C54.3014 6.372 53.7894 6.568 53.3734 6.96C52.9654 7.344 52.7334 7.848 52.6774 8.472H57.1534C57.0974 7.848 56.8614 7.344 56.4454 6.96C56.0374 6.568 55.5254 6.372 54.9094 6.372Z" fill="#D90000"/>
<path d="M12.4583 3.34H10.2917V2.04C10.2917 1.46637 9.80586 1 9.20833 1H3.79167C3.19414 1 2.70833 1.46637 2.70833 2.04V3.34H0.541667C0.242057 3.34 0 3.57237 0 3.86V4.38C0 4.4515 0.0609375 4.51 0.135417 4.51H1.15781L1.57591 13.0087C1.60299 13.5629 2.08034 14 2.65755 14H10.3424C10.9214 14 11.397 13.5645 11.4241 13.0087L11.8422 4.51H12.8646C12.9391 4.51 13 4.4515 13 4.38V3.86C13 3.57237 12.7579 3.34 12.4583 3.34ZM9.07292 3.34H3.92708V2.17H9.07292V3.34Z" fill="#D90000"/>
</svg>
