<svg width="83" height="83" viewBox="0 0 83 83" fill="none" xmlns="http://www.w3.org/2000/svg">
<rect x="0.5" y="0.5" width="81.5" height="81.5" rx="9.5" stroke="#CB202D"/>
<path d="M14.47 53.2H15.87V63H14.47V53.2ZM18.804 53.2H20.204V63H18.804V53.2ZM29.382 60.55H24.174L23.096 63H21.654L26.092 53.2H27.478L31.93 63H30.46L29.382 60.55ZM28.892 59.43L26.778 54.628L24.664 59.43H28.892ZM46.2376 63L46.2236 55.86L42.6816 61.81H42.0376L38.4956 55.902V63H37.1516V53.2H38.2996L42.3876 60.088L46.4196 53.2H47.5676L47.5816 63H46.2376ZM53.0287 55.51C54.0554 55.51 54.8394 55.762 55.3807 56.266C55.9314 56.77 56.2067 57.5213 56.2067 58.52V63H54.9327V62.02C54.7087 62.3653 54.3867 62.6313 53.9667 62.818C53.5561 62.9953 53.0661 63.084 52.4967 63.084C51.6661 63.084 50.9987 62.8833 50.4947 62.482C50.0001 62.0807 49.7527 61.5533 49.7527 60.9C49.7527 60.2467 49.9907 59.724 50.4667 59.332C50.9427 58.9307 51.6987 58.73 52.7347 58.73H54.8627V58.464C54.8627 57.8853 54.6947 57.442 54.3587 57.134C54.0227 56.826 53.5281 56.672 52.8747 56.672C52.4361 56.672 52.0067 56.7467 51.5867 56.896C51.1667 57.036 50.8121 57.2273 50.5227 57.47L49.9627 56.462C50.3454 56.154 50.8027 55.9207 51.3347 55.762C51.8667 55.594 52.4314 55.51 53.0287 55.51ZM52.7207 62.048C53.2341 62.048 53.6774 61.936 54.0507 61.712C54.4241 61.4787 54.6947 61.152 54.8627 60.732V59.696H52.7907C51.6521 59.696 51.0827 60.0787 51.0827 60.844C51.0827 61.2173 51.2274 61.5113 51.5167 61.726C51.8061 61.9407 52.2074 62.048 52.7207 62.048ZM59.9819 56.826C60.2153 56.3967 60.5606 56.07 61.0179 55.846C61.4753 55.622 62.0306 55.51 62.6839 55.51V56.812C62.6093 56.8027 62.5066 56.798 62.3759 56.798C61.6479 56.798 61.0739 57.0173 60.6539 57.456C60.2433 57.8853 60.0379 58.5013 60.0379 59.304V63H58.6939V55.58H59.9819V56.826ZM68.8132 62.566C68.6172 62.734 68.3745 62.8647 68.0852 62.958C67.7959 63.042 67.4972 63.084 67.1892 63.084C66.4425 63.084 65.8639 62.8833 65.4532 62.482C65.0425 62.0807 64.8372 61.5067 64.8372 60.76V56.686H63.5772V55.58H64.8372V53.956H66.1812V55.58H68.3092V56.686H66.1812V60.704C66.1812 61.1053 66.2792 61.4133 66.4752 61.628C66.6805 61.8427 66.9699 61.95 67.3432 61.95C67.7539 61.95 68.1039 61.8333 68.3932 61.6L68.8132 62.566Z" fill="#CB202D"/>
<path d="M53.95 21.6035V17.12C53.95 16.5005 53.4495 16 52.83 16H29.17C28.5505 16 28.05 16.5005 28.05 17.12V21.6035C27.4655 21.6385 27 22.125 27 22.72V27.3295C26.9978 28.1767 27.1693 29.0153 27.504 29.7935C27.6545 30.1505 27.84 30.4865 28.05 30.805V42.88C28.05 43.496 28.5505 44 29.17 44H52.83C53.4495 44 53.95 43.4995 53.95 42.88V30.805C54.1633 30.4857 54.3461 30.147 54.496 29.7935C54.8285 29.013 55 28.1835 55 27.3295V22.72C55 22.125 54.5345 21.6385 53.95 21.6035ZM30.57 18.52H51.43V21.6H30.57V18.52ZM43.24 41.4835H38.76V37.84H43.24V41.4835ZM51.43 41.4835H45.48V36.72C45.48 36.1005 44.9795 35.6 44.36 35.6H37.64C37.0205 35.6 36.52 36.1005 36.52 36.72V41.4835H30.57V33.0065C30.6715 33.0555 30.7765 33.1045 30.885 33.1465C31.6655 33.4755 32.495 33.64 33.349 33.64C34.203 33.64 35.029 33.4755 35.813 33.1465C36.296 32.9435 36.751 32.6845 37.1675 32.373C37.1745 32.3695 37.1815 32.3695 37.1885 32.373C37.6063 32.6858 38.0613 32.9456 38.543 33.1465C39.3235 33.4755 40.153 33.64 41.007 33.64C41.861 33.64 42.687 33.4755 43.471 33.1465C43.954 32.9435 44.409 32.6845 44.8255 32.373C44.8325 32.3695 44.8395 32.3695 44.8465 32.373C45.2643 32.6858 45.7193 32.9456 46.201 33.1465C46.9815 33.4755 47.811 33.64 48.665 33.64C49.519 33.64 50.345 33.4755 51.129 33.1465C51.234 33.101 51.339 33.0555 51.444 33.0065V41.4835H51.43ZM52.48 27.3295C52.48 29.4225 50.765 31.12 48.6545 31.12C47.2265 31.12 45.9805 30.3465 45.3225 29.1985C45.221 29.0235 45.039 28.915 44.836 28.915H44.815C44.6155 28.915 44.43 29.0235 44.3285 29.1985C43.9927 29.7841 43.5079 30.2704 42.9232 30.6079C42.3386 30.9454 41.6751 31.1221 41 31.12C39.5755 31.12 38.333 30.35 37.675 29.2055C37.57 29.027 37.381 28.915 37.1745 28.915C36.968 28.915 36.7755 29.027 36.674 29.2055C36.3363 29.7889 35.8508 30.273 35.2665 30.6091C34.6822 30.9451 34.0196 31.1214 33.3455 31.12C31.235 31.12 29.52 29.4225 29.52 27.3295V24.1375C29.52 24.127 29.527 24.12 29.5375 24.12H52.4625C52.473 24.12 52.48 24.127 52.48 24.1375V27.3295Z" fill="#CB202D"/>
</svg>
