<svg width="228" height="160" viewBox="0 0 228 160" fill="none" xmlns="http://www.w3.org/2000/svg">
<g clip-path="url(#clip0)">
<path d="M10.1556 61.401C10.3736 74.9139 15.4042 76.3769 21.5819 74.9675C28.6393 73.3574 34.4318 68.3111 37.2867 61.6342L39.2555 57.0296C40.5645 53.9684 40.6085 50.5105 39.378 47.4166C38.1475 44.3228 35.7433 41.8464 32.6941 40.5323H32.6941C31.1844 39.8816 29.5617 39.5358 27.9188 39.5147C26.276 39.4936 24.645 39.7976 23.1192 40.4093C21.5933 41.021 20.2024 41.9284 19.0259 43.0798C17.8493 44.2312 16.9102 45.6039 16.262 47.1197C9.92645 49.6184 8.67518 54.7913 10.1556 61.401Z" fill="#2F2E41"/>
<path d="M49.8791 34.205L51.7753 30.9837C52.0068 30.5903 52.1466 30.1494 52.1842 29.694C52.2218 29.2387 52.1562 28.7807 51.9923 28.3544C51.8284 27.9281 51.5705 27.5447 51.238 27.2328C50.9054 26.9208 50.5068 26.6886 50.072 26.5534C49.6131 26.4107 49.127 26.3802 48.654 26.4645C48.181 26.5487 47.7349 26.7452 47.3529 27.0376C46.9709 27.33 46.664 27.7098 46.4579 28.1454C46.2517 28.581 46.1522 29.0598 46.1678 29.5418L46.2792 33.0045L37.3682 57.5222L42.2275 58.5407L49.8791 34.205Z" fill="#9F616A"/>
<path d="M2.99883 94.6453L0.664916 97.5626C0.379914 97.9189 0.178962 98.3353 0.0771383 98.7806C-0.024685 99.226 -0.0247367 99.6887 0.0769866 100.134C0.17871 100.579 0.379568 100.996 0.664491 101.352C0.949413 101.708 1.311 101.995 1.72214 102.191C2.15608 102.398 2.63298 102.498 3.11309 102.482C3.59321 102.466 4.06263 102.336 4.48224 102.101C4.90184 101.866 5.25948 101.534 5.52534 101.132C5.79121 100.731 5.9576 100.271 6.01065 99.7918L6.39173 96.3485L18.691 73.3555L14.0257 71.6523L2.99883 94.6453Z" fill="#9F616A"/>
<path d="M17.4187 118.915L17.7622 123.058L17.8428 124.025L40.6855 121.819C41.4729 121.73 42.2282 121.456 42.8901 121.018C43.552 120.581 44.1018 119.993 44.4948 119.302C44.8877 118.611 45.1128 117.837 45.1518 117.043C45.1907 116.248 45.0424 115.456 44.7188 114.729L37.352 98.8515L34.8073 93.3673L23.7804 90.8125C14.6874 97.7998 22.8685 105.511 33.1618 113.312C33.5647 113.618 33.9718 113.925 34.3832 114.231L17.4187 118.915Z" fill="#2F2E41"/>
<path d="M9.72159 133.261C9.99991 133.301 10.2838 133.269 10.546 133.167C10.8082 133.065 11.0399 132.897 11.219 132.679L18.6909 123.599L18.2668 119.341L15.7191 117.806C15.5107 117.68 15.2775 117.602 15.0359 117.576C14.7942 117.55 14.5498 117.577 14.3197 117.656C14.0895 117.734 13.8792 117.862 13.7032 118.03C13.5272 118.198 13.3898 118.403 13.3006 118.63L8.42713 131.025C8.33611 131.257 8.29851 131.506 8.31715 131.754C8.33578 132.002 8.41018 132.243 8.53474 132.458C8.6593 132.673 8.8308 132.857 9.03636 132.996C9.24191 133.135 9.47619 133.226 9.72159 133.261Z" fill="#2F2E41"/>
<path opacity="0.2" d="M16.1462 118.063L16.5704 123.173L17.7621 123.058L39.413 120.967C40.2004 120.878 40.9557 120.604 41.6176 120.167C42.2795 119.729 42.8293 119.141 43.2223 118.451C43.6153 117.76 43.8404 116.986 43.8793 116.191C43.9183 115.397 43.7699 114.604 43.4463 113.878L37.3519 100.18V98.8515L34.8072 93.3673L23.7803 90.8125C14.6873 97.7998 22.8684 105.511 33.1616 113.312L33.1107 113.38L16.1462 118.063Z" fill="black"/>
<path d="M7.60122 131.558C7.87954 131.598 8.16341 131.565 8.42561 131.464C8.68781 131.362 8.91954 131.194 9.0986 130.976L16.5705 121.895L16.1464 117.638L13.5987 116.103C13.3903 115.977 13.1572 115.899 12.9155 115.873C12.6739 115.847 12.4295 115.874 12.1993 115.952C11.9692 116.031 11.7588 116.159 11.5828 116.327C11.4068 116.495 11.2694 116.7 11.1802 116.927L6.30677 129.322C6.21575 129.553 6.17815 129.803 6.19678 130.051C6.21542 130.299 6.28982 130.54 6.41438 130.755C6.53894 130.97 6.71043 131.154 6.91599 131.293C7.12154 131.432 7.35582 131.523 7.60122 131.558Z" fill="#2F2E41"/>
<path d="M15.2981 117.212L15.7222 122.321L38.5649 120.115C39.3522 120.026 40.1075 119.752 40.7694 119.315C41.4314 118.878 41.9812 118.29 42.3743 117.599C42.7675 116.908 42.9928 116.134 43.032 115.34C43.0712 114.546 42.9232 113.753 42.6 113.027L36.5037 99.3285V91.6642L21.6598 89.1094C12.209 96.371 21.4173 104.415 32.2626 112.528L15.2981 117.212Z" fill="#2F2E41"/>
<path d="M29.7179 57.1743C33.2313 57.1743 36.0796 54.3147 36.0796 50.7873C36.0796 47.2599 33.2313 44.4004 29.7179 44.4004C26.2044 44.4004 23.3562 47.2599 23.3562 50.7873C23.3562 54.3147 26.2044 57.1743 29.7179 57.1743Z" fill="#9F616A"/>
<path d="M21.2358 61.4319L30.1422 67.393L37.7762 65.6899L33.5351 61.4319V55.0449L26.7493 54.6191C26.6068 57.1696 25.1511 59.5036 21.2358 61.4319Z" fill="#9F616A"/>
<path d="M19.9633 91.2394L36.5037 93.3684L40.3207 75.4849C42.094 70.7379 41.0766 66.5439 37.7935 62.7988C37.668 62.1685 37.3335 61.5995 36.8446 61.1845C36.3557 60.7695 35.7412 60.533 35.1013 60.5136L33.5349 60.582C33.7121 66.2292 29.568 64.8691 23.3562 60.1562L22.6062 60.3822C21.6365 60.6742 20.8041 61.307 20.2611 62.1648C19.7181 63.0226 19.5009 64.048 19.6493 65.0534L20.3332 69.6884C20.6232 71.5259 21.0737 73.3343 21.6796 75.0925C23.3754 80.1808 22.7694 85.5674 19.9633 91.2394Z" fill="#CB202D"/>
<path d="M12.3293 72.0775L19.9634 74.6323L23.3563 62.2842L22.2068 61.7596C21.2538 61.3247 20.1718 61.2701 19.1801 61.6069C18.1885 61.9436 17.3617 62.6465 16.8673 63.5729L12.3293 72.0775Z" fill="#CB202D"/>
<path d="M34.8071 60.5823L39.0484 65.2659L44.1375 57.1758L37.7758 53.7695L34.8071 60.5823Z" fill="#CB202D"/>
<path d="M22.2959 48.8713C26.2936 50.3847 30.5599 50.2278 35.0193 48.8713V43.7617H22.2959V48.8713Z" fill="#2F2E41"/>
<path d="M220.707 136.581L216.321 138.416L187.082 98.4201L165.884 139.15L160.402 138.049L176.483 81.9082H195.123L220.707 136.581Z" fill="#2F2E41"/>
<path d="M226.59 145.912C226.347 145.979 226.093 145.996 225.844 145.964C225.594 145.932 225.352 145.85 225.134 145.724L215.885 140.377C215.635 140.233 215.422 140.033 215.262 139.792C215.101 139.552 214.998 139.278 214.961 138.991C214.923 138.704 214.951 138.413 215.044 138.139C215.136 137.865 215.29 137.616 215.494 137.412L216.321 136.582L220.707 136.215L227.411 142.677C227.655 142.912 227.832 143.208 227.925 143.534C228.018 143.86 228.023 144.206 227.94 144.534C227.856 144.863 227.687 145.164 227.45 145.406C227.213 145.648 226.917 145.823 226.59 145.912Z" fill="#2F2E41"/>
<path d="M154.884 147.381C155.127 147.447 155.381 147.465 155.631 147.433C155.88 147.4 156.122 147.319 156.34 147.192L165.589 141.846C165.839 141.702 166.052 141.502 166.212 141.261C166.373 141.021 166.476 140.747 166.514 140.46C166.551 140.173 166.523 139.882 166.43 139.608C166.338 139.334 166.184 139.085 165.98 138.88L165.153 138.051L160.768 137.684L154.063 144.146C153.819 144.381 153.642 144.676 153.549 145.003C153.456 145.329 153.451 145.674 153.534 146.003C153.618 146.332 153.787 146.633 154.024 146.875C154.261 147.117 154.557 147.291 154.884 147.381Z" fill="#2F2E41"/>
<path d="M164.057 23.5663L162.229 24.6671L158.442 18.4888C158.21 18.1094 158.071 17.6793 158.039 17.235C158.007 16.7906 158.081 16.345 158.257 15.9356C158.432 15.5263 158.702 15.1652 159.046 14.8829C159.389 14.6006 159.795 14.4053 160.229 14.3135C160.615 14.2319 161.014 14.2341 161.4 14.32C161.785 14.4059 162.147 14.5735 162.463 14.8116C162.778 15.0497 163.039 15.3527 163.228 15.7003C163.417 16.048 163.53 16.4322 163.559 16.8273L164.057 23.5663Z" fill="#FFB9B9"/>
<path d="M214.679 71.6676L215.437 69.668L222.218 72.1725C222.635 72.3263 223.008 72.5784 223.307 72.9076C223.607 73.2367 223.822 73.6332 223.937 74.0637C224.051 74.4942 224.061 74.946 223.965 75.381C223.869 75.816 223.67 76.2215 223.386 76.5632C223.132 76.867 222.817 77.113 222.462 77.2846C222.106 77.4562 221.718 77.5495 221.324 77.5582C220.929 77.5669 220.537 77.4908 220.175 77.3351C219.812 77.1793 219.486 76.9474 219.22 76.6551L214.679 71.6676Z" fill="#FFB9B9"/>
<path d="M185.986 45.5822C189.013 45.5822 191.468 43.118 191.468 40.0782C191.468 37.0384 189.013 34.5742 185.986 34.5742C182.958 34.5742 180.503 37.0384 180.503 40.0782C180.503 43.118 182.958 45.5822 185.986 45.5822Z" fill="#FFB9B9"/>
<path d="M190.737 51.8218H183.062V43.3824L189.641 42.6484L190.737 51.8218Z" fill="#FFB9B9"/>
<path d="M196.219 84.1112H175.387C176.121 72.4414 176.703 61.1639 175.387 54.7565L176.598 48.9189C176.766 48.1101 177.231 47.3943 177.9 46.9139C178.57 46.4335 179.395 46.2237 180.211 46.3262L183.062 46.6839C184.992 50.091 187.325 50.0581 190.006 47.0508H193.439C193.897 47.0508 194.35 47.1425 194.772 47.3205C195.194 47.4984 195.577 47.7591 195.897 48.0873C196.218 48.4154 196.47 48.8045 196.639 49.2316C196.807 49.6588 196.89 50.1154 196.881 50.5749C197.775 54.6864 198.073 58.9062 197.764 63.1032L196.219 84.1112Z" fill="#3F3D56"/>
<path d="M161.133 23.5672L164.057 22.0996L179.773 48.152L175.387 54.7567L161.133 23.5672Z" fill="#3F3D56"/>
<path d="M214.72 72.711L217.219 70.5948L203.941 51.9162C202.642 50.0888 200.852 48.6708 198.779 47.8283C196.706 46.9858 194.438 46.7537 192.238 47.1591L191.819 47.2363L196.84 56.057L203.452 61.0833L214.72 72.711Z" fill="#3F3D56"/>
<path d="M192.326 36.8309C192.326 36.8309 193.35 34.5682 190.687 33.5397C190.687 33.5397 188.433 29.8372 183.926 32.3055C183.926 32.3055 180.853 33.5397 180.853 36.8309C180.853 40.122 179.828 40.7391 179.828 40.7391C179.828 40.7391 181.354 39.1678 181.763 37.9337C182.173 36.6995 185.36 36.4195 186.589 37.6537C187.819 38.8878 190.892 38.6821 190.892 38.6821L190.687 43.2075C190.687 43.2075 191.711 40.5334 192.121 40.5334C192.531 40.5334 192.941 36.8309 192.326 36.8309Z" fill="#2F2E41"/>
<path d="M191.82 160C210.346 160 225.364 159.215 225.364 158.246C225.364 157.278 210.346 156.492 191.82 156.492C173.294 156.492 158.275 157.278 158.275 158.246C158.275 159.215 173.294 160 191.82 160Z" fill="#E6E6E6"/>
<path d="M24.3369 159.173C34.1293 159.173 42.0676 158.758 42.0676 158.246C42.0676 157.733 34.1293 157.318 24.3369 157.318C14.5445 157.318 6.6062 157.733 6.6062 158.246C6.6062 158.758 14.5445 159.173 24.3369 159.173Z" fill="#E6E6E6"/>
<path d="M159.805 30.8602L52.0145 40.5592C51.4852 40.6062 50.959 40.4405 50.5513 40.0984C50.1435 39.7564 49.8875 39.266 49.8395 38.7347L47.4431 11.8904C47.3963 11.359 47.5613 10.8307 47.902 10.4214C48.2427 10.012 48.7312 9.755 49.2603 9.70676L157.051 0.00783733C157.58 -0.039156 158.106 0.126532 158.514 0.468556C158.922 0.81058 159.178 1.30101 159.226 1.83227L161.622 28.6766C161.669 29.208 161.504 29.7363 161.163 30.1456C160.822 30.555 160.334 30.812 159.805 30.8602Z" fill="#CB202D"/>
<path d="M64.6104 32.3272C69.2591 32.3272 73.0277 28.5437 73.0277 23.8765C73.0277 19.2093 69.2591 15.4258 64.6104 15.4258C59.9617 15.4258 56.1931 19.2093 56.1931 23.8765C56.1931 28.5437 59.9617 32.3272 64.6104 32.3272Z" fill="white"/>
<path d="M83.4715 16.5228C83.1015 16.5568 82.76 16.7368 82.522 17.0233C82.284 17.3099 82.169 17.6795 82.2021 18.0511C82.2353 18.4227 82.414 18.7659 82.6989 19.0053C82.9839 19.2448 83.3518 19.361 83.722 19.3284L149.594 13.4013C149.777 13.385 149.956 13.3326 150.12 13.2469C150.283 13.1613 150.428 13.0441 150.546 12.9021C150.665 12.7601 150.754 12.5961 150.809 12.4195C150.864 12.2428 150.884 12.057 150.868 11.8726C150.851 11.6882 150.799 11.5089 150.713 11.3449C150.628 11.1809 150.511 11.0354 150.369 10.9168C150.228 10.7982 150.064 10.7088 149.888 10.6537C149.712 10.5986 149.527 10.5789 149.343 10.5956L83.4715 16.5228Z" fill="white"/>
<path d="M84.223 24.9407C84.0392 24.9569 83.8605 25.0093 83.6969 25.0949C83.5333 25.1805 83.3882 25.2977 83.2698 25.4397C83.1514 25.5817 83.062 25.7457 83.0069 25.9225C82.9517 26.0992 82.9318 26.2851 82.9482 26.4695C82.9647 26.654 83.0172 26.8333 83.1028 26.9974C83.1884 27.1614 83.3054 27.3069 83.4471 27.4255C83.5887 27.5441 83.7523 27.6335 83.9284 27.6886C84.1045 27.7436 84.2897 27.7633 84.4734 27.7464L150.345 21.8193C150.529 21.803 150.707 21.7505 150.871 21.6649C151.034 21.5792 151.179 21.4621 151.298 21.3201C151.416 21.1781 151.505 21.0141 151.561 20.8374C151.616 20.6608 151.636 20.4749 151.619 20.2905C151.603 20.1061 151.55 19.9268 151.465 19.7628C151.379 19.5988 151.262 19.4534 151.121 19.3348C150.979 19.2162 150.815 19.1268 150.639 19.0717C150.463 19.0165 150.278 18.9968 150.095 19.0136L84.223 24.9407Z" fill="white"/>
</g>
<defs>
<clipPath id="clip0">
<rect width="228" height="160" fill="white"/>
</clipPath>
</defs>
</svg>
