<svg width="77" height="17" viewBox="0 0 77 17" fill="none" xmlns="http://www.w3.org/2000/svg">
<circle cx="3" cy="9" r="3" fill="#CB202D"/>
<circle cx="11" cy="9" r="3" fill="#CB202D"/>
<circle cx="19" cy="9" r="3" fill="#CB202D"/>
<path d="M34.1538 14.112C37.1358 14.112 39.3478 11.984 39.3478 9.1C39.3478 6.216 37.1358 4.088 34.1538 4.088C31.1438 4.088 28.9318 6.23 28.9318 9.1C28.9318 11.97 31.1438 14.112 34.1538 14.112ZM34.1538 12.866C31.9558 12.866 30.3318 11.27 30.3318 9.1C30.3318 6.93 31.9558 5.334 34.1538 5.334C36.3238 5.334 37.9478 6.93 37.9478 9.1C37.9478 11.27 36.3238 12.866 34.1538 12.866ZM45.1119 12.6C44.8319 12.824 44.4539 12.95 44.0619 12.95C43.3199 12.95 42.8999 12.502 42.8999 11.704V7.686H45.0279V6.58H42.8999V4.956H41.5559V6.58H40.2959V7.686H41.5559V11.76C41.5559 13.258 42.4099 14.084 43.9079 14.084C44.5099 14.084 45.1259 13.916 45.5319 13.566L45.1119 12.6ZM51.1188 6.51C49.9848 6.51 49.0608 6.916 48.5008 7.63V3.612H47.1568V14H48.5008V10.178C48.5008 8.568 49.4248 7.714 50.8528 7.714C52.1268 7.714 52.8548 8.428 52.8548 9.884V14H54.1988V9.73C54.1988 7.546 52.9248 6.51 51.1188 6.51ZM63.4331 10.332C63.4331 8.05 61.9071 6.51 59.7651 6.51C57.6231 6.51 56.0411 8.092 56.0411 10.29C56.0411 12.502 57.6371 14.084 60.0311 14.084C61.2631 14.084 62.2851 13.664 62.9571 12.88L62.2151 12.012C61.6691 12.614 60.9411 12.908 60.0731 12.908C58.6031 12.908 57.5531 12.04 57.3851 10.738H63.4051C63.4191 10.612 63.4331 10.444 63.4331 10.332ZM59.7651 7.644C61.0671 7.644 62.0051 8.526 62.1451 9.772H57.3851C57.5251 8.512 58.4771 7.644 59.7651 7.644ZM66.5874 7.826V6.58H65.2994V14H66.6434V10.304C66.6434 8.68 67.5394 7.798 68.9814 7.798C69.0794 7.798 69.1774 7.798 69.2894 7.812V6.51C67.9874 6.51 67.0634 6.958 66.5874 7.826ZM73.1286 14.084C75.1026 14.084 76.3346 13.23 76.3346 11.886C76.3346 9.002 71.6306 10.43 71.6306 8.68C71.6306 8.092 72.2046 7.658 73.3806 7.658C74.1086 7.658 74.8506 7.812 75.5226 8.246L76.0966 7.182C75.4526 6.762 74.3606 6.51 73.3946 6.51C71.4906 6.51 70.3006 7.406 70.3006 8.736C70.3006 11.69 74.9906 10.248 74.9906 11.914C74.9906 12.544 74.4726 12.922 73.2266 12.922C72.2606 12.922 71.2526 12.6 70.6226 12.152L70.0626 13.216C70.6786 13.706 71.8966 14.084 73.1286 14.084Z" fill="#CB202D"/>
</svg>
