<svg width="68" height="48" viewBox="0 0 68 48" fill="none" xmlns="http://www.w3.org/2000/svg">
<path d="M57.8 17.1429H56.1L44.5421 2.57357C43.9049 1.77063 43.0968 1.12244 42.1776 0.676963C41.2584 0.231489 40.2516 0.000128582 39.2318 0H16.5038C13.7233 0 11.2232 1.70679 10.1904 4.31036L5.1 17.385C2.17175 18.15 0 20.8082 0 24V36C0 36.9471 0.76075 37.7143 1.7 37.7143H6.8C6.8 43.395 11.3666 48 17 48C22.6334 48 27.2 43.395 27.2 37.7143H40.8C40.8 43.395 45.3666 48 51 48C56.6334 48 61.2 43.395 61.2 37.7143H66.3C67.2393 37.7143 68 36.9471 68 36V27.4286C68 21.7479 63.4334 17.1429 57.8 17.1429ZM17 42.8571C14.1876 42.8571 11.9 40.5504 11.9 37.7143C11.9 34.8782 14.1876 32.5714 17 32.5714C19.8124 32.5714 22.1 34.8782 22.1 37.7143C22.1 40.5504 19.8124 42.8571 17 42.8571ZM24.65 17.1429H12.4238L16.5038 6.85714H24.65V17.1429ZM29.75 17.1429V6.85714H39.2318L47.3918 17.1429H29.75ZM51 42.8571C48.1876 42.8571 45.9 40.5504 45.9 37.7143C45.9 34.8782 48.1876 32.5714 51 32.5714C53.8124 32.5714 56.1 34.8782 56.1 37.7143C56.1 40.5504 53.8124 42.8571 51 42.8571Z" fill="#CB202D"/>
</svg>
