<svg width="308" height="293" viewBox="0 0 308 293" fill="none" xmlns="http://www.w3.org/2000/svg">
<path d="M255.058 264.26C271.218 249.728 283.226 229.879 292.29 210.632C305.756 182.039 312.924 146.363 294.128 118.562C283.284 102.526 266.346 92.4016 247.543 88.5888C229.454 84.9264 211.861 85.7178 196.302 74.2531C180.567 62.6446 166.872 48.1651 152.785 34.6861C116.567 0.0241327 50.7613 9.96494 20.1998 56.6344C-10.3616 103.304 -2.03616 163.93 27.3938 192.052C53.822 217.316 90.6945 222.253 119.876 242.004C134.336 251.814 144.447 266.248 159.77 274.861C177.591 284.874 199.442 288.981 219.519 283.867C233.188 280.381 244.934 273.363 255.058 264.26Z" fill="#CB202D"/>
<path opacity="0.7" d="M255.058 264.26C271.218 249.728 283.226 229.879 292.29 210.632C305.756 182.039 312.924 146.363 294.128 118.562C283.284 102.526 266.346 92.4016 247.543 88.5888C229.454 84.9264 211.861 85.7178 196.302 74.2531C180.567 62.6446 166.872 48.1651 152.785 34.6861C116.567 0.0241327 50.7613 9.96494 20.1998 56.6344C-10.3616 103.304 -2.03616 163.93 27.3938 192.052C53.822 217.316 90.6945 222.253 119.876 242.004C134.336 251.814 144.447 266.248 159.77 274.861C177.591 284.874 199.442 288.981 219.519 283.867C233.188 280.381 244.934 273.363 255.058 264.26Z" fill="white"/>
<path d="M285.181 272.278L282.65 248.518" stroke="#263238" stroke-width="0.985332" stroke-linecap="round" stroke-linejoin="round"/>
<path d="M282.637 249.185C282.637 249.185 278.092 245.647 278.092 237.557C278.092 229.467 284.154 222.901 284.154 222.901C284.154 222.901 290.727 230.991 289.21 239.074C287.692 247.158 282.637 249.185 282.637 249.185Z" fill="#CB202D" stroke="#263238" stroke-width="0.985332" stroke-linecap="round" stroke-linejoin="round"/>
<path d="M282.65 248.518L283.808 230.664" stroke="#263238" stroke-width="0.985332" stroke-linecap="round" stroke-linejoin="round"/>
<path d="M287.516 270.525C289.722 264.838 292.416 259.353 295.567 254.129" stroke="#263238" stroke-width="0.985332" stroke-linecap="round" stroke-linejoin="round"/>
<path d="M293.186 258.426C293.186 258.426 290.662 253.24 294.232 246C297.803 238.76 306.148 235.536 306.148 235.536C306.148 235.536 308.47 245.693 303.532 252.279C298.595 258.864 293.186 258.426 293.186 258.426Z" fill="#CB202D" stroke="#263238" stroke-width="0.985332" stroke-linecap="round" stroke-linejoin="round"/>
<path d="M293.186 258.426L302.388 243.299" stroke="#263238" stroke-width="0.985332" stroke-linecap="round" stroke-linejoin="round"/>
<path d="M281.08 272.644C279.709 268.076 277.845 263.67 275.521 259.505L271.983 253.41" stroke="#263238" stroke-width="0.985332" stroke-linecap="round" stroke-linejoin="round"/>
<path d="M274.828 258.125C272.036 258.983 269.073 259.119 266.214 258.522C263.355 257.925 260.694 256.614 258.478 254.711C250.63 248.119 251.068 234.666 251.068 234.666C251.068 234.666 266.28 232.495 272.421 241.115C274.202 243.528 275.354 246.347 275.774 249.316C276.194 252.285 275.869 255.313 274.828 258.125Z" fill="#CB202D" stroke="#263238" stroke-width="0.985332" stroke-linecap="round" stroke-linejoin="round"/>
<path d="M274.828 258.125L256.797 239.336" stroke="#263238" stroke-width="0.985332" stroke-linecap="round" stroke-linejoin="round"/>
<path d="M293.5 267.19H274.253V286.064H293.5V267.19Z" fill="#263238" stroke="#263238" stroke-width="0.985332" stroke-linecap="round" stroke-linejoin="round"/>
<path d="M251.746 0.966064H143C137.477 0.966064 133 5.44322 133 10.9661V99.432C133 104.955 137.477 109.432 143 109.432H251.746C257.269 109.432 261.746 104.955 261.746 99.432V10.9661C261.746 5.44322 257.269 0.966064 251.746 0.966064Z" fill="white" stroke="#263238" stroke-width="0.985332" stroke-linecap="round" stroke-linejoin="round"/>
<path d="M212.152 35.1616C213.449 27.1096 207.973 19.5308 199.921 18.2339C191.869 16.937 184.29 22.413 182.994 30.465C181.697 38.517 187.173 46.0958 195.225 47.3927C203.277 48.6897 210.855 43.2136 212.152 35.1616Z" fill="#CB202D"/>
<path d="M204.013 29.4085C204.013 30.6825 203.635 31.928 202.927 32.9874C202.22 34.0467 201.213 34.8724 200.036 35.36C198.859 35.8476 197.564 35.9751 196.314 35.7266C195.065 35.478 193.917 34.8645 193.016 33.9636C192.115 33.0626 191.502 31.9148 191.253 30.6652C191.004 29.4156 191.132 28.1203 191.62 26.9432C192.107 25.7661 192.933 24.7601 193.992 24.0522C195.052 23.3444 196.297 22.9666 197.571 22.9666C199.28 22.9666 200.918 23.6453 202.126 24.8533C203.334 26.0614 204.013 27.7 204.013 29.4085Z" fill="white"/>
<path d="M186.97 43.0835C188.346 44.5047 189.993 45.6348 191.814 46.4066C193.635 47.1784 195.593 47.5762 197.571 47.5762C199.549 47.5762 201.507 47.1784 203.328 46.4066C205.149 45.6348 206.797 44.5047 208.173 43.0835V42.6584C208.173 41.9123 208.027 41.1735 207.742 40.484C207.457 39.7945 207.039 39.1679 206.512 38.6401C205.985 38.1123 205.359 37.6935 204.67 37.4078C203.981 37.1221 203.242 36.9751 202.496 36.9751H192.653C191.146 36.9751 189.7 37.5739 188.634 38.6397C187.569 39.7055 186.97 41.1511 186.97 42.6584V43.0835Z" fill="white"/>
<path d="M236.673 69H158.415C155.424 69 153 71.4244 153 74.4151C153 77.4058 155.424 79.8302 158.415 79.8302H236.673C239.663 79.8302 242.088 77.4058 242.088 74.4151C242.088 71.4244 239.663 69 236.673 69Z" stroke="#263238" stroke-width="0.985332" stroke-miterlimit="10"/>
<path d="M236.412 85.054H158.155C155.164 85.054 152.74 87.4784 152.74 90.4691C152.74 93.4597 155.164 95.8842 158.155 95.8842H236.412C239.403 95.8842 241.827 93.4597 241.827 90.4691C241.827 87.4784 239.403 85.054 236.412 85.054Z" fill="#CB202D"/>
<path d="M46.4449 168.567V167.599" stroke="#263238" stroke-width="0.985332" stroke-linecap="round" stroke-linejoin="round"/>
<path d="M46.4449 165.682V82.7618C46.4449 81.0865 46.775 79.4276 47.4163 77.8799C48.0576 76.3322 48.9975 74.926 50.1825 73.7417C51.3674 72.5574 52.774 71.6182 54.3221 70.9777C55.8701 70.3372 57.5291 70.0079 59.2044 70.0088H119.876" stroke="#263238" stroke-width="0.985332" stroke-linecap="round" stroke-linejoin="round" stroke-dasharray="2.93 2.93"/>
<path d="M120.864 70.0088H121.825" stroke="#263238" stroke-width="0.985332" stroke-linecap="round" stroke-linejoin="round"/>
<path d="M128.201 70.5385L117.777 64.5151V76.5553L128.201 70.5385Z" fill="#263238"/>
<path d="M227.721 249.329H228.689" stroke="#263238" stroke-width="0.985332" stroke-linecap="round" stroke-linejoin="round"/>
<path d="M230.605 249.329H234.182C237.577 249.329 240.832 247.981 243.232 245.58C245.632 243.18 246.981 239.925 246.981 236.53V115.54" stroke="#263238" stroke-width="0.985332" stroke-linecap="round" stroke-linejoin="round" stroke-dasharray="2.93 2.93"/>
<path d="M246.981 114.585V113.624" stroke="#263238" stroke-width="0.985332" stroke-linecap="round" stroke-linejoin="round"/>
<path d="M224.071 248.766L234.496 254.783V242.743L224.071 248.766Z" fill="#263238"/>
<path d="M169.443 170.26C169.999 169.202 170.834 168.316 171.858 167.7C172.881 167.083 174.055 166.758 175.25 166.761H231.2C231.2 166.761 235.242 166.761 234.032 174.446C232.822 182.13 216.236 229.048 212.188 243.201C208.14 257.354 207.335 287.287 207.335 287.287H140.196C140.196 287.287 145.578 215.825 169.443 170.26Z" fill="white" stroke="#263238" stroke-width="0.985332" stroke-linecap="round" stroke-linejoin="round"/>
<path d="M221.495 180.11C215.837 193.307 203.837 245.51 201.927 287.287H207.335C207.335 287.287 208.166 257.334 212.188 243.201C216.21 229.068 232.815 182.13 234.032 174.446C235.248 166.761 231.2 166.761 231.2 166.761C231.2 166.761 226.027 169.528 221.495 180.11Z" fill="#263238" stroke="#263238" stroke-width="0.985332" stroke-linecap="round" stroke-linejoin="round"/>
<path d="M115.102 167.821C115.102 167.821 104.834 166.572 98.052 159.443C91.2701 152.315 112.793 126.894 124.284 120.903C135.775 114.912 140.51 116.554 152.831 125.638C165.152 134.722 177.179 149.3 177.029 159.077C176.879 168.854 171.555 173.53 178.991 178.35C186.427 183.17 207.473 196.858 210.547 206.263C213.62 215.668 208.29 227.368 195.949 233.731C183.608 240.094 163.36 239.8 143.858 233.496C124.356 227.191 120.111 207.244 122.623 199.128C125.134 191.012 131.779 185.433 129.778 179.259C127.776 173.086 115.102 167.821 115.102 167.821Z" fill="#263238" stroke="#263238" stroke-width="0.985332" stroke-linecap="round" stroke-linejoin="round"/>
<path d="M123.905 195.858C123.905 195.858 113.284 194.38 108.379 197.552C103.474 200.724 79.2365 242.148 79.2365 242.148L65.8491 224.13L54.2406 229.343C54.2406 229.343 59.6819 250.401 66.0126 260.879C72.3433 271.356 75.9534 272.415 78.1247 272.068C84.5862 271.042 103.304 249.388 103.304 249.388L110.105 272.016L105.488 288.464H191.489L181.058 271.068C181.058 271.068 194.668 208.284 191.201 201.633C187.735 194.981 167.54 195.858 161.189 195.858H143.008C140.253 196.404 137.452 196.693 134.643 196.721C131.051 196.617 127.467 196.328 123.905 195.858Z" fill="#CB202D"/>
<path d="M181.352 197.977L181.529 198.049L179.881 202.247L179.697 202.175L181.352 197.977ZM180.901 202.646L181.077 202.718L182.732 198.52L182.549 198.448L180.901 202.646ZM188.402 216.007L188.213 215.955L187.487 218.538H187.689L188.402 216.007ZM189.645 216.361L189.455 216.308L188.801 218.538H188.997L189.645 216.361ZM181.797 216.505L182.412 218.538H182.614L181.96 216.446L181.797 216.505ZM183.222 216.079L183.033 216.132L183.759 218.538H183.962L183.222 216.079ZM188.487 206.472L190.73 202.548L190.567 202.45L188.324 206.374L188.487 206.472ZM189.612 207.126L191.711 203.457C191.711 203.346 191.711 203.248 191.672 203.143L189.442 207.035L189.612 207.126ZM191.084 212.705L191.456 212.214L191.496 211.855L190.927 212.587L191.084 212.705ZM185.531 208.722L188.657 211.992L188.795 211.861L185.668 208.591L185.531 208.722ZM184.544 209.592L187.663 212.862L187.807 212.731L184.681 209.461L184.544 209.592ZM181.097 209.592L181.149 209.402L178.736 208.807V209.003L181.097 209.592ZM178.703 207.63L181.417 208.316L181.463 208.127L178.736 207.473L178.703 207.63ZM181.731 213.47L181.673 213.287L178.736 214.307V214.51L181.731 213.47ZM181.267 212.057L178.703 212.908V213.11L181.319 212.24L181.267 212.057ZM179.848 248.596L181.496 244.398L181.319 244.326L179.665 248.524L179.848 248.596ZM182.516 244.797L180.868 248.995L181.045 249.067L182.699 244.868L182.516 244.797ZM182.431 264.482L181.928 262.801L181.738 262.854L182.353 264.881L182.431 264.482ZM185.701 236.242L185.518 236.308L187.048 240.552H187.088L187.146 240.258L185.701 236.242ZM186.728 235.869L187.532 238.087C187.532 237.962 187.578 237.838 187.598 237.707L186.911 235.804L186.728 235.869ZM189.592 224.817L189.697 225.163L189.756 224.771L189.592 224.817ZM185.289 224.562L185.028 229.061H185.217L185.479 224.555L185.289 224.562ZM186.316 229.14H186.506L186.767 224.634H186.578L186.316 229.14ZM180.816 224.366L180.907 224.196L178.684 222.999V223.221L180.816 224.366ZM178.684 221.75L181.424 223.221L181.516 223.051L178.736 221.58L178.684 221.75ZM180.397 228.558L180.273 228.414L178.736 229.866V230.121L180.397 228.558ZM179.554 227.583L179.429 227.433L178.684 228.087V228.342L179.554 227.583ZM178.736 235.32V235.523L182.804 233.934L182.732 233.757L178.736 235.32ZM178.736 233.934V234.143L182.333 232.737L182.261 232.554L178.736 233.934ZM181.136 242.122L181.182 241.932L178.736 241.383V241.579L181.136 242.122ZM181.417 240.866L181.463 240.676L178.736 240.062V240.258L181.417 240.866ZM181.097 256.026L181.149 255.843L178.703 255.221V255.424L181.097 256.026ZM178.736 254.064L181.45 254.757L181.496 254.567L178.736 253.874V254.064ZM181.764 259.904L181.705 259.721L178.736 260.702V260.911L181.764 259.904ZM181.359 258.681L181.3 258.498L178.736 259.348V259.551L181.359 258.681ZM187.173 220.343L187.689 218.532H187.487L186.99 220.291L187.173 220.343ZM189.023 218.532H188.827L188.232 220.638L188.415 220.697L189.023 218.532ZM183.072 220.814L183.262 220.762L182.608 218.532H182.405L183.072 220.814ZM184.491 220.389L183.935 218.532H183.733L184.308 220.448L184.491 220.389ZM185.57 282.748L187.101 286.986L187.284 286.921L185.753 282.683L185.57 282.748ZM188.494 286.483L186.963 282.245L186.78 282.31L188.317 286.548L188.494 286.483ZM190.658 287.529L190.469 287.477L190.194 288.458H190.397L190.658 287.529ZM178.736 269.662L180.868 270.806L180.96 270.636L178.736 269.439V269.662ZM178.736 268.197L181.352 269.629L181.391 269.433L178.736 267.981V268.197ZM180.417 274.992L180.293 274.841L178.736 276.234V276.483L180.417 274.992ZM179.573 274.011L179.449 273.867L178.703 274.521V274.776L179.573 274.011ZM182.699 280.132L178.736 281.715V281.924L182.804 280.328L182.699 280.132ZM178.703 280.518L182.3 279.112L182.228 278.935L178.703 280.309V280.518ZM178.703 287.758V287.961L180.868 288.445H181.117L181.149 288.314L178.703 287.758ZM181.385 287.241L181.431 287.052L178.703 286.437V286.639L181.385 287.241ZM133.27 202.156L133.447 202.228L135.101 198.029L134.918 197.957L133.27 202.156ZM134.467 202.627L134.65 202.699L136.298 198.5L136.121 198.428L134.467 202.627ZM176.728 208.48L178.69 208.984V208.787L176.761 208.297L176.728 208.48ZM177.095 207.048L177.042 207.231L178.703 207.656V207.453L177.095 207.048ZM178.736 214.51V214.307L177.428 214.745L177.487 214.928L178.736 214.51ZM176.983 213.516L177.042 213.699L178.703 213.149V212.947L176.983 213.516ZM173.504 218.538H173.726L174.577 217.06L174.413 216.962L173.504 218.538ZM174.995 218.538H175.218L175.695 217.701L175.531 217.603L174.995 218.538ZM165.27 216.733L165.12 216.858L166.5 218.538H166.748L165.27 216.733ZM166.12 216.04L168.167 218.538H168.416L166.271 215.922L166.12 216.04ZM161.242 218.244L161.065 218.31L161.143 218.538H161.353L161.242 218.244ZM162.275 217.871L162.517 218.525H162.72L162.458 217.793L162.275 217.871ZM155.199 218.525L155.755 216.334L155.565 216.289L154.996 218.525H155.199ZM156.814 216.603L156.323 218.525H156.5L156.977 216.655L156.814 216.603ZM141.988 215.994L141.798 215.942L141.066 218.525H141.268L141.988 215.994ZM143.224 216.348L143.041 216.295L142.387 218.525H142.589L143.224 216.348ZM135.376 216.491L135.991 218.525H136.193L135.539 216.433L135.376 216.491ZM136.795 216.066L136.612 216.119L137.338 218.525H137.534L136.795 216.066ZM142.066 206.459L144.31 202.535L144.139 202.437L141.896 206.361L142.066 206.459ZM143.021 207.008L143.185 207.1L145.428 203.176L145.258 203.078L143.021 207.008ZM168.612 209.886L172.765 211.645L172.837 211.469L168.684 209.709L168.612 209.886ZM168.109 211.07L172.261 212.829L172.333 212.652L168.148 210.9L168.109 211.07ZM171.607 204.294L171.791 204.347L173.02 200.011L172.83 199.952L171.607 204.294ZM172.844 204.647L173.033 204.7L174.256 200.357L174.073 200.305L172.844 204.647ZM166.094 196.577L167.402 200.894L167.585 200.841L166.31 196.512L166.094 196.577ZM167.324 196.204L168.632 200.521L168.815 200.468L167.507 196.152L167.324 196.204ZM153.073 214.693L151.765 210.377L151.582 210.429L152.89 214.752L153.073 214.693ZM154.309 214.32L153.001 210.004L152.812 210.056L154.119 214.379L154.309 214.32ZM159.41 211.822L163.877 211.168V210.978L159.41 211.632V211.822ZM159.593 213.097L164.06 212.443V212.254L159.593 212.908V213.097ZM162.863 207.597L163.053 207.643L164.06 203.248L163.871 203.202L162.863 207.597ZM165.126 203.49L164.119 207.885L164.309 207.931L165.316 203.536L165.126 203.49ZM149.306 205.092L149.47 205.197L151.883 201.384L151.719 201.286L149.306 205.092ZM152.975 202.077L152.812 201.973L150.398 205.785L150.562 205.89L152.975 202.077ZM148.783 197.689L152.916 195.884V195.838H152.563L148.724 197.512L148.783 197.689ZM149.221 198.69L149.3 198.866L153.433 197.068L153.354 196.891L149.221 198.69ZM145.297 195.838H145.094L144.074 199.383L144.264 199.435L145.297 195.838ZM143.041 199.108L143.956 195.838H143.754L142.851 199.03L143.041 199.108ZM160.738 197.225L160.293 195.858H160.091L160.516 197.27L160.738 197.225ZM159.319 197.65L159.508 197.597L158.985 195.864H158.783L159.319 197.65ZM144.512 212.6L144.663 212.718L147.409 209.14L147.253 209.023L144.512 212.6ZM145.532 213.385L145.689 213.503L148.43 209.919L148.279 209.801L145.532 213.385ZM139.11 208.735L142.236 212.005L142.38 211.874L139.254 208.604L139.11 208.735ZM138.142 209.592L141.268 212.862L141.406 212.731L138.286 209.461L138.142 209.592ZM155.264 203.81L155.186 203.987L159.338 205.753L159.417 205.57L155.264 203.81ZM155.689 202.803L159.842 204.562L159.92 204.386L155.768 202.627L155.689 202.803ZM134.702 209.592L134.748 209.402L132.302 208.807V209.003L134.702 209.592ZM132.309 207.63L135.016 208.316L135.068 208.127L132.302 207.473L132.309 207.63ZM135.337 213.47L135.271 213.287L132.302 214.307V214.51L135.337 213.47ZM134.866 212.057L132.309 212.908V213.11L134.925 212.24L134.866 212.057ZM134.918 244.326L133.27 248.524L133.447 248.596L135.101 244.398L134.918 244.326ZM136.121 244.797L134.467 248.995L134.65 249.067L136.298 244.868L136.121 244.797ZM176.866 222.227L178.703 223.221V222.999L176.957 222.057L176.866 222.227ZM177.565 220.919L177.474 221.083L178.703 221.737V221.514L177.565 220.919ZM178.736 229.866L176.911 231.448L177.036 231.592L178.736 230.121V229.866ZM176.192 230.618L178.736 228.42V228.165L176.068 230.467L176.192 230.618ZM178.533 235.431L178.599 235.614L178.736 235.556V235.353L178.533 235.431ZM178.062 234.234L178.128 234.411L178.736 234.176V233.966L178.062 234.234ZM178.716 241.428L176.754 240.984L176.709 241.173L178.71 241.625L178.716 241.428ZM178.716 240.12L177.042 239.741L177.003 239.931L178.716 240.317V240.12ZM178.716 255.261L176.774 254.718L176.728 254.907L178.69 255.411L178.716 255.261ZM177.108 253.521L177.055 253.711L178.736 254.064V253.868L177.108 253.521ZM178.736 260.911V260.702L177.428 261.14L177.487 261.323L178.736 260.911ZM178.736 259.551V259.348L177.016 259.917L177.075 260.1L178.736 259.551ZM152.184 220.827L148.031 219.062L147.959 219.238L152.112 221.004L152.184 220.827ZM147.455 220.429L151.608 222.188L151.68 222.011L147.527 220.252L147.455 220.429ZM174.564 263.455L174.4 263.364L173.504 264.94H173.726L174.564 263.455ZM175.682 264.109L175.518 264.011L174.982 264.953H175.204L175.682 264.109ZM165.107 263.266L166.487 264.953H166.735L165.257 263.141L165.107 263.266ZM166.107 262.448L168.154 264.953H168.403L166.258 262.337L166.107 262.448ZM161.228 264.659L161.052 264.724L161.13 264.953H161.34L161.228 264.659ZM162.262 264.286L162.504 264.94H162.707L162.445 264.207L162.262 264.286ZM155.722 262.762L155.532 262.71L154.963 264.953H155.192L155.722 262.762ZM156.781 263.03L156.291 264.953H156.5L156.977 263.076L156.781 263.03ZM141.955 262.415L141.765 262.363L141.033 264.979H141.236L141.955 262.415ZM143.191 262.768L143.008 262.716L142.354 264.953H142.557L143.191 262.768ZM135.343 262.912L135.958 264.953H136.161L135.507 262.86L135.343 262.912ZM136.579 262.546L137.305 264.953H137.501L136.762 262.487L136.579 262.546ZM144.107 248.878L141.864 252.802L142.034 252.9L144.277 248.976L144.107 248.878ZM145.415 249.61L145.245 249.512L143.008 253.436L143.172 253.534L145.415 249.61ZM163.655 228.12L160.777 224.634L160.633 224.758L163.485 228.25L163.655 228.12ZM162.661 228.937L159.77 225.432L159.62 225.556L162.478 229.048L162.661 228.937ZM155.591 227.027L157.121 231.265L157.304 231.2L155.774 226.962L155.591 227.027ZM156.807 226.589L158.338 230.827L158.514 230.762L156.984 226.524L156.807 226.589ZM172.824 257.89L168.671 256.13L168.599 256.307L172.752 258.066L172.824 257.89ZM172.32 259.08L168.167 257.314L168.095 257.497L172.248 259.257L172.32 259.08ZM172.817 246.379L171.594 250.722L171.777 250.774L173.007 246.432L172.817 246.379ZM174.243 246.785L174.06 246.732L172.83 251.068L173.02 251.121L174.243 246.785ZM167.592 247.249L166.284 242.933L166.101 242.985L167.409 247.308L167.592 247.249ZM168.828 246.876L167.52 242.56L167.33 242.612L168.638 246.935L168.828 246.876ZM155.748 235.582L153.505 239.506L153.668 239.597L155.911 235.673L155.748 235.582ZM154.793 235.039L154.623 234.941L152.386 238.865L152.55 238.956L154.793 235.039ZM147.174 238.603L144.316 235.098L144.166 235.222L147.024 238.714L147.174 238.603ZM148.168 237.786L145.317 234.293L145.166 234.418L148.018 237.91L148.168 237.786ZM139.143 236.367L140.673 240.611L140.856 240.546L139.319 236.301L139.143 236.367ZM140.353 235.928L141.883 240.173L142.066 240.107L140.536 235.863L140.353 235.928ZM171.542 239.362L171.732 239.408L172.844 235.039L172.654 234.987L171.542 239.362ZM174.093 235.353L173.903 235.307L172.791 239.676L172.981 239.722L174.093 235.353ZM166.716 239.022L162.563 237.262L162.491 237.439L166.644 239.205L166.716 239.022ZM167.219 237.838L163.04 236.079L162.968 236.255L167.121 238.015L167.219 237.838ZM153.073 261.094L151.765 256.771L151.582 256.83L152.89 261.147L153.073 261.094ZM154.309 260.721L153.001 256.399L152.812 256.457L154.119 260.774L154.309 260.721ZM163.877 257.589V257.399L159.41 258.053V258.243L163.877 257.589ZM164.06 258.864V258.674L159.593 259.328V259.518L164.06 258.864ZM163.04 254.064L164.047 249.669L163.858 249.623L162.85 254.025L163.04 254.064ZM164.296 254.352L165.303 249.957L165.113 249.911L164.106 254.312L164.296 254.352ZM151.87 247.812L151.706 247.707L149.306 251.494L149.47 251.598L151.87 247.812ZM152.962 248.498L152.798 248.394L150.385 252.206L150.549 252.311L152.962 248.498ZM152.903 242.305L152.831 242.128L148.691 243.933L148.77 244.11L152.903 242.305ZM153.42 243.489L153.341 243.312L149.208 245.117L149.286 245.294L153.42 243.489ZM145.474 241.527L145.291 241.468L144.074 245.778L144.264 245.83L145.474 241.527ZM143.008 245.516L144.231 241.173L144.048 241.121L142.818 245.464L143.008 245.516ZM160.699 243.6L159.391 239.283L159.201 239.336L160.509 243.659L160.699 243.6ZM157.985 239.676L159.293 243.992L159.482 243.94L158.174 239.623L157.985 239.676ZM151.713 228.558L148.109 231.278L148.227 231.429L151.831 228.715L151.713 228.558ZM149.005 232.482L152.602 229.761L152.491 229.611L148.888 232.325L149.005 232.482ZM145.892 228.747L144.643 224.411L144.453 224.47L145.709 228.8L145.892 228.747ZM143.217 224.823L144.466 229.212L144.656 229.159L143.42 224.81L143.217 224.823ZM138.914 224.568L138.652 229.068H138.842L139.104 224.562L138.914 224.568ZM139.934 229.146H140.13L140.392 224.64H140.196L139.934 229.146ZM147.344 255.509L147.187 255.391L144.447 258.975L144.597 259.093L147.344 255.509ZM148.364 256.294L148.214 256.176L145.467 259.76L145.624 259.878L148.364 256.294ZM139.045 255.104L142.171 258.374L142.315 258.236L139.189 254.966L139.045 255.104ZM138.142 256.026L141.268 259.296L141.406 259.165L138.286 255.895L138.142 256.026ZM170.986 230.906L170.836 230.788L167.997 234.293L168.148 234.418L170.986 230.906ZM169.835 229.977L166.997 233.482L167.147 233.607L169.979 230.095L169.835 229.977ZM170.626 223.326H170.437L169.927 227.806H170.123L170.626 223.326ZM169.155 223.156L168.651 227.642H168.841L169.345 223.162L169.155 223.156ZM159.417 251.997L155.264 250.238L155.186 250.414L159.338 252.174L159.417 251.997ZM155.689 249.224L159.842 250.983L159.92 250.807L155.768 249.048L155.689 249.224ZM134.441 224.431L134.532 224.261L132.309 223.064V223.286L134.441 224.431ZM132.309 221.815L135.049 223.286L135.14 223.116L132.302 221.58L132.309 221.815ZM134.022 228.623L133.891 228.479L132.302 229.866V230.121L134.022 228.623ZM133.178 227.649L133.048 227.498L132.309 228.152V228.407L133.178 227.649ZM136.298 233.77L132.309 235.333V235.536L136.37 233.947L136.298 233.77ZM135.899 232.75L135.834 232.567L132.302 233.934V234.143L135.899 232.75ZM134.709 242.135L134.748 241.945L132.309 241.396V241.592L134.709 242.135ZM132.302 240.258L134.983 240.866L135.029 240.676L132.302 240.062V240.258ZM134.702 256.026L134.748 255.843L132.309 255.221V255.424L134.702 256.026ZM132.302 254.064L135.01 254.757L135.062 254.567L132.302 253.874V254.064ZM135.33 259.904L135.265 259.721L132.302 260.702V260.911L135.33 259.904ZM134.925 258.681L134.859 258.498L132.302 259.348V259.551L134.925 258.681ZM172.15 220.873L172.314 220.965L173.707 218.532H173.504L172.15 220.873ZM173.269 221.527L173.432 221.619L175.198 218.545H174.976L173.269 221.527ZM168.109 220.219L166.729 218.532H166.48L167.958 220.337L168.109 220.219ZM168.959 219.526L169.109 219.402L168.396 218.532H168.148L168.959 219.526ZM162.759 222.482L161.333 218.558H161.124L162.576 222.574L162.759 222.482ZM163.786 222.109L163.969 222.044L162.7 218.532H162.497L163.786 222.109ZM154.433 220.664L154.623 220.71L155.179 218.532H154.976L154.433 220.664ZM155.683 220.984L155.872 221.03L156.526 218.532H156.323L155.683 220.984ZM140.739 220.33L141.249 218.519H141.046L140.549 220.278L140.739 220.33ZM142.589 218.519H142.387L141.792 220.625L141.981 220.684L142.589 218.519ZM136.638 220.801L136.821 220.749L136.167 218.519H135.964L136.638 220.801ZM138.057 220.376L137.495 218.519H137.299L137.868 220.435L138.057 220.376ZM176.951 268.478L176.859 268.648L178.697 269.642V269.42L176.951 268.478ZM177.559 267.346L177.467 267.517L178.697 268.171V267.955L177.559 267.346ZM178.736 276.483V276.234L176.911 277.81L177.036 277.954L178.736 276.483ZM178.736 274.782V274.527L176.068 276.836L176.192 276.98L178.736 274.782ZM178.533 281.793L178.599 281.976L178.736 281.924V281.715L178.533 281.793ZM178.062 280.597L178.128 280.78L178.736 280.538V280.328L178.062 280.597ZM176.754 287.339L176.709 287.529L178.71 287.98V287.777L176.754 287.339ZM178.716 286.456L177.042 286.077L177.003 286.267L178.716 286.659V286.456ZM152.184 267.222L148.031 265.463L147.959 265.64L152.112 267.399L152.184 267.222ZM147.455 266.823L151.608 268.589L151.68 268.406L147.527 266.647L147.455 266.823ZM160.633 271.133L163.485 274.626L163.635 274.501L160.777 271.015L160.633 271.133ZM162.641 275.319L159.77 271.833L159.62 271.951L162.478 275.443L162.641 275.319ZM157.285 277.608L155.755 273.363L155.571 273.429L157.102 277.673L157.285 277.608ZM158.495 277.17L156.964 272.925L156.788 272.991L158.318 277.235L158.495 277.17ZM155.879 282.081L155.715 281.983L153.472 285.907L153.636 286.005L155.879 282.081ZM154.76 281.427L154.59 281.336L152.354 285.26L152.517 285.358L154.76 281.427ZM147.141 284.991L144.316 281.532L144.166 281.649L147.024 285.142L147.141 284.991ZM148.135 284.174L145.284 280.688L145.134 280.806L147.985 284.298L148.135 284.174ZM140.824 286.934L139.287 282.696L139.11 282.761L140.641 286.999L140.824 286.934ZM142.034 286.496L140.503 282.258L140.32 282.323L141.85 286.561L142.034 286.496ZM172.772 281.44L172.582 281.394L171.47 285.763L171.66 285.809L172.772 281.44ZM174.021 281.754L173.831 281.708L172.719 286.084L172.909 286.129L174.021 281.754ZM166.716 285.456L162.563 283.696L162.491 283.873L166.644 285.632L166.716 285.456ZM167.219 284.265L163.04 282.474L162.968 282.65L167.121 284.416L167.219 284.265ZM145.284 287.869L145.101 288.523H145.304L145.467 287.947L145.284 287.869ZM144.224 287.568L144.041 287.516L143.76 288.497H143.963L144.224 287.568ZM159.214 285.763L160.038 288.497H160.241L159.404 285.704L159.214 285.763ZM158.168 286.077L157.985 286.129L158.691 288.497H158.894L158.168 286.077ZM151.831 275.201L151.713 275.051L148.109 277.765L148.227 277.922L151.831 275.201ZM152.602 276.234L152.491 276.077L148.888 278.791L149.005 278.948L152.602 276.234ZM145.709 275.273L145.892 275.214L144.643 270.885L144.453 270.937L145.709 275.273ZM144.656 275.574L143.42 271.212L143.237 271.264L144.486 275.593L144.656 275.574ZM138.842 275.574L139.104 271.074H138.914L138.652 275.58L138.842 275.574ZM140.15 275.652L140.412 271.146H140.215L139.954 275.646L140.15 275.652ZM171.006 277.34L170.855 277.215L168.017 280.721L168.167 280.845L171.006 277.34ZM169.855 276.404L167.016 279.91L167.167 280.034L169.999 276.529L169.855 276.404ZM170.646 269.76H170.456L169.946 274.24H170.142L170.646 269.76ZM169.175 269.596L168.671 274.076H168.861L169.364 269.59L169.175 269.596ZM134.46 270.865L134.552 270.695L132.328 269.498V269.721L134.46 270.865ZM135.16 269.557L132.302 267.981V268.197L135.042 269.675L135.16 269.557ZM134.022 274.992L133.891 274.841L132.302 276.228V276.483L134.022 274.992ZM133.178 274.011L133.048 273.867L132.309 274.521V274.776L133.178 274.011ZM136.298 280.132L132.309 281.695V281.905L136.37 280.309L136.298 280.132ZM132.309 280.518L135.899 279.112L135.834 278.935L132.309 280.309V280.518ZM132.309 287.758V287.961L134.473 288.445H134.715L134.748 288.314L132.309 287.758ZM134.99 287.241L135.036 287.052L132.309 286.437V286.639L134.99 287.241ZM172.32 267.353L173.713 264.92H173.504L172.196 267.255L172.32 267.353ZM174.982 264.92L173.275 267.896L173.439 267.994L175.204 264.92H174.982ZM167.965 266.725L168.115 266.601L166.735 264.92H166.487L167.965 266.725ZM168.965 265.908L169.116 265.783L168.403 264.92H168.154L168.965 265.908ZM162.765 268.864L161.34 264.94H161.13L162.582 268.949L162.765 268.864ZM163.792 268.498L163.975 268.426L162.707 264.92H162.504L163.792 268.498ZM154.636 267.098L155.192 264.92H154.989L154.447 267.052L154.636 267.098ZM155.696 267.366L155.885 267.412L156.539 264.92H156.337L155.696 267.366ZM140.752 266.712L141.262 264.907H141.059L140.562 266.66L140.752 266.712ZM142.4 264.907L141.805 267.013L141.994 267.065L142.603 264.907H142.4ZM136.651 267.19L136.834 267.131L136.18 264.907H135.978L136.651 267.19ZM137.881 266.817L138.07 266.764L137.508 264.907H137.312L137.881 266.817ZM130.34 208.5L132.302 209.003V208.807L130.373 208.316L130.34 208.5ZM130.706 207.067L130.661 207.25L132.322 207.676V207.473L130.706 207.067ZM132.302 214.51V214.307L130.994 214.745L131.059 214.928L132.302 214.51ZM130.589 213.516L130.647 213.699L132.309 213.149V212.947L130.589 213.516ZM127.07 218.538H127.292L128.143 217.06L127.973 216.962L127.07 218.538ZM128.555 218.538H128.777L129.261 217.701L129.091 217.603L128.555 218.538ZM118.836 216.733L118.686 216.858L120.066 218.538H120.314L118.836 216.733ZM119.686 216.04L121.727 218.538H121.982L119.837 215.922L119.686 216.04ZM114.808 218.244L114.624 218.31L114.709 218.538H114.912L114.808 218.244ZM115.841 217.871L116.076 218.525H116.286L116.024 217.793L115.841 217.871ZM108.758 218.525L109.314 216.334L109.131 216.289L108.562 218.525H108.758ZM110.38 216.603L109.889 218.525H110.092L110.563 216.655L110.38 216.603ZM94.8344 218.525L95.5472 215.994L95.3641 215.942L94.6316 218.525H94.8344ZM96.7964 216.348L96.6067 216.295L95.9527 218.525H96.1555L96.7964 216.348ZM122.159 209.886L126.311 211.645L126.39 211.469L122.237 209.709L122.159 209.886ZM121.655 211.07L125.827 212.862L125.906 212.685L121.753 210.9L121.655 211.07ZM125.154 204.294L125.343 204.347L126.566 200.011L126.383 199.952L125.154 204.294ZM126.396 204.647L126.58 204.7L127.809 200.357L127.626 200.305L126.396 204.647ZM119.693 196.577L121.001 200.894L121.184 200.841L119.876 196.512L119.693 196.577ZM120.929 196.204L122.237 200.521L122.42 200.468L121.112 196.152L120.929 196.204ZM105.194 210.429L106.502 214.752L106.685 214.693L105.377 210.377L105.194 210.429ZM107.914 214.353L106.606 210.036L106.423 210.089L107.731 214.412L107.914 214.353ZM113.016 211.855L117.482 211.201V211.011L113.016 211.665V211.855ZM113.166 212.94V213.13L117.633 212.476V212.286L113.166 212.94ZM117.652 203.281L117.463 203.235L116.462 207.63L116.645 207.676L117.652 203.281ZM118.725 203.523L117.718 207.917L117.901 207.963L118.908 203.568L118.725 203.523ZM102.872 205.092L103.036 205.197L105.449 201.384L105.285 201.286L102.872 205.092ZM103.964 205.785L104.128 205.89L106.541 202.077L106.377 201.973L103.964 205.785ZM114.284 197.198L113.866 195.805H113.67L114.101 197.225L114.284 197.198ZM112.865 197.624L113.048 197.571L112.584 196.015L112.394 196.054L112.865 197.624ZM98.0586 212.574L98.209 212.692L100.949 209.114L100.799 208.997L98.0586 212.574ZM101.983 209.893L101.826 209.775L99.0854 213.359L99.2423 213.476L101.983 209.893ZM108.85 203.817L108.778 203.993L112.931 205.759L113.003 205.576L108.85 203.817ZM109.281 202.81L113.434 204.569L113.506 204.392L109.353 202.633L109.281 202.81ZM88.5102 244.371L86.8621 248.57L87.0387 248.642L88.6868 244.443L88.5102 244.371ZM89.707 244.842L88.059 249.041L88.2355 249.113L89.8901 244.914L89.707 244.842ZM130.451 222.273L132.296 223.267V223.045L130.543 222.103L130.451 222.273ZM131.158 220.965L131.066 221.128L132.296 221.782V221.56L131.158 220.965ZM132.302 229.866L130.471 231.448L130.602 231.592L132.302 230.121V229.866ZM129.758 230.618L132.302 228.42V228.165L129.634 230.467L129.758 230.618ZM132.093 235.431L132.165 235.614L132.302 235.556V235.353L132.093 235.431ZM132.302 233.966L131.648 234.234L131.72 234.411L132.328 234.176L132.302 233.966ZM132.302 241.415L130.34 240.971L130.301 241.16L132.302 241.612V241.415ZM130.628 239.715L130.582 239.905L132.302 240.291V240.094L130.628 239.715ZM132.302 255.202L130.373 254.711L130.32 254.901L132.282 255.404L132.302 255.202ZM130.687 253.462L130.641 253.652L132.302 254.064V253.868L130.687 253.462ZM132.302 260.911V260.702L130.994 261.14L131.059 261.323L132.302 260.911ZM132.302 259.551V259.348L130.582 259.917L130.641 260.1L132.302 259.551ZM101.564 219.238L105.717 221.004L105.795 220.827L101.643 219.062L101.564 219.238ZM101.06 220.429L105.213 222.188L105.292 222.011L101.139 220.252L101.06 220.429ZM128.175 263.455L128.005 263.364L127.07 264.94H127.292L128.175 263.455ZM129.294 264.109L129.124 264.011L128.587 264.953H128.81L129.294 264.109ZM118.718 263.266L120.098 264.953H120.347L118.869 263.141L118.718 263.266ZM119.719 262.448L121.76 264.953H122.015L119.87 262.337L119.719 262.448ZM114.84 264.659L114.657 264.724L114.742 264.953H114.945L114.84 264.659ZM115.874 264.286L116.109 264.94H116.318L116.057 264.207L115.874 264.286ZM108.595 264.94H108.791L109.347 262.749L109.164 262.697L108.595 264.94ZM110.413 263.017L109.922 264.94H110.125L110.596 263.063L110.413 263.017ZM89.138 262.847L88.9549 262.899L89.3146 264.09L89.4716 263.946L89.138 262.847ZM90.3741 262.474L90.1845 262.533L90.361 263.095L90.5115 262.945L90.3741 262.474ZM97.8886 248.956L97.7185 248.864L95.4753 252.788L95.6453 252.887L97.8886 248.956ZM96.7637 253.534L99.0069 249.61L98.8369 249.512L96.5936 253.436L96.7637 253.534ZM117.26 228.106L114.382 224.634L114.232 224.758L117.09 228.25L117.26 228.106ZM116.259 228.924L113.401 225.432L113.258 225.556L116.109 229.048L116.259 228.924ZM109.196 227.014L110.727 231.252L110.91 231.187L109.379 226.949L109.196 227.014ZM110.406 226.576L111.936 230.814L112.12 230.749L110.589 226.511L110.406 226.576ZM126.416 257.877L122.263 256.117L122.185 256.294L126.338 258.053L126.416 257.877ZM125.912 259.067L121.76 257.301L121.681 257.484L125.834 259.243L125.912 259.067ZM126.41 246.366L125.18 250.709L125.37 250.761L126.593 246.418L126.41 246.366ZM127.835 246.772L127.652 246.719L126.416 251.055L126.599 251.108L127.835 246.772ZM121.184 247.236L119.876 242.92L119.693 242.972L121.001 247.295L121.184 247.236ZM122.42 246.863L121.112 242.547L120.929 242.599L122.237 246.922L122.42 246.863ZM109.34 235.569L107.097 239.493L107.267 239.584L109.51 235.66L109.34 235.569ZM108.222 234.915L105.979 238.839L106.149 238.93L108.392 235.006L108.222 234.915ZM97.7578 235.209L100.616 238.701L100.76 238.577L97.9213 235.098L97.7578 235.209ZM98.7518 234.391L101.61 237.884L101.76 237.76L98.948 234.28L98.7518 234.391ZM92.7285 236.353L94.2589 240.598L94.442 240.532L92.9116 236.288L92.7285 236.353ZM93.945 235.915L95.4753 240.16L95.6519 240.094L94.1215 235.85L93.945 235.915ZM125.108 239.362L125.298 239.408L126.403 235.039L126.22 234.987L125.108 239.362ZM127.659 235.353L127.469 235.307L126.357 239.676L126.547 239.722L127.659 235.353ZM120.321 239.022L116.168 237.262L116.089 237.439L120.242 239.205L120.321 239.022ZM120.824 237.838L116.671 236.079L116.593 236.255L120.746 238.015L120.824 237.838ZM106.436 256.457L107.744 260.774L107.927 260.721L106.619 256.399L106.436 256.457ZM117.489 257.589V257.399L113.022 258.053V258.243L117.489 257.589ZM117.666 258.864V258.674L113.199 259.328V259.518L117.666 258.864ZM116.645 254.064L117.652 249.669L117.463 249.623L116.462 254.025L116.645 254.064ZM117.901 254.352L118.908 249.957L118.725 249.911L117.718 254.312L117.901 254.352ZM105.305 247.707L103.605 250.395L103.676 250.643L105.488 247.785L105.305 247.707ZM106.397 248.394L104.095 252.03L104.167 252.272L106.561 248.498L106.397 248.394ZM102.29 243.933L102.368 244.11L106.502 242.305L106.423 242.128L102.29 243.933ZM107.018 243.489L106.94 243.312L102.807 245.117L102.879 245.294L107.018 243.489ZM99.0723 241.527L98.8826 241.468L97.64 245.778L97.8232 245.83L99.0723 241.527ZM96.6002 245.516L97.8297 241.173L97.6466 241.121L96.4171 245.464L96.6002 245.516ZM114.304 243.6L112.996 239.283L112.813 239.336L114.121 243.659L114.304 243.6ZM111.583 239.676L112.891 243.992L113.074 243.94L111.766 239.623L111.583 239.676ZM105.311 228.558L101.714 231.278L101.832 231.429L105.429 228.715L105.311 228.558ZM102.486 232.305L102.604 232.462L106.207 229.741L106.09 229.591L102.486 232.305ZM98.0586 224.457L99.3078 228.787L99.4974 228.734L98.2417 224.398L98.0586 224.457ZM96.8225 224.81L98.0717 229.146L98.2548 229.094L96.986 224.81H96.8225ZM92.2445 229.055H92.4408L92.7023 224.549H92.5061L92.2445 229.055ZM93.9842 224.64H93.7945L93.5329 229.146H93.7226L93.9842 224.64ZM95.5669 257.792L92.807 254.92L92.6696 255.051L95.4361 257.929L95.5669 257.792ZM91.8783 255.83L91.754 256.026L94.5532 258.936L94.684 258.799L91.8783 255.83ZM124.578 230.847L124.428 230.729L121.596 234.234L121.746 234.359L124.578 230.847ZM123.427 229.918L120.589 233.424L120.739 233.548L123.578 230.036L123.427 229.918ZM124.232 223.326H124.035L123.532 227.806H123.722L124.232 223.326ZM122.754 223.156L122.25 227.642H122.446L122.95 223.162L122.754 223.156ZM113.016 251.997L108.863 250.238L108.791 250.414L112.944 252.174L113.016 251.997ZM113.519 250.807L109.366 249.048L109.294 249.224L113.447 250.983L113.519 250.807ZM87.6208 228.63L87.4965 228.486L87.3461 228.617L87.0191 229.153L87.6208 228.63ZM89.9032 233.777L85.9138 235.34V235.542L89.9752 233.953L89.9032 233.777ZM89.5043 232.756L89.4323 232.573L85.9138 233.953V234.163L89.5043 232.756ZM88.3075 242.141L88.3532 241.952L85.9138 241.402V241.598L88.3075 242.141ZM88.5952 240.886L88.6345 240.696L85.9138 240.081V240.277L88.5952 240.886ZM88.3009 256.026L88.3532 255.843L85.9138 255.221V255.424L88.3009 256.026ZM85.9138 254.064L88.6214 254.757L88.6672 254.567L85.9138 253.868V254.064ZM88.9353 259.904L88.8764 259.721L85.9138 260.695V260.905L88.9353 259.904ZM88.5298 258.681L88.471 258.498L85.9138 259.342V259.544L88.5298 258.681ZM125.762 220.88L125.932 220.971L127.325 218.538H127.07L125.762 220.88ZM126.88 221.534L127.05 221.625L128.81 218.552H128.587L126.88 221.534ZM121.727 220.226L120.347 218.538H120.098L121.576 220.343L121.727 220.226ZM122.571 219.533L122.721 219.408L122.015 218.538H121.76L122.571 219.533ZM116.371 222.489L114.945 218.565H114.742L116.187 222.58L116.371 222.489ZM117.404 222.116L117.587 222.05L116.318 218.538H116.109L117.404 222.116ZM108.052 220.67L108.241 220.716L108.791 218.538H108.595L108.052 220.67ZM109.301 220.991L109.484 221.037L110.138 218.538H109.935L109.301 220.991ZM94.1673 220.298L94.357 220.35L94.8671 218.538H94.6643L94.1673 220.298ZM96.2078 218.538H96.005L95.4099 220.644L95.593 220.703L96.2078 218.538ZM130.471 268.668L132.315 269.662V269.439L130.562 268.498L130.471 268.668ZM131.177 267.36L131.086 267.53L132.315 268.184V267.968L131.177 267.36ZM132.302 276.483V276.228L130.471 277.81L130.602 277.954L132.302 276.483ZM132.302 274.782V274.527L129.634 276.836L129.758 276.98L132.302 274.782ZM132.093 281.793L132.165 281.976L132.302 281.924V281.715L132.093 281.793ZM131.622 280.597L131.694 280.78L132.302 280.538V280.328L131.622 280.597ZM130.314 287.339L130.275 287.529L132.276 287.98V287.777L130.314 287.339ZM132.276 286.456L130.602 286.077L130.556 286.267L132.276 286.659V286.456ZM114.232 271.133L117.09 274.626L117.24 274.501L114.382 271.015L114.232 271.133ZM116.24 275.319L113.382 271.833L113.238 271.951L116.089 275.443L116.24 275.319ZM110.89 277.608L109.582 273.958L109.491 274.279L110.714 277.673L110.89 277.608ZM112.1 277.17L110.57 272.925L110.387 272.991L111.917 277.235L112.1 277.17ZM109.484 282.081L109.314 281.983L107.071 285.907L107.241 286.005L109.484 282.081ZM108.176 281.349L106.796 283.821L106.58 284.586L108.392 281.421L108.176 281.349ZM126.364 281.453L126.181 281.407L125.069 285.776L125.258 285.822L126.364 281.453ZM127.619 281.767L127.43 281.721L126.318 286.097L126.508 286.142L127.619 281.767ZM120.321 285.456L116.168 283.696L116.089 283.873L120.242 285.632L120.321 285.456ZM120.824 284.265L116.671 282.506L116.593 282.683L120.746 284.449L120.824 284.265ZM112.819 285.763L113.643 288.497H113.846L113.003 285.704L112.819 285.763ZM111.773 286.077L111.583 286.129L112.296 288.497H112.499L111.773 286.077ZM124.585 277.313L124.434 277.189L121.603 280.695L121.753 280.819L124.585 277.313ZM123.434 276.378L120.595 279.884L120.746 280.008L123.584 276.502L123.434 276.378ZM124.232 269.734H124.035L123.532 274.213H123.722L124.232 269.734ZM122.754 269.57L122.25 274.05H122.446L122.95 269.564L122.754 269.57ZM125.926 267.405L127.319 264.972H127.07L125.762 267.307L125.926 267.405ZM128.581 264.972L126.874 267.948L127.044 268.046L128.803 264.972H128.581ZM121.57 266.778L121.72 266.653L120.34 264.972H120.092L121.57 266.778ZM122.564 265.96L122.714 265.836L122.008 264.972H121.753L122.564 265.96ZM116.364 268.916L114.938 264.992H114.736L116.181 269.001L116.364 268.916ZM117.397 268.55L117.581 268.478L116.312 264.972H116.102L117.397 268.55ZM108.307 266.058L108.418 266.418L108.784 264.972H108.588L108.307 266.058ZM109.294 267.418L109.477 267.464L110.131 264.972H109.929L109.294 267.418ZM85.7045 235.431L85.7765 235.614L85.9138 235.556V235.353L85.7045 235.431ZM85.9138 233.966L85.2598 234.234L85.3318 234.411L85.94 234.176L85.9138 233.966ZM83.906 241.16L85.9138 241.612V241.415L83.9518 240.971L83.906 241.16ZM84.1938 239.905L85.9138 240.291V240.094L84.233 239.676L84.1938 239.905ZM85.9138 255.234L83.9518 254.744L83.906 254.934L85.868 255.437L85.9138 255.234ZM84.2985 253.495L84.2527 253.684L85.9138 254.103V253.907L84.2985 253.495ZM85.9138 260.944V260.735L84.6058 261.173L84.6647 261.356L85.9138 260.944ZM85.9138 259.584V259.381L84.1873 259.95L84.2461 260.133L85.9138 259.584ZM81.7675 263.507L81.604 263.416L80.7015 264.992H80.9238L81.7675 263.507ZM82.8858 264.162L82.7223 264.063L82.186 265.005H82.4084L82.8858 264.162ZM72.3172 263.318L73.6906 265.005H73.9456L72.4676 263.194L72.3172 263.318ZM73.3112 262.5L75.3583 265.005H75.6068L73.4617 262.389L73.3112 262.5ZM69.6488 264.273L69.4657 264.338L69.7077 264.992H69.917L69.6488 264.273ZM66.8366 225.621L67.4906 226.458L66.8366 225.589V225.621ZM62.7753 227.08L64.3122 231.318L64.4888 231.252L62.978 226.949L62.7753 227.08ZM63.9917 226.642L65.5221 230.879L65.7052 230.814L64.1749 226.576L63.9917 226.642ZM79.982 257.877L75.8291 256.117L75.7572 256.294L79.9101 258.053L79.982 257.877ZM79.4785 259.067L75.3321 257.301L75.2536 257.484L79.4065 259.243L79.4785 259.067ZM79.982 246.366L78.7525 250.709L78.9356 250.761L80.1652 246.418L79.982 246.366ZM81.4078 246.772L81.2181 246.719L79.9951 251.055L80.1782 251.108L81.4078 246.772ZM74.7566 247.236L73.4486 242.92L73.2655 242.972L74.5735 247.295L74.7566 247.236ZM75.9861 246.863L74.6781 242.547L74.495 242.599L75.803 246.922L75.9861 246.863ZM63.0892 235.667L62.9257 235.569L60.6825 239.493L60.8525 239.584L63.0892 235.667ZM61.9709 235.013L61.8074 234.915L59.5642 238.839L59.7342 238.93L61.9709 235.013ZM73.9195 239.022L69.7666 237.262L69.6946 237.439L73.8475 239.205L73.9195 239.022ZM74.423 237.838L70.2701 236.079L70.1982 236.255L74.3511 238.015L74.423 237.838ZM66.6143 258.217L71.0811 257.563V257.373L66.6143 258.027V258.217ZM66.7974 259.492L71.2642 258.838V258.648L66.7974 259.302V259.492ZM70.0674 253.998L70.2571 254.038L71.2642 249.643L71.0746 249.597L70.0674 253.998ZM72.3302 249.885L71.3231 254.286L71.5127 254.325L72.5199 249.93L72.3302 249.885ZM60.035 242.102L58.315 242.854L58.3804 243.037L60.1135 242.279L60.035 242.102ZM60.5452 243.286L58.7336 244.077L58.799 244.26L60.6236 243.462L60.5452 243.286ZM66.4312 239.362L67.7392 243.685L67.9288 243.626L66.6208 239.309L66.4312 239.362ZM65.1951 239.735L66.5031 244.051L66.6928 243.999L65.3848 239.682L65.1951 239.735ZM55.3197 231.37L55.4374 231.52L59.041 228.806L58.9232 228.649L55.3197 231.37ZM59.8192 229.833L59.7015 229.683L56.098 232.397L56.2157 232.554L59.8192 229.833ZM66.6274 252.01L62.4745 250.251L62.396 250.428L66.5489 252.187L66.6274 252.01ZM62.8996 249.237L67.0525 250.996L67.1309 250.82L62.978 249.028L62.8996 249.237ZM84.1676 268.53L84.0761 268.7L84.2396 268.569L84.1676 268.53ZM84.7759 267.399L84.6843 267.569L85.1617 267.824L85.3187 267.687L84.7759 267.399ZM77.366 272.121H77.5622L77.8304 269.701H77.6407L77.366 272.121ZM76.058 271.898L76.2477 271.957L76.5158 269.557H76.3262L76.058 271.898ZM80.8911 264.94H80.6687L79.3607 267.275L79.5242 267.373L80.8911 264.94ZM82.3757 264.94H82.1533L80.4464 267.915L80.6164 268.014L82.3757 264.94ZM75.1424 266.745L75.2863 266.621L73.9129 264.94H73.6579L75.1424 266.745ZM76.1365 265.927L76.2869 265.803L75.5741 264.94H75.3256L76.1365 265.927ZM69.675 264.94L70.6102 267.556L70.9699 267.974L69.8843 264.966L69.675 264.94Z" fill="white"/>
<path d="M123.905 195.858C123.905 195.858 113.284 194.38 108.379 197.552C103.474 200.724 79.2365 242.148 79.2365 242.148L65.8491 224.13L54.2406 229.343C54.2406 229.343 59.6819 250.401 66.0126 260.879C72.3433 271.356 75.9534 272.415 78.1247 272.068C84.5862 271.042 103.304 249.388 103.304 249.388L110.105 272.016L105.488 288.464H191.489L181.058 271.068C181.058 271.068 194.668 208.284 191.201 201.633C187.735 194.981 167.54 195.858 161.189 195.858H143.008C140.253 196.404 137.452 196.693 134.643 196.721C131.051 196.617 127.467 196.328 123.905 195.858V195.858Z" stroke="#263238" stroke-width="0.985332"/>
<path d="M103.31 249.388C100.82 244.413 99.8536 238.814 100.531 233.293C101.793 224.483 107.247 214.837 107.247 214.837C107.247 214.837 96.3647 230.533 96.3647 235.765C96.3647 240.997 99.602 248.649 99.602 248.649L96.7768 256.713L103.31 249.388Z" fill="#263238" stroke="#263238" stroke-width="0.985332" stroke-linecap="round" stroke-linejoin="round"/>
<path d="M132.91 187.179L133.198 196.414L125.409 196.701C125.409 196.701 123.8 230.585 130.732 236.648C137.665 242.71 158.593 195.858 158.593 195.858L151.399 194.412L149.09 175.656L132.91 187.179Z" fill="#CFCFCF" stroke="#263238" stroke-width="0.985332" stroke-linecap="round" stroke-linejoin="round"/>
<path d="M149.921 179.318L133.263 195.014V189.462L149.921 179.318Z" fill="#263238" stroke="#263238" stroke-width="0.985332" stroke-linecap="round" stroke-linejoin="round"/>
<path d="M130.732 236.648C130.732 236.648 131.57 231.194 135.762 224.065L130.732 236.648Z" fill="white"/>
<path d="M130.732 236.648C130.732 236.648 131.57 231.194 135.762 224.065" stroke="#263238" stroke-width="0.985332" stroke-linecap="round" stroke-linejoin="round"/>
<path d="M129.555 135.108L110.589 154.826C112.079 159.022 112.802 163.453 112.721 167.906C112.499 174.89 118.849 185.165 124.042 189.939C129.235 194.713 139.83 187.375 143.786 184.786C146.429 182.995 148.893 180.954 151.144 178.69C152.587 178.628 153.991 178.2 155.224 177.447C156.457 176.695 157.479 175.642 158.194 174.387C158.194 174.387 130.634 144.937 129.555 135.108Z" fill="#CFCFCF" stroke="#263238" stroke-width="0.985332" stroke-linecap="round" stroke-linejoin="round"/>
<path d="M124.415 155.356C125.07 156.692 125.495 158.129 125.67 159.607C125.729 161.431 122.531 169.979 122.989 170.548C123.447 171.117 124.879 173.001 125.997 172.759" stroke="#263238" stroke-width="0.985332" stroke-linecap="round" stroke-linejoin="round"/>
<path d="M132.302 164.701C134.974 163.7 137.913 163.665 140.608 164.603" stroke="#263238" stroke-width="0.492666" stroke-linecap="round" stroke-linejoin="round"/>
<path d="M117.541 165.381C118.97 164.98 120.446 164.773 121.93 164.767" stroke="#263238" stroke-width="0.492666" stroke-linecap="round" stroke-linejoin="round"/>
<path d="M122.021 150.523C121.288 150.468 120.553 150.584 119.872 150.861C119.192 151.138 118.584 151.568 118.097 152.118C116.456 154.008 115.658 155.656 115.246 154.322C114.834 152.988 116.665 150.536 117.312 150.039C117.96 149.542 120.994 147.593 122.021 150.523Z" fill="#263238"/>
<path d="M130.137 149.424C132.061 149.417 133.959 149.865 135.677 150.732C138.182 152.105 136.985 149.319 135.225 148.521C133.466 147.723 130.419 147.802 130.137 149.424Z" fill="#263238"/>
<path d="M159.175 182.222C159.293 184.184 158.279 185.819 156.925 185.897C155.571 185.976 154.375 184.459 154.257 182.51C154.139 180.561 154.957 175.532 156.31 175.453C157.664 175.375 159.064 180.267 159.175 182.222Z" fill="#CB202D" stroke="#263238" stroke-width="0.985332" stroke-linecap="round" stroke-linejoin="round"/>
<path d="M121.243 161.85C121.334 163.158 120.837 164.217 120.138 164.263C119.438 164.309 118.83 163.308 118.718 162.027C118.607 160.745 119.124 159.659 119.824 159.613C120.523 159.568 121.184 160.594 121.243 161.85Z" fill="#263238"/>
<path d="M135.356 161.346C135.448 162.654 134.951 163.707 134.257 163.76C133.564 163.812 132.949 162.805 132.832 161.516C132.714 160.228 133.244 159.155 133.937 159.11C134.63 159.064 135.271 160.065 135.356 161.346Z" fill="#263238"/>
<path d="M125.906 176.48C125.906 176.48 129.235 177.546 133.754 173.681" stroke="#263238" stroke-width="0.985332" stroke-linecap="round" stroke-linejoin="round"/>
<path d="M65.8491 224.143L59.7603 215.988C59.4791 213.817 58.9363 209.33 58.8447 206.302C58.7205 202.182 58.9232 199.664 56.5819 196.008C54.2406 192.352 47.7071 186.578 47.0924 185.237C46.4776 183.896 44.6987 187.676 45.8171 190.129C46.9354 192.581 47.9556 193.333 47.9556 193.333C47.9556 193.333 35.9286 187.356 35.5296 188.33C35.1307 189.305 41.1279 206.538 43.8747 211.083C45.0192 212.98 48.1911 215.517 49.7214 217.715C50.4699 218.799 51.1117 219.953 51.6377 221.161C53.0634 227.224 54.7245 233.894 55.5617 234.136C57.4648 234.692 65.5417 234.823 65.8491 224.143Z" fill="#CFCFCF" stroke="#263238" stroke-width="0.985332" stroke-miterlimit="10"/>
<path d="M48.7535 205.406C48.6436 205.436 48.5289 205.444 48.416 205.429C48.3032 205.414 48.1943 205.377 48.0959 205.319C47.9974 205.262 47.9112 205.186 47.8422 205.096C47.7733 205.005 47.7229 204.902 47.6941 204.792L38.126 169.417C38.0749 169.203 38.1073 168.977 38.2167 168.787C38.3261 168.596 38.5042 168.454 38.7146 168.39C38.9357 168.332 39.1708 168.363 39.3691 168.477C39.5674 168.591 39.7129 168.778 39.7741 168.998L49.3683 204.36C49.4224 204.58 49.3884 204.813 49.2736 205.008C49.1587 205.204 48.9721 205.346 48.7535 205.406Z" fill="#263238" stroke="#263238" stroke-width="0.985332" stroke-miterlimit="10"/>
<path d="M41.8538 182.902C41.8538 182.902 32.6194 187.781 33.1883 188.736C33.7573 189.691 35.4446 193.098 36.2164 193.019C36.9881 192.941 42.5929 188.363 42.9983 187.787C43.4038 187.212 41.8538 182.902 41.8538 182.902Z" fill="#CFCFCF" stroke="#263238" stroke-width="0.985332" stroke-miterlimit="10"/>
<path d="M43.5019 188.893C43.5019 188.893 35.8305 194.55 36.079 195.374C36.3276 196.198 40.0881 205.949 40.7421 206.74C41.3961 207.532 47.3998 204.778 47.3998 204.778L43.5019 188.893Z" fill="#CFCFCF" stroke="#263238" stroke-width="0.985332" stroke-miterlimit="10"/>
<path d="M44.666 194.151C44.666 194.151 37.3216 199.919 37.8056 200.102" stroke="#263238" stroke-width="0.985332" stroke-miterlimit="10"/>
<path d="M46.0525 200.403L39.8788 204.02" stroke="#263238" stroke-width="0.985332" stroke-miterlimit="10"/>
<path d="M47.936 193.333L51.3238 196.643C51.3238 196.643 46.8242 206.25 51.1341 211.554" stroke="#263238" stroke-width="0.985332" stroke-miterlimit="10"/>
<path d="M181.607 197.905C181.607 197.905 189.828 196.832 193.379 203.627C196.93 210.422 219.121 270.479 219.48 276.221C219.84 281.963 204.818 283.369 199.814 280.871C194.811 278.373 180.848 248.694 179.436 244.757" fill="#CB202D"/>
<path d="M184.221 239.492L183.002 243.824L183.191 243.877L184.409 239.545L184.221 239.492Z" fill="white"/>
<path d="M187.061 227.276L185.812 222.94L185.623 222.999L186.878 227.328L187.061 227.276Z" fill="white"/>
<path d="M186.45 239.922L185.218 244.263L185.407 244.316L186.639 239.975L186.45 239.922Z" fill="white"/>
<path d="M188.343 237.08L185.485 233.587L185.335 233.711L188.193 237.197L188.343 237.08Z" fill="white"/>
<path d="M194.512 241.759L190.376 243.563L190.454 243.743L194.59 241.938L194.512 241.759Z" fill="white"/>
<path d="M194.125 246.961L193.961 246.857L191.548 250.67L191.711 250.774L194.125 246.961Z" fill="white"/>
<path d="M184.387 223.352L185.636 227.688L185.825 227.629L184.57 223.3L184.387 223.352Z" fill="white"/>
<path d="M190.456 249.976L190.619 250.081L193.033 246.275L192.869 246.17L190.456 249.976Z" fill="white"/>
<path d="M189.337 236.262L186.486 232.77L186.336 232.894L189.187 236.38L189.337 236.262Z" fill="white"/>
<path d="M193.663 228.122L190.055 230.833L190.173 230.99L193.781 228.279L193.663 228.122Z" fill="white"/>
<path d="M192.758 208.918L194.059 213.241L194.242 213.182L192.947 208.866L192.758 208.918Z" fill="white"/>
<path d="M193 227.263L192.882 227.106L189.279 229.82L189.396 229.977L193 227.263Z" fill="white"/>
<path d="M190.619 203.706L191.973 201.567C191.927 201.522 191.888 201.469 191.842 201.417L190.456 203.601L190.619 203.706Z" fill="white"/>
<path d="M186.662 211.848L186.819 211.966L189.56 208.382L189.409 208.264L186.662 211.848Z" fill="white"/>
<path d="M189.122 217.728L193.274 219.487L193.353 219.31L189.2 217.551L189.122 217.728Z" fill="white"/>
<path d="M193.994 208.545L195.295 212.868L195.478 212.81L194.184 208.493L193.994 208.545Z" fill="white"/>
<path d="M193.719 237.426L195.962 233.509L195.792 233.417L193.556 237.328L193.719 237.426Z" fill="white"/>
<path d="M188.702 218.754L188.628 218.928L192.782 220.691L192.856 220.516L188.702 218.754Z" fill="white"/>
<path d="M193.985 240.603L189.848 242.407L189.927 242.587L194.063 240.783L193.985 240.603Z" fill="white"/>
<path d="M204.242 280.963L204.17 281.139L206.256 282.029H206.766L204.242 280.963Z" fill="white"/>
<path d="M205.145 266.935L203.876 263.423L203.614 262.697L203.431 262.762L203.673 263.423L204.961 267L205.145 266.935Z" fill="white"/>
<path d="M200.802 270.44L203.66 273.932L203.804 273.808L200.952 270.316L200.802 270.44Z" fill="white"/>
<path d="M203.928 267.373L202.509 263.423L202.398 263.135L202.221 263.194L202.3 263.423L203.752 267.438L203.928 267.373Z" fill="white"/>
<path d="M205.197 257.164L200.73 257.792L200.756 257.981L205.223 257.353L205.197 257.164Z" fill="white"/>
<path d="M218.172 276.444L219.382 275.397L219.343 275.182L218.035 276.3L218.172 276.444Z" fill="white"/>
<path d="M185.642 211.063L185.793 211.181L188.54 207.597L188.383 207.479L185.642 211.063Z" fill="white"/>
<path d="M180.494 234.781L180.31 234.848L181.842 239.092L182.026 239.026L180.494 234.781Z" fill="white"/>
<path d="M217.322 275.469L219.049 273.978C219.027 273.909 219.01 273.839 218.996 273.769L217.198 275.325L217.322 275.469Z" fill="white"/>
<path d="M204.804 272.991L201.946 269.505L201.796 269.623L204.654 273.115L204.804 272.991Z" fill="white"/>
<path d="M181.378 223.184L181.116 227.689L181.312 227.701L181.574 223.196L181.378 223.184Z" fill="white"/>
<path d="M201.868 242.082L200.573 237.766L200.383 237.818L201.685 242.141L201.868 242.082Z" fill="white"/>
<path d="M198.136 224.987L197.958 225.052L199.489 229.296L199.668 229.232L198.136 224.987Z" fill="white"/>
<path d="M197.48 217.028L196.858 219.48L197.048 219.526L197.682 217.028L198.16 215.151L197.97 215.105L197.48 217.028Z" fill="white"/>
<path d="M196.152 217.028L195.609 219.16L195.799 219.206L196.348 217.028L196.911 214.837L196.721 214.791L196.152 217.028Z" fill="white"/>
<path d="M199.147 238.191L200.449 242.508L200.632 242.455L199.337 238.132L199.147 238.191Z" fill="white"/>
<path d="M196.913 225.444L196.735 225.508L198.267 229.753L198.446 229.688L196.913 225.444Z" fill="white"/>
<path d="M181.715 234.331L181.53 234.398L183.062 238.642L183.246 238.576L181.715 234.331Z" fill="white"/>
<path d="M191.711 204.36L192.81 202.627L192.692 202.444L191.548 204.262L191.711 204.36Z" fill="white"/>
<path d="M196.858 247.694L201.011 249.453L201.083 249.277L196.93 247.517L196.858 247.694Z" fill="white"/>
<path d="M185.446 201.051L185.276 200.953L183.033 204.864L183.203 204.962L185.446 201.051Z" fill="white"/>
<path d="M216.014 264.07L215.929 263.828L214.458 266.405L214.621 266.496L216.014 264.07Z" fill="white"/>
<path d="M211.796 268.19L211.606 268.171L211.096 272.651L211.292 272.67L211.796 268.19Z" fill="white"/>
<path d="M209.325 255.812L209.251 255.987L213.406 257.749L213.48 257.574L209.325 255.812Z" fill="white"/>
<path d="M214.883 263.423L215.452 262.435L215.373 262.187L214.66 263.423L213.32 265.764L213.49 265.855L214.883 263.423Z" fill="white"/>
<path d="M212.155 275.77L212.005 275.646L209.167 279.151L209.317 279.276L212.155 275.77Z" fill="white"/>
<path d="M213.274 256.072L209.821 254.607L209.749 254.783L213.359 256.314L213.274 256.072Z" fill="white"/>
<path d="M211.148 274.959L210.998 274.835L208.166 278.34L208.316 278.465L211.148 274.959Z" fill="white"/>
<path d="M206.479 248.42L206.289 248.374L205.282 252.769L205.472 252.815L206.479 248.42Z" fill="white"/>
<path d="M209.134 265.234L209.284 265.11L207.904 263.423L206.426 261.618L206.276 261.742L207.656 263.423L209.134 265.234Z" fill="white"/>
<path d="M184.151 205.504L184.321 205.603L186.564 201.685L186.394 201.594L184.151 205.504Z" fill="white"/>
<path d="M196.912 271.835L196.734 271.9L198.266 276.144L198.444 276.08L196.912 271.835Z" fill="white"/>
<path d="M213.987 279.923L213.797 279.871L213.45 281.231L213.666 281.172L213.987 279.923Z" fill="white"/>
<path d="M198.14 271.381L197.962 271.446L199.494 275.691L199.672 275.626L198.14 271.381Z" fill="white"/>
<path d="M204.164 234.745L205.89 235.477C205.89 235.392 205.825 235.307 205.799 235.229L204.235 234.575L204.164 234.745Z" fill="white"/>
<path d="M215.236 280.224L215.046 280.178L214.889 280.786L215.112 280.708L215.236 280.224Z" fill="white"/>
<path d="M192.849 266.895L189.422 265.444L189.566 265.712L192.771 267.072L192.849 266.895Z" fill="white"/>
<path d="M181.136 208.127L183.366 210.449L183.51 210.318L181.149 207.865L181.136 208.127Z" fill="white"/>
<path d="M200.802 224.045L202.332 225.909L202.117 225.347L200.972 223.921L200.802 224.045Z" fill="white"/>
<path d="M182.438 211.345L182.575 211.207L181.071 209.638L181.058 209.906L182.438 211.345Z" fill="white"/>
<path d="M207.257 241.461L208.558 245.784L208.742 245.725L207.447 241.409L207.257 241.461Z" fill="white"/>
<path d="M193.353 265.712L189.2 263.946L189.122 264.122L193.274 265.888L193.353 265.712Z" fill="white"/>
<path d="M188.54 253.999L188.383 253.881L185.642 257.458L185.793 257.576L188.54 253.999Z" fill="white"/>
<path d="M195.478 259.211L194.184 254.888L193.994 254.947L195.295 259.263L195.478 259.211Z" fill="white"/>
<path d="M194.242 259.584L192.947 255.261L192.758 255.32L194.059 259.636L194.242 259.584Z" fill="white"/>
<path d="M189.56 254.777L189.409 254.666L186.662 258.243L186.819 258.361L189.56 254.777Z" fill="white"/>
<path d="M182.967 219.134L183.157 219.186L183.765 217.028L184.38 214.85L184.197 214.791L183.563 217.028L182.967 219.134Z" fill="white"/>
<path d="M182.222 217.028L181.725 218.787L181.914 218.839L182.425 217.028L183.137 214.497L182.954 214.445L182.222 217.028Z" fill="white"/>
<path d="M185.446 247.445L185.276 247.347L183.033 251.265L183.203 251.356L185.446 247.445Z" fill="white"/>
<path d="M186.564 248.086L186.394 247.988L184.151 251.906L184.321 251.997L186.564 248.086Z" fill="white"/>
<path d="M196.917 234.058L194.674 237.969L194.838 238.067L197.081 234.149L196.917 234.058Z" fill="white"/>
<path d="M205.033 248.086L204.026 252.481L204.216 252.527L205.223 248.132L205.033 248.086Z" fill="white"/>
<path d="M206.407 236.883L203.732 235.752L203.66 235.929L206.498 237.132C206.466 237.06 206.439 236.968 206.407 236.883Z" fill="white"/>
<path d="M205.046 256.078L205.02 255.889L200.553 256.517L200.58 256.706L205.046 256.078Z" fill="white"/>
<path d="M207.427 260.8L207.277 260.924L209.324 263.423L210.135 264.417L210.285 264.292L209.572 263.423L207.427 260.8Z" fill="white"/>
<path d="M197.682 263.423L198.16 261.552L197.97 261.506L197.48 263.423L196.858 265.875L197.048 265.921L197.682 263.423Z" fill="white"/>
<path d="M196.43 248.723L196.356 248.898L200.51 250.66L200.585 250.486L196.43 248.723Z" fill="white"/>
<path d="M196.348 263.423L196.911 261.232L196.721 261.186L196.152 263.423L195.609 265.555L195.799 265.607L196.348 263.423Z" fill="white"/>
<path d="M210.01 272.526L210.514 268.046L210.324 268.027L209.814 272.507L210.01 272.526Z" fill="white"/>
<path d="M181.607 197.905C181.607 197.905 189.828 196.832 193.379 203.627C196.93 210.422 219.121 270.479 219.48 276.221C219.84 281.963 204.818 283.369 199.814 280.871C194.811 278.373 180.848 248.694 179.436 244.757" stroke="#263238" stroke-width="0.985332"/>
<path d="M131.91 279.779C131.91 279.779 115.108 277.634 112.244 277.987C109.379 278.34 96.5152 286.927 96.5152 286.927H132.956L131.91 279.779Z" fill="#CFCFCF" stroke="#263238" stroke-width="0.985332" stroke-linecap="round" stroke-linejoin="round"/>
<path d="M201.266 268.334L131.942 279.779L132.956 286.927H218.434C219.099 283.389 219.457 279.801 219.506 276.202C219.506 270.839 216.289 264.763 216.289 264.763" fill="#CB202D"/>
<path d="M207.008 280.139L208.31 284.455L208.493 284.403L207.198 280.08L207.008 280.139Z" fill="white"/>
<path d="M211.756 267.922L208.918 271.428L209.069 271.552L211.907 268.046L211.756 267.922Z" fill="white"/>
<path d="M207.917 270.617L208.068 270.741L210.9 267.235L210.749 267.111L207.917 270.617Z" fill="white"/>
<path d="M198.899 276.862L200.2 281.185L200.383 281.126L199.089 276.81L198.899 276.862Z" fill="white"/>
<path d="M209.729 284.03L208.428 279.707L208.245 279.766L209.546 284.083L209.729 284.03Z" fill="white"/>
<path d="M201.619 280.76L200.325 276.437L200.135 276.496L201.436 280.812L201.619 280.76Z" fill="white"/>
<path d="M213.553 272.15L212.442 276.523L212.632 276.572L213.743 272.198L213.553 272.15Z" fill="white"/>
<path d="M212.757 286.927H212.96L213.908 283.579L213.718 283.527L212.757 286.927Z" fill="white"/>
<path d="M196.682 286.188L196.61 286.365L197.931 286.927H198.428L196.682 286.188Z" fill="white"/>
<path d="M214.785 272.436L213.673 276.809L213.864 276.858L214.975 272.484L214.785 272.436Z" fill="white"/>
<path d="M181.46 273.002L181.276 273.068L182.807 277.313L182.992 277.247L181.46 273.002Z" fill="white"/>
<path d="M203.411 274.606L207.558 276.365L207.636 276.189L203.483 274.423L203.411 274.606Z" fill="white"/>
<path d="M204.785 286.764L204.746 286.927H204.941L204.974 286.803L204.785 286.764Z" fill="white"/>
<path d="M203.988 273.254L203.914 273.428L208.068 275.191L208.142 275.016L203.988 273.254Z" fill="white"/>
<path d="M185.086 272.382L187.944 275.875L188.095 275.75L185.237 272.258L185.086 272.382Z" fill="white"/>
<path d="M189.089 274.933L186.231 271.447L186.087 271.565L188.938 275.057L189.089 274.933Z" fill="white"/>
<path d="M217.08 267.746L217.479 267.399L217.4 267.209L216.956 267.602L217.08 267.746Z" fill="white"/>
<path d="M184.961 278.245L183.729 282.586L183.918 282.64L185.149 278.298L184.961 278.245Z" fill="white"/>
<path d="M217.911 277.032L219.487 277.392C219.487 277.327 219.487 277.261 219.487 277.196L217.943 276.843L217.911 277.032Z" fill="white"/>
<path d="M193.713 285.534L192.83 286.927H193.059L193.876 285.633L193.713 285.534Z" fill="white"/>
<path d="M219.441 278.504L217.669 278.105L217.623 278.288L219.428 278.7C219.434 278.635 219.441 278.569 219.441 278.504Z" fill="white"/>
<path d="M217.923 268.719L217.969 268.68L217.897 268.485L217.799 268.576L217.923 268.719Z" fill="white"/>
<path d="M193.734 279.269L189.597 281.073L189.676 281.253L193.812 279.449L193.734 279.269Z" fill="white"/>
<path d="M192.784 284.946L192.62 284.841L191.299 286.927H191.528L192.784 284.946Z" fill="white"/>
<path d="M186.215 278.63L184.983 282.972L185.172 283.025L186.404 278.684L186.215 278.63Z" fill="white"/>
<path d="M194.263 280.435L190.127 282.239L190.205 282.419L194.342 280.615L194.263 280.435Z" fill="white"/>
<path d="M196.832 272.827L196.669 272.729L194.425 276.646L194.589 276.745L196.832 272.827Z" fill="white"/>
<path d="M193.307 276.006L193.471 276.097L195.714 272.186L195.544 272.088L193.307 276.006Z" fill="white"/>
<path d="M147.341 279.273L143.205 281.077L143.283 281.257L147.42 279.453L147.341 279.273Z" fill="white"/>
<path d="M138.803 286.116L138.633 286.025L138.116 286.927H138.338L138.803 286.116Z" fill="white"/>
<path d="M137.521 282.644L138.646 278.667L138.437 278.7L137.338 282.591L137.521 282.644Z" fill="white"/>
<path d="M139.92 286.757L139.751 286.666L139.601 286.927H139.822L139.92 286.757Z" fill="white"/>
<path d="M161.667 275.175L161.745 274.999L161.497 274.9L161.143 274.953L161.667 275.175Z" fill="white"/>
<path d="M166.362 286.927H166.565L167.507 283.579L167.324 283.527L166.362 286.927Z" fill="white"/>
<path d="M168.056 273.815L167.291 276.836L167.474 276.888L168.266 273.782L168.056 273.815Z" fill="white"/>
<path d="M146.389 284.946L146.226 284.841L144.905 286.927H145.133L146.389 284.946Z" fill="white"/>
<path d="M147.481 285.633L147.318 285.534L146.428 286.927H146.657L147.481 285.633Z" fill="white"/>
<path d="M186.145 286.666L185.995 286.927H186.217L186.315 286.757L186.145 286.666Z" fill="white"/>
<path d="M214.961 283.88L214.098 286.927H214.301L215.144 283.932L214.961 283.88Z" fill="white"/>
<path d="M180.246 273.449L180.061 273.516L181.594 277.76L181.778 277.694L180.246 273.449Z" fill="white"/>
<path d="M168.56 283.88L167.703 286.927H167.899L168.749 283.932L168.56 283.88Z" fill="white"/>
<path d="M150.287 286.188L150.209 286.365L151.536 286.927H152.027L150.287 286.188Z" fill="white"/>
<path d="M185.198 286.116L185.028 286.025L184.511 286.927H184.733L185.198 286.116Z" fill="white"/>
<path d="M138.82 278.329L137.601 282.661L137.79 282.714L139.008 278.382L138.82 278.329Z" fill="white"/>
<path d="M176.022 281.611L175.839 281.539L174.191 285.737L174.367 285.809L176.022 281.611Z" fill="white"/>
<path d="M147.856 280.452L143.72 282.256L143.798 282.436L147.935 280.632L147.856 280.452Z" fill="white"/>
<path d="M177.219 282.075L177.036 282.009L175.388 286.208L175.571 286.273L177.219 282.075Z" fill="white"/>
<path d="M171.228 278.295L173.229 278.746L175.623 279.282L175.669 279.093L173.229 278.543L171.267 278.105L171.228 278.295Z" fill="white"/>
<path d="M175.911 278.027L175.957 277.837L173.229 277.222L171.555 276.843L171.509 277.032L173.229 277.418L175.911 278.027Z" fill="white"/>
<path d="M166.232 276.568L166.879 274.011L166.67 274.044L166.042 276.522L166.232 276.568Z" fill="white"/>
<path d="M161.242 276.189L159.123 275.286L158.769 275.345L161.163 276.365L161.242 276.189Z" fill="white"/>
<path d="M155.035 280.812L155.225 280.76L153.923 276.437L153.74 276.496L155.035 280.812Z" fill="white"/>
<path d="M153.989 281.126L152.687 276.81L152.504 276.862L153.806 281.185L153.989 281.126Z" fill="white"/>
<path d="M160.614 280.139L161.915 284.455L162.098 284.403L160.797 280.08L160.614 280.139Z" fill="white"/>
<path d="M158.383 286.764L158.344 286.927H158.546L158.572 286.803L158.383 286.764Z" fill="white"/>
<path d="M163.334 284.03L162.033 279.707L161.85 279.766L163.145 284.083L163.334 284.03Z" fill="white"/>
<path d="M201.266 268.334L131.942 279.779L132.956 286.927H218.434C219.099 283.389 219.457 279.801 219.506 276.202C219.506 270.839 216.289 264.763 216.289 264.763" stroke="#263238" stroke-width="0.985332"/>
<path d="M216.511 285.77H130.34L127.515 238.368C127.438 237.906 127.462 237.433 127.587 236.982C127.711 236.531 127.932 236.112 128.234 235.755C128.537 235.398 128.913 235.11 129.338 234.913C129.763 234.716 130.225 234.614 130.693 234.614H216.145C216.613 234.613 217.076 234.715 217.501 234.911C217.926 235.108 218.304 235.395 218.606 235.752C218.909 236.11 219.13 236.529 219.254 236.981C219.378 237.433 219.401 237.906 219.323 238.368L216.511 285.77Z" fill="#263238" stroke="#263238" stroke-width="0.985332" stroke-linecap="round" stroke-linejoin="round"/>
<path d="M134.571 235.752H215.523C215.98 235.747 216.433 235.842 216.85 236.03C217.266 236.219 217.636 236.496 217.935 236.842C218.233 237.188 218.452 237.596 218.577 238.035C218.701 238.475 218.728 238.937 218.656 239.388" stroke="white" stroke-width="0.985332" stroke-linecap="round" stroke-linejoin="round"/>
<path d="M128.156 238.662C128.217 237.867 128.578 237.124 129.165 236.584C129.753 236.044 130.523 235.746 131.321 235.752" stroke="white" stroke-width="0.985332" stroke-linecap="round" stroke-linejoin="round"/>
<path d="M216.871 281.153H129.967V285.77H216.871V281.153Z" fill="white" stroke="#263238" stroke-width="0.985332" stroke-linecap="round" stroke-linejoin="round"/>
<path d="M179.272 260.382C179.272 262.422 176.512 264.077 173.112 264.077C169.711 264.077 166.957 262.422 166.957 260.382C166.957 258.341 169.717 256.687 173.112 256.687C176.506 256.687 179.272 258.341 179.272 260.382Z" fill="white" stroke="#263238" stroke-width="0.985332" stroke-linecap="round" stroke-linejoin="round"/>
<path d="M44.6267 281.009C42.8003 280.918 41.0065 280.49 39.3359 279.747C38.9103 279.542 38.5804 279.181 38.4148 278.739C38.2493 278.296 38.261 277.807 38.4475 277.373C38.6341 276.94 38.981 276.595 39.4158 276.41C39.8507 276.226 40.3399 276.217 40.7812 276.385C42.4685 277.105 44.6333 277.549 45.2153 277.301C46.2748 276.104 47.9164 268.877 45.7974 265.431C45.6861 265.188 45.5182 264.974 45.3077 264.81C45.0972 264.645 44.8503 264.532 44.5875 264.482C43.3841 264.319 41.6053 265.555 40.9774 266.144C40.6194 266.455 40.1546 266.615 39.6808 266.591C39.2071 266.566 38.7613 266.358 38.4375 266.012C38.1137 265.665 37.9371 265.206 37.9448 264.732C37.9526 264.257 38.1441 263.805 38.4791 263.469C38.8127 263.155 41.8472 260.428 45.0715 260.853C45.8718 260.972 46.6341 261.274 47.2996 261.734C47.9651 262.194 48.5162 262.801 48.9104 263.508C52.03 268.583 49.898 278.262 47.4978 280.159C46.6645 280.759 45.6524 281.059 44.6267 281.009Z" fill="#263238" stroke="#263238" stroke-width="0.985332" stroke-linecap="round" stroke-linejoin="round"/>
<path d="M41.3895 259.362H21.2136V286.143H41.3895V259.362Z" fill="#263238" stroke="#263238" stroke-width="0.985332" stroke-linecap="round" stroke-linejoin="round"/>
<path d="M23.0448 257.897C23.0448 257.897 23.0448 255.666 27.1323 253.436C31.2198 251.206 33.4499 247.864 31.2198 241.547C28.9896 235.229 29.3624 230.769 33.8358 227.047" stroke="#263238" stroke-width="0.985332" stroke-linecap="round" stroke-linejoin="round"/>
<path d="M23.9734 234.124C24.1827 231.41 25.3926 229.114 27.8974 227.047" stroke="#263238" stroke-width="0.985332" stroke-linecap="round" stroke-linejoin="round"/>
<path d="M25.2749 241.547C24.8666 240.42 24.5366 239.266 24.2874 238.094" stroke="#263238" stroke-width="0.985332" stroke-linecap="round" stroke-linejoin="round"/>
<path d="M39.6433 243.724C39.4866 242.985 39.279 242.257 39.022 241.547L38.6819 240.54" stroke="#263238" stroke-width="0.985332" stroke-linecap="round" stroke-linejoin="round"/>
<path d="M30.847 257.897C30.847 257.897 30.847 255.666 34.9345 253.436C37.6159 251.971 39.5125 250.029 39.846 247.086" stroke="#263238" stroke-width="0.985332" stroke-linecap="round" stroke-linejoin="round"/>
<path d="M306.94 285.685H2.54187V292.421H306.94V285.685Z" fill="#263238"/>
<path d="M150.469 56.95H148.237L147.775 58H147.157L149.059 53.8H149.653L151.561 58H150.931L150.469 56.95ZM150.259 56.47L149.353 54.412L148.447 56.47H150.259ZM153.84 58.048C153.28 58.048 152.844 57.888 152.532 57.568C152.22 57.248 152.064 56.788 152.064 56.188V53.8H152.664V56.164C152.664 57.064 153.058 57.514 153.846 57.514C154.23 57.514 154.524 57.404 154.728 57.184C154.932 56.96 155.034 56.62 155.034 56.164V53.8H155.616V56.188C155.616 56.792 155.46 57.254 155.148 57.574C154.836 57.89 154.4 58.048 153.84 58.048ZM157.604 54.322H156.164V53.8H159.638V54.322H158.198V58H157.604V54.322ZM163.903 53.8V58H163.303V56.128H160.891V58H160.291V53.8H160.891V55.606H163.303V53.8H163.903ZM168.208 57.478V58H165.16V53.8H168.124V54.322H165.76V55.612H167.866V56.122H165.76V57.478H168.208ZM172.792 53.8V58H172.3L169.78 54.868V58H169.18V53.8H169.672L172.192 56.932V53.8H172.792ZM174.883 54.322H173.443V53.8H176.917V54.322H175.477V58H174.883V54.322ZM177.57 53.8H178.17V58H177.57V53.8ZM181.306 58.048C180.886 58.048 180.506 57.956 180.166 57.772C179.83 57.584 179.566 57.328 179.374 57.004C179.182 56.676 179.086 56.308 179.086 55.9C179.086 55.492 179.182 55.126 179.374 54.802C179.566 54.474 179.832 54.218 180.172 54.034C180.512 53.846 180.892 53.752 181.312 53.752C181.64 53.752 181.94 53.808 182.212 53.92C182.484 54.028 182.716 54.19 182.908 54.406L182.518 54.784C182.202 54.452 181.808 54.286 181.336 54.286C181.024 54.286 180.742 54.356 180.49 54.496C180.238 54.636 180.04 54.83 179.896 55.078C179.756 55.322 179.686 55.596 179.686 55.9C179.686 56.204 179.756 56.48 179.896 56.728C180.04 56.972 180.238 57.164 180.49 57.304C180.742 57.444 181.024 57.514 181.336 57.514C181.804 57.514 182.198 57.346 182.518 57.01L182.908 57.388C182.716 57.604 182.482 57.768 182.206 57.88C181.934 57.992 181.634 58.048 181.306 58.048ZM186.34 56.95H184.108L183.646 58H183.028L184.93 53.8H185.524L187.432 58H186.802L186.34 56.95ZM186.13 56.47L185.224 54.412L184.318 56.47H186.13ZM188.682 54.322H187.242V53.8H190.716V54.322H189.276V58H188.682V54.322ZM194.417 57.478V58H191.369V53.8H194.333V54.322H191.969V55.612H194.075V56.122H191.969V57.478H194.417ZM198.608 56.548V58H198.014V56.536L196.346 53.8H196.988L198.332 56.014L199.682 53.8H200.276L198.608 56.548ZM202.599 58.048C202.175 58.048 201.793 57.956 201.453 57.772C201.113 57.584 200.845 57.326 200.649 56.998C200.457 56.67 200.361 56.304 200.361 55.9C200.361 55.496 200.457 55.13 200.649 54.802C200.845 54.474 201.113 54.218 201.453 54.034C201.793 53.846 202.175 53.752 202.599 53.752C203.019 53.752 203.399 53.846 203.739 54.034C204.079 54.218 204.345 54.474 204.537 54.802C204.729 55.126 204.825 55.492 204.825 55.9C204.825 56.308 204.729 56.676 204.537 57.004C204.345 57.328 204.079 57.584 203.739 57.772C203.399 57.956 203.019 58.048 202.599 58.048ZM202.599 57.514C202.907 57.514 203.183 57.444 203.427 57.304C203.675 57.164 203.869 56.972 204.009 56.728C204.153 56.48 204.225 56.204 204.225 55.9C204.225 55.596 204.153 55.322 204.009 55.078C203.869 54.83 203.675 54.636 203.427 54.496C203.183 54.356 202.907 54.286 202.599 54.286C202.291 54.286 202.011 54.356 201.759 54.496C201.511 54.636 201.315 54.83 201.171 55.078C201.031 55.322 200.961 55.596 200.961 55.9C200.961 56.204 201.031 56.48 201.171 56.728C201.315 56.972 201.511 57.164 201.759 57.304C202.011 57.444 202.291 57.514 202.599 57.514ZM207.482 58.048C206.922 58.048 206.486 57.888 206.174 57.568C205.862 57.248 205.706 56.788 205.706 56.188V53.8H206.306V56.164C206.306 57.064 206.7 57.514 207.488 57.514C207.872 57.514 208.166 57.404 208.37 57.184C208.574 56.96 208.676 56.62 208.676 56.164V53.8H209.258V56.188C209.258 56.792 209.102 57.254 208.79 57.574C208.478 57.89 208.042 58.048 207.482 58.048ZM213.296 58L212.39 56.71C212.278 56.718 212.19 56.722 212.126 56.722H211.088V58H210.488V53.8H212.126C212.67 53.8 213.098 53.93 213.41 54.19C213.722 54.45 213.878 54.808 213.878 55.264C213.878 55.588 213.798 55.864 213.638 56.092C213.478 56.32 213.25 56.486 212.954 56.59L213.95 58H213.296ZM212.108 56.212C212.488 56.212 212.778 56.13 212.978 55.966C213.178 55.802 213.278 55.568 213.278 55.264C213.278 54.96 213.178 54.728 212.978 54.568C212.778 54.404 212.488 54.322 212.108 54.322H211.088V56.212H212.108ZM219.135 56.95H216.903L216.441 58H215.823L217.725 53.8H218.319L220.227 58H219.597L219.135 56.95ZM218.925 56.47L218.019 54.412L217.113 56.47H218.925ZM222.673 58.048C222.253 58.048 221.873 57.956 221.533 57.772C221.197 57.584 220.933 57.328 220.741 57.004C220.549 56.676 220.453 56.308 220.453 55.9C220.453 55.492 220.549 55.126 220.741 54.802C220.933 54.474 221.199 54.218 221.539 54.034C221.879 53.846 222.259 53.752 222.679 53.752C223.007 53.752 223.307 53.808 223.579 53.92C223.851 54.028 224.083 54.19 224.275 54.406L223.885 54.784C223.569 54.452 223.175 54.286 222.703 54.286C222.391 54.286 222.109 54.356 221.857 54.496C221.605 54.636 221.407 54.83 221.263 55.078C221.123 55.322 221.053 55.596 221.053 55.9C221.053 56.204 221.123 56.48 221.263 56.728C221.407 56.972 221.605 57.164 221.857 57.304C222.109 57.444 222.391 57.514 222.703 57.514C223.171 57.514 223.565 57.346 223.885 57.01L224.275 57.388C224.083 57.604 223.849 57.768 223.573 57.88C223.301 57.992 223.001 58.048 222.673 58.048ZM226.921 58.048C226.501 58.048 226.121 57.956 225.781 57.772C225.445 57.584 225.181 57.328 224.989 57.004C224.797 56.676 224.701 56.308 224.701 55.9C224.701 55.492 224.797 55.126 224.989 54.802C225.181 54.474 225.447 54.218 225.787 54.034C226.127 53.846 226.507 53.752 226.927 53.752C227.255 53.752 227.555 53.808 227.827 53.92C228.099 54.028 228.331 54.19 228.523 54.406L228.133 54.784C227.817 54.452 227.423 54.286 226.951 54.286C226.639 54.286 226.357 54.356 226.105 54.496C225.853 54.636 225.655 54.83 225.511 55.078C225.371 55.322 225.301 55.596 225.301 55.9C225.301 56.204 225.371 56.48 225.511 56.728C225.655 56.972 225.853 57.164 226.105 57.304C226.357 57.444 226.639 57.514 226.951 57.514C227.419 57.514 227.813 57.346 228.133 57.01L228.523 57.388C228.331 57.604 228.097 57.768 227.821 57.88C227.549 57.992 227.249 58.048 226.921 58.048ZM231.187 58.048C230.763 58.048 230.381 57.956 230.041 57.772C229.701 57.584 229.433 57.326 229.237 56.998C229.045 56.67 228.949 56.304 228.949 55.9C228.949 55.496 229.045 55.13 229.237 54.802C229.433 54.474 229.701 54.218 230.041 54.034C230.381 53.846 230.763 53.752 231.187 53.752C231.607 53.752 231.987 53.846 232.327 54.034C232.667 54.218 232.933 54.474 233.125 54.802C233.317 55.126 233.413 55.492 233.413 55.9C233.413 56.308 233.317 56.676 233.125 57.004C232.933 57.328 232.667 57.584 232.327 57.772C231.987 57.956 231.607 58.048 231.187 58.048ZM231.187 57.514C231.495 57.514 231.771 57.444 232.015 57.304C232.263 57.164 232.457 56.972 232.597 56.728C232.741 56.48 232.813 56.204 232.813 55.9C232.813 55.596 232.741 55.322 232.597 55.078C232.457 54.83 232.263 54.636 232.015 54.496C231.771 54.356 231.495 54.286 231.187 54.286C230.879 54.286 230.599 54.356 230.347 54.496C230.099 54.636 229.903 54.83 229.759 55.078C229.619 55.322 229.549 55.596 229.549 55.9C229.549 56.204 229.619 56.48 229.759 56.728C229.903 56.972 230.099 57.164 230.347 57.304C230.599 57.444 230.879 57.514 231.187 57.514ZM236.07 58.048C235.51 58.048 235.074 57.888 234.762 57.568C234.45 57.248 234.294 56.788 234.294 56.188V53.8H234.894V56.164C234.894 57.064 235.288 57.514 236.076 57.514C236.46 57.514 236.754 57.404 236.958 57.184C237.162 56.96 237.264 56.62 237.264 56.164V53.8H237.846V56.188C237.846 56.792 237.69 57.254 237.378 57.574C237.066 57.89 236.63 58.048 236.07 58.048ZM242.688 53.8V58H242.196L239.676 54.868V58H239.076V53.8H239.568L242.088 56.932V53.8H242.688ZM244.779 54.322H243.339V53.8H246.813V54.322H245.373V58H244.779V54.322Z" fill="black"/>
<path d="M180.846 76.478V77H177.798V72.8H180.762V73.322H178.398V74.612H180.504V75.122H178.398V76.478H180.846ZM185.43 72.8V77H184.938L182.418 73.868V77H181.818V72.8H182.31L184.83 75.932V72.8H185.43ZM187.521 73.322H186.081V72.8H189.555V73.322H188.115V77H187.521V73.322ZM193.256 76.478V77H190.208V72.8H193.172V73.322H190.808V74.612H192.914V75.122H190.808V76.478H193.256ZM197.036 77L196.13 75.71C196.018 75.718 195.93 75.722 195.866 75.722H194.828V77H194.228V72.8H195.866C196.41 72.8 196.838 72.93 197.15 73.19C197.462 73.45 197.618 73.808 197.618 74.264C197.618 74.588 197.538 74.864 197.378 75.092C197.218 75.32 196.99 75.486 196.694 75.59L197.69 77H197.036ZM195.848 75.212C196.228 75.212 196.518 75.13 196.718 74.966C196.918 74.802 197.018 74.568 197.018 74.264C197.018 73.96 196.918 73.728 196.718 73.568C196.518 73.404 196.228 73.322 195.848 73.322H194.828V75.212H195.848ZM202.076 77.048C201.656 77.048 201.276 76.956 200.936 76.772C200.6 76.584 200.336 76.328 200.144 76.004C199.952 75.676 199.856 75.308 199.856 74.9C199.856 74.492 199.952 74.126 200.144 73.802C200.336 73.474 200.602 73.218 200.942 73.034C201.282 72.846 201.662 72.752 202.082 72.752C202.41 72.752 202.71 72.808 202.982 72.92C203.254 73.028 203.486 73.19 203.678 73.406L203.288 73.784C202.972 73.452 202.578 73.286 202.106 73.286C201.794 73.286 201.512 73.356 201.26 73.496C201.008 73.636 200.81 73.83 200.666 74.078C200.526 74.322 200.456 74.596 200.456 74.9C200.456 75.204 200.526 75.48 200.666 75.728C200.81 75.972 201.008 76.164 201.26 76.304C201.512 76.444 201.794 76.514 202.106 76.514C202.574 76.514 202.968 76.346 203.288 76.01L203.678 76.388C203.486 76.604 203.252 76.768 202.976 76.88C202.704 76.992 202.404 77.048 202.076 77.048ZM206.342 77.048C205.918 77.048 205.536 76.956 205.196 76.772C204.856 76.584 204.588 76.326 204.392 75.998C204.2 75.67 204.104 75.304 204.104 74.9C204.104 74.496 204.2 74.13 204.392 73.802C204.588 73.474 204.856 73.218 205.196 73.034C205.536 72.846 205.918 72.752 206.342 72.752C206.762 72.752 207.142 72.846 207.482 73.034C207.822 73.218 208.088 73.474 208.28 73.802C208.472 74.126 208.568 74.492 208.568 74.9C208.568 75.308 208.472 75.676 208.28 76.004C208.088 76.328 207.822 76.584 207.482 76.772C207.142 76.956 206.762 77.048 206.342 77.048ZM206.342 76.514C206.65 76.514 206.926 76.444 207.17 76.304C207.418 76.164 207.612 75.972 207.752 75.728C207.896 75.48 207.968 75.204 207.968 74.9C207.968 74.596 207.896 74.322 207.752 74.078C207.612 73.83 207.418 73.636 207.17 73.496C206.926 73.356 206.65 73.286 206.342 73.286C206.034 73.286 205.754 73.356 205.502 73.496C205.254 73.636 205.058 73.83 204.914 74.078C204.774 74.322 204.704 74.596 204.704 74.9C204.704 75.204 204.774 75.48 204.914 75.728C205.058 75.972 205.254 76.164 205.502 76.304C205.754 76.444 206.034 76.514 206.342 76.514ZM209.485 72.8H211.255C211.699 72.8 212.093 72.888 212.437 73.064C212.781 73.24 213.047 73.488 213.235 73.808C213.427 74.124 213.523 74.488 213.523 74.9C213.523 75.312 213.427 75.678 213.235 75.998C213.047 76.314 212.781 76.56 212.437 76.736C212.093 76.912 211.699 77 211.255 77H209.485V72.8ZM211.219 76.478C211.559 76.478 211.857 76.412 212.113 76.28C212.373 76.148 212.573 75.964 212.713 75.728C212.853 75.488 212.923 75.212 212.923 74.9C212.923 74.588 212.853 74.314 212.713 74.078C212.573 73.838 212.373 73.652 212.113 73.52C211.857 73.388 211.559 73.322 211.219 73.322H210.085V76.478H211.219ZM217.491 76.478V77H214.443V72.8H217.407V73.322H215.043V74.612H217.149V75.122H215.043V76.478H217.491Z" fill="black" fill-opacity="0.5"/>
<path d="M188.688 88.8H190.458C190.902 88.8 191.296 88.888 191.64 89.064C191.984 89.24 192.25 89.488 192.438 89.808C192.63 90.124 192.726 90.488 192.726 90.9C192.726 91.312 192.63 91.678 192.438 91.998C192.25 92.314 191.984 92.56 191.64 92.736C191.296 92.912 190.902 93 190.458 93H188.688V88.8ZM190.422 92.478C190.762 92.478 191.06 92.412 191.316 92.28C191.576 92.148 191.776 91.964 191.916 91.728C192.056 91.488 192.126 91.212 192.126 90.9C192.126 90.588 192.056 90.314 191.916 90.078C191.776 89.838 191.576 89.652 191.316 89.52C191.06 89.388 190.762 89.322 190.422 89.322H189.288V92.478H190.422ZM195.541 93.048C195.117 93.048 194.735 92.956 194.395 92.772C194.055 92.584 193.787 92.326 193.591 91.998C193.399 91.67 193.303 91.304 193.303 90.9C193.303 90.496 193.399 90.13 193.591 89.802C193.787 89.474 194.055 89.218 194.395 89.034C194.735 88.846 195.117 88.752 195.541 88.752C195.961 88.752 196.341 88.846 196.681 89.034C197.021 89.218 197.287 89.474 197.479 89.802C197.671 90.126 197.767 90.492 197.767 90.9C197.767 91.308 197.671 91.676 197.479 92.004C197.287 92.328 197.021 92.584 196.681 92.772C196.341 92.956 195.961 93.048 195.541 93.048ZM195.541 92.514C195.849 92.514 196.125 92.444 196.369 92.304C196.617 92.164 196.811 91.972 196.951 91.728C197.095 91.48 197.167 91.204 197.167 90.9C197.167 90.596 197.095 90.322 196.951 90.078C196.811 89.83 196.617 89.636 196.369 89.496C196.125 89.356 195.849 89.286 195.541 89.286C195.233 89.286 194.953 89.356 194.701 89.496C194.453 89.636 194.257 89.83 194.113 90.078C193.973 90.322 193.903 90.596 193.903 90.9C193.903 91.204 193.973 91.48 194.113 91.728C194.257 91.972 194.453 92.164 194.701 92.304C194.953 92.444 195.233 92.514 195.541 92.514ZM202.296 88.8V93H201.804L199.284 89.868V93H198.684V88.8H199.176L201.696 91.932V88.8H202.296ZM206.601 92.478V93H203.553V88.8H206.517V89.322H204.153V90.612H206.259V91.122H204.153V92.478H206.601Z" fill="white"/>
</svg>
