<svg width="50" height="50" viewBox="0 0 50 50" fill="none" xmlns="http://www.w3.org/2000/svg">
<circle cx="24.7664" cy="24.7664" r="24.7664" fill="#CB202D"/>
<path d="M19 33.144H31V29.9297C30.9987 28.7366 30.5558 27.5928 29.7684 26.7492C28.9811 25.9056 27.9135 25.431 26.8 25.4297H23.2C22.0865 25.431 21.0189 25.9056 20.2316 26.7492C19.4442 27.5928 19.0013 28.7366 19 29.9297V33.144Z" fill="white"/>
<path d="M20.7144 20.2857C20.7144 21.1333 20.9657 21.9619 21.4366 22.6667C21.9075 23.3715 22.5769 23.9208 23.36 24.2452C24.1431 24.5696 25.0048 24.6544 25.8362 24.4891C26.6675 24.3237 27.4312 23.9155 28.0305 23.3162C28.6299 22.7168 29.0381 21.9532 29.2034 21.1218C29.3688 20.2905 29.2839 19.4288 28.9596 18.6456C28.6352 17.8625 28.0859 17.1932 27.3811 16.7223C26.6763 16.2514 25.8477 16 25.0001 16C23.8634 16 22.7733 16.4515 21.9696 17.2553C21.1659 18.059 20.7144 19.1491 20.7144 20.2857Z" fill="white"/>
</svg>
