<svg width="17" height="13" viewBox="0 0 17 13" fill="none" xmlns="http://www.w3.org/2000/svg">
<path d="M8.5 1.73333C11.4286 1.73333 14.0405 3.57933 15.3155 6.5C14.0405 9.42067 11.4286 11.2667 8.5 11.2667C5.57136 11.2667 2.95955 9.42067 1.68455 6.5C2.95955 3.57933 5.57136 1.73333 8.5 1.73333ZM8.5 0C4.63636 0 1.33682 2.69533 0 6.5C1.33682 10.3047 4.63636 13 8.5 13C12.3636 13 15.6632 10.3047 17 6.5C15.6632 2.69533 12.3636 0 8.5 0ZM8.5 4.33333C9.56636 4.33333 10.4318 5.304 10.4318 6.5C10.4318 7.696 9.56636 8.66667 8.5 8.66667C7.43364 8.66667 6.56818 7.696 6.56818 6.5C6.56818 5.304 7.43364 4.33333 8.5 4.33333ZM8.5 2.6C6.58364 2.6 5.02273 4.35067 5.02273 6.5C5.02273 8.64933 6.58364 10.4 8.5 10.4C10.4164 10.4 11.9773 8.64933 11.9773 6.5C11.9773 4.35067 10.4164 2.6 8.5 2.6Z" fill="#CB202D"/>
</svg>
